<?xml version="1.0" encoding="iso-8859-1"?>
<!-- Generator: Adobe Illustrator 19.0.0, SVG Export Plug-In . SVG Version: 6.00 Build 0)  -->
<svg xmlns="http://www.w3.org/2000/svg" xmlns:xlink="http://www.w3.org/1999/xlink" version="1.1" id="Layer_1" x="0px" y="0px" viewBox="0 0 512 512" style="enable-background:new 0 0 512 512;" xml:space="preserve">
<path style="fill:#F3C74F;" d="M98.709,303.582c-4.568,0-9.181-0.127-13.758-0.418c-26.284-1.674-44.897-8.318-56.903-20.312  C17.37,272.185,12.66,257.678,14.79,242.004c2.851-20.992,15.822-41.294,36.525-57.164c17.269-13.237,39.128-22.746,59.976-26.088  c13.772-2.207,26.731,7.166,28.94,20.942c2.209,13.774-7.167,26.731-20.942,28.94c-25.32,4.059-58.038,29.52-52.113,38.26  c5.925,8.74,26.462,9.149,67.842,3.483c13.808-1.9,26.562,7.776,28.453,21.598c1.893,13.821-7.777,26.561-21.598,28.453  C130.588,301.974,114.945,303.582,98.709,303.582z"/>
<path style="opacity:0.2;enable-background:new    ;" d="M140.23,179.696c-1.445-9.014-7.493-16.141-15.359-19.375  c-5.689,16.756-9.834,33.579-12.215,49.812c2.245-0.636,4.465-1.151,6.631-1.497C133.063,206.426,142.439,193.47,140.23,179.696z"/>
<path style="opacity:0.2;enable-background:new    ;" d="M163.47,271.975c-1.892-13.823-14.645-23.498-28.453-21.598  c-13.104,1.795-24.111,2.977-33.233,3.481c-0.044,1.644-0.068,3.277-0.068,4.899c0,15.422,1.943,30.39,5.59,44.679  c13.071-0.427,25.291-1.737,34.565-3.007C155.694,298.536,165.364,285.797,163.47,271.975z"/>
<path style="fill:#F3C74F;" d="M352.392,512c-13.864,0-25.101-11.238-25.101-25.103v-95.054c0-13.864,11.238-25.103,25.101-25.103  c13.864,0,25.103,11.238,25.103,25.103v95.055C377.494,500.762,366.256,512,352.392,512z"/>
<path style="opacity:0.2;enable-background:new    ;" d="M352.392,366.741c-13.864,0-25.101,11.238-25.101,25.103v52.646  c17.725-2.83,34.591-8.219,50.204-15.783v-36.863C377.494,377.979,366.256,366.741,352.392,366.741z"/>
<path style="fill:#F3C74F;" d="M244.453,512c-13.864,0-25.102-11.238-25.102-25.103v-95.054c0-13.864,11.238-25.103,25.102-25.103  c13.864,0,25.103,11.238,25.103,25.103v95.055C269.555,500.762,258.317,512,244.453,512z"/>
<path style="opacity:0.2;enable-background:new    ;" d="M244.453,366.741c-13.864,0-25.102,11.238-25.102,25.103v36.863  c15.613,7.565,32.48,12.953,50.204,15.783v-52.646C269.555,377.979,258.317,366.741,244.453,366.741z"/>
<circle style="fill:#0081C6;" cx="437.475" cy="85.356" r="57.647"/>
<circle style="fill:#F3C74F;" cx="437.475" cy="85.356" r="26.917"/>
<circle style="fill:#0081C6;" cx="159.366" cy="85.356" r="57.647"/>
<circle style="fill:#F3C74F;" cx="159.366" cy="85.356" r="26.917"/>
<path style="opacity:0.2;enable-background:new    ;" d="M193.451,38.86c-27.107,24.499-50.098,58.224-66.428,94.22  c9.224,6.263,20.357,9.927,32.348,9.927c31.84,0,57.652-25.812,57.652-57.652C217.022,66.266,207.741,49.353,193.451,38.86z"/>
<path style="fill:#40BAB3;" d="M479.571,243.449C479.571,143.7,396.412,0,298.423,0S117.275,143.7,117.275,243.449  s81.103,180.613,181.148,180.613S479.571,343.2,479.571,243.449z"/>
<g>
	<path style="fill:#E6595A;" d="M207.877,213.653h-30.241c-4.55,0-8.237-3.687-8.237-8.237c0-4.55,3.687-8.237,8.237-8.237h30.241   c4.55,0,8.237,3.687,8.237,8.237C216.114,209.966,212.426,213.653,207.877,213.653z"/>
	<path style="fill:#E6595A;" d="M419.21,213.653h-30.241c-4.55,0-8.237-3.687-8.237-8.237c0-4.55,3.687-8.237,8.237-8.237h30.241   c4.55,0,8.237,3.687,8.237,8.237C427.447,209.966,423.76,213.653,419.21,213.653z"/>
</g>
<path style="fill:#FFFFFF;" d="M120.326,276.575c15.605,83.927,89.402,147.488,178.097,147.488s162.492-63.56,178.097-147.488  H120.326L120.326,276.575z"/>
<path style="fill:#0081C6;" d="M152.393,350.318c32.97,44.717,86.096,73.744,146.029,73.744c59.935,0,113.059-29.027,146.029-73.744  H152.393z"/>
<path style="opacity:0.2;enable-background:new    ;" d="M317.632,404.853c-100.046,0-181.148-80.863-181.148-180.612  c0-60.052,30.148-136.021,75.519-186.987c-55.877,49.326-94.728,138.021-94.728,206.196c0,99.749,81.103,180.613,181.148,180.613  c55.006,0,104.28-24.449,137.503-63.037C404.186,388.335,362.845,404.853,317.632,404.853z"/>
<path style="fill:#3DAD4B;" d="M393.564,443.468c-4.55,0-8.237-3.687-8.237-8.237V312.357c0-4.549,3.687-8.237,8.237-8.237  c4.55,0,8.237,3.688,8.237,8.237v122.875C401.801,439.782,398.113,443.468,393.564,443.468z"/>
<path style="fill:#F3C74F;" d="M390.053,327.81c7.117-3.441,13.989-7.119,20.55-11.18c6.569-4.061,12.822-8.515,18.918-13.53  c6.099-5.006,12.06-10.607,18.097-16.678c6.034-6.061,12.149-12.557,18.465-19.072c7.077-7.3,18.733-7.48,26.033-0.403  c6.202,6.013,7.265,15.329,3.104,22.473l-0.048,0.075c-4.386,7.532-8.734,15.264-13.482,23.191  c-4.741,7.914-9.931,16.031-15.826,23.991c-5.878,7.962-12.445,15.707-19.457,22.934c-7.01,7.239-14.43,13.973-22.022,20.305  l-0.474,0.396c-13.347,11.133-33.193,9.338-44.326-4.009s-9.338-33.192,4.009-44.326C385.572,330.326,387.84,328.896,390.053,327.81  z"/>
<g>
	<path style="fill:#892641;" d="M361.633,289.964h31.93v-38.909c0-17.635-14.296-31.93-31.93-31.93l0,0V289.964z"/>
	<path style="fill:#892641;" d="M425.494,289.964h-31.93v-38.909c0-17.635,14.296-31.93,31.93-31.93l0,0V289.964z"/>
</g>
<g>
	<path style="fill:#E6595A;" d="M393.564,313.053L393.564,313.053V287.8c0-24.379-19.763-44.142-44.142-44.142l0,0v25.253   C349.422,293.29,369.185,313.053,393.564,313.053z"/>
	<path style="fill:#E6595A;" d="M393.564,313.053L393.564,313.053V287.8c0-24.379,19.763-44.142,44.142-44.142l0,0v25.253   C437.704,293.29,417.943,313.053,393.564,313.053z"/>
</g>
<g>
	<path style="fill:#394049;" d="M316.166,199.731c-6.854,0-13.097-2.668-17.743-7.02c-4.647,4.352-10.889,7.02-17.743,7.02   c-14.327,0-25.981-11.655-25.981-25.98c0-4.55,3.687-8.237,8.237-8.237c4.55,0,8.237,3.687,8.237,8.237   c0,5.242,4.266,9.506,9.508,9.506c5.242,0,9.506-4.264,9.506-9.506c0-4.55,3.687-8.237,8.237-8.237c4.55,0,8.237,3.687,8.237,8.237   c0,5.242,4.264,9.506,9.506,9.506s9.508-4.264,9.508-9.506c0-4.55,3.687-8.237,8.237-8.237c4.55,0,8.237,3.687,8.237,8.237   C342.147,188.076,330.493,199.731,316.166,199.731z"/>
	<path style="fill:#394049;" d="M204.572,181.114c-4.55,0-8.237-3.687-8.237-8.237c0-1.975-1.606-3.58-3.58-3.58   c-1.974,0-3.579,1.606-3.579,3.58c0,4.55-3.687,8.237-8.237,8.237c-4.55,0-8.237-3.687-8.237-8.237   c0-11.057,8.995-20.054,20.053-20.054c11.057,0,20.054,8.996,20.054,20.054C212.809,177.426,209.121,181.114,204.572,181.114z"/>
	<path style="fill:#394049;" d="M415.906,181.114c-4.55,0-8.237-3.687-8.237-8.237c0-1.975-1.606-3.58-3.579-3.58   c-1.975,0-3.58,1.606-3.58,3.58c0,4.55-3.687,8.237-8.237,8.237c-4.55,0-8.237-3.687-8.237-8.237   c0-11.057,8.996-20.054,20.054-20.054c11.057,0,20.053,8.996,20.053,20.054C424.143,177.426,420.455,181.114,415.906,181.114z"/>
</g>
<g>
</g>
<g>
</g>
<g>
</g>
<g>
</g>
<g>
</g>
<g>
</g>
<g>
</g>
<g>
</g>
<g>
</g>
<g>
</g>
<g>
</g>
<g>
</g>
<g>
</g>
<g>
</g>
<g>
</g>
</svg>
