<?xml version="1.0" encoding="iso-8859-1"?>
<!-- Generator: Adobe Illustrator 19.0.0, SVG Export Plug-In . SVG Version: 6.00 Build 0)  -->
<svg xmlns="http://www.w3.org/2000/svg" xmlns:xlink="http://www.w3.org/1999/xlink" version="1.1" id="Layer_1" x="0px" y="0px" viewBox="0 0 512 512" style="enable-background:new 0 0 512 512;" xml:space="preserve">
<path style="fill:#A27B5A;" d="M16.528,414.142h478.944c5.845,0,10.582-4.738,10.582-10.582v-11.488  c0-5.845-4.738-10.582-10.582-10.582H16.528c-5.845,0-10.582,4.738-10.582,10.582v11.488  C5.946,409.404,10.683,414.142,16.528,414.142z"/>
<rect x="164.328" y="381.487" style="opacity:0.2;enable-background:new    ;" width="16.022" height="32.653"/>
<rect x="270.46" y="381.487" style="opacity:0.2;enable-background:new    ;" width="16.022" height="32.653"/>
<path style="fill:#593C00;" d="M55.647,199.21h400.706c11.989,0,21.707,9.719,21.707,21.707v160.571H33.939V220.917  C33.939,208.929,43.658,199.21,55.647,199.21z"/>
<rect x="33.943" y="351.106" style="opacity:0.2;enable-background:new    ;" width="444.118" height="30.386"/>
<path style="opacity:0.1;fill:#FFFFFF;enable-background:new    ;" d="M456.352,199.21h-78.4  c-5.975,9.795-9.419,21.302-9.419,33.615c0,35.703,28.943,64.646,64.646,64.646c17.439,0,33.253-6.917,44.882-18.142v-58.412  C478.061,208.929,468.341,199.21,456.352,199.21z"/>
<circle style="fill:#0081C6;" cx="381.094" cy="76.778" r="51.87"/>
<circle style="fill:#F3C74F;" cx="381.094" cy="76.778" r="24.209"/>
<circle style="fill:#0081C6;" cx="130.91" cy="76.778" r="51.87"/>
<circle style="fill:#F3C74F;" cx="130.91" cy="76.778" r="24.209"/>
<path style="opacity:0.2;enable-background:new    ;" d="M161.566,34.959c-24.385,22.039-45.068,52.378-59.76,84.761  c8.298,5.635,18.313,8.93,29.1,8.93c28.644,0,51.865-23.221,51.865-51.865C182.772,59.613,174.421,44.398,161.566,34.959z"/>
<path style="fill:#40BAB3;" d="M418.962,219.009C418.962,129.274,344.151,0,255.999,0S93.038,129.274,93.038,219.009  c0,89.736,72.961,162.481,162.962,162.481S418.962,308.745,418.962,219.009z"/>
<g>
	<path style="fill:#F0B0B7;" d="M174.543,199.904h-27.206c-4.525,0-8.193-3.667-8.193-8.193c0-4.526,3.668-8.193,8.193-8.193h27.206   c4.525,0,8.193,3.667,8.193,8.193C182.737,196.235,179.068,199.904,174.543,199.904z"/>
	<path style="fill:#F0B0B7;" d="M364.661,199.904h-27.206c-4.525,0-8.193-3.667-8.193-8.193c0-4.526,3.668-8.193,8.193-8.193h27.206   c4.525,0,8.193,3.667,8.193,8.193C372.854,196.235,369.186,199.904,364.661,199.904z"/>
</g>
<path style="fill:#FFFFFF;" d="M95.783,248.808c14.038,75.502,80.426,132.68,160.217,132.68s146.179-57.179,160.217-132.68H95.783z"/>
<path style="fill:#0081C6;" d="M124.631,315.149c29.66,40.228,77.452,66.341,131.369,66.341s101.709-26.113,131.369-66.341H124.631z  "/>
<path style="opacity:0.2;enable-background:new    ;" d="M273.28,364.209c-90.001,0-162.962-72.745-162.962-162.481  c0-54.023,27.121-122.365,67.937-168.215c-50.267,44.374-85.218,124.164-85.218,185.495c0,89.736,72.961,162.481,162.962,162.481  c49.483,0,93.811-21.994,123.697-56.708C351.145,349.349,313.954,364.209,273.28,364.209z"/>
<g>
	<path style="fill:#394049;" d="M160.941,164.461c-4.525,0-8.193-3.667-8.193-8.193v-4.462c0-4.526,3.668-8.193,8.193-8.193   c4.525,0,8.193,3.667,8.193,8.193v4.462C169.135,160.794,165.466,164.461,160.941,164.461z"/>
	<path style="fill:#394049;" d="M351.059,164.461c-4.525,0-8.193-3.667-8.193-8.193v-4.462c0-4.526,3.668-8.193,8.193-8.193   s8.193,3.667,8.193,8.193v4.462C359.252,160.794,355.584,164.461,351.059,164.461z"/>
	<path style="fill:#394049;" d="M178.133,154.175h-34.384c-4.525,0-8.193-3.667-8.193-8.193c0-4.526,3.668-8.193,8.193-8.193h34.384   c4.525,0,8.193,3.667,8.193,8.193C186.327,150.507,182.658,154.175,178.133,154.175z"/>
	<path style="fill:#394049;" d="M368.251,154.175h-34.384c-4.525,0-8.193-3.667-8.193-8.193c0-4.526,3.668-8.193,8.193-8.193h34.384   c4.525,0,8.193,3.667,8.193,8.193C376.444,150.507,372.776,154.175,368.251,154.175z"/>
	<path style="fill:#394049;" d="M273.192,187.379h-34.384c-4.525,0-8.193-3.667-8.193-8.193c0-4.526,3.668-8.193,8.193-8.193h34.384   c4.525,0,8.193,3.667,8.193,8.193C281.385,183.71,277.716,187.379,273.192,187.379z"/>
</g>
<path style="fill:#F3C74F;" d="M172.281,300.169c-32.158,0-59.811-13.317-84.411-40.612c-8.351-9.263-7.609-23.543,1.655-31.892  c9.265-8.35,23.544-7.608,31.892,1.656c34.591,38.376,67.25,27.556,117.669,6.719c21.582-8.919,43.898-18.141,66.611-20.406  c12.409-1.236,23.474,7.82,24.711,20.23c1.238,12.41-7.82,23.474-20.23,24.711c-16.092,1.605-34.429,9.183-53.842,17.205  c-25.158,10.397-51.174,21.149-79.202,22.291C175.507,300.136,173.887,300.169,172.281,300.169z"/>
<path style="opacity:0.06;enable-background:new    ;" d="M172.281,300.169c-32.158,0-59.811-13.317-84.411-40.612  c-8.351-9.263-7.609-23.543,1.655-31.892c9.265-8.35,23.544-7.608,31.892,1.656c34.591,38.376,67.25,27.556,117.669,6.719  c21.582-8.919,43.898-18.141,66.611-20.406c12.409-1.236,23.474,7.82,24.711,20.23c1.238,12.41-7.82,23.474-20.23,24.711  c-16.092,1.605-34.429,9.183-53.842,17.205c-25.158,10.397-51.174,21.149-79.202,22.291  C175.507,300.136,173.887,300.169,172.281,300.169z"/>
<path style="opacity:0.2;enable-background:new    ;" d="M255.163,240.811c-4.6-1.901-9.235-3.812-13.898-5.67  c-0.725,0.299-1.453,0.6-2.177,0.899c-28.48,11.77-51.293,20.342-71.989,18.658c3.569,5.79,9.681,9.922,16.971,10.648  c16.092,1.605,34.429,9.183,53.842,17.205c1.11,0.459,2.224,0.919,3.337,1.378c5.068-2.012,10.095-4.087,15.086-6.149  c19.413-8.023,37.75-15.601,53.842-17.205c1.828-0.182,3.57-0.6,5.231-1.182C297.809,257.864,278.368,250.401,255.163,240.811z"/>
<g>
	<path style="fill:#F3C74F;" d="M339.718,300.169c-1.607,0-3.224-0.033-4.854-0.099c-28.028-1.143-54.043-11.894-79.202-22.291   c-19.413-8.023-37.75-15.601-53.842-17.205c-12.41-1.237-21.468-12.301-20.23-24.711c1.238-12.41,12.304-21.471,24.711-20.23   c22.712,2.265,45.029,11.487,66.611,20.406c50.42,20.838,83.078,31.659,117.669-6.719c8.349-9.263,22.628-10.006,31.892-1.656   c9.264,8.351,10.006,22.629,1.655,31.892C399.53,286.849,371.872,300.169,339.718,300.169z"/>
	<path style="fill:#F3C74F;" d="M202.932,445.757c-12.472,0-22.582-10.11-22.582-22.582v-63.927   c0-12.471,10.11-22.582,22.582-22.582c12.472,0,22.582,10.11,22.582,22.582v63.927   C225.514,435.647,215.405,445.757,202.932,445.757z"/>
	<path style="fill:#F3C74F;" d="M309.067,445.757c-12.472,0-22.582-10.11-22.582-22.582v-63.927   c0-12.471,10.11-22.582,22.582-22.582c12.472,0,22.582,10.11,22.582,22.582v63.927   C331.649,435.647,321.539,445.757,309.067,445.757z"/>
</g>
<path style="fill:#593C00;" d="M71.292,512H41.689c-4.28,0-7.75-3.47-7.75-7.75v-90.108h45.102v90.108  C79.042,508.53,75.572,512,71.292,512z"/>
<rect x="33.943" y="414.141" style="opacity:0.3;enable-background:new    ;" width="45.097" height="23.846"/>
<path style="fill:#593C00;" d="M440.708,512h29.602c4.28,0,7.75-3.47,7.75-7.75v-90.108h-45.102v90.108  C432.958,508.53,436.428,512,440.708,512z"/>
<rect x="432.953" y="414.141" style="opacity:0.3;enable-background:new    ;" width="45.097" height="23.846"/>
<rect x="79.039" y="459.532" style="fill:#A27B5A;" width="353.913" height="22.435"/>
<rect x="418.958" y="459.532" style="opacity:0.2;enable-background:new    ;" width="13.996" height="22.435"/>
<g>
</g>
<g>
</g>
<g>
</g>
<g>
</g>
<g>
</g>
<g>
</g>
<g>
</g>
<g>
</g>
<g>
</g>
<g>
</g>
<g>
</g>
<g>
</g>
<g>
</g>
<g>
</g>
<g>
</g>
</svg>
