<?xml version="1.0" encoding="iso-8859-1"?>
<!-- Generator: Adobe Illustrator 19.0.0, SVG Export Plug-In . SVG Version: 6.00 Build 0)  -->
<svg xmlns="http://www.w3.org/2000/svg" xmlns:xlink="http://www.w3.org/1999/xlink" version="1.1" id="Layer_1" x="0px" y="0px" viewBox="0 0 512 512" style="enable-background:new 0 0 512 512;" xml:space="preserve">
<path style="fill:#F3C74F;" d="M31.795,377.273c-7.704,0-15.27-3.699-19.911-10.561c-12.61-18.64-15.33-42.991-7.462-66.812  c8.235-24.932,26.931-45.192,48.793-52.877c12.513-4.4,26.221,2.18,30.618,14.692c4.397,12.512-2.18,26.221-14.693,30.618  c-7.876,2.768-15.558,11.862-19.114,22.629c-1.496,4.529-4.331,16.016,1.637,24.839c7.432,10.985,4.55,25.915-6.434,33.345  C41.105,375.937,36.425,377.273,31.795,377.273z"/>
<path style="opacity:0.2;enable-background:new    ;" d="M83.833,261.716c-4.399-12.512-18.105-19.091-30.618-14.692  c-7.297,2.564-14.237,6.536-20.556,11.609c1.762,21.406,7.433,41.708,16.309,60.191c0.348-1.546,0.735-2.876,1.061-3.861  c3.556-10.766,11.237-19.86,19.114-22.629C81.653,287.937,88.231,274.229,83.833,261.716z"/>
<path style="fill:#F3C74F;" d="M271.584,503.306c-13.263,0-24.014-10.751-24.014-24.014v-95.738  c0-13.263,10.751-24.014,24.014-24.014s24.014,10.751,24.014,24.014v95.738C295.598,492.554,284.846,503.306,271.584,503.306z"/>
<path style="opacity:0.2;enable-background:new    ;" d="M271.584,359.539c-13.263,0-24.014,10.751-24.014,24.014v50.364  c16.957-2.707,33.093-7.863,48.028-15.1v-35.265C295.598,370.29,284.846,359.539,271.584,359.539z"/>
<path style="fill:#F3C74F;" d="M168.324,503.306c-13.263,0-24.014-10.751-24.014-24.014v-95.738  c0-13.263,10.751-24.014,24.014-24.014c13.263,0,24.014,10.751,24.014,24.014v95.738  C192.338,492.554,181.586,503.306,168.324,503.306z"/>
<path style="opacity:0.2;enable-background:new    ;" d="M168.324,359.539c-13.263,0-24.014,10.751-24.014,24.014v35.265  c14.936,7.237,31.071,12.391,48.028,15.1v-50.364C192.338,370.29,181.586,359.539,168.324,359.539z"/>
<path style="fill:#F3C74F;" d="M421.671,384.241c-13.263,0-24.014-10.751-24.014-24.014c0-21.433-1.211-38.329-7.124-51.122  c-7.714-16.693-23.369-23.769-36.145-28.068c-12.57-4.229-19.332-17.848-15.102-30.419c4.229-12.569,17.848-19.329,30.419-15.102  c70.109,23.59,75.98,76.741,75.98,124.71C445.685,373.49,434.934,384.241,421.671,384.241z"/>
<circle style="fill:#0081C6;" cx="352.981" cy="90.354" r="55.154"/>
<circle style="fill:#F3C74F;" cx="352.981" cy="90.354" r="25.744"/>
<circle style="fill:#0081C6;" cx="86.929" cy="90.354" r="55.154"/>
<circle style="fill:#F3C74F;" cx="86.929" cy="90.354" r="25.744"/>
<path style="opacity:0.2;enable-background:new    ;" d="M119.532,45.871c-25.931,23.437-47.926,55.699-63.549,90.135  c8.825,5.992,19.475,9.496,30.945,9.496c30.461,0,55.154-24.693,55.154-55.154C142.081,72.088,133.202,55.908,119.532,45.871z"/>
<path style="fill:#40BAB3;" d="M393.25,241.592c0-95.426-79.555-232.898-173.296-232.898S46.658,146.166,46.658,241.592  s77.588,172.784,173.296,172.784S393.25,337.018,393.25,241.592z"/>
<path style="fill:#FFFFFF;" d="M49.575,273.282c14.929,80.29,85.526,141.095,170.377,141.095s155.45-60.805,170.377-141.095H49.575z  "/>
<path style="fill:#0081C6;" d="M80.253,343.829c31.541,42.779,82.363,70.547,139.7,70.547s108.158-27.769,139.7-70.547H80.253z"/>
<path style="opacity:0.2;enable-background:new    ;" d="M238.331,396c-95.709,0-173.296-77.357-173.296-172.783  c0-57.449,28.842-130.126,72.245-178.882C83.824,91.523,46.658,176.373,46.658,241.593c0,95.426,77.588,172.785,173.296,172.785  c52.622,0,99.76-23.389,131.542-60.304C321.134,380.198,281.584,396,238.331,396z"/>
<path style="opacity:0.2;enable-background:new    ;" d="M243.321,197.193h-51.259c-8.376,0-16.115,4.471-20.299,11.726  l-6.966,12.079c-2.836,4.917,0.713,11.061,6.389,11.061h21.932c7.458,0,14.611-2.962,19.885-8.236l0,0c2.59-2.59,6.789-2.59,9.379,0  l0,0c5.274,5.274,12.427,8.236,19.885,8.236h21.932c5.676,0,9.225-6.144,6.39-11.061l-6.966-12.079  C259.436,201.664,251.697,197.193,243.321,197.193z"/>
<path style="fill:#593C00;" d="M484.401,387.842h-16.623v-21.713c0-0.28-0.228-0.509-0.51-0.509h-77.434  c-0.28,0-0.509,0.228-0.509,0.509v21.713h-16.623v-21.713c0-9.447,7.686-17.132,17.132-17.132h77.434  c9.446,0,17.133,7.686,17.133,17.132L484.401,387.842L484.401,387.842z"/>
<g>
	<path style="fill:#394049;" d="M118.866,180.783c-4.59,0-8.312-3.72-8.312-8.312v-4.743c0-4.591,3.721-8.312,8.312-8.312   c4.59,0,8.312,3.72,8.312,8.312v4.743C127.178,177.062,123.456,180.783,118.866,180.783z"/>
	<path style="fill:#394049;" d="M321.041,180.783c-4.59,0-8.312-3.72-8.312-8.312v-4.743c0-4.591,3.721-8.312,8.312-8.312   s8.312,3.72,8.312,8.312v4.743C329.352,177.062,325.631,180.783,321.041,180.783z"/>
</g>
<g>
	<path style="fill:#F0B0B7;" d="M133.332,216.256h-28.93c-4.59,0-8.312-3.72-8.312-8.312c0-4.591,3.721-8.312,8.312-8.312h28.93   c4.59,0,8.312,3.72,8.312,8.312C141.643,212.534,137.922,216.256,133.332,216.256z"/>
	<path style="fill:#F0B0B7;" d="M335.506,216.256h-28.93c-4.59,0-8.312-3.72-8.312-8.312c0-4.591,3.721-8.312,8.312-8.312h28.93   c4.59,0,8.312,3.72,8.312,8.312C343.818,212.534,340.097,216.256,335.506,216.256z"/>
</g>
<path style="fill:#394049;" d="M502.032,487.223H355.071c-5.506,0-9.968-4.463-9.968-9.968v-79.444c0-5.506,4.463-9.968,9.968-9.968  h146.961c5.506,0,9.968,4.463,9.968,9.968v79.444C512,482.761,507.537,487.223,502.032,487.223z"/>
<g>
	<path style="fill:#5F666F;" d="M502.032,387.842h-26.031c0,19.882,16.117,36,36,36v-26.031   C512,392.305,507.537,387.842,502.032,387.842z"/>
	<path style="fill:#5F666F;" d="M355.071,387.842h26.031c0,19.882-16.117,36-36,36v-26.031   C345.103,392.305,349.565,387.842,355.071,387.842z"/>
	<path style="fill:#5F666F;" d="M502.032,487.223h-26.031c0-19.882,16.117-36,36-36v26.031   C512,482.761,507.537,487.223,502.032,487.223z"/>
	<path style="fill:#5F666F;" d="M355.071,487.223h26.031c0-19.882-16.117-36-36-36v26.031   C345.103,482.761,349.565,487.223,355.071,487.223z"/>
</g>
<path style="opacity:0.05;fill:#FFFFFF;enable-background:new    ;" d="M502.032,387.842h-68.437  c6.545,13.756,20.568,23.267,36.815,23.267c15.793,0,29.478-8.99,36.242-22.127C505.271,388.258,503.701,387.842,502.032,387.842z"/>
<path style="fill:#E6595A;" d="M199.319,299.175L45.805,243.141c-2.19-0.799-3.647-2.882-3.647-5.213V218.54  c0-2.977,2.96-5.047,5.756-4.026l160.874,58.72L199.319,299.175z"/>
<path style="opacity:0.2;enable-background:new    ;" d="M199.319,299.175L45.805,243.141c-2.19-0.799-3.647-2.882-3.647-5.213  V218.54c0-2.977,2.96-5.047,5.756-4.026l160.874,58.72L199.319,299.175z"/>
<path style="fill:#E6595A;" d="M240.588,299.175l153.514-56.034c2.19-0.799,3.647-2.882,3.647-5.213V218.54  c0-2.977-2.96-5.047-5.756-4.026l-160.874,58.72L240.588,299.175z"/>
<path style="opacity:0.2;enable-background:new    ;" d="M240.588,299.175l153.514-56.034c2.19-0.799,3.647-2.882,3.647-5.213  V218.54c0-2.977-2.96-5.047-5.756-4.026l-160.874,58.72L240.588,299.175z"/>
<g>
	<path style="fill:#E6595A;" d="M240.505,272.003l10.999,21.692c1.211,2.388,0.817,5.277-0.991,7.252l-17.105,18.702   c-1.219,1.333-2.942,2.091-4.748,2.091h-17.412c-1.806,0-3.529-0.759-4.748-2.091l-17.105-18.702   c-1.808-1.976-2.202-4.864-0.991-7.252l10.999-21.692c1.096-2.162,3.315-3.524,5.738-3.524h29.624   C237.19,268.479,239.409,269.841,240.505,272.003z"/>
	<path style="fill:#E6595A;" d="M228.603,321.742l28.736,75.613c1.66,4.369,0.074,9.304-3.819,11.888l-26.355,17.489   c-4.37,2.9-10.052,2.9-14.421,0l-26.355-17.489c-3.893-2.583-5.479-7.519-3.819-11.888l28.736-75.613H228.603z"/>
</g>
<path style="opacity:0.1;enable-background:new    ;" d="M228.603,321.742l28.736,75.613c1.66,4.369,0.074,9.304-3.819,11.888  l-26.355,17.489c-4.37,2.9-10.052,2.9-14.421,0l-26.355-17.489c-3.893-2.583-5.479-7.519-3.819-11.888l28.736-75.613H228.603z"/>
<polygon style="opacity:0.2;enable-background:new    ;" points="228.603,321.742 211.305,321.742 206.558,334.233 233.35,334.233   "/>
<g>
	<path style="fill:#394049;" d="M67.277,145.502h31.087c12.018,0,21.76-9.742,21.76-21.761l0,0c0-12.018-9.742-21.76-21.76-21.76   H86.762c-9.555,0-18.211,5.636-22.077,14.374l-6.629,14.985C55.108,138.006,59.988,145.502,67.277,145.502z"/>
	<path style="fill:#394049;" d="M372.63,145.502h-31.086c-12.018,0-21.761-9.742-21.761-21.761l0,0   c0-12.018,9.742-21.76,21.761-21.76h11.602c9.555,0,18.211,5.636,22.077,14.374l6.629,14.985   C384.8,138.006,379.92,145.502,372.63,145.502z"/>
</g>
<path style="fill:#F3C74F;" d="M82.271,405.313c-3.836,0-7.638-0.248-11.409-0.746c-23.627-3.116-44.573-16.561-58.979-37.856  c-7.432-10.985-4.55-25.914,6.434-33.345c10.986-7.432,25.915-4.55,33.345,6.435c6.797,10.046,15.369,15.817,25.479,17.151  c17.023,2.244,39.574-7.923,63.49-28.635c10.026-8.682,25.192-7.592,33.874,2.433c8.682,10.025,7.594,25.191-2.433,33.874  C140.85,391.666,110.699,405.313,82.271,405.313z"/>
<path style="fill:#394049;" d="M244.508,188.101H195.4c-8.025,0-15.439,4.283-19.447,11.234l-6.674,11.572  c-2.716,4.711,0.683,10.597,6.121,10.597h21.011c7.145,0,13.998-2.838,19.05-7.891l0,0c2.481-2.481,6.504-2.481,8.985,0l0,0  c5.052,5.052,11.905,7.891,19.05,7.891h21.011c5.438,0,8.838-5.886,6.121-10.597l-6.674-11.572  C259.945,192.384,252.531,188.101,244.508,188.101z"/>
<g>
</g>
<g>
</g>
<g>
</g>
<g>
</g>
<g>
</g>
<g>
</g>
<g>
</g>
<g>
</g>
<g>
</g>
<g>
</g>
<g>
</g>
<g>
</g>
<g>
</g>
<g>
</g>
<g>
</g>
</svg>
