<?xml version="1.0" encoding="iso-8859-1"?>
<!-- Generator: Adobe Illustrator 19.0.0, SVG Export Plug-In . SVG Version: 6.00 Build 0)  -->
<svg xmlns="http://www.w3.org/2000/svg" xmlns:xlink="http://www.w3.org/1999/xlink" version="1.1" id="Layer_1" x="0px" y="0px" viewBox="0 0 512 512" style="enable-background:new 0 0 512 512;" xml:space="preserve">
<path style="fill:#F3C74F;" d="M404.913,311.863c-7.754,0-15.331-3.894-19.713-10.971c-12.495-20.178-36.513-37.05-48.054-45.159  c-10.466-7.353-12.991-21.8-5.638-32.266c7.352-10.466,21.799-12.992,32.266-5.638c14.062,9.878,43.322,30.434,60.809,58.676  c6.734,10.876,3.377,25.151-7.498,31.885C413.287,310.741,409.074,311.863,404.913,311.863z"/>
<circle style="fill:#0081C6;" cx="346.664" cy="78.753" r="53.194"/>
<circle style="fill:#F3C74F;" cx="346.664" cy="78.753" r="24.836"/>
<circle style="fill:#0081C6;" cx="90.063" cy="78.753" r="53.194"/>
<circle style="fill:#F3C74F;" cx="90.063" cy="78.753" r="24.836"/>
<path style="opacity:0.2;enable-background:new    ;" d="M121.512,35.855c-25.01,22.604-46.223,53.721-61.292,86.934  c8.511,5.779,18.783,9.158,29.846,9.158c29.378,0,53.194-23.816,53.194-53.194C143.26,61.142,134.696,45.537,121.512,35.855z"/>
<path style="fill:#40BAB3;" d="M385.506,224.624C385.506,132.589,308.778,0,218.366,0S51.226,132.589,51.226,224.624  S126.058,391.27,218.366,391.27S385.506,316.661,385.506,224.624z"/>
<path style="fill:#FFFFFF;" d="M54.041,255.188c14.398,77.437,82.488,136.083,164.326,136.083s149.927-58.646,164.326-136.083  L54.041,255.188L54.041,255.188z"/>
<path style="fill:#0081C6;" d="M83.629,323.229c30.42,41.26,79.438,68.042,134.737,68.042s104.317-26.782,134.737-68.042  L83.629,323.229L83.629,323.229z"/>
<path style="opacity:0.2;enable-background:new    ;" d="M236.09,373.547c-92.309,0-167.141-74.61-167.141-166.646  c0-55.408,27.816-125.503,69.679-172.527C87.073,79.884,51.226,161.72,51.226,224.624c0,92.037,74.832,166.646,167.141,166.646  c50.753,0,96.216-22.558,126.87-58.162C315.951,358.306,277.806,373.547,236.09,373.547z"/>
<g>
	<path style="fill:#394049;" d="M144.236,163.817c-0.947,0-1.907-0.162-2.847-0.504c-4.325-1.573-6.554-6.354-4.98-10.678   l1.564-4.299c1.573-4.325,6.353-6.558,10.678-4.98c4.325,1.573,6.553,6.354,4.98,10.678l-1.564,4.299   C150.834,161.715,147.639,163.817,144.236,163.817z"/>
	<path style="fill:#394049;" d="M339.227,163.817c-0.946,0-1.907-0.162-2.848-0.504c-4.325-1.573-6.553-6.354-4.98-10.678   l1.564-4.299c1.573-4.325,6.353-6.558,10.678-4.98c4.325,1.573,6.553,6.354,4.98,10.678l-1.564,4.299   C345.827,161.715,342.632,163.817,339.227,163.817z"/>
	<path style="fill:#394049;" d="M258.886,187.457c-6.274,0-12.01-2.351-16.372-6.219c-4.361,3.867-10.097,6.219-16.371,6.219   c-13.622,0-24.704-11.083-24.704-24.704c0-4.603,3.729-8.332,8.332-8.332c4.603,0,8.332,3.729,8.332,8.332   c0,4.433,3.607,8.04,8.04,8.04c4.433,0,8.039-3.607,8.039-8.04c0-4.603,3.729-8.332,8.332-8.332c4.601,0,8.332,3.729,8.332,8.332   c0,4.433,3.607,8.04,8.04,8.04c4.433,0,8.04-3.607,8.04-8.04c0-4.603,3.729-8.332,8.332-8.332c4.603,0,8.332,3.729,8.332,8.332   C283.59,176.375,272.508,187.457,258.886,187.457z"/>
</g>
<path style="fill:#A27B5A;" d="M482.357,512H29.643c-15.08,0-27.303-12.225-27.303-27.303V343.157  c0-15.08,12.225-27.304,27.303-27.304h452.714c15.08,0,27.303,12.225,27.303,27.304v141.539C509.66,499.777,497.437,512,482.357,512  z"/>
<g>
	<path style="opacity:0.1;fill:#FFFFFF;enable-background:new    ;" d="M482.357,315.853h-48.082   c-7.784,11.149-12.365,24.701-12.365,39.33c0,37.997,30.803,68.798,68.798,68.798c6.577,0,12.929-0.942,18.951-2.665v-78.16   C509.66,328.078,497.437,315.853,482.357,315.853z"/>
	<path style="fill:#FFFFFF;" d="M385.984,441.904l-171.445,45.939c-3.153,0.844-6.393-1.026-7.239-4.179l-26.27-98.042   c-0.844-3.153,1.026-6.393,4.179-7.239l171.445-45.939c3.153-0.844,6.393,1.027,7.239,4.179l26.27,98.042   C391.008,437.819,389.136,441.06,385.984,441.904z"/>
</g>
<path style="opacity:0.1;enable-background:new    ;" d="M214.538,487.843l85.722-22.969l-29.329-109.46l-85.722,22.969  c-3.153,0.845-5.024,4.086-4.179,7.239l26.27,98.042C208.145,486.818,211.385,488.688,214.538,487.843z"/>
<g>
	<path style="fill:#394049;" d="M227.479,466.354c-3.678,0-7.045-2.455-8.042-6.178c-1.191-4.445,1.446-9.014,5.891-10.204   l40.943-10.97c4.447-1.195,9.014,1.446,10.205,5.891c1.191,4.445-1.446,9.014-5.891,10.205l-40.943,10.97   C228.919,466.262,228.194,466.354,227.479,466.354z"/>
	<path style="fill:#394049;" d="M219.404,436.213c-3.678,0-7.045-2.455-8.042-6.178c-1.191-4.445,1.446-9.014,5.891-10.205   l40.942-10.97c4.446-1.195,9.014,1.446,10.205,5.891c1.191,4.445-1.446,9.014-5.891,10.204l-40.943,10.97   C220.844,436.121,220.117,436.213,219.404,436.213z"/>
	<path style="fill:#394049;" d="M211.328,406.071c-3.678,0-7.045-2.455-8.042-6.177c-1.191-4.445,1.446-9.014,5.891-10.205   l40.942-10.97c4.447-1.195,9.014,1.446,10.205,5.891c1.191,4.445-1.446,9.014-5.891,10.205l-40.943,10.97   C212.767,405.979,212.042,406.071,211.328,406.071z"/>
	<path style="fill:#394049;" d="M318.912,441.855c-3.678,0-7.045-2.455-8.042-6.178c-1.191-4.445,1.446-9.013,5.891-10.205   l40.942-10.971c4.445-1.195,9.013,1.446,10.205,5.891c1.192,4.445-1.446,9.013-5.891,10.205l-40.942,10.971   C320.351,441.763,319.626,441.855,318.912,441.855z"/>
	<path style="fill:#394049;" d="M310.835,411.714c-3.679,0-7.046-2.455-8.042-6.177c-1.191-4.445,1.446-9.014,5.891-10.205   l40.943-10.97c4.446-1.196,9.014,1.446,10.205,5.891c1.191,4.445-1.446,9.014-5.891,10.205l-40.943,10.97   C312.275,411.621,311.548,411.714,310.835,411.714z"/>
	<path style="fill:#394049;" d="M302.759,381.572c-3.678,0-7.045-2.455-8.042-6.178c-1.191-4.445,1.446-9.014,5.891-10.205   l40.942-10.97c4.446-1.196,9.014,1.446,10.205,5.891c1.191,4.445-1.446,9.014-5.891,10.205l-40.942,10.97   C304.199,381.48,303.473,381.572,302.759,381.572z"/>
</g>
<g>
	<path style="fill:#F0B0B7;" d="M158.97,200.303h-27.903c-4.603,0-8.332-3.729-8.332-8.332c0-4.603,3.729-8.332,8.332-8.332h27.903   c4.603,0,8.332,3.729,8.332,8.332C167.302,196.573,163.572,200.303,158.97,200.303z"/>
	<path style="fill:#F0B0B7;" d="M353.962,200.303h-27.903c-4.603,0-8.332-3.729-8.332-8.332c0-4.603,3.729-8.332,8.332-8.332h27.903   c4.601,0,8.332,3.729,8.332,8.332C362.294,196.573,358.564,200.303,353.962,200.303z"/>
</g>
<path style="opacity:0.2;enable-background:new    ;" d="M229.5,389.254c-0.59-2.367-2.93-4.253-5.798-3.599l-10.163,2.315  l-0.431,0.098l-21.179,4.826l-4.571,2.712c-26.394-8.99-47.561-24.58-62.906-46.403c-8.264-11.752-13.525-23.604-16.484-33.349  H60.31c3.682,19.563,13.1,41.293,26.251,59.994c13.891,19.753,31.735,36.076,52.578,48.356l-60.991,36.172  c-3.634,2.155-4.833,6.848-2.677,10.482l7.084,11.946c2.155,3.634,6.848,4.833,10.482,2.677l78.272-46.421  c1.291,0.45,2.573,0.915,3.879,1.339c2.372,0.768,4.776,1.132,7.14,1.132c9.771,0,18.857-6.233,22.03-16.031  c0.721-2.226,1.079-4.481,1.121-6.707l1.339-0.794l14.391-16.271l7.198-8.138C229.577,392.268,229.853,390.674,229.5,389.254z"/>
<path style="fill:#394049;" d="M236.142,352.097l-28.193,7.554l-34.239-127.781c-1.093-4.08,1.329-8.275,5.409-9.368l13.414-3.595  c4.08-1.093,8.275,1.329,9.37,5.409L236.142,352.097z"/>
<path style="fill:#F1A21E;" d="M225.62,387.031l-17.669-27.38l28.193-7.554l-1.612,32.546  C234.298,389.345,228.172,390.987,225.62,387.031z"/>
<path style="fill:#394049;" d="M219.728,377.903l5.891,9.128c2.553,3.956,8.679,2.315,8.912-2.388l0.538-10.85L219.728,377.903z"/>
<rect x="185.098" y="234.459" transform="matrix(-0.2589 -0.9659 0.9659 -0.2589 2.95 500.3652)" style="fill:#5F666F;" width="16.664" height="29.184"/>
<path style="opacity:0.1;fill:#FFFFFF;enable-background:new    ;" d="M201.904,224.316c-1.093-4.08-5.288-6.502-9.368-5.409  l-1.539,0.412c-3.672,4.631-5.87,10.485-5.87,16.854c0,15,12.16,27.16,27.16,27.16c0.024,0,0.048-0.001,0.072-0.001L201.904,224.316  z"/>
<g>
	<path style="fill:#F3C74F;" d="M211.185,338.679c-0.114,0-0.228-0.001-0.341-0.002c-34.64-0.502-66.095-7.571-90.968-20.445   c-29.486-15.264-50.113-38.817-59.65-68.115c-3.959-12.162,2.691-25.232,14.854-29.192c12.166-3.956,25.232,2.693,29.192,14.854   c16.244,49.903,80.409,56.194,107.241,56.582c12.79,0.186,23.009,10.704,22.824,23.494   C234.154,328.53,223.82,338.679,211.185,338.679z"/>
	<path style="fill:#F3C74F;" d="M415.074,363.785c-1.651,0-3.325-0.177-5.004-0.547c-12.492-2.751-20.389-15.107-17.639-27.6   c2.522-11.45,0.157-22.816-7.232-34.747c-6.734-10.875-3.378-25.15,7.498-31.885c10.874-6.73,25.149-3.379,31.885,7.498   c13.853,22.372,18.257,45.619,13.088,69.095C435.289,356.413,425.708,363.785,415.074,363.785z"/>
</g>
<g>
</g>
<g>
</g>
<g>
</g>
<g>
</g>
<g>
</g>
<g>
</g>
<g>
</g>
<g>
</g>
<g>
</g>
<g>
</g>
<g>
</g>
<g>
</g>
<g>
</g>
<g>
</g>
<g>
</g>
</svg>
