<?xml version="1.0" encoding="iso-8859-1"?>
<!-- Generator: Adobe Illustrator 19.0.0, SVG Export Plug-In . SVG Version: 6.00 Build 0)  -->
<svg xmlns="http://www.w3.org/2000/svg" xmlns:xlink="http://www.w3.org/1999/xlink" version="1.1" id="Layer_1" x="0px" y="0px" viewBox="0 0 512 512" style="enable-background:new 0 0 512 512;" xml:space="preserve">
<g>
	<path style="fill:#F3C74F;" d="M471.452,369.471c-8.782,0-17.305-4.616-21.908-12.82c-6.782-12.086,1.678-26.802,9.606-34.163   c2.131-1.196,3.271-7.221,1.49-15.237c-3.838-17.274-19.251-36.474-40.256-38.032c-13.821-1.024-24.195-13.061-23.168-26.881   c1.024-13.822,13.051-24.211,26.881-23.168c21.665,1.607,41.626,10.954,57.724,27.031c13.811,13.794,23.69,31.609,27.811,50.164   c6.745,30.353-3.191,57.134-25.927,69.891C479.825,368.437,475.608,369.471,471.452,369.471z"/>
	<path style="fill:#F3C74F;" d="M29.555,375.495c-10.543,0-20.379-6.643-23.949-17.183c-8.788-25.949-6.655-51.336,6.168-73.417   c17.787-30.627,51.449-46.851,77.022-51.821c13.713-2.659,26.982,6.29,29.648,20c2.664,13.71-6.29,26.983-20,29.648   c-15.106,2.935-34.24,12.599-42.935,27.572c-5.427,9.345-6.081,19.745-1.999,31.794c4.48,13.228-2.612,27.583-15.84,32.064   C34.982,375.062,32.245,375.495,29.555,375.495z"/>
</g>
<path style="opacity:0.2;enable-background:new    ;" d="M118.444,253.073c-2.666-13.71-15.934-22.657-29.648-20  c-10.136,1.969-21.541,5.715-32.725,11.417c-0.295,4.389-0.456,8.721-0.456,12.966c0,15.58,1.967,30.7,5.662,45.131  c9.83-10.59,24.838-17.472,37.168-19.868C112.154,280.056,121.108,266.783,118.444,253.073z"/>
<path style="fill:#F3C74F;" d="M309.411,512c-13.966,0-25.288-11.322-25.288-25.288v-95.76c0-13.966,11.322-25.288,25.288-25.288  s25.288,11.322,25.288,25.288v95.76C334.699,500.678,323.377,512,309.411,512z"/>
<path style="opacity:0.2;enable-background:new    ;" d="M309.411,365.665c-13.966,0-25.288,11.322-25.288,25.288v53.036  c17.857-2.851,34.847-8.28,50.576-15.901v-37.135C334.699,376.986,323.377,365.665,309.411,365.665z"/>
<path style="fill:#F3C74F;" d="M200.672,512c-13.966,0-25.288-11.322-25.288-25.288v-95.76c0-13.966,11.322-25.288,25.288-25.288  c13.966,0,25.288,11.322,25.288,25.288v95.76C225.961,500.678,214.64,512,200.672,512z"/>
<path style="opacity:0.2;enable-background:new    ;" d="M200.672,365.665c-13.966,0-25.288,11.322-25.288,25.288v37.135  c15.728,7.621,32.72,13.049,50.576,15.901v-53.036C225.961,376.986,214.64,365.665,200.672,365.665z"/>
<circle style="fill:#0081C6;" cx="395.126" cy="85.984" r="58.075"/>
<circle style="fill:#F3C74F;" cx="395.126" cy="85.984" r="27.116"/>
<circle style="fill:#0081C6;" cx="114.961" cy="85.984" r="58.075"/>
<circle style="fill:#F3C74F;" cx="114.961" cy="85.984" r="27.116"/>
<path style="opacity:0.2;enable-background:new    ;" d="M149.293,39.148c-27.307,24.68-50.469,58.655-66.92,94.917  c9.292,6.311,20.508,10,32.587,10c32.076,0,58.08-26.004,58.08-58.08C173.039,66.757,163.688,49.718,149.293,39.148z"/>
<path style="fill:#E6595A;" d="M437.532,245.253C437.532,144.765,353.757,0,255.042,0S72.552,144.765,72.552,245.253  s81.704,181.951,182.49,181.951S437.532,345.743,437.532,245.253z"/>
<path style="opacity:0.2;enable-background:new    ;" d="M255.042,0c-45.547,0-87.904,30.829-120.328,73.898  c2.708,2.157,6.054,3.307,9.459,3.307c2.242,0,4.51-0.498,6.635-1.532c0.863-0.42,1.737-0.825,2.625-1.214  c1.797-0.789,3.857,0.329,4.203,2.262c3.04,16.98,8.645,37.499,24.843,46.754c2.321,1.326,4.917,1.999,7.528,1.999  c3.316,0,6.653-1.087,9.462-3.307c2.284-1.805,3.972-4.28,4.919-7.032c7.442-21.626,30.489-43.32,47.321-59.166  c0.419-0.394,0.837-0.787,1.251-1.177c1.171-1.103,2.994-1.103,4.166,0c0.415,0.391,0.832,0.783,1.251,1.177  c16.832,15.846,39.879,37.54,47.321,59.166c0.947,2.752,2.635,5.227,4.919,7.032c2.809,2.22,6.147,3.307,9.462,3.307  c2.61,0,5.21-0.673,7.528-1.999c16.196-9.254,21.803-29.774,24.843-46.754c0.346-1.932,2.406-3.051,4.203-2.262  c0.888,0.39,1.763,0.794,2.625,1.214c2.124,1.034,4.392,1.532,6.635,1.532c3.405,0,6.751-1.149,9.459-3.307  C342.947,30.829,300.589,0,255.042,0z"/>
<path style="fill:#892641;" d="M255.042,0C213.8,0,175.171,25.278,144.164,62.029c6.585-3.207,13.617-5.613,21.322-7.38  c1.965-0.451,3.935,0.79,4.33,2.767c2.264,11.36,4.198,38.017,15.988,49.66c1.834,1.811,4.877,1.207,5.87-1.172  c12.177-29.181,44.301-55.125,60.818-71.713c1.41-1.416,3.689-1.416,5.098,0c16.517,16.589,48.641,42.534,60.818,71.713  c0.993,2.38,4.036,2.984,5.87,1.172c11.79-11.643,13.724-38.301,15.988-49.66c0.394-1.977,2.365-3.217,4.33-2.767  c7.705,1.766,14.736,4.173,21.322,7.38C334.912,25.278,296.285,0,255.042,0z"/>
<path style="opacity:0.1;fill:#FFFFFF;enable-background:new    ;" d="M286.38,4.825c-2.263,5.844-3.517,12.19-3.517,18.833  c0,28.825,23.367,52.192,52.19,52.192c12.404,0,23.791-4.336,32.747-11.563C344.408,35.925,316.531,14.07,286.38,4.825z"/>
<g>
	<path style="fill:#40BAB3;" d="M284.078,171.118h-58.073c-16.964,0-30.717,13.752-30.717,30.718l0,0   c0,16.964,13.752,30.717,30.717,30.717h58.073c16.964,0,30.717-13.752,30.717-30.717l0,0   C314.796,184.87,301.044,171.118,284.078,171.118z"/>
	
		<ellipse transform="matrix(0.7071 -0.7071 0.7071 0.7071 -88.1887 152.2993)" style="fill:#40BAB3;" cx="139.747" cy="182.603" rx="25.967" ry="29.468"/>
	
		<ellipse transform="matrix(0.7071 0.7071 -0.7071 0.7071 237.5986 -208.3949)" style="fill:#40BAB3;" cx="370.354" cy="182.609" rx="25.967" ry="29.468"/>
</g>
<path style="fill:#FFFFFF;" d="M75.625,278.624c15.721,84.549,90.064,148.581,179.416,148.581  c89.353,0,163.696-64.031,179.416-148.581H75.625z"/>
<path style="fill:#0081C6;" d="M107.931,352.914c33.214,45.049,86.733,74.29,147.111,74.29s113.897-29.242,147.111-74.29H107.931z"/>
<path style="opacity:0.2;enable-background:new    ;" d="M274.393,407.853c-100.787,0-182.49-81.462-182.49-181.951  c0-60.498,30.371-137.029,76.078-188.373c-56.291,49.691-95.43,139.043-95.43,207.724c0,100.489,81.704,181.951,182.49,181.951  c55.413,0,105.052-24.63,138.52-63.504C361.589,391.212,319.941,407.853,274.393,407.853z"/>
<g>
	<path style="fill:#FFFFFF;" d="M143.257,218.54c-9.752,0-19.852-3.97-27.665-11.781c-14.681-14.682-15.794-37.459-2.478-50.774   c13.317-13.316,36.092-12.203,50.775,2.478c14.681,14.682,15.794,37.459,2.478,50.774   C160.136,215.468,151.834,218.54,143.257,218.54z M136.236,163.004c-4.366,0-8.488,1.493-11.549,4.554   c-6.936,6.933-5.823,19.329,2.478,27.628c4.158,4.158,9.43,6.636,14.843,6.978c5.026,0.314,9.567-1.281,12.786-4.5   c6.935-6.933,5.823-19.329-2.478-27.628C147.68,165.398,141.763,163.004,136.236,163.004z"/>
	<path style="fill:#FFFFFF;" d="M366.785,218.571c-8.882,0-17.003-3.269-23.068-9.334l0,0c-0.001-0.001-0.001-0.001-0.001-0.001   c-6.59-6.59-9.879-15.607-9.261-25.388c0.595-9.394,4.762-18.408,11.738-25.385c14.683-14.679,37.459-15.794,50.775-2.478   c6.59,6.591,9.878,15.608,9.26,25.39c-0.594,9.393-4.762,18.408-11.739,25.384c-6.974,6.975-15.989,11.145-25.384,11.738   C368.327,218.546,367.553,218.571,366.785,218.571z M373.848,163.004c-5.527,0-11.443,2.394-16.081,7.032   c-4.158,4.157-6.636,9.429-6.978,14.843c-0.317,5.025,1.281,9.567,4.499,12.786l0.001,0.001c3.22,3.22,7.763,4.823,12.785,4.499   c5.416-0.343,10.688-2.82,14.843-6.978c4.158-4.158,6.636-9.43,6.978-14.843c0.317-5.025-1.281-9.567-4.5-12.786   C382.336,164.498,378.213,163.004,373.848,163.004z"/>
	<path style="fill:#FFFFFF;" d="M284.078,240.735h-58.074c-21.45,0-38.9-17.45-38.9-38.9s17.45-38.901,38.9-38.901h58.074   c21.45,0,38.9,17.451,38.9,38.901C322.979,223.286,305.529,240.735,284.078,240.735z M226.005,179.3   c-12.426,0-22.534,10.109-22.534,22.535c0,12.426,10.109,22.534,22.534,22.534h58.074c12.426,0,22.534-10.109,22.534-22.534   c0-12.427-10.109-22.535-22.534-22.535H226.005z"/>
</g>
<path style="fill:#593C00;" d="M83.205,338.309c6.381,11.673,13.925,22.628,22.473,32.709c3.904,4.603,9.644,7.247,15.679,7.247  h267.368c6.036,0,11.775-2.642,15.679-7.247c8.549-10.081,16.092-21.036,22.473-32.709c2.636-4.822-0.802-10.711-6.297-10.711  H89.502C84.006,327.599,80.569,333.487,83.205,338.309z"/>
<circle style="opacity:0.2;enable-background:new    ;" cx="249.856" cy="359.341" r="42.233"/>
<circle style="fill:#F3C74F;" cx="255.038" cy="352.937" r="42.233"/>
<circle style="opacity:0.2;enable-background:new    ;" cx="255.038" cy="352.937" r="19.357"/>
<g>
	<path style="opacity:0.3;fill:#FFFFFF;enable-background:new    ;" d="M255.078,310.701c-1.937,3.757-3.036,8.016-3.036,12.534   c0,15.139,12.273,27.412,27.412,27.412c6.432,0,12.34-2.22,17.016-5.929C292.648,325.338,275.575,310.717,255.078,310.701z"/>
	<circle style="opacity:0.3;fill:#FFFFFF;enable-background:new    ;" cx="265.949" cy="368.669" r="11.179"/>
</g>
<g>
	<path style="fill:#394049;" d="M266.843,215.919c-4.411,0-8.491-1.436-11.801-3.866c-3.309,2.43-7.39,3.866-11.801,3.866   c-11.019,0-19.983-8.965-19.983-19.983c0-4.52,3.663-8.183,8.183-8.183c4.52,0,8.183,3.663,8.183,8.183   c0,1.995,1.622,3.618,3.618,3.618s3.618-1.622,3.618-3.618c0-4.52,3.663-8.183,8.183-8.183s8.183,3.663,8.183,8.183   c0,1.995,1.622,3.618,3.618,3.618s3.618-1.622,3.618-3.618c0-4.52,3.663-8.183,8.183-8.183s8.183,3.663,8.183,8.183   C286.826,206.954,277.861,215.919,266.843,215.919z"/>
	<path style="fill:#394049;" d="M141.508,192.56c-2.094,0-4.187-0.798-5.786-2.396l-3.533-3.532   c-3.196-3.195-3.197-8.376-0.001-11.571c3.192-3.197,8.374-3.199,11.571-0.001l3.533,3.532c3.196,3.195,3.197,8.376,0.001,11.571   C145.698,191.76,143.603,192.56,141.508,192.56z"/>
	<path style="fill:#394049;" d="M368.577,192.56c-2.094,0-4.188-0.799-5.787-2.396c-3.196-3.197-3.196-8.377,0-11.573l3.532-3.532   c3.197-3.195,8.377-3.195,11.573,0c3.196,3.197,3.196,8.377,0,11.573l-3.532,3.532C372.766,191.76,370.671,192.56,368.577,192.56z"/>
</g>
<g>
	<path style="fill:#F0B0B7;" d="M154.974,249.643h-30.466c-4.52,0-8.183-3.663-8.183-8.183s3.663-8.183,8.183-8.183h30.466   c4.52,0,8.183,3.663,8.183,8.183S159.494,249.643,154.974,249.643z"/>
	<path style="fill:#F0B0B7;" d="M385.575,249.643H355.11c-4.52,0-8.183-3.663-8.183-8.183s3.663-8.183,8.183-8.183h30.466   c4.52,0,8.183,3.663,8.183,8.183S390.094,249.643,385.575,249.643z"/>
</g>
<path style="fill:#F3C74F;" d="M81.355,412.436c-5.335,0-10.644-0.496-15.892-1.509c-28.163-5.433-50.539-25.102-59.858-52.616  c-4.48-13.228,2.612-27.583,15.84-32.064c13.224-4.479,27.584,2.613,32.064,15.84c3.51,10.367,11.159,17.178,21.535,19.179  c16.338,3.16,35.644-6.115,51.623-24.791c9.081-10.61,25.043-11.854,35.655-2.776c10.612,9.081,11.855,25.043,2.776,35.655  C141.402,397.049,111.028,412.436,81.355,412.436z"/>
<g style="opacity:0.2;">
	<path d="M255.042,147.598c-4.52,0-8.183-3.663-8.183-8.183v-8.183c0-4.52,3.663-8.183,8.183-8.183s8.183,3.663,8.183,8.183v8.183   C263.224,143.934,259.562,147.598,255.042,147.598z"/>
	<path d="M255.042,117.232c-4.52,0-8.183-3.663-8.183-8.183V95.74c0-4.52,3.663-8.183,8.183-8.183s8.183,3.663,8.183,8.183v13.309   C263.224,113.568,259.562,117.232,255.042,117.232z M255.042,81.741c-4.52,0-8.183-3.663-8.183-8.183V60.248   c0-4.52,3.663-8.183,8.183-8.183s8.183,3.663,8.183,8.183v13.309C263.224,78.077,259.562,81.741,255.042,81.741z"/>
	<path d="M255.042,46.249c-4.52,0-8.183-3.663-8.183-8.183v-8.183c0-4.52,3.663-8.183,8.183-8.183s8.183,3.663,8.183,8.183v8.183   C263.224,42.586,259.562,46.249,255.042,46.249z"/>
</g>
<g style="opacity:0.2;">
	<circle style="fill:#FFFFFF;" cx="360.89" cy="95.443" r="9.454"/>
	<circle style="fill:#FFFFFF;" cx="341.982" cy="128.054" r="9.454"/>
	<circle style="fill:#FFFFFF;" cx="149.198" cy="113.107" r="9.454"/>
</g>
<path style="fill:#F3C74F;" d="M454.498,374.314c-8.342,0-16.653-1.948-24.742-5.85c-12.847-6.201-23.266-16.279-33.342-26.025  c-16.257-15.725-27.151-25.273-41.303-25.273c-13.858,0-25.094-11.235-25.094-25.094s11.235-25.094,25.094-25.094  c35.475,0,59.01,22.764,76.195,39.387c20.778,20.096,23.345,19.344,27.845,16.123c11.271-8.063,27.383-2.48,34.163,9.607  c6.782,12.086,2.48,27.382-9.607,34.163C474.144,371.624,464.3,374.314,454.498,374.314z"/>
<g>
</g>
<g>
</g>
<g>
</g>
<g>
</g>
<g>
</g>
<g>
</g>
<g>
</g>
<g>
</g>
<g>
</g>
<g>
</g>
<g>
</g>
<g>
</g>
<g>
</g>
<g>
</g>
<g>
</g>
</svg>
