<?xml version="1.0" encoding="iso-8859-1"?>
<!-- Generator: Adobe Illustrator 19.0.0, SVG Export Plug-In . SVG Version: 6.00 Build 0)  -->
<svg xmlns="http://www.w3.org/2000/svg" xmlns:xlink="http://www.w3.org/1999/xlink" version="1.1" id="Layer_1" x="0px" y="0px" viewBox="0 0 512 512" style="enable-background:new 0 0 512 512;" xml:space="preserve">
<path style="fill:#593C00;" d="M511.999,101.846c0,22.521-17.978,85.408-70.16,94.886c-52.182,9.477-71.406,6.053-97.772,31.385  L265.52,110.616L511.999,101.846z"/>
<path style="opacity:0.3;enable-background:new    ;" d="M511.999,101.846c0,22.521-17.978,85.408-70.16,94.886  c-52.182,9.477-71.406,6.053-97.772,31.385L265.52,110.616L511.999,101.846z"/>
<path style="fill:#F3C74F;" d="M440.232,466.462h-140.41c-12.428,0-22.502-10.074-22.502-22.502s10.074-22.502,22.502-22.502h140.41  c12.428,0,22.502,10.074,22.502,22.502C462.734,456.388,452.659,466.462,440.232,466.462z"/>
<path style="opacity:0.2;enable-background:new    ;" d="M440.232,466.462h-140.41c-12.428,0-22.502-10.074-22.502-22.502  s10.074-22.502,22.502-22.502h140.41c12.428,0,22.502,10.074,22.502,22.502C462.734,456.388,452.659,466.462,440.232,466.462z"/>
<path style="fill:#F3C74F;" d="M398.078,271.226c-14.102,0-27.724-2.752-38.042-7.858c-11.146-5.518-15.711-19.027-10.194-30.174  c5.518-11.146,19.027-15.712,30.174-10.194c11.946,5.915,38.554,3.107,44.485-4.691c2.311-3.036-0.389-14.974-17.473-34.085  c-8.29-9.272-7.492-23.509,1.781-31.798c9.271-8.29,23.51-7.492,31.798,1.781c15.184,16.986,24.335,32.511,27.978,47.461  c5.047,20.716-1.696,35.317-8.24,43.918c-10.281,13.511-27.95,22.36-49.748,24.914C406.433,270.986,402.234,271.226,398.078,271.226  z"/>
<path style="opacity:0.2;enable-background:new    ;" d="M440.608,154.205c-8.288-9.273-22.527-10.071-31.798-1.781  c-5.728,5.119-8.212,12.508-7.327,19.595c19.343,1.147,37.667,1.188,52.757-0.628C450.401,165.813,445.876,160.099,440.608,154.205z  "/>
<path style="fill:#40BAB3;" d="M371.296,201.034C326.588,123.597,197.621,49.312,121.551,93.231  C45.48,137.151,45.33,285.981,90.039,363.418c44.708,77.438,143.914,103.862,221.581,59.021  C389.286,377.598,416.004,278.472,371.296,201.034z"/>
<path style="fill:#FFFFFF;" d="M107.254,387.767c49.731,58.16,135.51,74.428,204.365,34.673  c68.857-39.754,97.658-122.173,72.155-194.322L107.254,387.767z"/>
<path style="fill:#0081C6;" d="M165.202,430.643c45.639,19.938,99.89,18.66,146.418-8.203s74.76-73.208,80.313-122.701  L165.202,430.643z"/>
<path style="opacity:0.2;enable-background:new    ;" d="M317.923,398.917c-77.667,44.841-176.873,18.416-221.581-59.02  c-26.916-46.62-37.562-119.109-25.182-179.009c-21.27,63.336-11.678,149.605,18.88,202.532  c44.708,77.438,143.914,103.862,221.581,59.021c42.702-24.654,69.996-65.719,78.492-110.566  C377.713,347.299,353.022,378.652,317.923,398.917z"/>
<g>
	<path style="fill:#394049;" d="M132.382,269.036c-2.847,0-5.617-1.478-7.143-4.122c-2.275-3.941-0.924-8.98,3.018-11.254   l3.848-2.221c3.941-2.276,8.98-0.926,11.255,3.017c2.275,3.941,0.924,8.98-3.018,11.254l-3.848,2.222   C135.197,268.68,133.78,269.036,132.382,269.036z"/>
	<path style="fill:#394049;" d="M296.446,174.316c-2.847,0-5.616-1.478-7.143-4.12c-2.275-3.941-0.926-8.981,3.014-11.256   l3.849-2.222c3.942-2.274,8.981-0.925,11.256,3.014c2.275,3.941,0.926,8.981-3.014,11.256l-3.849,2.222   C299.26,173.96,297.843,174.316,296.446,174.316z"/>
	<path style="fill:#394049;" d="M207.173,252.345c-8.351,0-16.484-4.331-20.951-12.068c-2.275-3.941-0.925-8.98,3.016-11.255   c3.941-2.274,8.979-0.925,11.255,3.016c2.113,3.66,6.813,4.918,10.474,2.807c1.773-1.024,3.042-2.677,3.571-4.655   c0.529-1.979,0.258-4.045-0.766-5.818c-0.749-1.296-1.105-2.712-1.105-4.11c-0.001-2.847,1.478-5.618,4.121-7.145   c3.941-2.274,8.98-0.925,11.256,3.016c2.114,3.66,6.812,4.92,10.474,2.807c1.773-1.024,3.042-2.677,3.573-4.655   c0.53-1.979,0.258-4.045-0.766-5.818c-2.275-3.941-0.925-8.98,3.016-11.255c3.942-2.274,8.98-0.925,11.256,3.016   c3.225,5.585,4.082,12.092,2.412,18.322c-1.67,6.23-5.664,11.436-11.25,14.661c-5.268,3.042-11.217,3.868-16.76,2.764   c-1.879,5.557-5.665,10.184-10.79,13.142C215.413,251.305,211.267,252.345,207.173,252.345z"/>
</g>
<g>
	<path style="fill:#F0B0B7;" d="M141.339,307.213c-2.847,0-5.617-1.478-7.143-4.121c-2.275-3.941-0.925-8.98,3.016-11.255   l23.477-13.554c3.941-2.274,8.98-0.926,11.255,3.016c2.275,3.941,0.925,8.98-3.016,11.255l-23.477,13.554   C144.153,306.857,142.736,307.213,141.339,307.213z"/>
	<path style="fill:#F0B0B7;" d="M305.401,212.491c-2.848,0-5.617-1.478-7.143-4.121c-2.275-3.941-0.925-8.98,3.016-11.255   l23.476-13.554c3.939-2.274,8.981-0.926,11.255,3.016c2.275,3.941,0.925,8.98-3.016,11.255l-23.476,13.554   C308.216,212.135,306.799,212.491,305.401,212.491z"/>
</g>
<path style="fill:#0081C6;" d="M95.577,194.7c0.554,0.895,0.97,1.877,1.249,2.891c3.672,13.36,3.191,24.233-0.107,36.543  c-3.284,12.254-8.073,21.465-17.958,31.272c-0.844,0.837-1.805,1.563-2.854,2.122c-25.057,13.351-56.525,3.988-70.004-21.549  c-12.512-23.706-4.524-53.521,18.166-67.794C48.569,162.771,80.597,170.472,95.577,194.7z"/>
<circle style="fill:#F3C74F;" cx="51.631" cy="221.898" r="24.129"/>
<path style="opacity:0.2;enable-background:new    ;" d="M83.26,248.62c-0.844,0.837-1.805,1.563-2.854,2.122  c-25.057,13.351-56.525,3.989-70.004-21.549c-4.815-9.124-6.583-19.151-5.655-28.85c-6.467,14.166-6.539,31.055,1.158,45.638  c13.478,25.537,44.947,34.899,70.004,21.549c1.049-0.559,2.01-1.285,2.854-2.122c9.886-9.807,14.675-19.016,17.958-31.272  c0.773-2.887,1.385-5.694,1.831-8.473C95.349,234.036,90.782,241.157,83.26,248.62z"/>
<path style="fill:#F3C74F;" d="M372.941,466.483c-4.479,0-9.002-1.333-12.942-4.105l-50.48-35.529l-45.729,34.995  c-9.879,7.563-24.012,5.68-31.572-4.197c-7.559-9.877-5.68-24.012,4.198-31.57l58.858-45.043c7.815-5.981,18.605-6.196,26.649-0.533  l64,45.043c10.172,7.159,12.614,21.208,5.455,31.379C386.991,463.152,380.021,466.483,372.941,466.483z"/>
<path style="fill:#593C00;" d="M465.462,67.242h-88.773c-60.634,0-88.099-14.831-182.575-14.831  c-68.66,0-129.905,45.148-147.135,113.274c-3.641,14.397,2.456,29.494,15.074,37.326l0,0c23.042,14.3,51.376,17.225,76.854,7.934  l13.368-4.875c28.806-10.506,53.295-30.305,69.598-56.273l0,0c7.598-12.102,21.572-18.641,35.732-16.721  c11.558,1.568,173.249,35.785,221.585,13.264S522.041,67.242,465.462,67.242z"/>
<g>
	<path style="opacity:0.1;fill:#FFFFFF;enable-background:new    ;" d="M108.989,78.003c-21.965,14.615-40.034,34.941-51.821,59.52   c4.506,1.638,9.369,2.532,14.441,2.532c23.353,0,42.285-18.932,42.285-42.285C113.893,90.629,112.116,83.904,108.989,78.003z"/>
	<path style="opacity:0.1;fill:#FFFFFF;enable-background:new    ;" d="M465.462,67.242h-87.357   c11.585,26.089,37.702,44.293,68.087,44.293c23.882,0,45.122-11.254,58.752-28.732C497.547,73.557,484.359,67.242,465.462,67.242z"/>
</g>
<path style="opacity:0.1;enable-background:new    ;" d="M319.297,101.04c-1.773,11.792-39.308,10.495-75.926-0.649  c-23.012-7.003-27.974-14.59-23.182-23.405c5.056-2.878,40.21,0.692,52.019,4.537C284.018,85.368,316.126,97.213,319.297,101.04z"/>
<path style="fill:#0081C6;" d="M311.857,70.221c-13.828-22.659-43.104-31.19-66.903-19.435c-11.682,5.771-20.127,15.237-24.764,26.2  c-1.058,2.501,0.655,5.339,3.361,5.578c28.614,2.533,62.674,15.444,90.785,22.111c2.418,0.573,4.773-1.158,4.962-3.635  C320.089,90.628,317.741,79.863,311.857,70.221z"/>
<g>
	<path style="fill:#F3C74F;" d="M288.653,85.103c-6.663-11.54-21.42-15.494-32.96-8.831c-4.204,2.428-7.388,5.937-9.431,9.965   c15.028,3.306,30.663,8.084,45.574,12.386C292.115,94.058,291.111,89.362,288.653,85.103z"/>
	<path style="fill:#F3C74F;" d="M40.434,466.481c-5.27,0-10.56-1.838-14.835-5.584c-9.353-8.199-10.29-22.427-2.093-31.78   l41.619-47.485c8.457-9.65,13.895-21.465,15.726-34.166c1.775-12.31,13.195-20.851,25.503-19.077   c12.31,1.774,20.852,13.193,19.077,25.503c-3.077,21.348-12.218,41.206-26.434,57.426l-41.619,47.485   C52.928,463.884,46.695,466.481,40.434,466.481z"/>
</g>
<g>
</g>
<g>
</g>
<g>
</g>
<g>
</g>
<g>
</g>
<g>
</g>
<g>
</g>
<g>
</g>
<g>
</g>
<g>
</g>
<g>
</g>
<g>
</g>
<g>
</g>
<g>
</g>
<g>
</g>
</svg>
