<?xml version="1.0" encoding="iso-8859-1"?>
<!-- Generator: Adobe Illustrator 19.0.0, SVG Export Plug-In . SVG Version: 6.00 Build 0)  -->
<svg xmlns="http://www.w3.org/2000/svg" xmlns:xlink="http://www.w3.org/1999/xlink" version="1.1" id="Layer_1" x="0px" y="0px" viewBox="0 0 512 512" style="enable-background:new 0 0 512 512;" xml:space="preserve">
<g>
	<path style="fill:#F3C74F;" d="M374.105,316.73c-10.614,0-20.075-7.522-22.142-18.333c-2.342-12.242,5.683-24.066,17.927-26.408   c47.251-9.04,71.25-29.802,80.243-69.422c2.759-12.154,14.85-19.774,27.005-17.014c12.155,2.759,19.773,14.85,17.014,27.006   c-13.032,57.41-50.904,91.352-115.78,103.764C376.938,316.598,375.51,316.73,374.105,316.73z"/>
	<path style="fill:#F3C74F;" d="M120.61,316.731c-1.406,0-2.833-0.132-4.266-0.406C51.469,303.911,13.597,269.969,0.565,212.56   c-2.759-12.156,4.859-24.247,17.014-27.006c12.156-2.756,24.247,4.859,27.006,17.014c8.993,39.62,32.991,60.382,80.243,69.423   c12.242,2.343,20.268,14.167,17.925,26.409C140.684,309.209,131.224,316.731,120.61,316.731z"/>
</g>
<path style="opacity:0.2;enable-background:new    ;" d="M124.827,271.99c-23.303-4.459-40.94-11.775-53.921-22.792  c-1.035,8.058-1.583,15.94-1.583,23.533c0,10.223,0.958,20.221,2.769,29.919c13.034,5.966,27.767,10.518,44.252,13.673  c1.434,0.275,2.86,0.406,4.266,0.406c10.614,0,20.074-7.522,22.142-18.332C145.095,286.157,137.069,274.333,124.827,271.99z"/>
<path style="fill:#F3C74F;" d="M295.882,505.329c-12.466,0-22.569-10.105-22.569-22.569v-85.466  c0-12.466,10.105-22.569,22.569-22.569c12.464,0,22.569,10.105,22.569,22.569v85.466  C318.451,495.225,308.347,505.329,295.882,505.329z"/>
<path style="opacity:0.2;enable-background:new    ;" d="M295.882,374.725c-12.466,0-22.569,10.105-22.569,22.569v75.898  c7.222,2.706,15.345,1.89,21.908-2.312l20.338-13.02c0.922-0.589,1.892-1.066,2.892-1.433v-59.134  C318.451,384.829,308.347,374.725,295.882,374.725z"/>
<path style="fill:#F3C74F;" d="M198.833,505.329c-12.464,0-22.569-10.105-22.569-22.569v-85.466  c0-12.466,10.105-22.569,22.569-22.569s22.569,10.105,22.569,22.569v85.466C221.402,495.225,211.298,505.329,198.833,505.329z"/>
<path style="opacity:0.2;enable-background:new    ;" d="M198.833,374.725c-12.464,0-22.569,10.105-22.569,22.569v76.199l2.172,0.89  c5.535,2.267,11.755,2.181,17.225-0.241l25.742-11.393v-65.455C221.402,384.829,211.298,374.725,198.833,374.725z"/>
<circle style="fill:#0081C6;" cx="372.376" cy="121.725" r="51.836"/>
<circle style="fill:#F3C74F;" cx="372.376" cy="121.725" r="24.206"/>
<circle style="fill:#0081C6;" cx="122.335" cy="121.725" r="51.836"/>
<circle style="fill:#F3C74F;" cx="122.335" cy="121.725" r="24.206"/>
<path style="opacity:0.2;enable-background:new    ;" d="M152.976,79.923c-24.372,22.027-45.043,52.349-59.726,84.714  c8.293,5.632,18.303,8.925,29.084,8.925c28.628,0,51.836-23.208,51.836-51.836C174.169,104.565,165.824,89.357,152.976,79.923z"/>
<path style="fill:#40BAB3;" d="M410.23,263.873c0-89.686-74.769-218.889-162.873-218.889S84.485,174.187,84.485,263.873  s72.921,162.391,162.873,162.391S410.23,353.559,410.23,263.873z"/>
<path style="fill:#FFFFFF;" d="M87.228,293.656c14.031,75.46,80.382,132.608,160.13,132.608s146.099-57.148,160.13-132.608H87.228z"/>
<path style="fill:#0081C6;" d="M116.06,359.959c29.644,40.206,77.409,66.304,131.296,66.304s101.653-26.098,131.296-66.304H116.06z"/>
<path style="opacity:0.2;enable-background:new    ;" d="M264.628,408.992c-89.952,0-162.873-72.705-162.873-162.391  c0-53.994,27.107-122.298,67.9-168.122c-50.239,44.349-85.171,124.096-85.171,185.393c0,89.686,72.921,162.391,162.873,162.391  c49.456,0,93.759-21.982,123.629-56.677C342.451,394.141,305.28,408.992,264.628,408.992z"/>
<g>
	<path style="fill:#394049;" d="M152.351,200.805c-4.512,0-8.17-3.657-8.17-8.17v-4.459c0-4.513,3.658-8.17,8.17-8.17   s8.17,3.657,8.17,8.17v4.459C160.521,197.148,156.863,200.805,152.351,200.805z"/>
	<path style="fill:#394049;" d="M342.364,200.805c-4.512,0-8.17-3.657-8.17-8.17v-4.459c0-4.513,3.658-8.17,8.17-8.17   c4.512,0,8.17,3.657,8.17,8.17v4.459C350.534,197.148,346.876,200.805,342.364,200.805z"/>
	<path style="fill:#394049;" d="M263.311,231.609c-6.111,0-11.699-2.284-15.954-6.044c-4.255,3.759-9.842,6.044-15.954,6.044   c-13.302,0-24.124-10.823-24.124-24.124c0-4.513,3.658-8.17,8.17-8.17c4.512,0,8.17,3.657,8.17,8.17   c0,4.292,3.491,7.783,7.784,7.783c4.292,0,7.783-3.491,7.783-7.783c0-4.513,3.658-8.17,8.17-8.17c4.512,0,8.17,3.657,8.17,8.17   c0,4.292,3.491,7.783,7.783,7.783s7.784-3.491,7.784-7.783c0-4.513,3.658-8.17,8.17-8.17c4.512,0,8.17,3.657,8.17,8.17   C287.435,220.787,276.613,231.609,263.311,231.609z"/>
</g>
<g>
	<path style="fill:#308C87;" d="M355.959,186.454H138.756c-4.512,0-8.17-3.657-8.17-8.17s3.658-8.17,8.17-8.17h217.203   c4.512,0,8.17,3.657,8.17,8.17S360.471,186.454,355.959,186.454z"/>
	<path style="fill:#308C87;" d="M308.457,153.235H186.259c-4.512,0-8.17-3.657-8.17-8.17c0-4.513,3.658-8.17,8.17-8.17h122.199   c4.512,0,8.17,3.657,8.17,8.17C316.627,149.578,312.969,153.235,308.457,153.235z"/>
</g>
<path style="fill:#394049;" d="M247.358,53.154c-4.512,0-8.17-3.658-8.17-8.17c0-11.785,10.811-35.971,30.627-38.256  c4.477-0.528,8.534,2.698,9.053,7.18c0.517,4.482-2.697,8.535-7.18,9.053c-9.166,1.058-16.16,16.179-16.16,22.025  C255.528,49.496,251.87,53.154,247.358,53.154z"/>
<g>
	<path style="fill:#F0B0B7;" d="M165.946,236.228h-27.19c-4.512,0-8.17-3.657-8.17-8.17s3.658-8.17,8.17-8.17h27.19   c4.512,0,8.17,3.657,8.17,8.17C174.117,232.57,170.458,236.228,165.946,236.228z"/>
	<path style="fill:#F0B0B7;" d="M355.959,236.228h-27.19c-4.512,0-8.17-3.657-8.17-8.17s3.658-8.17,8.17-8.17h27.19   c4.512,0,8.17,3.657,8.17,8.17C364.13,232.57,360.471,236.228,355.959,236.228z"/>
</g>
<path style="fill:#F1A21E;" d="M410.23,263.873v186.16c0,6.268-7.273,9.73-12.138,5.779l-14.322-11.631  c-2.921-2.372-7.152-2.192-9.86,0.419l-13.597,13.109c-2.536,2.446-6.44,2.778-9.353,0.796l-19.099-12.988  c-4.899-3.331-11.312-3.421-16.301-0.227l-20.338,13.02c-7.149,4.576-16.151,5.148-23.822,1.512l-25.08-11.887  c-6.084-2.884-13.124-2.975-19.281-0.251l-31.377,13.887c-5.47,2.421-11.69,2.508-17.225,0.241l-33.571-13.751  c-3.515-1.44-7.466-1.38-10.937,0.164l-20.255,9.017c-4.924,2.192-10.472-1.412-10.472-6.801V345.929  c0-3.776,2.756-6.992,6.49-7.546c45.98-6.83,212.179-18.234,292.451-130.268C406.663,219.521,410.23,247.309,410.23,263.873z"/>
<path style="fill:#593C00;" d="M220.534,409.676c-23.476,0-42.506,19.031-42.506,42.506c0,3.411,0.413,6.722,1.171,9.9  c5.341,1.961,11.24,1.803,16.462-0.509l31.377-13.887c6.157-2.726,13.195-2.634,19.281,0.249l16.559,7.849  c0.1-1.189,0.162-2.389,0.162-3.603C263.04,428.707,244.009,409.676,220.534,409.676z M103.201,372.166v78.277  c0,5.389,5.549,8.993,10.472,6.801l20.255-9.017c3.118-1.388,6.62-1.566,9.849-0.547c2.819-6.609,4.382-13.882,4.382-21.521  C148.159,399.235,128.774,376.852,103.201,372.166z M173.499,329.209c-0.44,2.8-0.673,5.667-0.673,8.59  c0,30.326,24.584,54.91,54.91,54.91c30.326,0,54.91-24.584,54.91-54.91c0-13.08-4.581-25.085-12.216-34.516  C236.294,316.316,202.242,324.143,173.499,329.209z M364.98,348.184c0,23.476,19.03,42.506,42.506,42.506  c0.923,0,1.836-0.039,2.743-0.098v-84.817c-0.907-0.058-1.82-0.098-2.743-0.098C384.011,305.678,364.98,324.708,364.98,348.184z   M402.143,208.117c-17.217,24.03-38.395,43.42-61.484,59.138c9.482,16.095,26.98,26.902,47.011,26.902  c8.048,0,15.682-1.757,22.559-4.888v-25.396C410.23,247.309,406.663,219.521,402.143,208.117z M342.364,383.298  c-7.922,0-14.344,6.422-14.344,14.344c0,7.922,6.422,14.344,14.344,14.344s14.344-6.422,14.344-14.344  C356.708,389.72,350.286,383.298,342.364,383.298z M336.087,320.022c0-7.922-6.422-14.344-14.344-14.344S307.4,312.1,307.4,320.022  s6.422,14.344,14.344,14.344C329.665,334.366,336.087,327.944,336.087,320.022z"/>
<path id="SVGCleanerId_0" style="fill:#A27B5A;" d="M476.655,23.307L476.655,23.307c-21.464,0-37.971,18.977-34.998,40.233  l18.087,129.313c1.18,8.435,8.395,14.711,16.911,14.711l0,0c8.517,0,15.732-6.276,16.911-14.711L511.653,63.54  C514.626,42.284,498.118,23.307,476.655,23.307z"/>
<g>
	<path id="SVGCleanerId_0_1_" style="fill:#A27B5A;" d="M476.655,23.307L476.655,23.307c-21.464,0-37.971,18.977-34.998,40.233   l18.087,129.313c1.18,8.435,8.395,14.711,16.911,14.711l0,0c8.517,0,15.732-6.276,16.911-14.711L511.653,63.54   C514.626,42.284,498.118,23.307,476.655,23.307z"/>
</g>
<path style="opacity:0.2;enable-background:new    ;" d="M457.985,121.096c-1.466-0.675-2.732-1.257-3.751-1.777l-0.388-0.195  c-1.762-0.886-3.327-1.684-4.754-2.418l2.78,19.88c8.923,4.146,17.988,9.021,16.681,14.694c-1.555,6.754-5.685,10.248-10.059,13.945  c-0.78,0.66-1.566,1.325-2.336,2.012l2.902,20.748c2.417-2.446,5.186-5.254,6.252-6.359c0.404-0.738,2.433-2.454,3.914-3.707  c5.069-4.287,12.73-10.764,15.526-22.913C489.245,135.492,468.132,125.769,457.985,121.096z M510.378,48.053  c-0.959,0.385-1.837,0.806-2.608,1.27c-0.352,0.185-0.81,0.406-1.349,0.67c-6.843,3.353-25.023,12.259-27.768,31.199  c-0.9,6.206,1.196,12.748,6.061,18.92c4.709,5.975,13.352,12.734,19.557,13.751c0.107,0.023,0.222,0.046,0.331,0.07l2.315-16.547  c-3.829-1.586-12.48-9.211-11.813-13.808c1.283-8.858,10.41-14.449,16.182-17.43l0.365-2.607  C512.408,58.138,511.9,52.886,510.378,48.053z M476.327,72.416c3.016-9.45,13.825-17.227,21.716-22.907  c4.065-2.925,7.342-5.296,9.611-7.829c-2.743-4.997-6.666-9.281-11.418-12.455c-0.386,0.451-0.735,0.93-1.015,1.453  c-0.986,1.09-4.381,3.535-6.888,5.339c-9.221,6.635-23.158,16.664-27.844,31.345c-12.995,40.716,24.105,60.965,38.072,68.588  c0.114,0.063,0.23,0.122,0.346,0.179c0.711,0.346,1.535,0.709,2.439,1.082l2.431-17.382  C484.704,109.036,468.927,95.606,476.327,72.416z"/>
<path style="opacity:0.2;enable-background:new    ;" d="M482.854,201.364L482.854,201.364c-8.517,0-15.731-6.276-16.911-14.711  L447.856,57.342c-1.388-9.924,1.473-19.35,7.099-26.582c-9.56,7.461-15.129,19.684-13.298,32.78l18.087,129.313  c1.18,8.435,8.395,14.711,16.911,14.711l0,0c6.245,0,11.78-3.382,14.759-8.509C488.884,200.523,485.958,201.364,482.854,201.364z"/>
<g>
</g>
<g>
</g>
<g>
</g>
<g>
</g>
<g>
</g>
<g>
</g>
<g>
</g>
<g>
</g>
<g>
</g>
<g>
</g>
<g>
</g>
<g>
</g>
<g>
</g>
<g>
</g>
<g>
</g>
</svg>
