<?xml version="1.0" encoding="iso-8859-1"?>
<!-- Generator: Adobe Illustrator 19.0.0, SVG Export Plug-In . SVG Version: 6.00 Build 0)  -->
<svg xmlns="http://www.w3.org/2000/svg" xmlns:xlink="http://www.w3.org/1999/xlink" version="1.1" id="Layer_1" x="0px" y="0px" viewBox="0 0 512.001 512.001" style="enable-background:new 0 0 512.001 512.001;" xml:space="preserve">
<path style="fill:#8E78CF;" d="M427.257,257.598c-46.021-12.208-106.841-18.932-171.256-18.932s-125.236,6.722-171.256,18.932  C28.512,272.514,0,294.348,0,322.493l24.573,14.768l21.956-14.768c0-1.413,0.641-2.827,1.923-3.748  c7.747-5.568,24.643-14.027,56.764-21.614c41.336-9.763,94.887-15.14,150.784-15.14s109.448,5.377,150.784,15.14  c32.121,7.586,49.017,16.046,56.764,21.614c1.282,0.921,1.923,2.335,1.923,3.748l21.234,20.251l25.295-20.251  C512,294.348,483.488,272.514,427.257,257.598z"/>
<path style="opacity:0.2;enable-background:new    ;" d="M392.636,249.946c-40.084-7.332-87.301-11.279-136.636-11.279  c-64.416,0-125.236,6.722-171.256,18.932c-8.343,2.213-16.059,4.582-23.179,7.097c-1.66,15.113-1.274,30.594,1.349,46.047  c9.605-4.322,23.284-9.12,42.301-13.611c41.336-9.763,94.887-15.14,150.784-15.14c50.941,0,99.927,4.467,139.5,12.647  C396.545,279.914,395.65,264.897,392.636,249.946z"/>
<g>
	<path style="opacity:0.1;fill:#FFFFFF;enable-background:new    ;" d="M62.066,264.521c-21.554,7.564-37.553,16.492-47.895,26.734   c4.858,3.153,10.648,4.991,16.872,4.991c17.144,0,31.041-13.897,31.041-31.041C62.083,264.976,62.07,264.75,62.066,264.521z"/>
	<path style="opacity:0.15;fill:#FFFFFF;enable-background:new    ;" d="M439.183,261.002c-0.012,0.416-0.032,0.83-0.032,1.249   c0,23.223,18.826,42.049,42.049,42.049c8.224,0,15.891-2.37,22.373-6.452C492.65,283.081,471.116,270.755,439.183,261.002z"/>
</g>
<circle style="fill:#0081C6;" cx="350.224" cy="148.355" r="56.646"/>
<circle style="fill:#F3C74F;" cx="350.224" cy="148.355" r="26.447"/>
<circle style="fill:#0081C6;" cx="93.453" cy="241.819" r="56.646"/>
<circle style="fill:#F3C74F;" cx="93.453" cy="241.819" r="26.447"/>
<path style="opacity:0.2;enable-background:new    ;" d="M113.666,188.914c-25.047,29.385-39.451,66.876-40.151,105.905  c12.22,4.603,26.076,5.04,39.309,0.224c29.398-10.701,44.556-43.206,33.856-72.604C140.833,206.376,128.47,194.578,113.666,188.914z  "/>
<circle style="fill:#40BAB3;" cx="257.11" cy="291.985" r="167.634"/>
<g>
	<path style="fill:#F0B0B7;" d="M144.391,337.513c-3.357,0-6.508-2.072-7.723-5.408c-1.552-4.265,0.647-8.979,4.91-10.532   l27.921-10.161c4.267-1.551,8.98,0.647,10.532,4.91c1.552,4.265-0.647,8.979-4.91,10.532L147.2,337.016   C146.272,337.353,145.322,337.513,144.391,337.513z"/>
	<path style="fill:#F0B0B7;" d="M339.51,266.495c-3.357,0-6.508-2.072-7.723-5.408c-1.552-4.265,0.647-8.979,4.91-10.532   l27.921-10.161c4.268-1.552,8.979,0.647,10.532,4.91c1.552,4.265-0.647,8.979-4.91,10.532l-27.921,10.161   C341.392,266.334,340.442,266.495,339.51,266.495z"/>
</g>
<path style="fill:#0081C6;" d="M172.48,436.699c41.557,24.273,93.202,30.566,141.961,12.819s84.275-55.765,100.508-101.07  L172.48,436.699z"/>
<path style="fill:#FFFFFF;" d="M121.59,390.734c13.779,18.929,31.202,34.465,50.891,45.965l242.469-88.251  c7.691-21.466,11.051-44.566,9.439-67.924L121.59,390.734z"/>
<path style="opacity:0.2;enable-background:new    ;" d="M324.644,427.637c-87.001,31.666-183.199-13.192-214.865-100.193  c-14.347-39.418-12.985-80.723,0.887-117.059c-22.837,41.023-28.408,91.357-11.091,138.94  c31.666,87.001,127.864,131.858,214.865,100.193c47.583-17.319,82.559-53.941,99.305-97.805  C394.829,385.697,364.062,413.291,324.644,427.637z"/>
<g>
	<path style="fill:#394049;" d="M145.112,296.057c-3.357,0-6.508-2.072-7.723-5.407l-1.666-4.578   c-1.552-4.265,0.646-8.979,4.91-10.533c4.267-1.551,8.979,0.646,10.533,4.91l1.666,4.578c1.552,4.265-0.646,8.979-4.909,10.533   C146.994,295.897,146.044,296.057,145.112,296.057z"/>
	<path style="fill:#394049;" d="M340.231,225.04c-3.357,0-6.508-2.073-7.723-5.41l-1.666-4.579   c-1.551-4.265,0.647-8.979,4.911-10.531c4.269-1.557,8.979,0.647,10.531,4.911l1.666,4.58c1.551,4.265-0.647,8.979-4.911,10.531   C342.112,224.881,341.163,225.04,340.231,225.04z"/>
	<path style="fill:#394049;" d="M228.871,291.094c-3.695,0.001-7.375-0.807-10.825-2.416c-6.21-2.897-10.921-8.036-13.263-14.475   c-1.552-4.265,0.647-8.979,4.91-10.532c4.268-1.554,8.979,0.647,10.532,4.91c0.842,2.314,2.534,4.161,4.766,5.202   c2.233,1.041,4.737,1.149,7.049,0.307c2.313-0.842,4.161-2.534,5.201-4.767c1.041-2.231,1.15-4.733,0.308-7.047   c-0.339-0.929-0.497-1.879-0.497-2.812c0.001-3.356,2.073-6.506,5.409-7.719c4.264-1.551,8.98,0.645,10.532,4.91   c1.739,4.775,7.037,7.248,11.813,5.509c2.314-0.842,4.161-2.535,5.202-4.766c1.04-2.232,1.149-4.735,0.307-7.049   c-1.552-4.265,0.647-8.979,4.91-10.532c4.268-1.554,8.979,0.647,10.532,4.91c4.837,13.292-2.04,28.041-15.33,32.878   c-6.316,2.297-12.961,1.95-18.715-0.471c-2.959,5.779-7.916,10.163-14.05,12.395C234.797,290.576,231.829,291.094,228.871,291.094z   "/>
</g>
<circle style="fill:#F0B0B7;" cx="440.247" cy="108.289" r="55.962"/>
<g style="opacity:0.2;">
	<path d="M466.55,58.896c-7.933,4.171-13.345,12.486-13.345,22.07c0,13.765,11.16,24.924,24.924,24.924   c6.713,0,12.8-2.658,17.281-6.972C492.479,81.552,481.559,66.905,466.55,58.896z"/>
	<circle cx="432.688" cy="125.139" r="16.728"/>
	<circle cx="424.789" cy="83.979" r="8.192"/>
</g>
<path style="fill:#8E78CF;" d="M463.549,326.241c-7.747,5.568-24.643,14.027-56.764,21.614  c-41.336,9.763-94.887,15.14-150.784,15.14s-109.448-5.376-150.784-15.14c-32.121-7.586-49.017-16.046-56.764-21.614  c-1.282-0.921-1.923-2.335-1.923-3.748H0c0,28.144,28.512,49.978,84.744,64.894c46.021,12.208,106.841,18.932,171.256,18.932  s125.236-6.722,171.256-18.932c56.232-14.916,84.744-36.75,84.744-64.894h-46.529C465.472,323.906,464.831,325.319,463.549,326.241z  "/>
<g>
	<path style="opacity:0.1;fill:#FFFFFF;enable-background:new    ;" d="M256.001,362.993c-5.682,0-11.337-0.058-16.961-0.169   c3.38,13.484,15.576,23.472,30.108,23.472c14.866,0,27.283-10.452,30.323-24.406C285.261,362.617,270.714,362.993,256.001,362.993z   "/>
	<path style="opacity:0.1;fill:#FFFFFF;enable-background:new    ;" d="M415.469,364.405c-20.969,0-38.547,14.486-43.296,33.993   c19.935-2.919,38.477-6.605,55.085-11.012c8.085-2.144,15.578-4.437,22.514-6.866C441.595,370.676,429.265,364.405,415.469,364.405   z"/>
	<path style="opacity:0.15;fill:#FFFFFF;enable-background:new    ;" d="M73.516,355.255c-12.668,0-23.557,7.593-28.382,18.473   c11.16,5.053,24.356,9.613,39.611,13.659c6.168,1.636,12.609,3.171,19.282,4.607c0.343-1.848,0.531-3.75,0.531-5.697   C104.557,369.152,90.659,355.255,73.516,355.255z"/>
</g>
<g>
</g>
<g>
</g>
<g>
</g>
<g>
</g>
<g>
</g>
<g>
</g>
<g>
</g>
<g>
</g>
<g>
</g>
<g>
</g>
<g>
</g>
<g>
</g>
<g>
</g>
<g>
</g>
<g>
</g>
</svg>
