<?xml version="1.0" encoding="iso-8859-1"?>
<!-- Generator: Adobe Illustrator 19.0.0, SVG Export Plug-In . SVG Version: 6.00 Build 0)  -->
<svg xmlns="http://www.w3.org/2000/svg" xmlns:xlink="http://www.w3.org/1999/xlink" version="1.1" id="Layer_1" x="0px" y="0px" viewBox="0 0 512.003 512.003" style="enable-background:new 0 0 512.003 512.003;" xml:space="preserve">
<path style="fill:#F3C74F;" d="M382.554,325.472c-11.097,0-21.272-1.466-29.516-3.727c-11.884-3.26-18.875-15.534-15.617-27.418  c3.26-11.884,15.538-18.875,27.418-15.616c12.072,3.312,36.682,3.919,55.004-7.984c13.478-8.753,21.853-23.312,24.891-43.271  c1.854-12.182,13.225-20.548,25.415-18.7c12.182,1.856,20.554,13.233,18.7,25.415c-4.968,32.629-20.425,58.211-44.7,73.978  C424.487,320.919,402.096,325.472,382.554,325.472z"/>
<path style="opacity:0.2;enable-background:new    ;" d="M470.15,208.756c-12.189-1.848-23.561,6.518-25.415,18.7  c-2.208,14.5-7.245,26.134-14.996,34.778l45.558,12.51c6.657-11.83,11.249-25.431,13.554-40.574  C490.703,221.99,482.331,210.612,470.15,208.756z"/>
<path style="fill:#F3C74F;" d="M22.33,403.363c-1.904,0-3.834-0.245-5.761-0.758C4.664,399.432-2.415,387.206,0.758,375.3  c15.477-58.065,51.09-102.638,88.62-110.914c12.034-2.654,23.939,4.952,26.593,16.983c2.653,12.034-4.952,23.939-16.985,26.593  c-17.809,3.927-43.292,34.487-55.112,78.831C41.215,396.774,32.193,403.363,22.33,403.363z"/>
<path style="opacity:0.2;enable-background:new    ;" d="M115.971,281.37c-2.654-12.033-14.559-19.637-26.593-16.985  c-14.373,3.17-28.46,11.678-41.248,24.214c1.443,19.262,6.297,37.574,13.958,54.343c11.858-19.859,25.853-32.545,36.898-34.981  C111.019,305.309,118.624,293.404,115.971,281.37z"/>
<path style="fill:#F3C74F;" d="M271.947,501.711c-12.323,0-22.311-9.989-22.311-22.311v-84.487c0-12.323,9.989-22.311,22.311-22.311  c12.323,0,22.311,9.989,22.311,22.311V479.4C294.258,491.723,284.269,501.711,271.947,501.711z"/>
<path style="opacity:0.2;enable-background:new    ;" d="M271.947,372.601c-12.323,0-22.311,9.989-22.311,22.311v46.794  c15.754-2.516,30.746-7.305,44.623-14.029v-32.765C294.258,382.59,284.269,372.601,271.947,372.601z"/>
<path style="fill:#394049;" d="M176.008,509.855c-4.499,0-8.144-3.646-8.144-8.144v-42.41c0-4.499,3.645-8.144,8.144-8.144  c4.499,0,8.144,3.645,8.144,8.144v42.41C184.152,506.21,180.506,509.855,176.008,509.855z"/>
<path style="fill:#A27B5A;" d="M176.008,468.454c-12.323,0-22.311-9.989-22.311-22.311v-51.231c0-12.323,9.989-22.311,22.311-22.311  c12.323,0,22.311,9.989,22.311,22.311v51.231C198.32,458.466,188.331,468.454,176.008,468.454z"/>
<path style="opacity:0.2;enable-background:new    ;" d="M176.008,372.601c-12.323,0-22.311,9.989-22.311,22.311v32.765  c13.877,6.724,28.869,11.513,44.623,14.029v-46.794C198.32,382.59,188.331,372.601,176.008,372.601z"/>
<circle style="fill:#0081C6;" cx="346.456" cy="123.61" r="51.244"/>
<circle style="fill:#F3C74F;" cx="346.456" cy="123.61" r="23.922"/>
<circle style="fill:#0081C6;" cx="101.499" cy="123.61" r="51.244"/>
<circle style="fill:#F3C74F;" cx="101.499" cy="123.61" r="23.922"/>
<path style="opacity:0.2;enable-background:new    ;" d="M131.791,82.288c-24.093,21.774-44.528,51.751-59.044,83.744  c8.199,5.567,18.094,8.823,28.751,8.823c28.301,0,51.244-22.943,51.244-51.244C152.743,106.647,144.493,91.615,131.791,82.288z"/>
<path style="fill:#40BAB3;" d="M384.987,263.017c0-88.659-73.914-216.384-161.009-216.384S62.968,174.357,62.968,263.017  S135.054,423.55,223.977,423.55S384.987,351.676,384.987,263.017z"/>
<g>
	<path style="fill:#F0B0B7;" d="M143.497,244.19h-26.879c-4.499,0-8.144-3.645-8.144-8.144c0-4.499,3.645-8.144,8.144-8.144h26.879   c4.499,0,8.144,3.645,8.144,8.144C151.641,240.543,147.996,244.19,143.497,244.19z"/>
	<path style="fill:#F0B0B7;" d="M331.337,244.19h-26.879c-4.499,0-8.144-3.645-8.144-8.144c0-4.499,3.645-8.144,8.144-8.144h26.879   c4.499,0,8.144,3.645,8.144,8.144C339.481,240.543,335.836,244.19,331.337,244.19z"/>
</g>
<path style="fill:#FFFFFF;" d="M65.681,292.459c13.87,74.597,79.462,131.091,158.297,131.091s144.427-56.494,158.297-131.091H65.681  z"/>
<path style="fill:#0081C6;" d="M94.183,358.004c29.305,39.746,76.523,65.546,129.794,65.546s100.49-25.8,129.794-65.546H94.183z"/>
<g>
	<path style="fill:#394049;" d="M373.487,196.083c-4.246-0.517-12.31-2.027-27.29-6.158c-4.996-1.348-48.905-15.266-51.661-16.277   c-0.05-0.018-0.1-0.036-0.15-0.053c-30.565-10.582-58.124-21.619-73.74-29.534c-8.049-4.054-11.12-6.711-14.09-9.281   c-0.721-0.623-1.417-1.224-2.136-1.813l-10.32,12.602c0.606,0.495,1.19,1.003,1.797,1.528c3.372,2.919,7.569,6.549,17.403,11.502   c16.449,8.338,44.038,19.405,75.701,30.37c4.048,1.452,47.417,15.19,52.908,16.672c15.891,4.383,27.251,6.724,33.765,6.961   c0.776,0.04,1.647,0.065,2.561,0.077C376.849,207.166,375.268,201.625,373.487,196.083z"/>
	<path style="fill:#394049;" d="M344.069,201.028c0,14.771-12.237,26.684-27.127,26.155c-14.182-0.504-25.218-12.591-25.218-26.783   v-18.411c0-3.108,2.519-5.627,5.627-5.627h41.09c3.108,0,5.627,2.519,5.627,5.627L344.069,201.028L344.069,201.028z"/>
</g>
<path style="opacity:0.2;enable-background:new    ;" d="M80.042,245.944c0-19.445,3.57-40.769,10.042-62.212  c32.905-4.686,69.768-22.124,133.893-22.124c71.826,0,109.449,21.878,145.616,23.207c-26.09-70.833-82.372-138.182-145.616-138.182  c-87.096,0-161.008,127.724-161.008,216.384c0,88.66,72.086,160.533,161.008,160.533c48.89,0,92.686-21.731,122.215-56.028  c-28.209,24.273-64.955,38.954-105.142,38.954C152.128,406.476,80.042,334.603,80.042,245.944z"/>
<path style="fill:#394049;" d="M223.977,2.149c67.793,0,97.913,68.349,129.706,96.425c31.794,28.075,94.266-24.842,86.456,18.666  c-2.431,13.548-22.157,50-51.316,55.778c-43.161,8.553-80.321-21.754-164.847-21.754s-121.686,30.306-164.847,21.754  c-29.16-5.778-48.885-42.231-51.316-55.778c-7.809-43.507,54.663,9.41,86.456-18.666S156.185,2.149,223.977,2.149z"/>
<circle style="fill:#FFFFFF;" cx="223.977" cy="57.424" r="31.545"/>
<g>
	<circle style="fill:#394049;" cx="212.923" cy="54.264" r="8.119"/>
	<circle style="fill:#394049;" cx="235.032" cy="54.264" r="8.119"/>
</g>
<g>
	<path style="fill:#FFFFFF;" d="M265.173,140.355c-1.003,0-2.022-0.187-3.011-0.58l-82.397-32.81   c-4.18-1.664-6.218-6.401-4.553-10.579c1.664-4.18,6.401-6.218,10.579-4.553l82.397,32.81c4.18,1.664,6.218,6.401,4.553,10.579   C271.471,138.412,268.41,140.355,265.173,140.355z"/>
	<path style="fill:#FFFFFF;" d="M182.781,140.355c-3.236,0-6.298-1.943-7.569-5.134c-1.664-4.179,0.375-8.915,4.553-10.579   l82.397-32.81c4.179-1.663,8.915,0.375,10.579,4.553s-0.375,8.915-4.553,10.579l-82.397,32.81   C184.804,140.168,183.784,140.355,182.781,140.355z"/>
</g>
<path style="fill:#A27B5A;" d="M282.833,247.648c0-36.648-26.35-51.056-58.856-51.056S165.122,211,165.122,247.648  s26.35,122.419,58.856,122.419C256.483,370.066,282.833,284.295,282.833,247.648z"/>
<path style="opacity:0.2;enable-background:new    ;" d="M231.49,361.439c-32.505,0-58.856-85.771-58.856-122.419  c0-11.934,2.808-21.495,7.699-28.983c-9.452,8.212-15.211,20.481-15.211,37.611c0,36.648,26.35,122.419,58.856,122.419  c9.054,0,17.628-6.66,25.291-17.052C243.659,358.315,237.687,361.439,231.49,361.439z"/>
<path style="fill:#394049;" d="M472.868,211.278c-0.547,0-1.102-0.056-1.658-0.17c-4.404-0.911-7.236-5.221-6.325-9.625  l6.375-30.819c0.911-4.4,5.22-7.228,9.612-6.328c6.671,1.369,13.218-2.947,14.587-9.62c0.662-3.233,0.027-6.529-1.79-9.284  s-4.597-4.637-7.829-5.3c-3.032-0.62-6.156-0.092-8.807,1.489c-3.863,2.301-8.861,1.041-11.166-2.823  c-2.304-3.864-1.04-8.862,2.823-11.166c6.152-3.67,13.405-4.896,20.426-3.455c15.469,3.173,25.474,18.342,22.3,33.814  c-2.606,12.704-13.303,21.723-25.612,22.784l-4.966,24.008C480.038,208.631,476.648,211.278,472.868,211.278z"/>
<path style="fill:#5F666F;" d="M498.545,238.202c4.485-18.256-6.943-36.695-25.437-40.704c-17.825-3.864-35.389,7.697-39.741,25.409  l-4.788,19.488c-0.876,3.569,1.306,7.173,4.876,8.051l52.086,12.795c3.569,0.876,7.173-1.305,8.051-4.876L498.545,238.202z"/>
<path style="opacity:0.1;fill:#FFFFFF;enable-background:new    ;" d="M484.174,202.073c-7.369,2.548-12.669,9.529-12.669,17.763  c0,10.388,8.421,18.809,18.809,18.809c3.098,0,6.014-0.762,8.592-2.09C501.557,222.858,495.402,209.308,484.174,202.073z"/>
<g>
	<path style="fill:#394049;" d="M130.057,209.172c-4.499,0-8.144-3.645-8.144-8.144v-4.408c0-4.499,3.645-8.144,8.144-8.144   s8.144,3.645,8.144,8.144v4.408C138.201,205.525,134.556,209.172,130.057,209.172z"/>
	<path style="fill:#394049;" d="M239.749,256.689c-6.038,0-11.559-2.248-15.772-5.951c-4.213,3.703-9.735,5.951-15.772,5.951   c-13.186,0-23.915-10.729-23.915-23.915c0-4.499,3.645-8.144,8.144-8.144c4.499,0,8.144,3.645,8.144,8.144   c0,4.206,3.421,7.626,7.626,7.626s7.627-3.421,7.627-7.626c0-4.499,3.645-8.144,8.144-8.144c4.498,0,8.144,3.645,8.144,8.144   c0,4.206,3.422,7.626,7.627,7.626c4.206,0,7.626-3.421,7.626-7.626c0-4.499,3.645-8.144,8.144-8.144s8.144,3.645,8.144,8.144   C263.665,245.961,252.936,256.689,239.749,256.689z"/>
</g>
<g>
</g>
<g>
</g>
<g>
</g>
<g>
</g>
<g>
</g>
<g>
</g>
<g>
</g>
<g>
</g>
<g>
</g>
<g>
</g>
<g>
</g>
<g>
</g>
<g>
</g>
<g>
</g>
<g>
</g>
</svg>
