<?xml version="1.0" encoding="iso-8859-1"?>
<!-- Generator: Adobe Illustrator 19.0.0, SVG Export Plug-In . SVG Version: 6.00 Build 0)  -->
<svg xmlns="http://www.w3.org/2000/svg" xmlns:xlink="http://www.w3.org/1999/xlink" version="1.1" id="Layer_1" x="0px" y="0px" viewBox="0 0 512 512" style="enable-background:new 0 0 512 512;" xml:space="preserve">
<g>
	<path style="fill:#F3C74F;" d="M386.811,310.796c-5.908,0-11.829-2.167-16.468-6.541c-9.65-9.097-10.099-24.295-1.001-33.945   l98.369-104.353c9.096-9.65,24.295-10.1,33.945-1.003c9.65,9.098,10.1,24.296,1.002,33.946l-98.369,104.353   C399.566,308.265,393.194,310.796,386.811,310.796z"/>
	<path style="fill:#F3C74F;" d="M290.311,512c-13.263,0-24.014-10.751-24.014-24.014v-90.934c0-13.263,10.751-24.014,24.014-24.014   s24.014,10.751,24.014,24.014v90.934C314.324,501.249,303.574,512,290.311,512z"/>
</g>
<path style="opacity:0.2;enable-background:new    ;" d="M290.311,373.038c-13.263,0-24.014,10.751-24.014,24.014v50.364  c16.957-2.708,33.092-7.862,48.027-15.1v-35.264C314.324,383.789,303.574,373.038,290.311,373.038z"/>
<path style="fill:#F3C74F;" d="M187.052,512c-13.263,0-24.014-10.751-24.014-24.014v-90.934c0-13.263,10.751-24.014,24.014-24.014  c13.263,0,24.014,10.751,24.014,24.014v90.934C211.065,501.249,200.314,512,187.052,512z"/>
<path style="opacity:0.2;enable-background:new    ;" d="M187.052,373.038c-13.263,0-24.014,10.751-24.014,24.014v35.264  c14.936,7.236,31.071,12.392,48.027,15.1v-50.364C211.065,383.789,200.314,373.038,187.052,373.038z"/>
<circle style="fill:#0081C6;" cx="110.082" cy="92.793" r="55.153"/>
<circle style="fill:#F3C74F;" cx="110.082" cy="92.793" r="25.75"/>
<path style="opacity:0.2;enable-background:new    ;" d="M142.682,48.315c-25.932,23.437-47.925,55.699-63.549,90.135  c8.824,5.992,19.475,9.497,30.945,9.497c30.46,0,55.153-24.693,55.153-55.153C165.232,74.534,156.353,58.353,142.682,48.315z"/>
<circle style="fill:#0081C6;" cx="367.28" cy="92.793" r="55.154"/>
<circle style="fill:#F3C74F;" cx="367.28" cy="92.793" r="25.749"/>
<path style="fill:#40BAB3;" d="M411.975,255.092c0-95.425-79.553-232.895-173.295-232.895S65.386,159.668,65.386,255.092  s77.586,172.782,173.295,172.782C334.389,427.875,411.975,350.518,411.975,255.092z"/>
<path style="fill:#FFFFFF;" d="M68.305,286.781c14.928,80.289,85.526,141.094,170.376,141.094  c84.851,0,155.448-60.805,170.376-141.094H68.305z"/>
<path style="fill:#0081C6;" d="M98.982,357.328c31.541,42.779,82.362,70.547,139.699,70.547s108.157-27.768,139.699-70.547H98.982z"/>
<path style="opacity:0.2;enable-background:new    ;" d="M257.057,409.499c-95.708,0-173.295-77.357-173.295-172.782  c0-57.449,28.841-130.125,72.244-178.88c-53.453,47.186-90.62,132.035-90.62,197.255c0,95.425,77.586,172.783,173.295,172.783  c52.621,0,99.758-23.389,131.541-60.304C339.859,393.696,300.31,409.499,257.057,409.499z"/>
<path style="fill:#593C00;" d="M63.176,338.183c6.723,15.408,15.428,29.766,25.793,42.749c6.147,7.7,15.495,12.15,25.348,12.15  h248.728c9.854,0,19.201-4.45,25.348-12.15c10.365-12.984,19.069-27.341,25.792-42.749c3.367-7.714-2.384-16.341-10.802-16.341  H73.977C65.561,321.841,59.81,330.467,63.176,338.183z"/>
<g>
	<path style="fill:#F0B0B7;" d="M182.539,234.213h-28.93c-4.501,0-8.15-3.648-8.15-8.15s3.649-8.15,8.15-8.15h28.93   c4.501,0,8.15,3.648,8.15,8.15C190.689,230.564,187.04,234.213,182.539,234.213z"/>
	<path style="fill:#F0B0B7;" d="M384.71,234.213h-28.93c-4.502,0-8.15-3.648-8.15-8.15s3.648-8.15,8.15-8.15h28.93   c4.502,0,8.15,3.648,8.15,8.15C392.861,230.564,389.212,234.213,384.71,234.213z"/>
</g>
<path style="fill:#F1A21E;" d="M396.354,149.308c4.705,0,8.253-4.276,7.398-8.902C388.078,55.685,318.218,0,238.681,0  S89.285,55.685,73.609,140.406c-0.856,4.626,2.693,8.902,7.398,8.902H396.354z"/>
<path style="opacity:0.15;enable-background:new    ;" d="M189.052,30.618c0,4.58,3.712,8.293,8.293,8.293  c4.579,0,8.293-3.712,8.293-8.293V3.269c-5.623,1.127-11.156,2.544-16.585,4.229V30.618z M271.726,3.269v27.349  c0,4.58,3.712,8.293,8.293,8.293c4.58,0,8.293-3.712,8.293-8.293V7.499C282.881,5.813,277.349,4.397,271.726,3.269z M230.388,0.21  v37.347c0,4.58,3.713,8.293,8.293,8.293c4.579,0,8.293-3.712,8.293-8.293V0.21C244.222,0.075,241.458,0,238.681,0  C235.903,0,233.14,0.075,230.388,0.21z"/>
<path style="opacity:0.3;fill:#FFFFFF;enable-background:new    ;" d="M286.534,6.96c-2.979,5.704-4.91,12.074-5.506,18.883  c-2.421,27.677,18.052,52.076,45.729,54.498c16.709,1.462,32.215-5.429,42.419-17.204C347.879,36.153,319.055,16.661,286.534,6.96z"/>
<path style="opacity:0.15;enable-background:new    ;" d="M403.752,140.406c-0.142-0.766-0.298-1.525-0.448-2.286H96.45  c-4.705,0-8.255-4.276-7.398-8.903c7.962-43.036,29.913-78.573,60.006-103.131c-37.96,24.282-66.179,64.223-75.448,114.321  c-0.856,4.626,2.693,8.902,7.398,8.902h315.347C401.06,149.308,404.609,145.032,403.752,140.406z"/>
<path style="fill:#F3D072;" d="M380.007,149.308c5.623,0,8.912-6.393,5.582-10.923c-13.267-18.054-51.226-48.691-119.293-48.691  s-106.025,30.636-119.293,48.691c-3.33,4.53-0.04,10.923,5.582,10.923H380.007z"/>
<path style="opacity:0.3;fill:#FFFFFF;enable-background:new    ;" d="M297.844,92.064c-0.667,2.129-1.124,4.358-1.326,6.671  c-1.509,17.249,11.251,32.456,28.501,33.966c14.123,1.236,26.871-7.097,31.859-19.623  C342.258,104.038,322.709,95.919,297.844,92.064z"/>
<path style="fill:#F3C74F;" d="M66.004,369.139c-2.416,0-4.873-0.368-7.297-1.141c-20.679-6.59-36.662-18.035-46.22-33.097  c-9.308-14.667-12.022-31.813-7.644-48.275c8.722-32.795,41.957-51.809,77.309-44.22c12.967,2.782,21.223,15.551,18.44,28.518  s-15.554,21.223-28.518,18.44c-11.932-2.561-19.055,2.981-20.818,9.606c-2.457,9.238,5.985,18.154,22.033,23.268  c12.636,4.026,19.616,17.536,15.589,30.171C85.624,362.621,76.177,369.138,66.004,369.139z"/>
<path style="fill:#F1A21E;" d="M187.378,372.546h-14.717c-3.956,0-7.161-3.207-7.161-7.161V298.61h29.041v66.775  C194.54,369.34,191.334,372.546,187.378,372.546z"/>
<rect x="165.503" y="350.893" style="opacity:0.2;enable-background:new    ;" width="29.041" height="9.353"/>
<rect x="165.503" y="298.612" style="opacity:0.2;enable-background:new    ;" width="29.041" height="10.301"/>
<path style="fill:#5F666F;" d="M209.69,298.61h-59.34c-3.01,0-5.45-2.44-5.45-5.45v-21.723c0-3.01,2.44-5.45,5.45-5.45h59.34  c3.01,0,5.45,2.44,5.45,5.45v21.723C215.14,296.169,212.7,298.61,209.69,298.61z"/>
<path style="opacity:0.1;enable-background:new    ;" d="M214.529,293.77h-59.34c-3.01,0-5.45-2.44-5.45-5.45v-21.724  c0-0.19,0.037-0.369,0.055-0.555c-2.746,0.281-4.896,2.574-4.896,5.394v21.724c0,3.01,2.44,5.45,5.45,5.45h59.34  c2.82,0,5.113-2.149,5.394-4.896C214.899,293.733,214.719,293.77,214.529,293.77z"/>
<path style="opacity:0.2;fill:#FFFFFF;enable-background:new    ;" d="M209.222,265.985h-24.153  c0.985,10.313,9.665,18.381,20.236,18.381c3.569,0,6.919-0.926,9.835-2.541v-9.921C215.14,268.636,212.49,265.985,209.222,265.985z"/>
<path style="fill:#A27B5A;" d="M209.926,321.852h-59.811c-2.312,0-4.187,1.875-4.187,4.187v20.666c0,2.312,1.875,4.187,4.187,4.187  h59.811c2.312,0,4.187-1.875,4.187-4.187v-20.666C214.113,323.726,212.238,321.852,209.926,321.852z"/>
<g>
	<path style="fill:#3DAD4B;" d="M314.324,371.992c-4.502,0-8.15-3.648-8.15-8.15c0-4.224,0.219-8.825,0.653-13.676   c0.401-4.484,4.346-7.784,8.845-7.393c4.483,0.401,7.793,4.361,7.393,8.845c-0.39,4.37-0.589,8.483-0.589,12.224   C322.474,368.343,318.826,371.992,314.324,371.992z"/>
	<path style="fill:#3DAD4B;" d="M319.493,329.993c-0.566,0-1.139-0.06-1.713-0.183c-4.402-0.941-7.207-5.273-6.266-9.674   c2.291-10.715,4.739-19.284,6.266-23.731c1.463-4.259,6.104-6.524,10.354-5.063c4.258,1.462,6.524,6.097,5.063,10.354   c-1.309,3.816-3.6,11.829-5.743,21.848C326.635,327.372,323.254,329.993,319.493,329.993z"/>
	<path style="fill:#3DAD4B;" d="M355.879,371.992c-4.501,0-8.15-3.648-8.15-8.15c0-3.741-0.199-7.855-0.589-12.224   c-0.4-4.484,2.91-8.444,7.393-8.845c4.501-0.377,8.445,2.91,8.845,7.393c0.433,4.851,0.653,9.452,0.653,13.676   C364.03,368.343,360.38,371.992,355.879,371.992z"/>
	<path style="fill:#3DAD4B;" d="M350.711,329.993c-3.761,0-7.142-2.62-7.961-6.447c-2.147-10.033-4.436-18.041-5.743-21.847   c-1.463-4.258,0.803-8.895,5.06-10.355c4.252-1.465,8.893,0.802,10.355,5.06c1.525,4.438,3.971,13.002,6.268,23.732   c0.942,4.402-1.863,8.733-6.265,9.675C351.851,329.935,351.276,329.993,350.711,329.993z"/>
</g>
<path style="fill:#5F666F;" d="M315.784,282.297c0-5.249,6.647-21.468,9.538-28.269c0.788-1.854,2.606-3.051,4.621-3.051h10.32  c2.015,0,3.833,1.198,4.621,3.051c2.89,6.802,9.537,23.02,9.537,28.269c0,10.669-8.649,19.318-19.318,19.318  C324.433,301.615,315.784,292.967,315.784,282.297z"/>
<path style="opacity:0.2;fill:#FFFFFF;enable-background:new    ;" d="M344.882,254.028c-0.788-1.854-2.606-3.051-4.621-3.051  h-2.935c-2.744,3.134-4.421,7.227-4.421,11.719c0,9.838,7.975,17.813,17.813,17.813c1.187,0,2.344-0.122,3.465-0.343  C352.987,273.558,347.451,260.076,344.882,254.028z"/>
<path style="fill:#A27B5A;" d="M381.504,321.852h-92.805c-2.312,0-4.187,1.875-4.187,4.187v20.666c0,2.312,1.875,4.187,4.187,4.187  h92.805c2.312,0,4.187-1.875,4.187-4.187v-20.666C385.692,323.726,383.816,321.852,381.504,321.852z"/>
<g>
	<path style="fill:#394049;" d="M168.073,196.523c-4.501,0-8.15-3.648-8.15-8.15v-4.743c0-4.502,3.649-8.15,8.15-8.15   c4.501,0,8.15,3.648,8.15,8.15v4.743C176.223,192.875,172.574,196.523,168.073,196.523z"/>
	<path style="fill:#394049;" d="M370.245,196.523c-4.501,0-8.15-3.648-8.15-8.15v-4.743c0-4.502,3.649-8.15,8.15-8.15   c4.502,0,8.15,3.648,8.15,8.15v4.743C378.396,192.875,374.748,196.523,370.245,196.523z"/>
	<path style="fill:#394049;" d="M286.134,220.894c-6.539,0-12.5-2.51-16.974-6.617c-4.474,4.107-10.437,6.617-16.975,6.617   c-13.854,0-25.125-11.271-25.125-25.124c0-4.502,3.649-8.15,8.15-8.15s8.15,3.648,8.15,8.15c0,4.866,3.959,8.824,8.825,8.824   c4.866,0,8.825-3.959,8.825-8.824c0-4.502,3.648-8.15,8.15-8.15s8.15,3.648,8.15,8.15c0,4.866,3.959,8.824,8.824,8.824   c4.866,0,8.824-3.959,8.824-8.824c0-4.502,3.648-8.15,8.15-8.15s8.15,3.648,8.15,8.15   C311.259,209.623,299.988,220.894,286.134,220.894z"/>
</g>
<g>
</g>
<g>
</g>
<g>
</g>
<g>
</g>
<g>
</g>
<g>
</g>
<g>
</g>
<g>
</g>
<g>
</g>
<g>
</g>
<g>
</g>
<g>
</g>
<g>
</g>
<g>
</g>
<g>
</g>
</svg>
