<?xml version="1.0" encoding="iso-8859-1"?>
<!-- Generator: Adobe Illustrator 19.0.0, SVG Export Plug-In . SVG Version: 6.00 Build 0)  -->
<svg xmlns="http://www.w3.org/2000/svg" xmlns:xlink="http://www.w3.org/1999/xlink" version="1.1" id="Layer_1" x="0px" y="0px" viewBox="0 0 512 512" style="enable-background:new 0 0 512 512;" xml:space="preserve">
<g>
	<path style="fill:#F3C74F;" d="M365.736,299.671c-4.54,0-8.955-0.761-13.248-2.285c-12.244-4.347-18.646-17.798-14.298-30.043   c4.092-11.527,16.25-17.877,27.878-14.954c2.999-1.068,10.986-5.747,23.013-18.903c10.507-11.493,18.222-22.991,19.67-25.85   c5.715-12.07,15.993-20.192,29.679-23.396c9.313-2.181,19.898-2.083,33.311,0.308c12.793,2.277,21.316,14.496,19.036,27.288   c-2.28,12.792-14.502,21.306-27.289,19.037c-7.425-1.325-11.408-1.224-13.272-1c-5.062,9.431-17.638,26.548-31.079,40.313   C399.982,289.8,382.081,299.671,365.736,299.671z"/>
	<path style="fill:#F3C74F;" d="M131.044,512c-11.072,0-20.938-7.852-23.085-19.13c-2.432-12.764,5.944-25.082,18.708-27.513   c14.584-2.778,30.28-23.925,30.28-63.789c0-12.994,10.534-23.528,23.527-23.528c12.994,0,23.528,10.534,23.528,23.528   c0,29.342-6.633,55.158-19.183,74.656c-12.28,19.079-29.804,31.634-49.346,35.357C133.986,511.864,132.504,512,131.044,512z"/>
</g>
<path style="opacity:0.2;enable-background:new    ;" d="M180.474,378.04c-12.994,0-23.527,10.534-23.527,23.528  c0,15.532-2.39,28.208-6.16,38.078c14.416,5.973,29.776,10.004,45.718,11.806c4.938-14.826,7.497-31.673,7.497-49.883  C204.002,388.574,193.468,378.04,180.474,378.04z"/>
<path style="fill:#F3C74F;" d="M301.046,511.999c-1.304,0-2.625-0.108-3.953-0.333c-12.812-2.167-21.441-14.31-19.272-27.124  c5.948-35.157-13.635-53.549-27.936-66.978c-2.84-2.667-5.523-5.186-7.815-7.701c-8.756-9.601-8.071-24.48,1.53-33.237  c9.602-8.756,24.483-8.071,33.237,1.531c1.066,1.168,3.104,3.082,5.261,5.108c16.969,15.937,52.276,49.095,42.119,109.13  C322.271,503.875,312.315,511.999,301.046,511.999z"/>
<path style="opacity:0.2;enable-background:new    ;" d="M282.097,383.263c-2.158-2.025-4.195-3.939-5.261-5.108  c-8.755-9.602-23.636-10.287-33.237-1.531c-9.601,8.756-10.286,23.637-1.53,33.237c2.293,2.515,4.975,5.034,7.815,7.701  c7.205,6.766,15.748,14.797,21.695,25.592c15.131-5.232,29.209-12.514,41.954-21.471  C303.835,403.691,290.642,391.29,282.097,383.263z"/>
<path style="fill:#0098A6;" d="M388.035,100.116c0.113-2.697-2.252-4.801-4.928-4.444c-1.923,0.257-3.884,0.39-5.877,0.39  c-24.502,0-44.365-19.862-44.365-44.365c0-1.046,0.038-2.083,0.112-3.108c0.188-2.623-2.074-4.81-4.688-4.529  c-0.019,0.002-0.036,0.003-0.054,0.005c-30.366,3.281-52.124,31.12-47.651,61.62c4.131,28.167,29.973,48.496,58.324,45.921  C366.307,149.117,386.924,126.685,388.035,100.116z"/>
<path style="fill:#F3C74F;" d="M359.124,95.079c-0.115-1.068-0.303-2.109-0.544-3.127c-8.639-4.009-15.776-10.709-20.319-19.034  c-2.238-0.379-4.563-0.466-6.931-0.21c-13.853,1.497-23.869,13.94-22.372,27.793c1.497,13.852,13.94,23.869,27.793,22.372  C350.606,121.374,360.622,108.931,359.124,95.079z"/>
<circle style="fill:#0098A6;" cx="74.891" cy="125.793" r="54.036"/>
<circle style="fill:#F3C74F;" cx="74.891" cy="125.793" r="25.224"/>
<path style="opacity:0.2;enable-background:new    ;" d="M101.968,79.041c-22.792,25.558-40.819,59.301-52.412,94.488  c9.226,4.908,19.969,7.199,31.142,5.992c29.671-3.207,51.124-29.859,47.917-59.529C126.692,102.205,116.34,87.38,101.968,79.041z"/>
<path style="fill:#4EBF8C;" d="M389.191,240.872C379.145,147.921,287.181,22.39,195.871,32.259  c-91.31,9.868-154.33,152.149-144.284,245.1s93.765,160.134,186.991,150.059C331.805,417.342,399.237,333.822,389.191,240.872z"/>
<path style="fill:#FFFFFF;" d="M57.766,307.919c22.993,76.635,98.162,128.432,180.812,119.499  c82.651-8.932,145.016-75.593,151.105-155.372L57.766,307.919z"/>
<path style="fill:#0098A6;" d="M95.075,373.407c35.226,38.349,87.655,60.046,143.503,54.011  c55.85-6.035,102.43-38.435,128.65-83.424L95.075,373.407z"/>
<path style="opacity:0.2;enable-background:new    ;" d="M254.544,407.584c-93.226,10.075-176.945-57.108-186.991-150.059  c-5.648-52.256,11.811-120.09,44.394-171.234c3.784,9.611,11.714,17.134,21.597,20.353c3.759,17.782,19.538,31.129,38.439,31.129  c17.338,0,32.042-11.234,37.259-26.816c4.073,1.285,8.407,1.981,12.904,1.981c23.662,0,42.843-19.181,42.843-42.843  c0-9.827-3.316-18.875-8.88-26.102c-19.503-9.394-39.885-13.935-60.237-11.735c-28.919,3.126-54.99,19.547-76.809,43.463  c0.011-0.014,0.021-0.03,0.032-0.045c-0.094,0.102-0.183,0.21-0.275,0.312c-1.28,1.409-2.545,2.842-3.796,4.301  c-0.197,0.23-0.393,0.46-0.59,0.692c-1.036,1.219-2.065,2.451-3.08,3.702c0.002,0.007,0.004,0.012,0.007,0.019  C69.046,136.933,45.105,217.398,51.586,277.36c10.046,92.951,93.765,160.134,186.991,150.059  c51.257-5.54,94.71-33.285,121.781-72.589C333.536,383.474,296.675,403.03,254.544,407.584z"/>
<path style="fill:#C7E2EC;" d="M263.227,215.477c-7.831-0.509-14.208-5.779-16.523-12.799h-2.798  c-3.244,6.565-10.204,10.878-17.966,10.372c-5.394-0.352-10.087-2.971-13.254-6.854v114.576c0,5.929,4.806,10.734,10.734,10.734l0,0  c5.929,0,10.734-4.806,10.734-10.734v-52.232c0-5.929,4.806-10.734,10.734-10.734l0,0c5.929,0,10.734,4.806,10.734,10.734v17.382  c0,5.929,4.806,10.734,10.734,10.734l0,0c5.929,0,10.734-4.806,10.734-10.734v-75.362  C273.463,213.903,268.537,215.823,263.227,215.477z"/>
<g>
	<path style="fill:#394049;" d="M264.48,223.682c-0.592,0-1.187-0.02-1.784-0.058c-7.02-0.457-13.452-3.567-18.161-8.773   c-5.13,4.362-11.895,6.817-19.126,6.347c-14.773-0.963-26.01-13.765-25.048-28.537c0.293-4.499,4.179-7.91,8.679-7.617   c4.499,0.294,7.91,4.178,7.617,8.679c-0.377,5.787,4.025,10.804,9.813,11.18c5.792,0.366,10.803-4.026,11.179-9.813   c0.294-4.5,4.189-7.904,8.679-7.617c4.32,0.282,7.636,3.873,7.635,8.14c-0.001,0.179-0.005,0.357-0.017,0.538   c-0.183,2.803,0.737,5.511,2.591,7.622c1.853,2.111,4.418,3.376,7.221,3.558c2.803,0.199,5.512-0.737,7.623-2.591   c2.111-1.853,3.375-4.419,3.558-7.222c0.293-4.5,4.185-7.897,8.679-7.617c4.499,0.294,7.91,4.178,7.617,8.679   c-0.466,7.156-3.691,13.703-9.08,18.434C277.21,221.348,270.993,223.682,264.48,223.682z"/>
	<path style="fill:#394049;" d="M140.151,209.018c-1.608,0-3.23-0.475-4.651-1.461c-3.704-2.571-4.62-7.66-2.048-11.364   l11.704-16.848c2.572-3.702,7.661-4.619,11.363-2.047c3.704,2.571,4.62,7.66,2.048,11.364l-11.703,16.848   C145.278,207.793,142.735,209.018,140.151,209.018z"/>
	<path style="fill:#394049;" d="M154.426,206.446c-1.608,0-3.231-0.475-4.651-1.461l-16.847-11.704   c-3.704-2.572-4.62-7.66-2.047-11.364c2.572-3.702,7.66-4.62,11.364-2.047l16.847,11.704c3.704,2.572,4.62,7.66,2.047,11.363   C159.554,205.222,157.011,206.446,154.426,206.446z"/>
	<path style="fill:#394049;" d="M336.631,209.558c-2.089,0-4.179-0.797-5.773-2.391c-3.189-3.19-3.189-8.359,0-11.547l14.505-14.505   c3.189-3.188,8.359-3.188,11.546,0c3.189,3.19,3.189,8.359,0,11.547l-14.505,14.505C340.81,208.761,338.72,209.558,336.631,209.558   z"/>
	<path style="fill:#394049;" d="M351.136,209.558c-2.089,0-4.179-0.797-5.773-2.391l-14.505-14.505   c-3.189-3.19-3.189-8.359,0-11.547c3.189-3.188,8.359-3.188,11.546,0l14.505,14.505c3.189,3.19,3.189,8.359,0,11.547   C355.315,208.761,353.226,209.558,351.136,209.558z"/>
</g>
<g>
	<path style="fill:#8E78CF;" d="M135.66,248.093c-4.061,0-7.579-3.026-8.093-7.16c-0.555-4.474,2.623-8.552,7.097-9.109   l28.128-3.491c4.478-0.537,8.552,2.623,9.109,7.098c0.555,4.474-2.623,8.552-7.097,9.109l-28.128,3.491   C136.335,248.071,135.995,248.093,135.66,248.093z"/>
	<path style="fill:#8E78CF;" d="M357.387,245.432c-0.629,0-1.268-0.073-1.907-0.226l-27.567-6.595   c-4.385-1.049-7.09-5.455-6.041-9.84c1.051-4.385,5.456-7.09,9.841-6.041l27.567,6.595c4.385,1.049,7.09,5.455,6.041,9.84   C364.425,242.911,361.077,245.432,357.387,245.432z"/>
</g>
<path style="fill:#F3C74F;" d="M50.556,512c-8.409,0-16.543-4.519-20.778-12.457c-6.116-11.463-1.781-25.716,9.684-31.832  c3.171-1.692,13.954-10.388,19.562-51.241c4.097-29.842,3.756-64.747,3.508-90.235c-0.206-21.126-0.244-32.515,1.257-40.337  c2.448-12.761,14.776-21.118,27.541-18.671c12.755,2.448,21.113,14.767,18.675,27.523c-0.684,3.859-0.537,18.922-0.419,31.026  c0.262,26.941,0.623,63.837-3.942,97.092c-6.265,45.646-20.668,73.894-44.03,86.357C58.084,511.107,54.293,512,50.556,512z"/>
<path style="fill:#F0B0B7;" d="M226.743,13.673c-0.979,0-1.946,0.045-2.909,0.109C215.55,5.284,203.986,0,191.181,0  c-17.858,0-33.31,10.271-40.795,25.223c-0.486-0.021-0.971-0.037-1.461-0.037c-19.217,0-34.795,15.579-34.795,34.796  c0,15.451,10.075,28.543,24.011,33.084c3.759,17.782,19.538,31.129,38.439,31.129c17.338,0,32.042-11.234,37.26-26.816  c4.073,1.285,8.407,1.981,12.904,1.981c23.662,0,42.843-19.182,42.843-42.843S250.403,13.673,226.743,13.673z"/>
<path style="opacity:0.1;enable-background:new    ;" d="M184.815,116.485c-16.735,0-31.022-10.463-36.686-25.202  c-1.389-3.615-4.063-6.538-7.471-8.377c-10.891-5.878-18.294-17.388-18.294-30.632c0-3.888-0.444-8.56-0.99-13.533  c-4.539,5.878-7.245,13.241-7.245,21.242c0,15.451,10.075,28.543,24.011,33.084c3.759,17.782,19.538,31.129,38.439,31.129  c8.091,0,15.592-2.47,21.838-6.663C193.899,117.012,189.265,116.485,184.815,116.485z"/>
<g style="opacity:0.1;">
	<path d="M156.87,88.385c-0.787,0-1.587-0.114-2.38-0.356c-4.314-1.313-6.746-5.874-5.435-10.188   c3.384-11.116,7.83-21.827,24.846-30.692c4.001-2.086,8.93-0.53,11.014,3.47c2.084,3.999,0.53,8.929-3.468,11.013   c-11.486,5.984-14.097,12.186-16.768,20.965C163.607,86.117,160.37,88.385,156.87,88.385z"/>
	<path d="M202.235,41.922c-1.594,0-3.204-0.466-4.617-1.437c-2.693-1.851-8.266-4.054-19.521-4.054c-0.029,0-0.059,0-0.088,0h-0.243   c-4.509,0-8.165-3.655-8.165-8.165s3.656-8.165,8.165-8.165h0.226c0.034,0,0.069,0,0.101,0c12.406,0,22.086,2.33,28.774,6.926   c3.717,2.554,4.658,7.637,2.104,11.353C207.389,40.683,204.834,41.922,202.235,41.922z"/>
	<path d="M222.923,83.841c-1.759,0-3.533-0.566-5.026-1.735c-2.896-2.265-13.054-6.381-15.796-6.64   c-4.467-0.076-8.051-3.735-8.023-8.213c0.027-4.493,3.677-8.116,8.164-8.116c0.017,0,0.034,0,0.05,0   c6.627,0.04,20.848,6.335,25.669,10.108c3.551,2.779,4.177,7.911,1.399,11.461C227.749,82.766,225.348,83.841,222.923,83.841z    M202.193,75.468h0.011H202.193z"/>
</g>
<path style="opacity:0.25;fill:#FFFFFF;enable-background:new    ;" d="M234.02,14.302c-4.069,4.835-6.524,11.072-6.524,17.885  c0,15.35,12.444,27.794,27.794,27.794c5.223,0,10.109-1.444,14.283-3.95C269.339,35.071,254.058,17.733,234.02,14.302z"/>
<g>
</g>
<g>
</g>
<g>
</g>
<g>
</g>
<g>
</g>
<g>
</g>
<g>
</g>
<g>
</g>
<g>
</g>
<g>
</g>
<g>
</g>
<g>
</g>
<g>
</g>
<g>
</g>
<g>
</g>
</svg>
