<?xml version="1.0" encoding="iso-8859-1"?>
<!-- Generator: Adobe Illustrator 19.0.0, SVG Export Plug-In . SVG Version: 6.00 Build 0)  -->
<svg xmlns="http://www.w3.org/2000/svg" xmlns:xlink="http://www.w3.org/1999/xlink" version="1.1" id="Layer_1" x="0px" y="0px" viewBox="0 0 511.999 511.999" style="enable-background:new 0 0 511.999 511.999;" xml:space="preserve">
<rect x="238.463" y="213.096" style="fill:#3DAD4B;" width="35.079" height="101.653"/>
<path style="fill:#A27B5A;" d="M379.534,363.331H132.465l22.405,138.268c0.971,5.995,6.148,10.4,12.221,10.4h177.818  c6.073,0,11.249-4.405,12.221-10.4L379.534,363.331z"/>
<polygon style="opacity:0.2;enable-background:new    ;" points="132.465,363.331 137.78,396.128 374.221,396.128 379.534,363.331   "/>
<path style="fill:#3DAD4B;" d="M205.882,260.499c1.728,26.998,6.737,47.056,12.367,61.618c5.606,14.5-6.338,27.429-21.097,22.965  c-48.059-14.534-120.466-44.405-123.58-93.052c-1.728-26.998-6.737-47.056-12.367-61.618c-5.606-14.5,6.338-27.429,21.097-22.965  C130.362,181.98,202.769,211.852,205.882,260.499z"/>
<path style="opacity:0.1;enable-background:new    ;" d="M173.545,302.853c-2.279,0-4.546-0.942-6.171-2.785l-67.629-76.735  c-3.003-3.406-2.675-8.602,0.731-11.605c3.407-3,8.603-2.673,11.605,0.732l67.629,76.735c3.003,3.406,2.675,8.602-0.731,11.605  C177.415,302.176,175.476,302.853,173.545,302.853z"/>
<path style="opacity:0.1;enable-background:new    ;" d="M205.847,336.386c-48.059-14.534-120.466-44.405-123.58-93.052  c-1.728-26.998-6.737-47.056-12.368-61.618c-1.945-5.031-1.774-9.869-0.11-13.861c-7.978,3.325-12.448,12.567-8.586,22.556  c5.63,14.561,10.639,34.62,12.367,61.618c3.114,48.647,75.521,78.518,123.58,93.052c9.638,2.915,18.074-1.59,21.207-9.104  C214.756,337.478,210.438,337.774,205.847,336.386z"/>
<path style="fill:#3DAD4B;" d="M306.118,260.499c-1.729,26.998-6.737,47.056-12.367,61.618c-5.606,14.5,6.338,27.429,21.097,22.965  c48.059-14.534,120.466-44.405,123.58-93.052c1.729-26.998,6.737-47.056,12.367-61.618c5.606-14.5-6.338-27.429-21.097-22.965  C381.639,181.98,309.232,211.852,306.118,260.499z"/>
<path style="opacity:0.1;enable-background:new    ;" d="M325.81,339.234c-14.759,4.464-26.703-8.465-21.097-22.965  c5.63-14.561,10.639-34.62,12.367-61.618c1.718-26.828,24.513-47.944,52.673-63.928c-32.991,16.555-61.7,39.537-63.635,69.775  c-1.729,26.998-6.737,47.056-12.367,61.618c-5.606,14.5,6.338,27.429,21.097,22.965c21.554-6.519,48.004-16.126,70.906-29.125  C365.669,326.036,343.997,333.735,325.81,339.234z"/>
<path style="opacity:0.1;enable-background:new    ;" d="M338.455,302.853c-1.932,0-3.87-0.676-5.433-2.053  c-3.406-3.003-3.734-8.199-0.731-11.605l67.629-76.735c3.001-3.405,8.198-3.733,11.604-0.732c3.406,3.003,3.734,8.199,0.732,11.605  l-67.629,76.735C343.003,301.911,340.734,302.853,338.455,302.853z"/>
<path style="fill:#593C00;" d="M385.114,314.757H126.887c-6.62,0-11.986,5.366-11.986,11.986v37.236  c0,6.62,5.366,11.986,11.986,11.986h258.229c6.62,0,11.986-5.366,11.986-11.986v-37.236  C397.1,320.124,391.734,314.757,385.114,314.757z"/>
<path style="opacity:0.1;enable-background:new    ;" d="M140.771,362.08c-6.62,0-11.986-5.366-11.986-11.986v-35.336h-1.9  c-6.619,0-11.986,5.366-11.986,11.986v37.236c0,6.619,5.366,11.986,11.986,11.986h258.229c6.62,0,11.986-5.366,11.986-11.986v-1.9  H140.771z"/>
<circle style="fill:#0081C6;" cx="349.259" cy="44.035" r="38.664"/>
<circle style="fill:#F3C74F;" cx="349.259" cy="44.035" r="18.052"/>
<circle style="fill:#0081C6;" cx="162.746" cy="44.035" r="38.664"/>
<circle style="fill:#F3C74F;" cx="162.746" cy="44.035" r="18.05"/>
<path style="opacity:0.2;enable-background:new    ;" d="M188.063,14.825c-22.924,13-40.915,33.684-50.476,58.553  c6.764,5.805,15.549,9.32,25.16,9.32c21.353,0,38.664-17.311,38.664-38.664C201.411,32.366,196.235,21.915,188.063,14.825z"/>
<circle style="fill:#40BAB3;" cx="256.003" cy="114.424" r="114.424"/>
<g>
	<path style="fill:#394049;" d="M185.137,93.836c-4.541,0-8.222-3.68-8.222-8.222v-3.326c0-4.542,3.681-8.222,8.222-8.222   s8.222,3.68,8.222,8.222v3.326C193.359,90.156,189.677,93.836,185.137,93.836z"/>
	<path style="fill:#394049;" d="M326.864,93.836c-4.541,0-8.222-3.68-8.222-8.222v-3.326c0-4.542,3.681-8.222,8.222-8.222   s8.222,3.68,8.222,8.222v3.326C335.086,90.156,331.404,93.836,326.864,93.836z"/>
	<path style="fill:#394049;" d="M267.9,110.921c-4.448,0-8.565-1.451-11.9-3.906c-3.335,2.453-7.451,3.906-11.9,3.906   c-11.095,0-20.121-9.026-20.121-20.121c0-4.542,3.681-8.222,8.222-8.222c4.541,0,8.222,3.68,8.222,8.222   c0,2.029,1.65,3.678,3.678,3.678c2.028,0,3.678-1.65,3.678-3.678c0-4.542,3.681-8.222,8.222-8.222c4.541,0,8.222,3.68,8.222,8.222   c0,2.029,1.65,3.678,3.678,3.678s3.678-1.65,3.678-3.678c0-4.542,3.681-8.222,8.222-8.222s8.222,3.68,8.222,8.222   C288.021,101.894,278.995,110.921,267.9,110.921z"/>
</g>
<g>
	<path style="fill:#F0B0B7;" d="M195.277,120.257h-20.28c-4.541,0-8.222-3.68-8.222-8.222s3.681-8.222,8.222-8.222h20.28   c4.541,0,8.222,3.68,8.222,8.222C203.499,116.576,199.818,120.257,195.277,120.257z"/>
	<path style="fill:#F0B0B7;" d="M337.004,120.257h-20.28c-4.541,0-8.222-3.68-8.222-8.222s3.681-8.222,8.222-8.222h20.28   c4.541,0,8.222,3.68,8.222,8.222C345.226,116.576,341.545,120.257,337.004,120.257z"/>
</g>
<path style="fill:#0081C6;" d="M167.941,187.48c20.988,25.269,52.643,41.362,88.059,41.362s67.071-16.093,88.059-41.362H167.941z"/>
<path style="fill:#FFFFFF;" d="M146.031,146.118c4.419,15.358,11.966,29.39,21.91,41.362h176.118  c9.944-11.972,17.491-26.004,21.91-41.362H146.031z"/>
<path style="opacity:0.2;enable-background:new    ;" d="M267.652,217.19c-63.193,0-114.421-51.228-114.421-114.421  c0-28.631,10.516-54.806,27.896-74.873c-24.224,20.981-39.548,51.963-39.548,86.525c0,63.193,51.228,114.421,114.421,114.421  c34.562,0,65.545-15.324,86.525-39.548C322.458,206.675,296.283,217.19,267.652,217.19z"/>
<g style="opacity:0.1;">
	<circle cx="183.18" cy="437.669" r="8.196"/>
	<circle cx="223.839" cy="467.881" r="8.196"/>
	<circle cx="310.814" cy="429.469" r="8.196"/>
</g>
<g>
</g>
<g>
</g>
<g>
</g>
<g>
</g>
<g>
</g>
<g>
</g>
<g>
</g>
<g>
</g>
<g>
</g>
<g>
</g>
<g>
</g>
<g>
</g>
<g>
</g>
<g>
</g>
<g>
</g>
</svg>
