<?xml version="1.0" encoding="iso-8859-1"?>
<!-- Generator: Adobe Illustrator 19.0.0, SVG Export Plug-In . SVG Version: 6.00 Build 0)  -->
<svg xmlns="http://www.w3.org/2000/svg" xmlns:xlink="http://www.w3.org/1999/xlink" version="1.1" id="Layer_1" x="0px" y="0px" viewBox="0 0 512 512" style="enable-background:new 0 0 512 512;" xml:space="preserve">
<path style="fill:#A27B5A;" d="M136.818,2.188h-21.601c-5.967,0-10.805,4.837-10.805,10.805V46.92h43.209V12.993  C147.621,7.025,142.785,2.188,136.818,2.188z"/>
<rect x="104.413" y="35.216" style="opacity:0.2;enable-background:new    ;" width="43.373" height="11.706"/>
<path style="fill:#A27B5A;" d="M149.072,388.177h45.219l22.332,114.892c0.9,4.63-2.646,8.932-7.363,8.932h-29.938  c-3.591,0-6.678-2.545-7.363-6.07L149.072,388.177z"/>
<polygon style="opacity:0.2;enable-background:new    ;" points="194.292,388.177 200.335,419.268 155.116,419.268 149.072,388.177   "/>
<path style="fill:#A27B5A;" d="M102.961,388.177H57.742L35.41,503.068c-0.9,4.63,2.646,8.932,7.363,8.932h29.938  c3.591,0,6.678-2.545,7.363-6.07L102.961,388.177z"/>
<polygon style="opacity:0.2;enable-background:new    ;" points="57.741,388.177 51.699,419.268 96.918,419.268 102.961,388.177 "/>
<path style="fill:#FFFFFF;" d="M235.099,388.177H16.935c-7.866,0-14.242-6.376-14.242-14.242V61.162  c0-7.866,6.376-14.242,14.242-14.242h218.163c7.866,0,14.242,6.376,14.242,14.242v312.773  C249.341,381.8,242.964,388.177,235.099,388.177z"/>
<path style="fill:#40BAB3;" d="M235.099,46.92H16.935c-7.865,0-14.242,6.376-14.242,14.242v161.935h246.647V61.162  C249.341,53.296,242.964,46.92,235.099,46.92z"/>
<g>
	<path style="fill:#394049;" d="M61.197,124.849c-4.533,0-8.205-3.673-8.205-8.205v-3.041c0-4.533,3.673-8.205,8.205-8.205   s8.205,3.673,8.205,8.205v3.041C69.402,121.177,65.73,124.849,61.197,124.849z"/>
	<path style="fill:#394049;" d="M190.836,124.849c-4.533,0-8.205-3.673-8.205-8.205v-3.041c0-4.533,3.673-8.205,8.205-8.205   s8.205,3.673,8.205,8.205v3.041C199.041,121.177,195.368,124.849,190.836,124.849z"/>
	<path style="fill:#394049;" d="M136.902,140.477c-4.042,0-7.795-1.262-10.884-3.414c-3.09,2.152-6.842,3.414-10.884,3.414   c-10.526,0-19.09-8.564-19.09-19.089c0-4.533,3.673-8.205,8.205-8.205c4.533,0,8.205,3.673,8.205,8.205   c0,1.478,1.202,2.679,2.679,2.679c1.478,0,2.679-1.202,2.679-2.679c0-4.533,3.673-8.205,8.205-8.205   c4.533,0,8.205,3.673,8.205,8.205c0,1.478,1.202,2.679,2.679,2.679c1.478,0,2.679-1.202,2.679-2.679   c0-4.533,3.673-8.205,8.205-8.205c4.533,0,8.205,3.673,8.205,8.205C155.992,131.913,147.428,140.477,136.902,140.477z"/>
</g>
<path style="fill:#0081C6;" d="M235.099,388.177H16.935c-7.865,0-14.242-6.376-14.242-14.242V278.44h246.647v95.495  C249.341,381.8,242.964,388.177,235.099,388.177z"/>
<g>
	<path style="fill:#F0B0B7;" d="M70.473,149.017H51.922c-4.533,0-8.205-3.673-8.205-8.205s3.673-8.205,8.205-8.205h18.551   c4.533,0,8.205,3.673,8.205,8.205C78.678,145.343,75.006,149.017,70.473,149.017z"/>
	<path style="fill:#F0B0B7;" d="M200.112,149.017h-18.551c-4.533,0-8.205-3.673-8.205-8.205s3.673-8.205,8.205-8.205h18.551   c4.533,0,8.205,3.673,8.205,8.205C208.317,145.343,204.644,149.017,200.112,149.017z"/>
</g>
<path style="fill:#F3C74F;" d="M399.544,512c-12.085,0-21.88-9.796-21.88-21.88v-82.855c0-12.085,9.796-21.88,21.88-21.88  s21.88,9.796,21.88,21.88v82.855C421.424,502.204,411.628,512,399.544,512z"/>
<path style="opacity:0.2;enable-background:new    ;" d="M399.544,385.383c-12.085,0-21.88,9.796-21.88,21.88v45.89  c15.45-2.467,30.152-7.164,43.761-13.757v-32.131C421.424,395.18,411.628,385.383,399.544,385.383z"/>
<path style="fill:#F3C74F;" d="M305.458,512c-12.085,0-21.88-9.796-21.88-21.88v-82.855c0-12.085,9.796-21.88,21.88-21.88  s21.88,9.796,21.88,21.88v82.855C327.339,502.204,317.543,512,305.458,512z"/>
<path style="opacity:0.2;enable-background:new    ;" d="M305.458,385.383c-12.085,0-21.88,9.796-21.88,21.88v32.131  c13.608,6.594,28.311,11.29,43.761,13.757v-45.89C327.339,395.18,317.543,385.383,305.458,385.383z"/>
<circle style="fill:#0081C6;" cx="445.867" cy="125.889" r="50.254"/>
<path style="fill:#40BAB3;" d="M509.307,277.916c0-86.947-72.486-212.204-157.899-212.204s-157.9,125.257-157.9,212.204  s70.694,157.432,157.9,157.432S509.307,364.863,509.307,277.916z"/>
<path style="fill:#FFFFFF;" d="M196.168,306.79c13.602,73.156,77.927,128.559,155.24,128.559s141.638-55.403,155.24-128.559H196.168  z"/>
<path style="fill:#0081C6;" d="M224.119,371.069c28.739,38.978,75.045,64.279,127.288,64.279s98.549-25.301,127.288-64.279H224.119z  "/>
<path style="opacity:0.2;enable-background:new    ;" d="M368.151,418.605c-87.205,0-157.9-70.484-157.9-157.432  c0-52.345,26.278-118.564,65.827-162.989c-48.706,42.995-82.57,120.307-82.57,179.732c0,86.947,70.694,157.432,157.899,157.432  c47.946,0,90.896-21.311,119.854-54.946C443.597,404.207,407.561,418.605,368.151,418.605z"/>
<path style="fill:#EACEB2;" d="M118.042,221.208c-1.946-11.521-8.633-25.578-23.865-34.5c-2.957-1.732-6.676,0.244-7.048,3.651  c-1.444,13.212-6.837,24.024-1.537,40.727c2.841,8.953,12.456,14.533,21.423,11.737  C116.134,239.978,119.625,230.575,118.042,221.208z"/>
<path style="fill:#E6595A;" d="M132.325,316.547L132.325,316.547c-6.038,2.038-12.614-1.011-14.961-6.935l-25.437-64.217  c-0.617-1.558,0.197-3.315,1.785-3.851l23.875-8.059c1.587-0.536,3.301,0.369,3.754,1.981l18.683,66.497  C141.746,308.099,138.363,314.509,132.325,316.547z"/>
<path style="fill:#5F666F;" d="M117.586,233.486l-23.875,8.059c-1.587,0.536-2.402,2.293-1.785,3.851l9.454,23.869l26.903-9.08  l-6.945-24.717C120.887,233.854,119.175,232.95,117.586,233.486z"/>
<path style="fill:#F3C74F;" d="M198.987,375.357c-0.683,0-1.353-0.009-2.018-0.023c-36.033-0.836-68.116-24.02-81.185-46.49  c-6.076-10.446-2.533-23.839,7.912-29.915c10.443-6.074,23.838-2.534,29.915,7.912c5.862,10.078,24.543,24.284,44.372,24.743  c16.317,0.386,30.841-9.01,43.04-27.908c6.553-10.154,20.097-13.071,30.248-6.518c10.152,6.553,13.071,20.096,6.518,30.248  C252.392,366.758,221.296,375.357,198.987,375.357z"/>
<circle style="fill:#5F666F;" cx="351.409" cy="22.87" r="22.87"/>
<path style="opacity:0.15;enable-background:new    ;" d="M373.645,17.607c-14.849-0.85-29.738-0.721-44.575,0.386  c-0.341,1.572-0.533,3.201-0.533,4.876c0,12.63,10.239,22.87,22.87,22.87c12.63,0,22.87-10.239,22.87-22.87  C374.277,21.055,374.044,19.3,373.645,17.607z"/>
<path style="fill:#394049;" d="M405.837,109.607H302.722c-22.11,0-40.033-17.923-40.033-40.033l0,0  c0-19.445,13.973-36.077,33.126-39.433l0,0c38.682-6.776,78.248-6.776,116.931,0l0,0c19.153,3.355,33.126,19.989,33.126,39.433l0,0  C445.87,91.684,427.947,109.607,405.837,109.607z"/>
<path style="fill:#0081C6;" d="M331.082,121.026c0.031,1.023-0.095,2.052-0.353,3.042c-3.402,13.035-9.095,21.959-17.857,30.721  c-8.724,8.724-17.234,14.151-30.327,17.603c-1.118,0.295-2.28,0.439-3.436,0.399c-27.592-0.94-49.539-24.124-48.474-52.181  c0.989-26.046,22.212-47.269,48.258-48.258C307.02,71.284,330.248,93.34,331.082,121.026z"/>
<path style="opacity:0.2;enable-background:new    ;" d="M294.495,160.443c-1.118,0.295-2.28,0.439-3.436,0.399  c-27.592-0.94-49.539-24.123-48.474-52.181c0.381-10.024,3.768-19.328,9.264-27.044c-12.334,8.785-20.606,22.972-21.214,38.994  c-1.066,28.058,20.882,51.242,48.474,52.181c1.155,0.039,2.318-0.105,3.436-0.399c13.092-3.452,21.604-8.879,30.327-17.603  c2.055-2.055,3.935-4.121,5.661-6.245C311.765,154.041,304.457,157.816,294.495,160.443z"/>
<g>
</g>
<g>
</g>
<g>
</g>
<g>
</g>
<g>
</g>
<g>
</g>
<g>
</g>
<g>
</g>
<g>
</g>
<g>
</g>
<g>
</g>
<g>
</g>
<g>
</g>
<g>
</g>
<g>
</g>
</svg>
