<?xml version="1.0" encoding="iso-8859-1"?>
<!-- Generator: Adobe Illustrator 19.0.0, SVG Export Plug-In . SVG Version: 6.00 Build 0)  -->
<svg xmlns="http://www.w3.org/2000/svg" xmlns:xlink="http://www.w3.org/1999/xlink" version="1.1" id="Layer_1" x="0px" y="0px" viewBox="0 0 512 512" style="enable-background:new 0 0 512 512;" xml:space="preserve">
<g>
	<path style="fill:#F3C74F;" d="M410.963,328.397c20.469,0,39.595-6.805,54.338-19.904c20.844-18.52,29.621-47.064,23.479-76.356   c-2.485-11.85-14.105-19.442-25.953-16.956c-11.849,2.485-19.441,14.104-16.956,25.952c2.96,14.119-0.481,26.402-9.69,34.585   c-10.367,9.211-26.527,11.356-43.227,5.737c-11.477-3.863-23.906,2.311-27.768,13.785c-3.861,11.475,2.311,23.906,13.785,27.768   C389.714,326.623,400.514,328.397,410.963,328.397z"/>
	<path style="fill:#F3C74F;" d="M105.912,328.397c-20.469,0-39.595-6.805-54.338-19.904c-20.844-18.52-29.621-47.064-23.479-76.356   c2.485-11.85,14.105-19.442,25.952-16.956c11.849,2.485,19.441,14.104,16.956,25.952c-2.96,14.119,0.481,26.402,9.69,34.585   c10.368,9.211,26.527,11.356,43.226,5.737c11.477-3.863,23.907,2.311,27.768,13.785c3.861,11.475-2.311,23.906-13.785,27.768   C127.16,326.623,116.36,328.397,105.912,328.397z"/>
</g>
<circle style="fill:#0081C6;" cx="379.864" cy="138.893" r="50.347"/>
<circle style="fill:#F3C74F;" cx="379.864" cy="138.893" r="23.506"/>
<circle style="fill:#0081C6;" cx="136.999" cy="138.893" r="50.347"/>
<circle style="fill:#F3C74F;" cx="136.999" cy="138.893" r="23.506"/>
<path style="opacity:0.2;enable-background:new    ;" d="M166.767,98.294c-23.672,21.394-43.749,50.845-58.011,82.28  c8.055,5.47,17.777,8.669,28.249,8.669c27.806,0,50.347-22.542,50.347-50.347C187.351,122.226,179.246,107.457,166.767,98.294z"/>
<path style="fill:#40BAB3;" d="M416.631,276.958c0-87.109-72.622-212.6-158.194-212.6s-158.194,125.491-158.194,212.6  s70.826,157.726,158.194,157.726S416.631,364.068,416.631,276.958z"/>
<path style="fill:#FFFFFF;" d="M102.907,305.886c13.627,73.292,78.073,128.799,155.53,128.799s141.902-55.507,155.53-128.799  H102.907z"/>
<path style="fill:#0081C6;" d="M130.912,370.285c28.792,39.05,75.185,64.399,127.525,64.399s98.733-25.349,127.525-64.399H130.912z"/>
<path style="opacity:0.2;enable-background:new    ;" d="M275.212,417.909c-87.368,0-158.194-70.616-158.194-157.726  c0-52.443,26.327-118.785,65.95-163.293c-48.797,43.075-82.724,120.531-82.724,180.067c0,87.109,70.826,157.726,158.194,157.726  c48.036,0,91.066-21.351,120.079-55.048C350.799,403.485,314.696,417.909,275.212,417.909z"/>
<g>
	<path style="fill:#394049;" d="M166.16,224.273c-4.54,0-8.22-3.679-8.22-8.22v-4.331c0-4.541,3.681-8.22,8.22-8.22   c4.54,0,8.22,3.679,8.22,8.22v4.331C174.38,220.593,170.7,224.273,166.16,224.273z"/>
	<path style="fill:#394049;" d="M350.714,224.273c-4.54,0-8.22-3.679-8.22-8.22v-4.331c0-4.541,3.681-8.22,8.22-8.22   c4.541,0,8.22,3.679,8.22,8.22v4.331C358.935,220.593,355.255,224.273,350.714,224.273z"/>
	<path style="fill:#394049;" d="M273.932,246.52c-5.918,0-11.337-2.179-15.496-5.776c-4.158,3.596-9.577,5.776-15.495,5.776   c-13.077,0-23.717-10.638-23.717-23.715c0-4.541,3.681-8.22,8.22-8.22s8.22,3.679,8.22,8.22c0,4.01,3.264,7.275,7.276,7.275   s7.275-3.264,7.275-7.275c0-4.541,3.681-8.22,8.22-8.22c4.541,0,8.22,3.679,8.22,8.22c0,4.01,3.263,7.275,7.276,7.275   s7.276-3.264,7.276-7.275c0-4.541,3.679-8.22,8.22-8.22c4.541,0,8.22,3.679,8.22,8.22   C297.649,235.882,287.009,246.52,273.932,246.52z"/>
</g>
<g>
	<path style="fill:#F0B0B7;" d="M179.364,258.679h-26.41c-4.54,0-8.22-3.681-8.22-8.22c0-4.541,3.681-8.22,8.22-8.22h26.41   c4.54,0,8.22,3.679,8.22,8.22C187.585,254.998,183.904,258.679,179.364,258.679z"/>
	<path style="fill:#F0B0B7;" d="M363.919,258.679h-26.41c-4.541,0-8.22-3.681-8.22-8.22c0-4.541,3.679-8.22,8.22-8.22h26.41   c4.541,0,8.22,3.679,8.22,8.22C372.139,254.998,368.46,258.679,363.919,258.679z"/>
	<path style="fill:#F0B0B7;" d="M258.437,130.988c19.95,0,41.398-4.749,58.303-13.047c48.139,8.201,81.943-16.89,81.943-46.275   C398.682,32.085,335.892,0,258.437,0S118.192,32.085,118.192,71.665c0,29.384,33.804,54.476,81.942,46.275   C217.039,126.238,238.487,130.988,258.437,130.988z"/>
</g>
<path style="opacity:0.15;enable-background:new    ;" d="M333.569,106.854c-4.598-0.493-9.231,0.214-13.507,1.975  c-15.703,6.468-34.306,10.105-51.763,10.105s-36.059-3.637-51.762-10.105c-4.297-1.77-8.95-2.461-13.57-1.967  c-44.367,4.735-74.912-19.318-74.912-47.251c0-7.477,2.245-14.687,6.402-21.464c-10.379,10.003-16.264,21.408-16.264,33.519  c0,29.384,33.804,54.476,81.942,46.275c16.905,8.298,38.352,13.047,58.303,13.047s41.398-4.749,58.303-13.047  c36.98,6.3,65.48-7.054,76.715-26.902C380.263,102.726,359.229,109.606,333.569,106.854z"/>
<g style="opacity:0.15;">
	<path d="M203.064,87.144c-4.54,0-8.22-3.679-8.22-8.22c0-9.069,4.507-31.348,15.366-44.213c2.929-3.468,8.114-3.909,11.584-0.98   c3.469,2.929,3.907,8.114,0.98,11.584c-7.955,9.426-11.488,28.101-11.488,33.607C211.285,83.465,207.604,87.144,203.064,87.144z"/>
	<path d="M313.809,87.144c-4.54,0-8.22-3.679-8.22-8.22c0-5.507-3.533-24.182-11.488-33.608c-2.929-3.469-2.49-8.654,0.981-11.583   c3.468-2.93,8.656-2.488,11.583,0.981c10.858,12.864,15.365,35.143,15.365,44.212C322.029,83.465,318.35,87.144,313.809,87.144z"/>
</g>
<g style="opacity:0.25;">
	<path style="fill:#FFFFFF;" d="M324.309,8.386c-2.472,5.611-3.854,11.809-3.854,18.333c0,25.146,20.384,45.53,45.53,45.53   c11.924,0,22.772-4.589,30.889-12.091C389.777,37.687,362.236,18.716,324.309,8.386z"/>
</g>
<circle style="fill:#B4D9E6;" cx="458.978" cy="213.107" r="27.321"/>
<path style="opacity:0.2;fill:#FFFFFF;enable-background:new    ;" d="M461.752,185.929c-2.986,2.875-4.851,6.905-4.851,11.378  c0,8.728,7.076,15.804,15.804,15.804c5.269,0,9.923-2.588,12.794-6.552C482.777,195.506,473.336,187.098,461.752,185.929z"/>
<circle style="fill:#B4D9E6;" cx="38.463" cy="107.71" r="27.321"/>
<path style="opacity:0.2;fill:#FFFFFF;enable-background:new    ;" d="M41.249,80.531c-2.986,2.875-4.851,6.905-4.851,11.378  c0,8.728,7.076,15.804,15.804,15.804c5.269,0,9.923-2.588,12.794-6.552C62.273,90.108,52.832,81.701,41.249,80.531z"/>
<circle style="fill:#C6E4EF;" cx="463.384" cy="65.494" r="27.321"/>
<path style="opacity:0.2;fill:#FFFFFF;enable-background:new    ;" d="M466.159,38.312c-2.986,2.875-4.851,6.905-4.851,11.377  c0,8.729,7.076,15.804,15.804,15.804c5.269,0,9.923-2.588,12.794-6.552C487.184,47.89,477.742,39.482,466.159,38.312z"/>
<path style="fill:#B4D9E6;" d="M500.858,382.516c0-53.325-43.23-96.555-96.555-96.555c-34.462,0-64.703,18.059-81.788,45.224  c-4.702,1.528-9.235,3.426-13.574,5.652c-11.718-5.956-24.965-9.335-39.01-9.335c-11.543,0-22.547,2.285-32.609,6.4  c0.4-2.206,0.62-4.476,0.62-6.799c0-20.906-16.948-37.855-37.855-37.855c-9.045,0-17.345,3.176-23.857,8.469  c-14.819-7.517-31.58-11.757-49.333-11.757c-60.307,0-109.196,48.889-109.196,109.196s48.889,109.196,109.196,109.196  c9.256,0,18.241-1.156,26.823-3.324c9.706,4.416,20.478,6.896,31.836,6.896c13.764,0,26.668-3.635,37.845-9.968  c11.891,8.375,26.38,13.309,42.03,13.309c14.573,0,28.139-4.282,39.54-11.632c13.603,7.85,29.371,12.366,46.205,12.366  c20.09,0,38.671-6.413,53.852-17.275c5.582,3.97,12.403,6.312,19.775,6.312c18.871,0,34.169-15.298,34.169-34.169  c0-1.543-0.112-3.059-0.31-4.549C484.134,444.938,500.858,415.682,500.858,382.516z"/>
<path style="opacity:0.07;enable-background:new    ;" d="M61.779,307.499c6.735,7.944,16.782,12.992,28.012,12.992  c19.542,0,35.511-15.267,36.647-34.524C102.211,286.067,79.846,294.055,61.779,307.499z"/>
<g>
	<path style="opacity:0.2;fill:#FFFFFF;enable-background:new    ;" d="M404.303,285.962c-1.019,0-2.035,0.019-3.047,0.05   c-16.99,10.905-28.258,29.95-28.258,51.638c0,33.873,27.458,61.332,61.332,61.332c30.169,0,55.233-21.79,60.357-50.487   C480.926,311.957,445.653,285.962,404.303,285.962z"/>
	<circle style="opacity:0.1;fill:#FFFFFF;enable-background:new    ;" cx="361.779" cy="459.49" r="33.112"/>
	<path style="opacity:0.2;fill:#FFFFFF;enable-background:new    ;" d="M305.173,335.044c-10.761-4.831-22.681-7.541-35.242-7.541   c-2.906,0-5.776,0.146-8.607,0.429c-1.84,3.357-2.89,7.21-2.89,11.309c0,13.016,10.551,23.566,23.566,23.566   s23.566-10.551,23.566-23.566C305.568,337.806,305.419,336.408,305.173,335.044z"/>
	<circle style="opacity:0.15;fill:#FFFFFF;enable-background:new    ;" cx="133.174" cy="357.326" r="41.65"/>
	<path style="opacity:0.2;fill:#FFFFFF;enable-background:new    ;" d="M200.088,289.25c-2.82,0-5.568,0.309-8.213,0.894   c-3.8,5.107-6.05,11.435-6.05,18.29c0,16.936,13.729,30.666,30.666,30.666c8.275,0,15.779-3.284,21.295-8.612   c0.102-1.115,0.157-2.243,0.157-3.384C237.943,306.197,220.995,289.25,200.088,289.25z"/>
</g>
<circle style="fill:#C6E4EF;" cx="95.272" cy="271.713" r="36.718"/>
<path style="opacity:0.2;fill:#FFFFFF;enable-background:new    ;" d="M99.007,235.186c-4.013,3.864-6.52,9.28-6.52,15.291  c0,11.73,9.509,21.239,21.239,21.239c7.081,0,13.335-3.478,17.194-8.805C127.263,248.058,114.574,236.759,99.007,235.186z"/>
<circle style="opacity:0.07;enable-background:new    ;" cx="211.455" cy="422.772" r="36.718"/>
<circle style="fill:#C6E4EF;" cx="221.527" cy="412.688" r="36.718"/>
<path style="opacity:0.2;fill:#FFFFFF;enable-background:new    ;" d="M225.266,376.157c-4.013,3.864-6.52,9.28-6.52,15.29  c0,11.73,9.509,21.239,21.239,21.239c7.081,0,13.335-3.478,17.194-8.805C253.522,389.029,240.833,377.729,225.266,376.157z"/>
<circle style="opacity:0.07;enable-background:new    ;" cx="365.385" cy="379.653" r="36.718"/>
<circle style="fill:#C6E4EF;" cx="375.469" cy="369.58" r="36.718"/>
<path style="opacity:0.2;fill:#FFFFFF;enable-background:new    ;" d="M379.205,333.045c-4.013,3.864-6.52,9.28-6.52,15.291  c0,11.73,9.509,21.239,21.239,21.239c7.081,0,13.335-3.478,17.194-8.805C407.462,345.916,394.773,334.618,379.205,333.045z"/>
<g>
</g>
<g>
</g>
<g>
</g>
<g>
</g>
<g>
</g>
<g>
</g>
<g>
</g>
<g>
</g>
<g>
</g>
<g>
</g>
<g>
</g>
<g>
</g>
<g>
</g>
<g>
</g>
<g>
</g>
</svg>
