<?xml version="1.0" encoding="iso-8859-1"?>
<!-- Generator: Adobe Illustrator 19.0.0, SVG Export Plug-In . SVG Version: 6.00 Build 0)  -->
<svg xmlns="http://www.w3.org/2000/svg" xmlns:xlink="http://www.w3.org/1999/xlink" version="1.1" id="Layer_1" x="0px" y="0px" viewBox="0 0 512 512" style="enable-background:new 0 0 512 512;" xml:space="preserve">
<path style="fill:#F3C74F;" d="M78.577,324.989c-25.062,0-50.123-8.353-70.567-25.058c-9.327-7.62-10.709-21.359-3.088-30.686  c7.62-9.325,21.36-10.706,30.684-3.088c24.899,20.346,61.043,20.346,85.942,0c9.327-7.62,23.064-6.238,30.684,3.088  c7.62,9.327,6.238,23.064-3.089,30.686C128.7,316.636,103.639,324.989,78.577,324.989z"/>
<path style="opacity:0.2;enable-background:new    ;" d="M152.233,269.246c-7.62-9.326-21.358-10.708-30.684-3.088  c-10.052,8.214-21.938,13.107-34.176,14.689c-0.046,1.582-0.076,3.157-0.076,4.715c0,13.322,1.672,26.253,4.805,38.604  c20.421-2.469,40.284-10.54,57.044-24.235C158.471,292.311,159.853,278.572,152.233,269.246z"/>
<g>
	<path style="fill:#F3C74F;" d="M490.18,325.096c-4.852,0-9.735-1.613-13.785-4.922c-24.899-20.344-61.043-20.344-85.942,0   c-9.328,7.62-23.065,6.238-30.684-3.089c-7.62-9.326-6.238-23.063,3.088-30.685c40.89-33.411,100.245-33.411,141.134,0   c9.326,7.62,10.709,21.359,3.089,30.685C502.769,322.362,496.5,325.095,490.18,325.096z"/>
	<path style="fill:#F3C74F;" d="M302.885,509.202c-12.044,0-21.807-9.763-21.807-21.807v-82.577   c0-12.044,9.763-21.807,21.807-21.807s21.807,9.763,21.807,21.807v82.577C324.692,499.439,314.929,509.202,302.885,509.202z"/>
</g>
<path style="opacity:0.2;enable-background:new    ;" d="M302.885,383.011c-12.044,0-21.807,9.763-21.807,21.807v45.736  c15.398-2.459,30.051-7.14,43.614-13.711v-32.023C324.692,392.774,314.929,383.011,302.885,383.011z"/>
<path style="fill:#F3C74F;" d="M209.115,509.202c-12.044,0-21.807-9.763-21.807-21.807v-82.577c0-12.044,9.763-21.807,21.807-21.807  s21.807,9.763,21.807,21.807v82.577C230.922,499.439,221.159,509.202,209.115,509.202z"/>
<path style="opacity:0.2;enable-background:new    ;" d="M209.115,383.011c-12.044,0-21.807,9.763-21.807,21.807v32.023  c13.563,6.572,28.216,11.252,43.614,13.711v-45.736C230.922,392.774,221.159,383.011,209.115,383.011z"/>
<g>
	<circle style="fill:#0081C6;" cx="376.802" cy="138.561" r="50.085"/>
	<circle style="fill:#0081C6;" cx="135.203" cy="138.561" r="50.085"/>
</g>
<path style="opacity:0.2;enable-background:new    ;" d="M164.808,98.17c-23.548,21.282-43.521,50.58-57.709,81.851  c8.013,5.442,17.684,8.624,28.101,8.624c27.661,0,50.085-22.424,50.085-50.085C185.285,121.979,177.222,107.286,164.808,98.17z"/>
<path style="fill:#40BAB3;" d="M413.37,275.904c0-86.655-72.243-211.492-157.37-211.492S98.632,189.248,98.632,275.904  s70.457,156.904,157.37,156.904S413.37,362.56,413.37,275.904z"/>
<g>
	<path style="fill:#F0B0B7;" d="M177.339,257.72h-26.272c-4.516,0-8.178-3.66-8.178-8.178s3.661-8.178,8.178-8.178h26.272   c4.516,0,8.178,3.66,8.178,8.178C185.517,254.059,181.857,257.72,177.339,257.72z"/>
	<path style="fill:#F0B0B7;" d="M360.932,257.72H334.66c-4.516,0-8.178-3.66-8.178-8.178s3.661-8.178,8.178-8.178h26.272   c4.516,0,8.178,3.66,8.178,8.178C369.109,254.059,365.448,257.72,360.932,257.72z"/>
</g>
<path style="fill:#FFFFFF;" d="M101.281,304.681c13.556,72.91,77.666,128.128,154.719,128.128s141.163-55.217,154.719-128.128  H101.281z"/>
<path style="fill:#0081C6;" d="M129.14,368.744c28.642,38.847,74.793,64.063,126.861,64.063s98.218-25.216,126.861-64.063H129.14z"/>
<path style="opacity:0.2;enable-background:new    ;" d="M272.688,416.121c-86.913,0-157.37-70.248-157.37-156.904  c0-52.17,26.19-118.166,65.606-162.442c-48.542,42.851-82.293,119.903-82.293,179.128c0,86.655,70.457,156.904,157.37,156.904  c47.785,0,90.591-21.24,119.453-54.762C347.88,401.771,311.965,416.121,272.688,416.121z"/>
<g>
	<path style="fill:#394049;" d="M167.477,221.34h-6.546c-4.516,0-8.178-3.66-8.178-8.178s3.661-8.178,8.178-8.178h6.546   c4.516,0,8.178,3.66,8.178,8.178S171.993,221.34,167.477,221.34z"/>
	<path style="fill:#394049;" d="M351.07,221.34h-6.546c-4.516,0-8.178-3.66-8.178-8.178s3.661-8.178,8.178-8.178h6.546   c4.516,0,8.178,3.66,8.178,8.178S355.587,221.34,351.07,221.34z"/>
	<path style="fill:#394049;" d="M271.415,245.624c-5.887,0-11.277-2.168-15.415-5.746c-4.137,3.577-9.527,5.746-15.414,5.746   c-13.009,0-23.593-10.584-23.593-23.593c0-4.517,3.661-8.178,8.178-8.178c4.516,0,8.178,3.66,8.178,8.178   c0,3.991,3.247,7.238,7.238,7.238c3.991,0,7.237-3.247,7.237-7.238c0-4.517,3.661-8.178,8.178-8.178s8.178,3.66,8.178,8.178   c0,3.991,3.246,7.238,7.238,7.238c3.991,0,7.237-3.247,7.237-7.238c0-4.517,3.661-8.178,8.178-8.178   c4.516,0,8.178,3.66,8.178,8.178C295.007,235.04,284.423,245.624,271.415,245.624z"/>
	<path style="fill:#394049;" d="M388.74,105.83h-25.078c0-29.182-10.209-49.477-31.209-62.044   c-17.64-10.558-43.362-15.91-76.453-15.91c-33.091,0-58.813,5.353-76.453,15.91c-21,12.567-31.209,32.863-31.209,62.044H123.26   c0-38.21,14.605-66.325,43.409-83.563C188.56,9.165,217.78,2.798,256.001,2.798s67.441,6.369,89.331,19.469   C374.136,39.505,388.74,67.62,388.74,105.83z"/>
</g>
<path style="fill:#E6595A;" d="M101.626,181.291l22.85,5.567c7.393,1.801,14.845-2.731,16.646-10.124l18.548-76.128  c1.801-7.393-2.731-14.845-10.124-16.646l-22.85-5.567c-7.393-1.801-14.845,2.731-16.646,10.124l-18.548,76.128  C89.701,172.037,94.233,179.489,101.626,181.291z"/>
<path style="opacity:0.2;enable-background:new    ;" d="M133.638,180.195l-22.85-5.567c-7.393-1.801-11.925-9.254-10.124-16.646  l18.548-76.128c0.311-1.278,0.801-2.462,1.421-3.551c-5.037,1.052-9.282,4.881-10.582,10.214l-18.548,76.128  c-1.801,7.393,2.731,14.845,10.124,16.646l22.85,5.567c6.115,1.491,12.261-1.361,15.226-6.573  C137.758,180.691,135.698,180.696,133.638,180.195z"/>
<path style="opacity:0.2;fill:#FFFFFF;enable-background:new    ;" d="M149.546,83.959l-11.388-2.774  c-5.334,5.081-8.664,12.247-8.664,20.195c0,13.834,10.074,25.31,23.284,27.508l6.891-28.282  C161.472,93.213,156.939,85.76,149.546,83.959z"/>
<path style="fill:#E6595A;" d="M410.375,181.291l-22.85,5.567c-7.393,1.801-14.846-2.731-16.646-10.124l-18.548-76.128  c-1.801-7.393,2.731-14.845,10.124-16.646l22.85-5.567c7.393-1.801,14.845,2.731,16.646,10.124l18.548,76.128  C422.3,172.037,417.767,179.489,410.375,181.291z"/>
<path style="opacity:0.2;enable-background:new    ;" d="M418.528,173.137l-22.85,5.567c-7.393,1.801-14.846-2.731-16.646-10.124  l-18.548-76.128c-0.674-2.766-0.46-5.54,0.457-8.024c-6.482,2.388-10.285,9.305-8.61,16.177l18.548,76.128  c1.801,7.393,9.254,11.925,16.646,10.124l22.85-5.567c4.626-1.127,8.132-4.468,9.667-8.622  C419.551,172.849,419.048,173.011,418.528,173.137z"/>
<path style="opacity:0.2;fill:#FFFFFF;enable-background:new    ;" d="M401.952,88.516c-1.801-7.393-9.254-11.925-16.646-10.124  l-3.923,0.956c-2.036,3.873-3.194,8.279-3.194,12.959c0,15.405,12.489,27.894,27.894,27.894c1.197,0,2.375-0.084,3.532-0.23  L401.952,88.516z"/>
<path style="fill:#F3C74F;" d="M107.527,371.354c-1.945-1.552-4.489-2.135-6.915-1.582l-59.507,13.536  c-3.722,0.846-6.363,4.157-6.363,7.974v68.292c-2.815-0.284-5.82-0.095-8.895,0.604C13.52,462.98,4.225,472.684,4.225,482.748  c0,4.83,2.092,9.16,5.891,12.192c3.44,2.746,7.981,4.175,12.983,4.175c2.062,0,4.203-0.243,6.376-0.737  c11.96-2.72,21.04-11.938,21.571-21.677c0.032-0.294,0.051-0.592,0.051-0.894v-53.204l43.152-9.815v33.251  c-2.814-0.284-5.819-0.095-8.894,0.604c-12.326,2.803-21.623,12.507-21.623,22.571c0,4.83,2.092,9.159,5.891,12.192  c3.441,2.747,7.981,4.175,12.983,4.175c2.062,0,4.202-0.243,6.376-0.737c11.96-2.72,21.04-11.938,21.57-21.677  c0.032-0.294,0.051-0.592,0.051-0.894v-84.527C110.604,375.259,109.471,372.907,107.527,371.354z"/>
<path style="fill:#3DAD4B;" d="M89.014,28.337c-1.945-1.553-4.49-2.133-6.915-1.582l-34.458,7.837  c-3.722,0.846-6.363,4.157-6.363,7.974v68.293c-2.814-0.283-5.819-0.095-8.894,0.604c-12.326,2.803-21.622,12.507-21.622,22.571  c0,4.83,2.092,9.159,5.891,12.192c3.441,2.745,7.981,4.175,12.983,4.175c2.062,0,4.202-0.243,6.376-0.737  c12.326-2.803,21.622-12.507,21.622-22.571V73.888l28.095-6.391c3.722-0.846,6.363-4.157,6.363-7.974V34.73  C92.09,32.242,90.958,29.89,89.014,28.337z"/>
<path style="fill:#E6595A;" d="M485.503,360.009c-1.945-1.553-4.491-2.135-6.915-1.582l-59.508,13.536  c-3.722,0.846-6.363,4.158-6.363,7.975v68.293c-2.814-0.284-5.82-0.095-8.894,0.604c-12.326,2.803-21.623,12.507-21.623,22.571  c0,4.83,2.092,9.159,5.891,12.192c3.441,2.747,7.981,4.175,12.983,4.175c2.062,0,4.202-0.243,6.376-0.737  c11.96-2.72,21.04-11.938,21.57-21.677c0.032-0.294,0.051-0.592,0.051-0.894V411.26l43.153-9.815v33.249  c-2.814-0.284-5.82-0.095-8.895,0.604c-12.326,2.805-21.622,12.51-21.622,22.572c0,4.83,2.092,9.16,5.891,12.192  c3.44,2.747,7.981,4.175,12.983,4.175c2.062,0,4.203-0.243,6.376-0.737c11.96-2.723,21.04-11.94,21.57-21.678  c0.032-0.294,0.051-0.592,0.051-0.894v-84.526C488.58,363.914,487.448,361.562,485.503,360.009z"/>
<path style="fill:#8E78CF;" d="M504.322,113.55c-1.945-1.553-4.49-2.133-6.915-1.582l-34.458,7.837  c-3.722,0.846-6.363,4.157-6.363,7.974v68.292c-2.814-0.283-5.82-0.095-8.895,0.604c-12.326,2.803-21.622,12.507-21.622,22.571  c0,4.83,2.092,9.16,5.891,12.192c3.44,2.747,7.981,4.175,12.983,4.175c2.062,0,4.203-0.243,6.375-0.737  c12.327-2.803,21.623-12.507,21.623-22.571V159.1l28.095-6.391c3.722-0.846,6.363-4.157,6.363-7.975V119.94  C507.398,117.454,506.266,115.101,504.322,113.55z"/>
<g>
</g>
<g>
</g>
<g>
</g>
<g>
</g>
<g>
</g>
<g>
</g>
<g>
</g>
<g>
</g>
<g>
</g>
<g>
</g>
<g>
</g>
<g>
</g>
<g>
</g>
<g>
</g>
<g>
</g>
</svg>
