<?xml version="1.0" encoding="iso-8859-1"?>
<!-- Generator: Adobe Illustrator 19.0.0, SVG Export Plug-In . SVG Version: 6.00 Build 0)  -->
<svg xmlns="http://www.w3.org/2000/svg" xmlns:xlink="http://www.w3.org/1999/xlink" version="1.1" id="Layer_1" x="0px" y="0px" viewBox="0 0 512 512" style="enable-background:new 0 0 512 512;" xml:space="preserve">
<path style="fill:#F3C74F;" d="M296.147,512c-12.231,0-22.146-9.915-22.146-22.146v-83.862c0-12.231,9.915-22.146,22.146-22.146  c12.231,0,22.146,9.915,22.146,22.146v83.862C318.293,502.085,308.378,512,296.147,512z"/>
<path style="opacity:0.2;enable-background:new    ;" d="M296.147,383.845c-12.231,0-22.146,9.915-22.146,22.146v46.447  c15.638-2.497,30.519-7.251,44.293-13.924v-32.522C318.293,393.76,308.378,383.845,296.147,383.845z"/>
<path style="fill:#F3C74F;" d="M200.918,512c-12.231,0-22.146-9.915-22.146-22.146v-83.862c0-12.231,9.915-22.146,22.146-22.146  c12.231,0,22.146,9.915,22.146,22.146v83.862C223.064,502.085,213.149,512,200.918,512z"/>
<path style="opacity:0.2;enable-background:new    ;" d="M200.918,383.845c-12.231,0-22.146,9.915-22.146,22.146v32.522  c13.774,6.674,28.655,11.428,44.293,13.924v-46.447C223.064,393.76,213.149,383.845,200.918,383.845z"/>
<g>
	<path style="fill:#F3C74F;" d="M58.808,285.939c-2.615,0-5.275-0.468-7.865-1.451c-11.433-4.347-17.178-17.137-12.832-28.571   c10.858-28.562,36.489-41.588,68.551-34.845c11.97,2.517,19.632,14.262,17.115,26.23c-2.517,11.968-14.262,19.626-26.23,17.115   c-14.151-2.978-16.304,2.687-18.034,7.238C76.152,280.498,67.739,285.938,58.808,285.939z"/>
	<path style="fill:#F3C74F;" d="M400.809,417.036c-7.274,0-14.397-3.578-18.632-10.146c-6.629-10.278-3.67-23.984,6.61-30.613   c3.398-2.192,4.724-4.467,4.891-8.394c0.487-11.417-10.021-29.881-22.486-39.513c-9.678-7.478-11.462-21.387-3.983-31.065   c7.48-9.678,21.387-11.46,31.065-3.984c20.009,15.463,40.953,45.979,39.655,76.446c-0.777,18.249-9.704,33.78-25.139,43.733   C409.079,415.893,404.919,417.036,400.809,417.036z"/>
</g>
<circle style="fill:#0081C6;" cx="371.209" cy="135.589" r="50.865"/>
<circle style="fill:#F3C74F;" cx="371.209" cy="135.589" r="23.745"/>
<circle style="fill:#0081C6;" cx="125.85" cy="135.589" r="50.865"/>
<circle style="fill:#F3C74F;" cx="125.85" cy="135.589" r="23.745"/>
<path style="opacity:0.2;enable-background:new    ;" d="M155.921,94.573c-23.915,21.613-44.198,51.368-58.606,83.125  c8.138,5.526,17.96,8.757,28.539,8.757c28.092,0,50.865-22.773,50.865-50.865C176.717,118.751,168.529,103.83,155.921,94.573z"/>
<path style="fill:#40BAB3;" d="M408.35,275.072c0-88.004-73.367-214.784-159.818-214.784S88.715,187.068,88.715,275.072  s71.553,159.345,159.817,159.345S408.35,363.076,408.35,275.072z"/>
<path style="fill:#FFFFFF;" d="M91.406,304.297c13.767,74.045,78.875,130.121,157.126,130.121s143.358-56.076,157.126-130.121  H91.406z"/>
<path style="fill:#0081C6;" d="M119.698,369.357c29.088,39.452,75.957,65.061,128.834,65.061s99.746-25.609,128.834-65.061H119.698z  "/>
<path style="opacity:0.2;enable-background:new    ;" d="M265.48,417.47c-88.265,0-159.817-71.342-159.817-159.345  c0-52.981,26.598-120.005,66.627-164.969c-49.297,43.518-83.574,121.769-83.574,181.916c0,88.004,71.553,159.345,159.817,159.345  c48.529,0,92-21.57,121.311-55.615C341.842,402.897,305.369,417.47,265.48,417.47z"/>
<g>
	<path style="fill:#F0B0B7;" d="M264.187,209.339c-8.645,0-15.655-7.008-15.655-15.655c0,8.645-7.008,15.655-15.655,15.655   c-4.776,0-9.044-2.144-11.915-5.516v12.826c0,15.226,12.344,27.57,27.57,27.57c15.227,0,27.57-12.344,27.57-27.57v-12.826   C273.231,207.194,268.963,209.339,264.187,209.339z"/>
	<path style="fill:#F0B0B7;" d="M168.648,231.897h-26.68c-4.452,0-8.062-3.608-8.062-8.062c0-4.453,3.61-8.062,8.062-8.062h26.68   c4.452,0,8.062,3.608,8.062,8.062C176.71,228.289,173.1,231.897,168.648,231.897z"/>
	<path style="fill:#F0B0B7;" d="M355.097,231.897h-26.68c-4.452,0-8.062-3.608-8.062-8.062c0-4.453,3.61-8.062,8.062-8.062h26.68   c4.452,0,8.062,3.608,8.062,8.062C363.159,228.289,359.549,231.897,355.097,231.897z"/>
</g>
<g>
	<path style="fill:#F1A21E;" d="M432.611,273.986c-3.559,0-6.817-2.376-7.782-5.979l-4.243-15.834   c-1.152-4.301,1.401-8.721,5.701-9.873c4.3-1.156,8.721,1.4,9.874,5.701l4.243,15.834c1.152,4.301-1.401,8.721-5.701,9.873   C434.004,273.896,433.301,273.986,432.611,273.986z"/>
	<path style="fill:#F1A21E;" d="M451.049,342.798c-3.56,0-6.817-2.376-7.782-5.977l-3.416-12.751   c-1.152-4.301,1.401-8.722,5.701-9.874c4.3-1.156,8.721,1.4,9.874,5.7l3.416,12.751c1.152,4.301-1.401,8.722-5.701,9.874   C452.442,342.708,451.74,342.798,451.049,342.798z"/>
	<path style="fill:#F1A21E;" d="M452.582,268.717c-3.559,0-6.817-2.376-7.782-5.978l-4.228-15.779   c-1.152-4.301,1.401-8.722,5.701-9.874c4.299-1.157,8.721,1.4,9.874,5.7l4.228,15.779c1.152,4.301-1.401,8.722-5.701,9.874   C453.975,268.628,453.273,268.717,452.582,268.717z"/>
	<path style="fill:#F1A21E;" d="M471.035,337.586c-3.56,0-6.817-2.376-7.782-5.978l-3.444-12.853c-1.152-4.301,1.4-8.721,5.7-9.874   c4.302-1.154,8.722,1.4,9.874,5.7l3.444,12.853c1.152,4.301-1.4,8.721-5.7,9.874C472.428,337.497,471.726,337.586,471.035,337.586z   "/>
</g>
<path style="fill:#394049;" d="M166.691,460.165l0.001,0.002l13.071-12.365c26.651-25.211,25.656-24.757,61.248-17.68  c0.678,0.16,1.36,0.307,2.046,0.44c0.138,0.031,0.275,0.058,0.413,0.09l0.001-0.015c6.901,1.262,14.13,1.072,21.289-0.846  c5.335-1.43,10.228-3.705,14.585-6.653c3.75-2.537,3.428-8.162-0.56-10.305c-7.33-3.938-12.259-10.845-14.536-19.339  c-4.491-16.76,3.046-33.343,26.261-39.563l5.742-1.538l-13.53-50.496c-7.55-28.179-35.489-45.175-62.404-37.964  c-7.16,1.919-13.515,5.368-18.86,9.912l-0.008-0.013c-0.103,0.097-0.21,0.189-0.313,0.285c-0.528,0.457-1.045,0.926-1.552,1.403  c-27.285,23.925-26.197,23.821-61.882,15.313l-17.502-4.173v0.002c-12.326-3.509-25.241-3.88-37.889-0.491  c-44.037,11.799-62.068,63.024-47.761,116.42c14.307,53.395,55.535,88.742,99.572,76.942  C146.77,476.145,157.769,469.366,166.691,460.165z"/>
<g>
	<circle style="fill:#F1A21E;" cx="88.702" cy="432.102" r="8.173"/>
	<circle style="fill:#F1A21E;" cx="113.145" cy="449.892" r="8.173"/>
</g>
<path style="opacity:0.1;fill:#FFFFFF;enable-background:new    ;" d="M220.318,263.935c-7.16,1.919-13.515,5.368-18.86,9.912  l-0.008-0.013c-0.103,0.097-0.21,0.189-0.313,0.285c-0.528,0.457-1.045,0.926-1.552,1.403c-0.316,0.277-0.608,0.534-0.917,0.804  c8.625,16.848,26.147,28.388,46.376,28.388c13.004,0,24.886-4.777,34.012-12.658C268.325,269.915,243.929,257.608,220.318,263.935z"/>
<rect x="303.159" y="242.911" transform="matrix(-0.2588 -0.9659 0.9659 -0.2588 91.4761 721.1047)" style="fill:#A27B5A;" width="38.487" height="165.09"/>
<path style="fill:#F3C74F;" d="M218.016,376.761l-11.523-43.003c-0.729-2.717,0.885-5.511,3.602-6.24l20.647-5.533  c2.718-0.729,5.511,0.885,6.24,3.602l11.523,43.003c0.729,2.717-0.885,5.511-3.602,6.24l-20.647,5.533  C221.538,381.091,218.744,379.478,218.016,376.761z"/>
<path style="opacity:0.3;fill:#FFFFFF;enable-background:new    ;" d="M236.983,325.587c-0.729-2.717-3.521-4.331-6.24-3.602  l-11.643,3.119c-0.336,1.42-0.533,2.894-0.533,4.417c0,10.563,8.564,19.127,19.127,19.127c1.829,0,3.592-0.272,5.268-0.751  L236.983,325.587z"/>
<path style="fill:#F3C74F;" d="M153.218,394.123l-11.523-43.003c-0.728-2.717,0.885-5.511,3.602-6.24l20.648-5.533  c2.717-0.729,5.511,0.885,6.24,3.602l11.523,43.003c0.729,2.717-0.885,5.511-3.602,6.24l-20.647,5.533  C156.739,398.453,153.945,396.841,153.218,394.123z"/>
<path style="opacity:0.3;fill:#FFFFFF;enable-background:new    ;" d="M172.184,342.95c-0.728-2.717-3.521-4.331-6.24-3.602  l-9.061,2.428c-0.859,2.173-1.346,4.535-1.346,7.014c0,10.563,8.564,19.127,19.127,19.127c1.405,0,2.77-0.161,4.089-0.448  L172.184,342.95z"/>
<path style="fill:#DEDFDF;" d="M245.044,374.792l-74.911,91.993c-1.53,1.879-4.568,0.928-4.754-1.488l-2.154-27.971  c-0.461-5.994-1.477-11.931-3.032-17.738l-4.522-16.875c-0.548-2.047,0.666-4.151,2.713-4.7L245.044,374.792z"/>
<path style="fill:#F3C74F;" d="M121.669,420.366c-3.56,0-6.817-2.376-7.782-5.978l-16.386-61.156  c-1.152-4.301,1.401-8.722,5.701-9.874c4.3-1.156,8.721,1.4,9.873,5.7l16.386,61.156c1.152,4.301-1.401,8.722-5.701,9.873  C123.062,420.277,122.36,420.366,121.669,420.366z"/>
<path style="fill:#394049;" d="M482.061,305.794l-11.556-43.127c-0.863-3.221-4.175-5.134-7.398-4.271l-47.732,12.79  c-3.151,0.844-6.032,2.481-8.371,4.754l-9.845,9.569l9.961,37.177l13.311,3.364c3.162,0.799,6.476,0.775,9.626-0.069l47.733-12.79  C481.012,312.328,482.924,309.017,482.061,305.794z"/>
<path style="opacity:0.1;fill:#FFFFFF;enable-background:new    ;" d="M470.506,262.668c-0.863-3.221-4.175-5.134-7.397-4.271  l-39.305,10.532c4.507,13.658,17.363,23.518,32.531,23.518c7.623,0,14.663-2.493,20.354-6.704L470.506,262.668z"/>
<g>
	<path style="fill:#F3C74F;" d="M122.877,344.834c-0.609,0-1.222-0.025-1.84-0.075c-32.974-2.712-62.497-18.728-77.048-41.796   c-9.56-15.157-11.648-31.865-5.878-47.044c4.346-11.432,17.136-17.175,28.57-12.832c11.433,4.346,17.178,17.137,12.832,28.571   c-0.95,2.5,0.806,5.883,1.938,7.677c5.87,9.307,21.51,19.497,43.217,21.282c12.189,1.003,21.258,11.697,20.256,23.888   C143.972,336.073,134.284,344.834,122.877,344.834z"/>
	<path style="fill:#F3C74F;" d="M384.848,421.951c-11.036,0-22.301-3.646-32.938-10.907c-27.213-18.571-44.746-56.45-39.083-84.438   c2.426-11.988,14.109-19.743,26.099-17.314c11.987,2.426,19.74,14.11,17.314,26.099c-1.754,8.669,6.793,29.62,20.637,39.069   c7.156,4.884,10.248,2.886,11.909,1.817c10.28-6.632,23.985-3.67,30.614,6.61c6.629,10.278,3.67,23.984-6.61,30.613   C404.042,419.141,394.533,421.951,384.848,421.951z"/>
</g>
<path style="fill:#E6595A;" d="M248.532,0L248.532,0c-8.988,0-16.474,6.894-17.212,15.852l-5.77,69.996  c-1.108,13.437,9.499,24.955,22.983,24.955l0,0c13.484,0,24.09-11.518,22.983-24.955l-5.77-69.996C265.006,6.894,257.52,0,248.532,0  z"/>
<path style="opacity:0.2;enable-background:new    ;" d="M236.357,83.51l5.77-73.485c0.291-3.711,1.645-7.073,3.715-9.798  c-7.748,1.217-13.859,7.58-14.522,15.625l-5.77,69.996c-1.108,13.437,9.499,24.955,22.983,24.955c2.704,0,5.291-0.471,7.692-1.32  C244.267,107.791,235.336,96.511,236.357,83.51z"/>
<g>
	<path style="fill:#394049;" d="M155.307,197.139c-4.452,0-8.062-3.608-8.062-8.062v-4.375c0-4.453,3.61-8.062,8.062-8.062   c4.452,0,8.062,3.608,8.062,8.062v4.375C163.369,193.531,159.76,197.139,155.307,197.139z"/>
	<path style="fill:#394049;" d="M341.756,197.139c-4.452,0-8.062-3.608-8.062-8.062v-4.375c0-4.453,3.61-8.062,8.062-8.062   c4.452,0,8.062,3.608,8.062,8.062v4.375C349.818,193.531,346.209,197.139,341.756,197.139z"/>
	<path style="fill:#394049;" d="M264.187,217.401c-5.994,0-11.475-2.235-15.655-5.915c-4.179,3.68-9.661,5.915-15.654,5.915   c-13.077,0-23.716-10.639-23.716-23.717c0-4.453,3.61-8.062,8.062-8.062c4.452,0,8.062,3.608,8.062,8.062   c0,4.188,3.405,7.593,7.592,7.593s7.592-3.406,7.592-7.593c0-4.453,3.61-8.062,8.062-8.062c4.452,0,8.062,3.608,8.062,8.062   c0,4.188,3.406,7.593,7.593,7.593s7.593-3.406,7.593-7.593c0-4.453,3.61-8.062,8.062-8.062s8.062,3.608,8.062,8.062   C287.904,206.761,277.264,217.401,264.187,217.401z"/>
	<path style="fill:#394049;" d="M248.532,252.28c-19.647,0-35.632-15.984-35.632-35.631v-12.826c0-4.453,3.61-8.062,8.062-8.062   c4.452,0,8.062,3.608,8.062,8.062v12.826c0,10.757,8.752,19.507,19.508,19.507c10.757,0,19.509-8.752,19.509-19.507v-12.826   c0-4.453,3.61-8.062,8.062-8.062c4.452,0,8.062,3.608,8.062,8.062v12.826C284.164,236.296,268.18,252.28,248.532,252.28z"/>
</g>
<g>
</g>
<g>
</g>
<g>
</g>
<g>
</g>
<g>
</g>
<g>
</g>
<g>
</g>
<g>
</g>
<g>
</g>
<g>
</g>
<g>
</g>
<g>
</g>
<g>
</g>
<g>
</g>
<g>
</g>
</svg>
