<?xml version="1.0" encoding="iso-8859-1"?>
<!-- Generator: Adobe Illustrator 19.0.0, SVG Export Plug-In . SVG Version: 6.00 Build 0)  -->
<svg xmlns="http://www.w3.org/2000/svg" xmlns:xlink="http://www.w3.org/1999/xlink" version="1.1" id="Layer_1" x="0px" y="0px" viewBox="0 0 512 512" style="enable-background:new 0 0 512 512;" xml:space="preserve">
<path style="fill:#F3C74F;" d="M434.575,311.001c-2.514,0-5.061-0.134-7.639-0.404c-35.386-3.713-63.304-31.292-66.382-65.578  c-1.127-12.539,8.126-23.616,20.665-24.742c12.542-1.132,23.617,8.125,24.742,20.664c1.273,14.173,14.209,23.106,25.734,24.316  c8.304,0.868,19.31-1.695,24.599-18.871c3.704-12.033,16.46-18.78,28.493-15.076c12.032,3.705,18.782,16.461,15.076,28.493  C490.083,291.566,464.921,311.001,434.575,311.001z"/>
<path style="fill:#E6595A;" d="M344.666,446.312c-3.983,0-8.016-1.044-11.682-3.237c-10.803-6.463-14.321-20.461-7.858-31.264  c2.235-3.734,5.447-10.72,1.862-15.554c-4.041-5.448-15.789-9.032-32.919-4.755c-12.219,3.054-24.587-4.381-27.637-16.594  c-3.05-12.214,4.38-24.587,16.594-27.637c33.513-8.369,64.389-0.002,80.579,21.827c13.932,18.785,14.173,43.503,0.643,66.118  C359.978,442.354,352.419,446.312,344.666,446.312z"/>
<circle style="fill:#0081C6;" cx="373.469" cy="80.78" r="52.354"/>
<path style="fill:#40BAB3;" d="M433.439,232.327c0-90.58-75.514-221.07-164.496-221.07s-164.496,130.49-164.496,221.07  s73.647,164.009,164.496,164.009S433.439,322.905,433.439,232.327z"/>
<path style="fill:#FFFFFF;" d="M107.218,262.406c14.171,76.212,81.183,133.929,161.725,133.929s147.555-57.717,161.725-133.929  H107.218L107.218,262.406z"/>
<path style="fill:#E6595A;" d="M136.338,329.371c29.939,40.607,78.181,66.965,132.605,66.965s102.666-26.359,132.605-66.965H136.338  z"/>
<path style="opacity:0.2;enable-background:new    ;" d="M286.387,378.892c-108.461,0-164.496-73.429-164.496-164.009  c0-54.532,27.376-123.517,68.577-169.798c-50.74,44.792-86.02,125.332-86.02,187.24c0,90.58,73.647,164.01,164.496,164.01  c49.949,0,94.694-22.202,124.862-57.242C364.985,363.892,327.443,378.892,286.387,378.892z"/>
<path style="fill:#E6595A;" d="M417.616,149.053c10.093,0,17.292-9.88,14.088-19.45C414.642,78.639,352.056,0,253.448,0  C137.226,0,21.126,78.132,21.126,113.592s98.059,35.461,113.013,35.461H417.616z"/>
<path style="opacity:0.1;enable-background:new    ;" d="M432.264,131.97h-281.6c-14.953,0-113.013,0-113.013-35.461  c0-6.032,3.367-13.3,9.514-21.206c-16.432,14.376-26.039,28.095-26.039,38.289c0,35.461,98.059,35.461,113.013,35.461h283.477  C426.875,149.053,433.676,140.735,432.264,131.97z"/>
<g style="opacity:0.2;">
	<path d="M285.006,96.69h-32.126c-4.514,0-8.172-3.658-8.172-8.172s3.658-8.172,8.172-8.172h32.126c4.513,0,8.172,3.658,8.172,8.172   C293.178,93.031,289.519,96.69,285.006,96.69z"/>
	<path d="M268.944,124.613h-32.126c-4.514,0-8.172-3.658-8.172-8.172c0-4.514,3.658-8.172,8.172-8.172h32.126   c4.514,0,8.172,3.658,8.172,8.172C277.116,120.956,273.457,124.613,268.944,124.613z"/>
</g>
<path style="fill:#F0B0B7;" d="M288.548,224.327h-27.46c-4.514,0-8.172-3.658-8.172-8.172s3.658-8.172,8.172-8.172h27.46  c4.514,0,8.172,3.658,8.172,8.172S293.061,224.327,288.548,224.327z"/>
<path style="fill:#F3C74F;" d="M207.808,346.874c-11.568,0-23.233-3.149-34.183-9.596c-30.66-18.052-44.627-54.725-33.212-87.201  c4.175-11.877,17.186-18.122,29.063-13.946c11.876,4.175,18.121,17.187,13.946,29.063c-4.719,13.427,3.348,26.92,13.334,32.799  c7.198,4.236,18.276,6.463,30.209-6.973c8.361-9.414,22.769-10.264,32.179-1.906c9.413,8.36,10.265,22.766,1.906,32.179  C246.109,338.117,227.095,346.873,207.808,346.874z"/>
<path style="fill:#E6595A;" d="M219.479,475.305c-8.462,0-16.589-4.73-20.527-12.856c-5.492-11.327-0.763-24.963,10.566-30.455  c14.747-7.151,30.472-33.27,21.973-54.703c-4.64-11.702,1.084-24.95,12.787-29.591c11.702-4.64,24.951,1.084,29.591,12.787  c17.831,44.964-9.121,95.391-44.463,112.528C226.204,474.569,222.814,475.305,219.479,475.305z"/>
<path style="fill:#0081C6;" d="M227.015,79.139c0.033,1.066-0.099,2.139-0.368,3.17c-3.545,13.58-9.474,22.876-18.602,32.005  c-9.088,9.088-17.954,14.742-31.594,18.338c-1.165,0.307-2.375,0.458-3.579,0.416c-28.745-0.98-51.609-25.132-50.499-54.362  c1.031-27.134,23.14-49.244,50.275-50.275C201.948,27.319,226.146,50.296,227.015,79.139z"/>
<circle style="fill:#F3C74F;" cx="174.689" cy="80.748" r="24.442"/>
<path style="opacity:0.2;enable-background:new    ;" d="M188.9,120.203c-1.165,0.307-2.375,0.458-3.579,0.416  c-28.745-0.98-51.609-25.132-50.499-54.362c0.397-10.443,3.925-20.135,9.651-28.174c-12.849,9.151-21.467,23.932-22.101,40.623  c-1.11,29.23,21.754,53.382,50.499,54.362c1.204,0.041,2.414-0.109,3.579-0.416c13.639-3.596,22.506-9.25,31.594-18.338  c2.141-2.141,4.099-4.293,5.899-6.506C206.892,113.533,199.278,117.467,188.9,120.203z"/>
<path style="fill:#0081C6;" d="M380.171,473.652l-71.612-23.335c-4.01-1.306-6.202-5.617-4.894-9.626l8.214-25.208  c1.781-5.466,7.657-8.454,13.125-6.674l50.888,16.582c15.161,4.94,24.903,19.695,23.489,35.579l0,0  C398.543,470.39,389.162,476.582,380.171,473.652z"/>
<path style="fill:#FFFFFF;" d="M399.381,460.97L399.381,460.97c0.051-0.573,0.057-1.141,0.078-1.711l-92.069-30.001l-3.725,11.432  c-1.306,4.01,0.885,8.32,4.894,9.626l71.612,23.335C389.162,476.582,398.543,470.39,399.381,460.97z"/>
<path style="opacity:0.2;enable-background:new    ;" d="M393.659,467.209l-71.612-23.335c-4.01-1.306-6.202-5.617-4.894-9.626  l8.214-25.208c0.011-0.034,0.026-0.065,0.038-0.099l-0.401-0.131c-5.466-1.781-11.342,1.206-13.125,6.674l-8.214,25.208  c-1.306,4.01,0.885,8.32,4.894,9.626l71.612,23.335c6.518,2.124,13.222-0.56,16.747-5.777  C395.837,467.777,394.745,467.563,393.659,467.209z"/>
<path style="fill:#0081C6;" d="M230.13,506.581l-47.568-58.396c-2.664-3.27-2.171-8.08,1.098-10.743l20.557-16.744  c4.458-3.632,11.015-2.961,14.647,1.497l33.803,41.497c10.071,12.363,10.27,30.043,0.482,42.63l0,0  C247.342,513.786,236.102,513.912,230.13,506.581z"/>
<path style="fill:#FFFFFF;" d="M253.148,506.32L253.148,506.32c0.353-0.454,0.665-0.928,0.992-1.396l-61.156-75.079l-9.322,7.594  c-3.27,2.664-3.761,7.473-1.098,10.743l47.568,58.396C236.102,513.912,247.342,513.786,253.148,506.32z"/>
<path style="opacity:0.2;enable-background:new    ;" d="M244.958,508.467L197.39,450.07c-2.664-3.27-2.171-8.08,1.098-10.743  l20.557-16.744c0.027-0.023,0.058-0.04,0.086-0.063l-0.266-0.327c-3.632-4.457-10.19-5.129-14.647-1.497l-20.557,16.744  c-3.27,2.664-3.761,7.473-1.098,10.743l47.568,58.396c4.329,5.315,11.419,6.689,17.207,4.212  C246.48,510.124,245.68,509.352,244.958,508.467z"/>
<path style="opacity:0.2;fill:#FFFFFF;enable-background:new    ;" d="M309.207,8.914c-2.525,6.793-3.909,14.14-3.909,21.813  c0,34.595,28.044,62.639,62.639,62.639c14.117,0,27.141-4.673,37.616-12.553C383.96,51.447,351.439,22.899,309.207,8.914z"/>
<g>
	<path style="fill:#394049;" d="M274.818,188.551c-4.514,0-8.172-3.658-8.172-8.172v-4.503c0-4.514,3.658-8.172,8.172-8.172   s8.172,3.658,8.172,8.172v4.503C282.99,184.893,279.332,188.551,274.818,188.551z"/>
	<path style="fill:#394049;" d="M386.885,211.686c-6.178,0-11.824-2.319-16.114-6.13c-4.291,3.811-9.936,6.13-16.112,6.13   c-13.391,0-24.284-10.895-24.284-24.285c0-4.514,3.659-8.172,8.172-8.172c4.514,0,8.172,3.658,8.172,8.172   c0,4.38,3.563,7.942,7.941,7.942c4.379,0,7.941-3.563,7.941-7.942c0-4.514,3.658-8.172,8.172-8.172s8.172,3.658,8.172,8.172   c0,4.38,3.563,7.942,7.942,7.942s7.941-3.563,7.941-7.942c0-4.514,3.658-8.172,8.172-8.172c4.513,0,8.172,3.658,8.172,8.172   C411.169,200.791,400.276,211.686,386.885,211.686z"/>
	<path style="fill:#394049;" d="M143.265,188.551H82.012c-4.514,0-8.172-3.658-8.172-8.172s3.658-8.172,8.172-8.172h61.253   c4.514,0,8.172,3.658,8.172,8.172S147.778,188.551,143.265,188.551z"/>
	<path style="fill:#394049;" d="M48.084,188.551H19.292c-4.514,0-8.172-3.658-8.172-8.172s3.658-8.172,8.172-8.172h28.793   c4.514,0,8.172,3.658,8.172,8.172C56.256,184.893,52.598,188.551,48.084,188.551z"/>
	<path style="fill:#394049;" d="M122.99,239.707H50.835c-4.514,0-8.172-3.658-8.172-8.172s3.658-8.172,8.172-8.172h72.156   c4.514,0,8.172,3.658,8.172,8.172C131.162,236.048,127.505,239.707,122.99,239.707z"/>
	<path style="fill:#394049;" d="M146.463,291.793H67.972c-4.514,0-8.172-3.658-8.172-8.172s3.658-8.172,8.172-8.172h78.491   c4.514,0,8.172,3.658,8.172,8.172S150.977,291.793,146.463,291.793z"/>
</g>
<g>
</g>
<g>
</g>
<g>
</g>
<g>
</g>
<g>
</g>
<g>
</g>
<g>
</g>
<g>
</g>
<g>
</g>
<g>
</g>
<g>
</g>
<g>
</g>
<g>
</g>
<g>
</g>
<g>
</g>
</svg>
