<?xml version="1.0" encoding="iso-8859-1"?>
<!-- Generator: Adobe Illustrator 19.0.0, SVG Export Plug-In . SVG Version: 6.00 Build 0)  -->
<svg xmlns="http://www.w3.org/2000/svg" xmlns:xlink="http://www.w3.org/1999/xlink" version="1.1" id="Layer_1" x="0px" y="0px" viewBox="0 0 512 512" style="enable-background:new 0 0 512 512;" xml:space="preserve">
<path style="fill:#F3C74F;" d="M378.644,455.972H236.176c-12.61,0-22.831-10.221-22.831-22.831c0-12.61,10.221-22.831,22.831-22.831  h142.468c12.61,0,22.831,10.221,22.831,22.831C401.475,445.751,391.254,455.972,378.644,455.972z"/>
<path style="opacity:0.2;enable-background:new    ;" d="M378.644,455.972H236.176c-12.61,0-22.831-10.221-22.831-22.831  c0-12.61,10.221-22.831,22.831-22.831h142.468c12.61,0,22.831,10.221,22.831,22.831  C401.475,445.751,391.254,455.972,378.644,455.972z"/>
<circle style="fill:#0081C6;" cx="305.629" cy="133.659" r="52.438"/>
<circle style="fill:#F3C74F;" cx="305.629" cy="133.659" r="24.483"/>
<path style="fill:#40BAB3;" d="M343.918,277.458c0-90.727-75.638-221.43-164.764-221.43S14.391,186.731,14.391,277.458  s73.768,164.276,164.764,164.276S343.918,368.185,343.918,277.458z"/>
<path style="fill:#FFFFFF;" d="M17.167,307.587c14.193,76.336,81.316,134.147,161.989,134.147s147.796-57.811,161.989-134.147  H17.167z"/>
<path style="fill:#0081C6;" d="M46.333,374.66c29.988,40.672,78.309,67.074,132.821,67.074s102.833-26.401,132.821-67.074H46.333z"/>
<path style="opacity:0.2;enable-background:new    ;" d="M196.627,424.263c-90.996,0-164.764-73.549-164.764-164.276  c0-54.62,27.422-123.718,68.688-170.074c-50.823,44.864-86.16,125.537-86.16,187.546c0,90.727,73.768,164.276,164.764,164.276  c50.031,0,94.847-22.238,125.065-57.335C275.353,409.239,237.75,424.263,196.627,424.263z"/>
<g>
	<path style="fill:#394049;" d="M112.727,214.272c-4.552,0-8.24-3.688-8.24-8.24v-4.51c0-4.552,3.688-8.24,8.24-8.24   s8.24,3.688,8.24,8.24v4.51C120.968,210.583,117.278,214.272,112.727,214.272z"/>
	<path style="fill:#394049;" d="M304.946,214.272c-4.552,0-8.24-3.688-8.24-8.24v-4.51c0-4.552,3.688-8.24,8.24-8.24   c4.551,0,8.24,3.688,8.24,8.24v4.51C313.186,210.583,309.497,214.272,304.946,214.272z"/>
	<path style="fill:#394049;" d="M224.975,237.443c-6.184,0-11.835-2.315-16.139-6.121c-4.303,3.807-9.955,6.121-16.139,6.121   c-13.442,0-24.379-10.937-24.379-24.379c0-4.552,3.688-8.24,8.24-8.24s8.24,3.688,8.24,8.24c0,4.355,3.543,7.899,7.899,7.899   c4.355,0,7.899-3.544,7.899-7.899c0-4.552,3.688-8.24,8.24-8.24s8.24,3.688,8.24,8.24c0,4.355,3.543,7.899,7.899,7.899   c4.355,0,7.899-3.544,7.899-7.899c0-4.552,3.688-8.24,8.24-8.24s8.24,3.688,8.24,8.24   C249.354,226.506,238.418,237.443,224.975,237.443z"/>
</g>
<path style="fill:#F0B0B7;" d="M126.479,250.107H98.974c-4.552,0-8.24-3.688-8.24-8.24s3.688-8.24,8.24-8.24h27.505  c4.552,0,8.24,3.688,8.24,8.24C134.719,246.417,131.031,250.107,126.479,250.107z"/>
<path style="fill:#0081C6;" d="M104.853,132.013c0.032,1.067-0.1,2.142-0.369,3.175c-3.551,13.602-9.49,22.914-18.632,32.057  c-9.103,9.103-17.984,14.766-31.645,18.368c-1.167,0.308-2.38,0.458-3.585,0.418C21.83,185.05-1.072,160.858,0.04,131.581  C1.072,104.4,23.217,82.254,50.396,81.223C79.744,80.107,103.981,103.123,104.853,132.013z"/>
<circle style="fill:#F3C74F;" cx="52.439" cy="133.626" r="24.483"/>
<path style="opacity:0.2;enable-background:new    ;" d="M66.675,173.143c-1.167,0.308-2.38,0.458-3.585,0.418  c-28.792-0.981-51.693-25.173-50.581-54.45c0.398-10.461,3.931-20.168,9.666-28.22c-12.87,9.167-21.502,23.972-22.136,40.69  c-1.112,29.278,21.79,53.469,50.581,54.45c1.205,0.041,2.418-0.11,3.585-0.418c13.661-3.602,22.542-9.265,31.645-18.368  c2.145-2.145,4.106-4.3,5.908-6.516C84.696,166.462,77.071,170.402,66.675,173.143z"/>
<path style="fill:#A4A8AB;" d="M281.047,410.31H147.668c-4.964,0-8.987-4.023-8.987-8.987v-17.675c0-4.964,4.023-8.987,8.987-8.987  h133.378V410.31L281.047,410.31z"/>
<path style="opacity:0.15;enable-background:new    ;" d="M158.16,401.177c-5.084,0-9.204-4.121-9.204-9.204v-17.241  c0-0.024,0.003-0.047,0.003-0.071h-1.073c-5.084,0-9.204,4.121-9.204,9.204v17.241c0,5.084,4.121,9.204,9.204,9.204h133.161v-9.133  H158.16z"/>
<path style="fill:#5F666F;" d="M512,383.444V237.89c0-4.456-3.613-8.07-8.07-8.07H289.116c-4.456,0-8.07,3.613-8.07,8.07v172.42  H503.93c4.456,0,8.07-3.613,8.07-8.069L512,383.444L512,383.444z"/>
<g>
	<circle style="fill:#FFFFFF;" cx="403.371" cy="325.373" r="26.244"/>
	<path style="fill:#FFFFFF;" d="M426.2,291.525c5.523-5.523,7.074-13.645,7.487-18.565c0.199-2.364-1.776-4.339-4.14-4.14   c-4.92,0.413-13.042,1.963-18.565,7.487c-8.405,8.405-7.609,22.828-7.609,22.828S417.796,299.93,426.2,291.525z"/>
	<path style="opacity:0.1;fill:#FFFFFF;enable-background:new    ;" d="M503.93,229.82h-60.39   c-0.889,4.537-1.367,9.221-1.367,14.018c0,39.142,31.028,71.019,69.826,72.423V237.89C512,233.433,508.388,229.82,503.93,229.82z"/>
	<circle style="opacity:0.1;fill:#FFFFFF;enable-background:new    ;" cx="477.523" cy="342.755" r="16.237"/>
</g>
<g>
	<path style="fill:#F3C74F;" d="M172.014,384.434c-0.441,0-0.881-0.013-1.325-0.038c-17.64-1.01-48.391-6.977-77.003-20.468   c-35.124-16.562-56.84-39.609-62.798-66.651c-2.714-12.313,5.069-24.496,17.384-27.21c12.31-2.709,24.496,5.068,27.21,17.384   c3.725,16.903,25.207,29.294,37.68,35.175c21.239,10.016,45.509,15.344,60.137,16.181c12.589,0.721,22.21,11.51,21.491,24.099   C194.091,375.051,184.025,384.434,172.014,384.434z"/>
	<path style="fill:#F3C74F;" d="M294.848,455.972H152.38c-12.61,0-22.831-10.221-22.831-22.831c0-12.61,10.221-22.831,22.831-22.831   h142.468c12.61,0,22.831,10.221,22.831,22.831C317.679,445.751,307.457,455.972,294.848,455.972z"/>
</g>
<g>
</g>
<g>
</g>
<g>
</g>
<g>
</g>
<g>
</g>
<g>
</g>
<g>
</g>
<g>
</g>
<g>
</g>
<g>
</g>
<g>
</g>
<g>
</g>
<g>
</g>
<g>
</g>
<g>
</g>
</svg>
