<?xml version="1.0" encoding="iso-8859-1"?>
<!-- Generator: Adobe Illustrator 19.0.0, SVG Export Plug-In . SVG Version: 6.00 Build 0)  -->
<svg xmlns="http://www.w3.org/2000/svg" xmlns:xlink="http://www.w3.org/1999/xlink" version="1.1" id="Layer_1" x="0px" y="0px" viewBox="0 0 512 512" style="enable-background:new 0 0 512 512;" xml:space="preserve">
<path style="fill:#E8E8E8;" d="M346.987,111.978L310.51,98.701l34.522-94.848c1.106-3.038,4.465-4.605,7.503-3.499l25.476,9.273  c3.038,1.106,4.605,4.465,3.499,7.503L346.987,111.978z"/>
<polygon style="opacity:0.2;enable-background:new    ;" points="333.828,34.634 310.51,98.701 346.987,111.979 375.138,34.634 "/>
<path style="fill:#E8E8E8;" d="M452.826,88.279H59.175c-4.907,0-8.884,3.977-8.884,8.884v38.575c0,4.907,3.977,8.884,8.884,8.884  h393.652c4.907,0,8.883-3.977,8.883-8.884V97.163C461.71,92.256,457.732,88.279,452.826,88.279z"/>
<path style="opacity:0.1;enable-background:new    ;" d="M71.965,131.832c-4.907,0-8.884-3.977-8.884-8.884V88.279h-3.905  c-4.907,0-8.884,3.977-8.884,8.884v38.575c0,4.907,3.977,8.884,8.884,8.884h393.652c4.906,0,8.883-3.977,8.883-8.884v-3.905  C461.71,131.832,71.965,131.832,71.965,131.832z"/>
<path style="fill:#D0D1D2;" d="M413.489,50.888H98.513c-7.692,0-13.928,6.236-13.928,13.928v23.463h342.833V64.816  C427.417,57.124,421.181,50.888,413.489,50.888z"/>
<rect x="84.579" y="72.099" style="opacity:0.1;enable-background:new    ;" width="342.829" height="16.175"/>
<path style="fill:#A27B5A;" d="M439.691,144.621H72.312l47.012,352.572c1.13,8.476,8.361,14.807,16.911,14.807h239.532  c8.552,0,15.781-6.331,16.911-14.807L439.691,144.621z"/>
<polygon style="opacity:0.2;enable-background:new    ;" points="108.057,412.705 116.052,472.657 395.95,472.657 403.944,412.705   "/>
<polygon style="opacity:0.2;enable-background:new    ;" points="72.312,144.621 74.917,164.164 437.085,164.164 439.691,144.621   "/>
<path style="fill:#E8E8E8;" d="M60.028,197.456l31.503,236.267c0.805,6.034,5.952,10.54,12.039,10.54h304.86  c6.087,0,11.234-4.507,12.039-10.54l31.504-236.267c0.971-7.281-4.693-13.751-12.039-13.751H72.066  C64.721,183.704,59.057,190.174,60.028,197.456z"/>
<path style="fill:#3DAD4B;" d="M111.871,313.984c0,57.517,33.696,107.159,82.42,130.28h123.416  c48.724-23.12,82.42-72.762,82.42-130.28s-33.696-107.159-82.42-130.28H194.293C145.567,206.825,111.871,256.467,111.871,313.984z"/>
<circle style="fill:#0081C6;" cx="320.335" cy="259.931" r="26.674"/>
<circle style="fill:#F3C74F;" cx="320.335" cy="259.931" r="10.406"/>
<circle style="fill:#0081C6;" cx="191.663" cy="259.931" r="26.674"/>
<circle style="fill:#F3C74F;" cx="191.663" cy="259.931" r="10.406"/>
<path style="opacity:0.2;enable-background:new    ;" d="M207.434,238.422c-12.541,11.335-23.179,26.938-30.734,43.593  c4.268,2.899,9.419,4.593,14.966,4.593c14.732,0,26.674-11.942,26.674-26.674C218.34,251.103,214.045,243.278,207.434,238.422z"/>
<path style="fill:#40BAB3;" d="M339.813,333.08c0-46.151-38.475-112.636-83.811-112.636S172.19,286.929,172.19,333.08  s37.524,83.564,83.811,83.564S339.813,379.231,339.813,333.08z"/>
<g>
	<path style="fill:#F0B0B7;" d="M214.108,331.622h-13.992c-4.519,0-8.182-3.662-8.182-8.182c0-4.519,3.663-8.182,8.182-8.182h13.992   c4.519,0,8.182,3.663,8.182,8.182C222.29,327.959,218.627,331.622,214.108,331.622z"/>
	<path style="fill:#F0B0B7;" d="M311.885,331.622h-13.992c-4.52,0-8.182-3.662-8.182-8.182c0-4.519,3.662-8.182,8.182-8.182h13.992   c4.52,0,8.182,3.663,8.182,8.182C320.067,327.959,316.405,331.622,311.885,331.622z"/>
</g>
<path style="fill:#FFFFFF;" d="M173.6,348.405c7.22,38.831,41.363,68.237,82.4,68.237s75.18-29.408,82.4-68.237H173.6z"/>
<path style="fill:#0081C6;" d="M188.438,382.525c15.254,20.689,39.833,34.119,67.563,34.119s52.309-13.429,67.563-34.119H188.438z"/>
<path style="opacity:0.2;enable-background:new    ;" d="M264.888,407.756c-46.288,0-83.811-37.413-83.811-83.564  c0-27.784,13.948-62.934,34.941-86.514c-25.852,22.822-43.827,63.857-43.827,95.4c0,46.151,37.524,83.564,83.811,83.564  c25.45,0,48.247-11.312,63.618-29.165C304.934,400.114,285.807,407.756,264.888,407.756z"/>
<g>
	<path style="fill:#394049;" d="M207.112,308.994c-4.519,0-8.182-3.662-8.182-8.182v-2.295c0-4.519,3.663-8.182,8.182-8.182   c4.519,0,8.182,3.663,8.182,8.182v2.295C215.294,305.331,211.631,308.994,207.112,308.994z"/>
	<path style="fill:#394049;" d="M304.889,308.994c-4.52,0-8.182-3.662-8.182-8.182v-2.295c0-4.519,3.662-8.182,8.182-8.182   c4.519,0,8.182,3.663,8.182,8.182v2.295C313.071,305.331,309.409,308.994,304.889,308.994z"/>
	<path style="fill:#394049;" d="M264.21,320.78c-2.989,0-5.794-0.804-8.209-2.207c-2.415,1.403-5.22,2.207-8.209,2.207   c-9.038,0-16.391-7.353-16.391-16.391c0-4.52,3.663-8.182,8.182-8.182c4.519,0,8.182,3.662,8.182,8.182   c0-4.52,3.691-8.182,8.209-8.182c0.01,0,0.019,0,0.027,0c4.52,0,8.182,3.662,8.182,8.182c0-4.52,3.691-8.182,8.209-8.182   c4.52,0,8.209,3.662,8.209,8.182C280.601,313.427,273.249,320.78,264.21,320.78z"/>
</g>
<path style="opacity:0.1;enable-background:new    ;" d="M119.513,428.321c-6.087,0-11.234-4.507-12.039-10.54L76.263,183.704  h-4.197c-7.346,0-13.01,6.47-12.039,13.751L91.53,433.722c0.805,6.034,5.952,10.54,12.039,10.54h304.86  c6.087,0,11.234-4.507,12.039-10.54l0.72-5.402H119.513V428.321z"/>
<g>
</g>
<g>
</g>
<g>
</g>
<g>
</g>
<g>
</g>
<g>
</g>
<g>
</g>
<g>
</g>
<g>
</g>
<g>
</g>
<g>
</g>
<g>
</g>
<g>
</g>
<g>
</g>
<g>
</g>
</svg>
