<?xml version="1.0" encoding="iso-8859-1"?>
<!-- Generator: Adobe Illustrator 19.0.0, SVG Export Plug-In . SVG Version: 6.00 Build 0)  -->
<svg xmlns="http://www.w3.org/2000/svg" xmlns:xlink="http://www.w3.org/1999/xlink" version="1.1" id="Layer_1" x="0px" y="0px" viewBox="0 0 512.008 512.008" style="enable-background:new 0 0 512.008 512.008;" xml:space="preserve">
<circle style="fill:#0081C6;" cx="383.982" cy="78.561" r="53.064"/>
<circle style="fill:#F3C74F;" cx="383.982" cy="78.561" r="24.774"/>
<circle style="fill:#0081C6;" cx="128.022" cy="78.561" r="53.064"/>
<circle style="fill:#F3C74F;" cx="128.022" cy="78.561" r="24.774"/>
<path style="opacity:0.2;enable-background:new    ;" d="M159.389,35.766c-24.949,22.548-46.11,53.588-61.14,86.719  c8.49,5.765,18.736,9.136,29.772,9.136c29.306,0,53.064-23.757,53.064-53.064C181.083,60.99,172.541,45.423,159.389,35.766z"/>
<path style="fill:#40BAB3;" d="M422.731,224.069C422.731,132.26,346.192,0,256.004,0S89.277,132.26,89.277,224.069  s74.646,166.234,166.728,166.234S422.731,315.878,422.731,224.069z"/>
<g>
	<path style="fill:#F0B0B7;" d="M172.666,204.281h-27.833c-4.496,0-8.142-3.644-8.142-8.142c0-4.497,3.645-8.142,8.142-8.142h27.833   c4.496,0,8.142,3.644,8.142,8.142C180.808,200.637,177.162,204.281,172.666,204.281z"/>
	<path style="fill:#F0B0B7;" d="M367.176,204.281h-27.833c-4.496,0-8.142-3.644-8.142-8.142c0-4.497,3.645-8.142,8.142-8.142h27.833   c4.496,0,8.142,3.644,8.142,8.142C375.318,200.637,371.672,204.281,367.176,204.281z"/>
</g>
<path style="fill:#FFFFFF;" d="M92.085,254.557c14.363,77.246,82.284,135.746,163.919,135.746s149.556-58.5,163.919-135.746  L92.085,254.557L92.085,254.557z"/>
<path style="fill:#0081C6;" d="M121.6,322.43c30.345,41.157,79.241,67.874,134.404,67.874s104.058-26.716,134.404-67.874H121.6z"/>
<path style="opacity:0.2;enable-background:new    ;" d="M273.683,372.624c-92.081,0-166.728-74.426-166.728-166.234  c0-55.272,27.748-125.194,69.507-172.101c-51.429,45.4-87.187,127.033-87.187,189.781c0,91.809,74.646,166.235,166.728,166.235  c50.626,0,95.978-22.503,126.556-58.019C353.348,357.421,315.298,372.624,273.683,372.624z"/>
<g>
	<path style="fill:#394049;" d="M158.749,168.02c-4.496,0-8.142-3.644-8.142-8.142v-4.565c0-4.496,3.645-8.142,8.142-8.142   s8.142,3.645,8.142,8.142v4.565C166.891,164.375,163.246,168.02,158.749,168.02z"/>
	<path style="fill:#394049;" d="M353.258,168.02c-4.496,0-8.142-3.644-8.142-8.142v-4.565c0-4.496,3.645-8.142,8.142-8.142   c4.496,0,8.142,3.645,8.142,8.142v4.565C361.4,164.375,357.754,168.02,353.258,168.02z"/>
	<path style="fill:#394049;" d="M272.335,191.467c-6.269,0-11.996-2.371-16.331-6.261c-4.335,3.891-10.062,6.261-16.331,6.261   c-13.494,0-24.474-10.978-24.474-24.474c0-4.497,3.645-8.142,8.142-8.142s8.142,3.644,8.142,8.142c0,4.516,3.673,8.19,8.19,8.19   c4.516,0,8.189-3.675,8.189-8.19c0-4.497,3.645-8.142,8.142-8.142c4.496,0,8.142,3.644,8.142,8.142c0,4.516,3.673,8.19,8.189,8.19   s8.19-3.675,8.19-8.19c0-4.497,3.645-8.142,8.142-8.142c4.496,0,8.142,3.644,8.142,8.142   C296.808,180.489,285.83,191.467,272.335,191.467z"/>
</g>
<path style="fill:#FFFFFF;" d="M438.276,324.142v-93.585l-20.731-11.89c-3.714-2.13-7.98-3.082-12.245-2.713  c-32.11,2.776-115.19,22.564-149.296,36.952c-34.106-14.388-117.186-34.176-149.296-36.952c-4.265-0.369-8.531,0.584-12.245,2.713  l-20.731,11.89v93.585H438.276z"/>
<polygon style="opacity:0.2;enable-background:new    ;" points="427.136,224.168 286.823,262.758 225.177,262.758 84.869,224.169   73.732,230.558 73.732,324.142 438.276,324.142 438.276,230.558 "/>
<rect x="225.178" y="272.211" style="fill:#0081C6;" width="61.646" height="239.797"/>
<rect x="225.178" y="272.211" style="opacity:0.2;enable-background:new    ;" width="61.646" height="239.797"/>
<g>
	<path style="fill:#0081C6;" d="M225.177,272.209L54.985,225.401c-4.659-1.281-9.26,2.224-9.26,7.056v224.61   c0,3.295,2.201,6.183,5.378,7.057L225.177,512V272.209z"/>
	<path style="fill:#0081C6;" d="M286.823,272.209l170.192-46.808c4.659-1.281,9.26,2.224,9.26,7.056v224.61   c0,3.295-2.202,6.183-5.378,7.057L286.823,512L286.823,272.209L286.823,272.209z"/>
</g>
<g>
	<path style="fill:#F3C74F;" d="M64.849,373.054c-7.152-7.413-17.232-11.648-19.123-15.499v-98.515   c-10.609,12.033-18.955,25.277-24.495,37.026c-0.002,0.004-0.004,0.009-0.007,0.013C7.499,325.19,4.142,379.944,33.534,407.032   c4.441,4.092,10.053,6.115,15.651,6.115c6.229,0,12.44-2.504,16.995-7.447C74.828,396.318,74.232,381.701,64.849,373.054z"/>
	<path style="fill:#F3C74F;" d="M447.159,373.054c7.152-7.413,17.232-11.648,19.123-15.499v-98.515   c10.609,12.033,18.955,25.277,24.495,37.026c0.002,0.004,0.004,0.009,0.007,0.013c13.725,29.112,17.082,83.866-12.31,110.954   c-4.441,4.092-10.053,6.115-15.651,6.115c-6.229,0-12.44-2.504-16.995-7.447C437.179,396.318,437.776,381.701,447.159,373.054z"/>
</g>
<path style="fill:#FFFFFF;" d="M433.435,332.27l-100.769,27.714c-4.094,1.126-8.135-1.954-8.135-6.201v-42.224  c0-2.895,1.934-5.432,4.725-6.2l100.769-27.715c4.094-1.126,8.136,1.954,8.136,6.2v42.224  C438.161,328.963,436.226,331.501,433.435,332.27z"/>
<path style="fill:#394049;" d="M358.198,386.277c-3.575,0-6.852-2.371-7.845-5.985c-1.193-4.336,1.356-8.817,5.692-10.01  l49.694-13.668c4.336-1.191,8.817,1.356,10.009,5.69c1.193,4.336-1.356,8.817-5.692,10.01l-49.694,13.668  C359.64,386.181,358.913,386.277,358.198,386.277z"/>
<g>
</g>
<g>
</g>
<g>
</g>
<g>
</g>
<g>
</g>
<g>
</g>
<g>
</g>
<g>
</g>
<g>
</g>
<g>
</g>
<g>
</g>
<g>
</g>
<g>
</g>
<g>
</g>
<g>
</g>
</svg>
