<?xml version="1.0" encoding="iso-8859-1"?>
<!-- Generator: Adobe Illustrator 19.0.0, SVG Export Plug-In . SVG Version: 6.00 Build 0)  -->
<svg xmlns="http://www.w3.org/2000/svg" xmlns:xlink="http://www.w3.org/1999/xlink" version="1.1" id="Layer_1" x="0px" y="0px" viewBox="0 0 512 512" style="enable-background:new 0 0 512 512;" xml:space="preserve">
<path style="fill:#F3C74F;" d="M85.157,307.981c-17.682,0-34.026-4.658-47.835-13.717c-15.743-10.326-27.593-26.232-33.37-44.788  c-11.245-36.129,0.154-87.319,51.758-114.339c12.149-6.359,27.146-1.669,33.504,10.476c6.359,12.145,1.669,27.146-10.476,33.504  c-26.547,13.901-32.882,37.943-27.384,55.605c7.616,24.465,30.921,24.371,40.588,23.19c13.609-1.646,25.983,8.03,27.641,21.639  c1.657,13.608-8.03,25.983-21.639,27.641C93.617,307.719,89.35,307.981,85.157,307.981z"/>
<path style="opacity:0.2;enable-background:new    ;" d="M119.583,279.55c-1.658-13.609-14.032-23.285-27.641-21.639  c-7.135,0.872-21.694,1.139-31.896-8.612c-0.098,2.463-0.161,4.909-0.161,7.322c0,17.21,2.449,33.849,7.006,49.598  c5.887,1.163,11.991,1.762,18.268,1.762c4.193,0,8.46-0.262,12.786-0.789C111.552,305.534,121.24,293.159,119.583,279.55z"/>
<g>
	<path style="fill:#F3C74F;" d="M426.843,307.981c-4.194,0-8.458-0.262-12.786-0.789c-13.609-1.658-23.296-14.032-21.639-27.641   c1.658-13.609,14.027-23.291,27.641-21.639c9.667,1.181,32.973,1.274,40.588-23.19c5.498-17.661-0.838-41.704-27.386-55.605   c-12.145-6.358-16.835-21.36-10.476-33.504c6.359-12.144,21.361-16.833,33.504-10.476c51.604,27.02,63.003,78.21,51.758,114.339   c-5.777,18.556-17.627,34.461-33.369,44.788C460.87,303.323,444.523,307.981,426.843,307.981z"/>
	<path style="fill:#F3C74F;" d="M309.367,509.145c-13.709,0-24.822-11.113-24.822-24.822v-93.995   c0-13.709,11.113-24.822,24.822-24.822c13.709,0,24.822,11.113,24.822,24.822v93.995   C334.189,498.033,323.077,509.145,309.367,509.145z"/>
</g>
<path style="opacity:0.2;enable-background:new    ;" d="M309.367,365.506c-13.709,0-24.822,11.113-24.822,24.822v52.059  c17.527-2.799,34.205-8.127,49.644-15.608v-36.451C334.189,376.619,323.077,365.506,309.367,365.506z"/>
<path style="fill:#F3C74F;" d="M202.633,509.145c-13.709,0-24.822-11.113-24.822-24.822v-93.995  c0-13.709,11.113-24.822,24.822-24.822c13.709,0,24.822,11.113,24.822,24.822v93.995  C227.455,498.033,216.342,509.145,202.633,509.145z"/>
<path style="opacity:0.2;enable-background:new    ;" d="M202.633,365.506c-13.709,0-24.822,11.113-24.822,24.822v36.451  c15.438,7.481,32.117,12.809,49.644,15.608v-52.059C227.455,376.619,216.342,365.506,202.633,365.506z"/>
<circle style="fill:#0081C6;" cx="393.506" cy="87.261" r="57.005"/>
<circle style="fill:#F3C74F;" cx="393.506" cy="87.261" r="26.617"/>
<circle style="fill:#0081C6;" cx="118.496" cy="87.261" r="57.005"/>
<circle style="fill:#F3C74F;" cx="118.496" cy="87.261" r="26.617"/>
<path style="opacity:0.2;enable-background:new    ;" d="M152.199,41.282c-26.804,24.225-49.539,57.573-65.688,93.169  c9.121,6.194,20.13,9.816,31.986,9.816c31.486,0,57.009-25.525,57.009-57.009C175.508,68.382,166.329,51.658,152.199,41.282z"/>
<path style="fill:#40BAB3;" d="M435.128,243.59c0-98.637-82.232-240.735-179.129-240.735S76.872,144.953,76.872,243.59  S157.07,422.188,256,422.188S435.128,342.228,435.128,243.59z"/>
<g>
	<circle style="fill:#F0B0B7;" cx="256.001" cy="208.076" r="21.774"/>
	<path style="fill:#F0B0B7;" d="M166.464,252.712H136.56c-4.509,0-8.165-3.655-8.165-8.165c0-4.511,3.656-8.165,8.165-8.165h29.904   c4.509,0,8.165,3.655,8.165,8.165C174.629,249.056,170.973,252.712,166.464,252.712z"/>
	<path style="fill:#F0B0B7;" d="M375.44,252.712h-29.904c-4.509,0-8.165-3.655-8.165-8.165c0-4.511,3.656-8.165,8.165-8.165h29.904   c4.509,0,8.165,3.655,8.165,8.165C383.606,249.056,379.95,252.712,375.44,252.712z"/>
</g>
<path style="fill:#FFFFFF;" d="M79.889,276.346C95.319,359.338,168.294,422.189,256,422.189c87.707,0,160.68-62.852,176.111-145.843  L79.889,276.346L79.889,276.346z"/>
<path style="fill:#0081C6;" d="M111.599,349.267c32.603,44.218,85.135,72.921,144.401,72.921s111.798-28.703,144.401-72.921H111.599  z"/>
<path style="opacity:0.2;enable-background:new    ;" d="M274.995,403.193c-98.929,0-179.127-79.961-179.127-178.598  c0-59.383,29.811-134.504,74.677-184.902C115.29,88.47,76.872,176.175,76.872,243.59c0,98.638,80.198,178.598,179.127,178.598  c54.392,0,103.117-24.176,135.969-62.333C360.584,386.861,319.704,403.193,274.995,403.193z"/>
<g>
	<path style="fill:#394049;" d="M151.53,210.529c-8.08,0.001-15.843-3.056-21.434-8.469c-5.292-5.126-8.207-11.863-8.207-18.972   c0-4.511,3.656-8.165,8.165-8.165c4.509,0,8.165,3.655,8.165,8.165c0,2.648,1.15,5.219,3.238,7.241   c2.667,2.584,6.509,3.98,10.575,3.862c7.041-0.224,12.77-5.413,12.77-11.564c0-6.127-5.962-11.111-13.29-11.111   c-16.334,0-29.622-12.311-29.622-27.442c0-15.127,12.553-27.376,28.578-27.887c8.439-0.255,16.631,2.811,22.457,8.454   c5.292,5.126,8.207,11.863,8.207,18.972c0,4.511-3.656,8.165-8.165,8.165s-8.165-3.655-8.165-8.165c0-2.648-1.15-5.219-3.238-7.241   c-2.668-2.584-6.521-3.986-10.575-3.862c-7.041,0.224-12.77,5.413-12.77,11.565c0,6.127,5.962,11.111,13.291,11.111   c16.333,0,29.621,12.311,29.621,27.442c0,15.126-12.553,27.376-28.578,27.886C152.212,210.523,151.871,210.529,151.53,210.529z"/>
	<path style="fill:#394049;" d="M151.511,226.553c-4.509,0-8.165-3.655-8.165-8.165V113.714c0-4.511,3.656-8.165,8.165-8.165   s8.165,3.655,8.165,8.165v104.673C159.677,222.898,156.021,226.553,151.511,226.553z"/>
	<path style="fill:#394049;" d="M360.508,210.529c-8.08,0.001-15.843-3.056-21.434-8.469c-5.292-5.126-8.207-11.863-8.207-18.972   c0-4.511,3.656-8.165,8.165-8.165s8.165,3.655,8.165,8.165c0,2.648,1.15,5.219,3.238,7.241c2.667,2.584,6.509,3.98,10.575,3.862   c7.041-0.224,12.77-5.413,12.77-11.564c0-6.127-5.962-11.111-13.291-11.111c-16.333,0-29.622-12.311-29.622-27.442   c0-15.127,12.553-27.376,28.579-27.887c8.441-0.255,16.632,2.811,22.457,8.454c5.292,5.126,8.207,11.863,8.207,18.972   c0,4.511-3.656,8.165-8.165,8.165s-8.165-3.655-8.165-8.165c0-2.648-1.15-5.219-3.238-7.241c-2.668-2.584-6.521-3.986-10.575-3.862   c-7.041,0.224-12.77,5.413-12.77,11.565c0,6.127,5.962,11.111,13.291,11.111c16.333,0,29.621,12.311,29.621,27.442   c0,15.126-12.553,27.376-28.578,27.886C361.189,210.523,360.848,210.529,360.508,210.529z"/>
	<path style="fill:#394049;" d="M360.488,226.553c-4.509,0-8.165-3.655-8.165-8.165V113.714c0-4.511,3.656-8.165,8.165-8.165   s8.165,3.655,8.165,8.165v104.673C368.653,222.898,364.999,226.553,360.488,226.553z"/>
</g>
<g>
</g>
<g>
</g>
<g>
</g>
<g>
</g>
<g>
</g>
<g>
</g>
<g>
</g>
<g>
</g>
<g>
</g>
<g>
</g>
<g>
</g>
<g>
</g>
<g>
</g>
<g>
</g>
<g>
</g>
</svg>
