<?xml version="1.0" encoding="iso-8859-1"?>
<!-- Generator: Adobe Illustrator 19.0.0, SVG Export Plug-In . SVG Version: 6.00 Build 0)  -->
<svg xmlns="http://www.w3.org/2000/svg" xmlns:xlink="http://www.w3.org/1999/xlink" version="1.1" id="Layer_1" x="0px" y="0px" viewBox="0 0 512 512" style="enable-background:new 0 0 512 512;" xml:space="preserve">
<g>
	<path style="fill:#F3C74F;" d="M319.455,391.799c-26.588,0-53.987-9.089-78.594-26.573c-11.301-8.03-13.953-23.7-5.924-35.002   c8.031-11.303,23.704-13.952,35.002-5.924c22.526,16.005,46.609,21.179,67.821,14.571c19.478-6.071,34.745-21.899,42.988-44.57   c4.737-13.027,19.14-19.75,32.169-15.012s19.749,19.141,15.012,32.169c-13.725,37.743-40.442,64.5-75.231,75.342   C341.951,390.15,330.776,391.799,319.455,391.799z"/>
	<path style="fill:#F3C74F;" d="M265.957,512c-13.863,0-25.102-11.238-25.102-25.102v-95.055c0-13.863,11.238-25.102,25.102-25.102   c13.863,0,25.102,11.238,25.102,25.102v95.055C291.059,500.762,279.82,512,265.957,512z"/>
</g>
<path style="opacity:0.2;enable-background:new    ;" d="M265.957,366.74c-13.863,0-25.102,11.238-25.102,25.102v52.646  c17.725-2.831,34.592-8.218,50.204-15.784v-36.862C291.059,377.978,279.82,366.74,265.957,366.74z"/>
<circle style="fill:#0081C6;" cx="346.025" cy="85.358" r="57.653"/>
<circle style="fill:#F3C74F;" cx="346.025" cy="85.358" r="26.917"/>
<path style="fill:#40BAB3;" d="M393.136,243.449C393.136,143.701,309.976,0,211.987,0S30.839,143.701,30.839,243.449  s81.102,180.612,181.148,180.612C312.032,424.062,393.136,343.199,393.136,243.449z"/>
<path style="fill:#FFFFFF;" d="M33.89,276.575c15.605,83.927,89.402,147.488,178.097,147.488  c88.696,0,162.492-63.56,178.098-147.488H33.89L33.89,276.575z"/>
<path style="fill:#0081C6;" d="M65.958,350.318c32.97,44.717,86.095,73.744,146.029,73.744s113.059-29.027,146.029-73.744H65.958z"/>
<path style="opacity:0.2;enable-background:new    ;" d="M231.196,404.853c-100.045,0-181.148-80.863-181.148-180.612  c0-60.052,30.148-136.022,75.519-186.987C69.689,86.58,30.838,175.274,30.838,243.449c0,99.749,81.102,180.612,181.148,180.612  c55.006,0,104.279-24.45,137.502-63.037C317.752,388.335,276.409,404.853,231.196,404.853z"/>
<path style="fill:#F0B0B7;" d="M333.946,185.058c-16.622,0-30.098-13.475-30.098-30.098c0,16.622-13.476,30.098-30.098,30.098  c-12,0-22.329-7.04-27.162-17.2v95.172c0,31.624,25.636,57.26,57.26,57.26c31.623,0,57.26-25.636,57.26-57.26v-95.172  C356.275,178.018,345.946,185.058,333.946,185.058z"/>
<path style="fill:#E6595A;" d="M246.593,263.228c0.106,31.532,25.697,57.063,57.254,57.063c9.919,0,19.248-2.524,27.382-6.962  C314.699,283.564,283.016,263.386,246.593,263.228z"/>
<g>
	<path style="fill:#394049;" d="M195.671,181.913c-4.533,0-8.206-3.674-8.206-8.206v-4.959c0-4.532,3.673-8.206,8.206-8.206   c4.533,0,8.206,3.674,8.206,8.206v4.959C203.877,178.239,200.203,181.913,195.671,181.913z"/>
	<path style="fill:#394049;" d="M333.946,193.264c-12.196,0-23.078-5.729-30.098-14.636c-7.019,8.908-17.902,14.636-30.097,14.636   c-21.121,0-38.304-17.183-38.304-38.304c0-4.532,3.673-8.206,8.206-8.206c4.533,0,8.206,3.674,8.206,8.206   c0,12.071,9.82,21.891,21.891,21.891c12.07,0,21.89-9.82,21.89-21.891c0-4.532,3.673-8.206,8.206-8.206   c4.533,0,8.206,3.674,8.206,8.206c0,12.071,9.82,21.891,21.891,21.891s21.891-9.82,21.891-21.891c0-4.532,3.673-8.206,8.206-8.206   c4.532,0,8.206,3.674,8.206,8.206C372.25,176.081,355.067,193.264,333.946,193.264z"/>
</g>
<path style="fill:#F0B0B7;" d="M210.791,221.31H180.55c-4.533,0-8.206-3.674-8.206-8.206c0-4.532,3.673-8.206,8.206-8.206h30.241  c4.533,0,8.206,3.674,8.206,8.206C218.998,217.636,215.325,221.31,210.791,221.31z"/>
<path style="fill:#A27B5A;" d="M480.607,244.086c3.941,0,6.856-3.636,6.046-7.494c-5.158-24.583-35.309-43.45-71.733-43.45  s-66.575,18.867-71.733,43.45c-0.81,3.857,2.105,7.494,6.046,7.494L480.607,244.086L480.607,244.086z"/>
<path style="opacity:0.2;enable-background:new    ;" d="M486.654,236.592c-0.094-0.452-0.216-0.897-0.327-1.345H359.568  c-3.941,0-6.856-3.636-6.047-7.494c1.546-7.368,5.351-14.216,10.883-20.203c-11.153,7.613-18.841,17.717-21.217,29.041  c-0.81,3.857,2.105,7.494,6.046,7.494h131.373C484.548,244.086,487.463,240.449,486.654,236.592z"/>
<g>
	<path style="fill:#F3C74F;" d="M390.244,231.037c-2.439,0-4.852-1.082-6.47-3.151c-2.792-3.57-2.161-8.728,1.409-11.52l7.747-6.059   c3.568-2.791,8.727-2.162,11.52,1.409c2.792,3.57,2.161,8.728-1.409,11.52l-7.747,6.059   C393.793,230.468,392.012,231.037,390.244,231.037z"/>
	<path style="fill:#F3C74F;" d="M444.181,229.877c-0.887,0-1.792-0.146-2.68-0.452l-12.492-4.315   c-4.284-1.48-6.556-6.153-5.077-10.436c1.482-4.284,6.152-6.555,10.436-5.077l12.492,4.315c4.284,1.48,6.556,6.152,5.077,10.436   C450.763,227.743,447.582,229.877,444.181,229.877z"/>
</g>
<rect x="352.131" y="244.08" style="fill:#3DAD4B;" width="125.58" height="27.014"/>
<rect x="352.131" y="271.096" style="fill:#593C00;" width="125.58" height="27.014"/>
<path style="fill:#3DAD4B;" d="M478.454,244.086H351.388c-7.46,0-13.507,6.048-13.507,13.507l0,0c0,7.46,6.048,13.507,13.507,13.507  h127.067c7.46,0,13.508-6.048,13.508-13.507l0,0C491.962,250.134,485.914,244.086,478.454,244.086z"/>
<path style="opacity:0.2;enable-background:new    ;" d="M478.454,244.086H351.388c-5.92,0-10.938,3.814-12.763,9.115h152.591  C489.391,247.9,484.373,244.086,478.454,244.086z"/>
<path style="fill:#A27B5A;" d="M482.053,298.115H347.789c-3.076,0-5.571,2.494-5.571,5.57v15.874c0,3.076,2.494,5.57,5.571,5.57  h134.263c3.076,0,5.57-2.494,5.57-5.57v-15.874C487.622,300.608,485.128,298.115,482.053,298.115z"/>
<path style="opacity:0.2;enable-background:new    ;" d="M354.535,318.382c-3.076,0-5.57-2.494-5.57-5.571v-14.698h-1.176  c-3.076,0-5.571,2.494-5.571,5.57v15.874c0,3.076,2.494,5.57,5.571,5.57h134.263c3.077,0,5.57-2.494,5.57-5.57v-1.176  L354.535,318.382L354.535,318.382z"/>
<rect x="352.131" y="271.096" style="opacity:0.2;enable-background:new    ;" width="125.58" height="13.508"/>
<g>
	<path style="fill:#F3C74F;" d="M260.009,375.425c-12.302,0-25.051-1.244-38.185-3.734c-52.238-9.905-93.7-46.799-100.83-89.722   c-2.273-13.676,6.973-26.604,20.65-28.877c13.671-2.277,26.603,6.972,28.876,20.648c3.088,18.581,25.395,41.939,60.657,48.626   c47.263,8.961,84.006-3.107,109.203-35.869c8.453-10.99,24.211-13.045,35.202-4.595c10.988,8.453,13.045,24.212,4.593,35.201   c-20.467,26.611-46.491,44.37-77.353,52.789C289.303,373.58,274.989,375.425,260.009,375.425z"/>
	<path style="fill:#F3C74F;" d="M158.018,512c-13.863,0-25.102-11.238-25.102-25.102v-85.015c0-13.863,11.238-25.102,25.102-25.102   s25.102,11.238,25.102,25.102v85.015C183.119,500.762,171.882,512,158.018,512z"/>
</g>
<path style="fill:#0081C6;" d="M135.317,83.541c0.035,1.173-0.109,2.355-0.406,3.49c-3.904,14.955-10.433,25.193-20.485,35.244  c-10.007,10.007-19.772,16.234-34.792,20.194c-1.282,0.338-2.616,0.503-3.941,0.458c-31.655-1.079-56.834-27.675-55.611-59.865  c1.135-29.881,25.483-54.229,55.364-55.364C107.711,26.475,134.359,51.778,135.317,83.541z"/>
<circle style="fill:#F3C74F;" cx="77.687" cy="85.311" r="26.917"/>
<path style="opacity:0.2;enable-background:new    ;" d="M93.342,128.762c-1.282,0.338-2.616,0.503-3.941,0.458  c-31.655-1.078-56.833-27.675-55.611-59.865c0.437-11.501,4.322-22.174,10.628-31.027c-14.15,10.079-23.64,26.355-24.338,44.736  c-1.222,32.189,23.956,58.786,55.611,59.865c1.326,0.045,2.659-0.12,3.941-0.458c15.02-3.96,24.784-10.187,34.792-20.194  c2.358-2.358,4.515-4.728,6.496-7.165C113.156,121.417,104.771,125.748,93.342,128.762z"/>
<g>
</g>
<g>
</g>
<g>
</g>
<g>
</g>
<g>
</g>
<g>
</g>
<g>
</g>
<g>
</g>
<g>
</g>
<g>
</g>
<g>
</g>
<g>
</g>
<g>
</g>
<g>
</g>
<g>
</g>
</svg>
