<?xml version="1.0" encoding="iso-8859-1"?>
<!-- Generator: Adobe Illustrator 19.0.0, SVG Export Plug-In . SVG Version: 6.00 Build 0)  -->
<svg xmlns="http://www.w3.org/2000/svg" xmlns:xlink="http://www.w3.org/1999/xlink" version="1.1" id="Layer_1" x="0px" y="0px" viewBox="0 0 512 512" style="enable-background:new 0 0 512 512;" xml:space="preserve">
<path style="fill:#E3E3E3;" d="M36.764,181.437c-13.652-4.969-28.748,2.07-33.717,15.723l0,0  c-4.969,13.652,2.07,28.748,15.723,33.717l48.107,17.51c-13.652-4.969-28.748,2.07-33.717,15.723l0,0  c-4.969,13.652,2.07,28.748,15.723,33.717l53.992,19.651c27.305,9.938,57.496-4.141,67.434-31.444l0,0  c9.938-27.305-4.141-57.496-31.444-67.434L36.764,181.437z"/>
<path style="opacity:0.2;enable-background:new    ;" d="M72.348,235.507l-42.916-15.621c-13.652-4.969-20.692-20.064-15.723-33.717  l0,0c0.383-1.05,0.832-2.057,1.328-3.026c-5.366,2.965-9.729,7.802-11.991,14.016l0,0c-4.969,13.652,2.07,28.748,15.723,33.717  l46.708,17c0.316,0.096,0.575,0.178,0.752,0.24C78.206,252.296,80.273,238.497,72.348,235.507z"/>
<path style="opacity:0.2;enable-background:new    ;" d="M113.537,306.487l-53.992-19.651  c-13.652-4.969-20.692-20.064-15.723-33.717l0,0c0.383-1.051,0.833-2.057,1.329-3.028c-5.367,2.965-9.73,7.803-11.992,14.017l0,0  c-4.969,13.652,2.07,28.748,15.723,33.717l53.992,19.651c22.653,8.245,47.282-0.052,60.694-18.706  C149.782,309.336,131.068,312.868,113.537,306.487z"/>
<path style="fill:#E3E3E3;" d="M475.236,181.437c13.653-4.969,28.748,2.07,33.717,15.723l0,0  c4.969,13.652-2.07,28.748-15.723,33.717l-48.108,17.51c13.652-4.969,28.748,2.07,33.717,15.723l0,0  c4.969,13.652-2.07,28.748-15.723,33.717l-53.992,19.651c-27.305,9.938-57.496-4.141-67.434-31.444l0,0  c-9.938-27.305,4.141-57.496,31.444-67.434L475.236,181.437z"/>
<path style="opacity:0.2;enable-background:new    ;" d="M439.652,235.507l42.916-15.62c13.652-4.969,20.692-20.064,15.723-33.717  l0,0c-0.383-1.05-0.832-2.057-1.328-3.026c5.366,2.965,9.729,7.802,11.991,14.016l0,0c4.969,13.652-2.07,28.748-15.723,33.717  l-46.708,17c-0.316,0.096-0.574,0.178-0.752,0.24C433.794,252.296,431.727,238.497,439.652,235.507z"/>
<path style="opacity:0.2;enable-background:new    ;" d="M398.463,306.487l53.992-19.651c13.653-4.969,20.692-20.064,15.723-33.717  l0,0c-0.383-1.051-0.833-2.057-1.329-3.028c5.367,2.965,9.73,7.803,11.992,14.017l0,0c4.969,13.652-2.07,28.748-15.723,33.717  l-53.992,19.651c-22.653,8.245-47.282-0.052-60.694-18.706C362.217,309.336,380.931,312.868,398.463,306.487z"/>
<g>
	<path style="fill:#F3C74F;" d="M398.644,408.742c-8.424,0-16.426-4.965-19.896-13.217c-4.618-10.983,0.541-23.63,11.524-28.248   c9.434-3.966,16.331-13.831,17.162-24.547c0.595-7.676-1.603-18.624-15.463-27.178c-10.138-6.258-13.284-19.55-7.026-29.688   c6.257-10.138,19.547-13.286,29.688-7.026c24.521,15.135,37.911,40.268,35.818,67.232c-2.082,26.819-19.139,50.755-43.453,60.981   C404.266,408.198,401.431,408.742,398.644,408.742z"/>
	<path style="fill:#F3C74F;" d="M113.355,408.742c-2.788,0-5.62-0.543-8.354-1.693c-24.313-10.225-41.371-34.16-43.452-60.979   c-2.093-26.964,11.297-52.097,35.818-67.233c10.136-6.258,23.431-3.113,29.689,7.026c6.257,10.138,3.112,23.431-7.027,29.688   c-13.86,8.556-16.059,19.502-15.463,27.178c0.832,10.716,7.728,20.58,17.161,24.547c10.982,4.619,16.141,17.265,11.524,28.248   C129.781,403.776,121.778,408.742,113.355,408.742z"/>
</g>
<path style="opacity:0.2;enable-background:new    ;" d="M127.056,285.863c-6.258-10.139-19.553-13.285-29.689-7.026  c-6.782,4.186-12.708,9.14-17.695,14.683c4.575,16.522,14.237,43.231,25.75,54.224c-0.424-1.638-0.725-3.313-0.857-5.014  c-0.596-7.676,1.603-18.624,15.463-27.178C130.168,309.294,133.314,296.002,127.056,285.863z"/>
<path style="fill:#F3C74F;" d="M302.381,512c-11.914,0-21.572-9.658-21.572-21.572v-81.691c0-11.914,9.658-21.572,21.572-21.572  s21.572,9.658,21.572,21.572v81.691C323.954,502.341,314.296,512,302.381,512z"/>
<path style="opacity:0.2;enable-background:new    ;" d="M302.381,387.163c-11.914,0-21.572,9.658-21.572,21.572v45.244  c15.233-2.433,29.728-7.063,43.146-13.564v-31.68C323.954,396.821,314.296,387.163,302.381,387.163z"/>
<path style="fill:#F3C74F;" d="M209.618,512c-11.914,0-21.572-9.658-21.572-21.572v-81.691c0-11.914,9.658-21.572,21.572-21.572  s21.572,9.658,21.572,21.572v81.691C231.191,502.341,221.533,512,209.618,512z"/>
<path style="opacity:0.2;enable-background:new    ;" d="M209.618,387.163c-11.914,0-21.572,9.658-21.572,21.572v31.68  c13.418,6.501,27.913,11.132,43.146,13.564v-45.244C231.191,396.821,221.533,387.163,209.618,387.163z"/>
<circle style="fill:#0081C6;" cx="375.503" cy="145.34" r="49.547"/>
<circle style="fill:#F3C74F;" cx="375.503" cy="145.34" r="23.132"/>
<circle style="fill:#0081C6;" cx="136.493" cy="145.34" r="49.547"/>
<circle style="fill:#F3C74F;" cx="136.493" cy="145.34" r="23.132"/>
<path style="opacity:0.2;enable-background:new    ;" d="M165.787,105.381c-23.295,21.054-43.054,50.037-57.089,80.973  c7.927,5.383,17.494,8.531,27.799,8.531c27.364,0,49.547-22.183,49.547-49.547C186.044,128.934,178.068,114.399,165.787,105.381z"/>
<path style="fill:#40BAB3;" d="M411.679,281.207c0-85.725-71.467-209.221-155.679-209.221S100.32,195.482,100.32,281.207  s69.7,155.219,155.679,155.219S411.679,366.932,411.679,281.207z"/>
<g>
	<path style="fill:#F0B0B7;" d="M178.183,263.241h-25.989c-4.481,0-8.112-3.632-8.112-8.112c0-4.48,3.631-8.112,8.112-8.112h25.989   c4.481,0,8.112,3.632,8.112,8.112C186.296,259.608,182.665,263.241,178.183,263.241z"/>
	<path style="fill:#F0B0B7;" d="M359.805,263.241h-25.989c-4.481,0-8.112-3.632-8.112-8.112c0-4.48,3.631-8.112,8.112-8.112h25.989   c4.481,0,8.112,3.632,8.112,8.112C367.918,259.608,364.285,263.241,359.805,263.241z"/>
</g>
<path style="fill:#FFFFFF;" d="M102.943,309.674C116.354,381.802,179.776,436.426,256,436.426s139.647-54.624,153.057-126.751  H102.943z"/>
<path style="fill:#0081C6;" d="M130.501,373.05c28.335,38.43,73.991,63.376,125.498,63.376s97.163-24.946,125.499-63.376H130.501z"/>
<path style="opacity:0.2;enable-background:new    ;" d="M272.508,419.918c-85.979,0-155.679-69.493-155.679-155.219  c0-51.61,25.91-116.897,64.901-160.698c-48.021,42.391-81.41,118.615-81.41,177.206c0,85.726,69.7,155.219,155.679,155.219  c47.272,0,89.618-21.012,118.169-54.174C346.894,405.722,311.364,419.918,272.508,419.918z"/>
<path style="fill:#394049;" d="M271.249,251.275c-5.824,0-11.155-2.141-15.25-5.676c-4.095,3.537-9.427,5.676-15.25,5.676  c-12.881,0-23.361-10.48-23.361-23.361c0-4.48,3.631-8.112,8.112-8.112s8.112,3.632,8.112,8.112c0,3.935,3.202,7.137,7.137,7.137  c3.936,0,7.138-3.202,7.138-7.137c0-4.48,3.631-8.112,8.112-8.112c4.481,0,8.112,3.632,8.112,8.112c0,3.935,3.202,7.137,7.138,7.137  c3.935,0,7.137-3.202,7.137-7.137c0-4.48,3.631-8.112,8.112-8.112c4.481,0,8.112,3.632,8.112,8.112  C294.61,240.795,284.131,251.275,271.249,251.275z"/>
<path style="fill:#F3C74F;" d="M256,59.587c-20.293,0-39.476-2.374-54.016-6.685c-18.065-5.356-27.225-13.131-27.225-23.109  s9.16-17.753,27.226-23.108C216.524,2.374,235.707,0,256,0s39.476,2.374,54.016,6.685c18.066,5.356,27.226,13.131,27.226,23.108  s-9.16,17.753-27.225,23.109C295.476,57.214,276.293,59.587,256,59.587z M191.193,29.794c1.22,1.533,6.091,5.154,18.375,8.383  c12.722,3.344,29.212,5.185,46.432,5.185s33.709-1.842,46.432-5.185c12.284-3.229,17.155-6.85,18.375-8.383  c-1.22-1.533-6.091-5.154-18.375-8.383c-12.722-3.344-29.212-5.186-46.432-5.186s-33.709,1.842-46.432,5.186  C197.284,24.639,192.413,28.261,191.193,29.794z M321.086,30.229h0.011H321.086z"/>
<g>
	<path style="fill:#394049;" d="M165.19,235.5c-10.77,0-19.532-8.762-19.532-19.532c0-4.48,3.631-8.112,8.112-8.112   c4.481,0,8.112,3.632,8.112,8.112c0,1.824,1.484,3.308,3.308,3.308s3.308-1.484,3.308-3.308c0-4.48,3.631-8.112,8.112-8.112   c4.481,0,8.112,3.632,8.112,8.112C184.721,226.738,175.959,235.5,165.19,235.5z"/>
	<path style="fill:#394049;" d="M346.81,235.5c-10.77,0-19.532-8.762-19.532-19.532c0-4.48,3.631-8.112,8.112-8.112   s8.112,3.632,8.112,8.112c0,1.824,1.484,3.308,3.308,3.308c1.823,0,3.308-1.484,3.308-3.308c0-4.48,3.631-8.112,8.112-8.112   c4.481,0,8.112,3.632,8.112,8.112C366.343,226.738,357.58,235.5,346.81,235.5z"/>
</g>
<g>
	<path style="fill:#F3C74F;" d="M137.253,412.896c-11.896,0-22.929-1.926-32.249-5.845c-10.983-4.619-16.142-17.265-11.525-28.248   c4.619-10.982,17.267-16.144,28.248-11.524c13.392,5.631,37.316,1.042,54.022-6.404c18.372-8.187,31.917-20.496,36.236-32.928   c3.91-11.256,16.204-17.208,27.456-13.299c11.256,3.909,17.21,16.203,13.3,27.458c-8.4,24.183-29.507,44.845-59.431,58.18   C174.603,408.618,154.972,412.896,137.253,412.896z"/>
	<path style="fill:#F3C74F;" d="M374.746,412.896c-17.721,0-37.348-4.276-56.055-12.613c-29.925-13.335-51.032-33.996-59.433-58.181   c-3.91-11.254,2.044-23.547,13.3-27.457c11.251-3.91,23.546,2.045,27.456,13.299c4.319,12.432,17.864,24.741,36.237,32.928   c16.706,7.446,40.63,12.035,54.019,6.404c10.987-4.618,23.631,0.542,28.249,11.524c4.618,10.983-0.542,23.63-11.524,28.248   C397.677,410.968,386.641,412.896,374.746,412.896z"/>
</g>
<g>
</g>
<g>
</g>
<g>
</g>
<g>
</g>
<g>
</g>
<g>
</g>
<g>
</g>
<g>
</g>
<g>
</g>
<g>
</g>
<g>
</g>
<g>
</g>
<g>
</g>
<g>
</g>
<g>
</g>
</svg>
