<?xml version="1.0" encoding="iso-8859-1"?>
<!-- Generator: Adobe Illustrator 19.0.0, SVG Export Plug-In . SVG Version: 6.00 Build 0)  -->
<svg xmlns="http://www.w3.org/2000/svg" xmlns:xlink="http://www.w3.org/1999/xlink" version="1.1" id="Layer_1" x="0px" y="0px" viewBox="0 0 512 512" style="enable-background:new 0 0 512 512;" xml:space="preserve">
<path style="fill:#F3C74F;" d="M337.145,512c-1.462,0-2.947-0.169-4.432-0.523c-10.239-2.44-16.562-12.717-14.123-22.956  c4.048-16.997-10.034-41.907-15.287-49.293c-6.147-8.544-4.187-20.434,4.357-26.58c8.544-6.147,20.469-4.181,26.615,4.363  c3.116,4.332,30.195,43.395,21.392,80.343C353.583,506.109,345.766,512,337.145,512z"/>
<path style="opacity:0.2;enable-background:new    ;" d="M334.276,417.011c-6.147-8.544-18.071-10.51-26.615-4.363  c-8.544,6.145-10.503,18.035-4.357,26.58c2.232,3.139,6.056,9.446,9.407,16.961c12.69-2.809,24.722-7.359,35.825-13.396  C342.653,428.991,335.758,419.072,334.276,417.011z"/>
<path style="fill:#40BAB3;" d="M420.309,308.244c0-75.732-63.136-184.834-137.533-184.834S145.244,232.511,145.244,308.244  S206.819,445.37,282.777,445.37S420.309,383.976,420.309,308.244z"/>
<g>
	<path style="fill:#394049;" d="M257.544,29.189c-4.463,0-8.082-3.619-8.082-8.082V8.082c0-4.463,3.619-8.082,8.082-8.082   c4.464,0,8.082,3.619,8.082,8.082v13.026C265.626,25.571,262.008,29.189,257.544,29.189z"/>
	<path style="fill:#394049;" d="M293.103,263.374c-4.463,0-8.082-3.618-8.082-8.082v-3.765c0-4.463,3.619-8.082,8.082-8.082   c4.464,0,8.082,3.619,8.082,8.082v3.765C301.185,259.756,297.567,263.374,293.103,263.374z"/>
	<path style="fill:#394049;" d="M379.257,282.716c-5.094,0-9.779-1.776-13.472-4.74c-3.693,2.964-8.378,4.74-13.471,4.74   c-11.885,0-21.554-9.669-21.554-21.554c0-4.463,3.619-8.082,8.082-8.082c4.464,0,8.082,3.619,8.082,8.082   c0,2.972,2.418,5.39,5.39,5.39c2.972,0,5.389-2.418,5.389-5.39c0-4.463,3.617-8.082,8.082-8.082c4.463,0,8.082,3.619,8.082,8.082   c0,2.972,2.418,5.39,5.39,5.39c2.972,0,5.39-2.418,5.39-5.39c0-4.463,3.617-8.082,8.082-8.082c4.463,0,8.082,3.619,8.082,8.082   C400.81,273.048,391.142,282.716,379.257,282.716z"/>
</g>
<path style="fill:#A0C6E6;" d="M90.517,308.457c-0.942,0-1.901-0.166-2.835-0.516c-4.18-1.567-6.298-6.224-4.732-10.404  l12.17-32.475c1.567-4.18,6.224-6.297,10.404-4.732c4.18,1.567,6.298,6.224,4.732,10.404l-12.17,32.475  C96.869,306.455,93.79,308.457,90.517,308.457z"/>
<path style="fill:#0081C6;" d="M43.864,91.053c-0.943,0-1.901-0.166-2.835-0.516c-4.18-1.566-6.298-6.224-4.732-10.404  l12.169-32.475c1.566-4.179,6.223-6.298,10.404-4.732c4.18,1.567,6.298,6.224,4.732,10.404L51.433,85.805  C50.218,89.051,47.137,91.053,43.864,91.053z"/>
<g>
	<path style="fill:#A0C6E6;" d="M444.68,62.788c-0.943,0-1.901-0.166-2.835-0.516c-4.18-1.567-6.298-6.224-4.733-10.404   l12.17-32.476c1.567-4.18,6.225-6.297,10.404-4.732c4.18,1.567,6.298,6.224,4.733,10.404L452.25,57.541   C451.033,60.786,447.952,62.788,444.68,62.788z"/>
	<path style="fill:#A0C6E6;" d="M466.762,298.956c-0.943,0-1.901-0.166-2.835-0.516c-4.18-1.567-6.298-6.224-4.733-10.404   l12.17-32.476c1.567-4.18,6.226-6.297,10.404-4.732c4.18,1.567,6.298,6.224,4.733,10.404l-12.17,32.476   C473.116,296.954,470.036,298.956,466.762,298.956z"/>
	<path style="fill:#A0C6E6;" d="M104.201,463.283c-0.943,0-1.901-0.166-2.835-0.516c-4.18-1.567-6.298-6.224-4.732-10.404   l12.17-32.475c1.567-4.179,6.225-6.298,10.404-4.732c4.18,1.567,6.298,6.224,4.732,10.404l-12.17,32.475   C110.553,461.279,107.474,463.283,104.201,463.283z"/>
</g>
<g>
	<path style="fill:#0081C6;" d="M33.066,377.943c-0.942,0-1.901-0.166-2.835-0.516c-4.18-1.567-6.298-6.224-4.732-10.404   l12.17-32.475c1.567-4.18,6.224-6.3,10.404-4.732c4.18,1.567,6.298,6.224,4.732,10.404l-12.17,32.475   C39.418,375.94,36.338,377.943,33.066,377.943z"/>
	<path style="fill:#0081C6;" d="M438.596,463.283c-0.943,0-1.901-0.166-2.835-0.516c-4.18-1.566-6.298-6.224-4.733-10.404   l12.169-32.475c1.567-4.18,6.227-6.297,10.404-4.732c4.18,1.566,6.298,6.224,4.733,10.404l-12.169,32.475   C444.948,461.279,441.868,463.283,438.596,463.283z"/>
</g>
<path style="opacity:0.2;enable-background:new    ;" d="M282.777,123.41c-44.432,0-84.843,38.919-110.191,86.399l66.295,20.197  c8.653,2.636,17.895,2.636,26.548,0l70.421-21.455c8.653-2.636,17.889-2.638,26.542-0.002c9.304,2.834,22.364,6.814,35.406,10.787  C372.949,167.649,330.148,123.41,282.777,123.41z"/>
<path style="fill:#FFFFFF;" d="M147.56,333.393c11.848,63.719,67.876,111.977,135.216,111.977s123.369-48.257,135.217-111.977  H147.56z"/>
<path style="fill:#0081C6;" d="M171.907,389.381c25.032,33.95,65.366,55.988,110.87,55.988s85.838-22.038,110.87-55.988H171.907z"/>
<path style="opacity:0.2;enable-background:new    ;" d="M297.36,430.786c-75.957,0-137.533-61.393-137.533-137.126  c0-45.593,22.889-103.271,57.336-141.966c-42.423,37.449-71.92,104.789-71.92,156.55c0,75.732,61.575,137.126,137.533,137.126  c41.762,0,79.172-18.562,104.395-47.86C363.076,418.245,331.687,430.786,297.36,430.786z"/>
<path style="fill:#F0B0B7;" d="M304.583,293.286h-22.96c-4.464,0-8.082-3.619-8.082-8.082c0-4.463,3.617-8.082,8.082-8.082h22.96  c4.463,0,8.082,3.618,8.082,8.082C312.665,289.668,309.047,293.286,304.583,293.286z"/>
<path style="fill:#F3C74F;" d="M235.072,507.815c-7.988,0-15.43-5.061-18.085-13.059c-3.316-9.989,2.094-20.776,12.083-24.091  c6.587-2.186,11.035-6.427,13.223-12.6c2.602-7.347,1.24-15.445-1.45-19.647c-5.676-8.864-3.09-20.651,5.774-26.326  s20.651-3.091,26.327,5.774c9.54,14.902,11.564,35.181,5.279,52.925c-6.139,17.334-19.331,30.137-37.143,36.05  C239.087,507.501,237.062,507.815,235.072,507.815z"/>
<path style="fill:#0081C6;" d="M223.613,180.371c0.027,0.891-0.083,1.788-0.308,2.65c-2.964,11.354-7.921,19.127-15.553,26.758  c-7.598,7.598-15.012,12.325-26.415,15.333c-0.974,0.256-1.986,0.383-2.992,0.348c-24.033-0.819-43.15-21.012-42.222-45.451  c0.861-22.686,19.347-41.172,42.034-42.034C202.654,137.044,222.886,156.257,223.613,180.371z"/>
<circle style="fill:#F3C74F;" cx="179.859" cy="181.712" r="20.436"/>
<path style="opacity:0.2;enable-background:new    ;" d="M178.156,137.975c-22.686,0.861-41.172,19.347-42.034,42.034  c-0.928,24.439,18.188,44.632,42.222,45.451c1.006,0.034,2.019-0.092,2.992-0.348c11.404-3.006,18.817-7.734,26.415-15.333  c7.631-7.631,12.589-15.404,15.553-26.758c0.225-0.862,0.335-1.76,0.308-2.65C222.886,156.257,202.654,137.044,178.156,137.975z   M191.745,214.703c-0.974,0.256-1.986,0.383-2.992,0.348c-12.501-0.426-23.663-6.101-31.375-14.882  c3.739,0.18,7.462,0.815,11.081,1.918l31.876,9.711C197.713,212.911,194.885,213.876,191.745,214.703z"/>
<path style="fill:#8E78CF;" d="M79.638,211.239l67.661-20.613c8.653-2.637,17.895-2.637,26.548,0l70.421,21.454  c8.653,2.636,17.895,2.636,26.548,0l70.421-21.454c8.653-2.637,17.889-2.638,26.542-0.002c17.637,5.373,48.772,14.859,67.692,20.623  c8.057,2.455,15.988-4.045,15.246-12.435C441.96,99.813,358.816,22.185,257.542,22.185c-101.268,0-184.408,77.618-193.174,176.608  C63.624,207.192,71.573,213.696,79.638,211.239z"/>
<path style="opacity:0.1;enable-background:new    ;" d="M64.367,198.793c-0.744,8.399,7.205,14.902,15.27,12.445l7.806-2.378  c-2.713-2.397-4.378-6.002-4.019-10.059c8.127-91.77,79.648-165.315,170.483-176.572C154.292,24.061,73.029,100.991,64.367,198.793z   M264.819,212.198l-2.213,1.575c1.667-0.186,3.325-0.466,4.969-0.836C266.651,212.717,265.731,212.476,264.819,212.198z"/>
<path style="opacity:0.2;enable-background:new    ;" d="M257.542,22.185c-59.088,30.855-91.712,117.596-96.383,166.473  c4.278,0.055,8.551,0.706,12.688,1.967l70.421,21.454c8.653,2.636,17.895,2.636,26.548,0l70.421-21.454  c4.138-1.261,8.411-1.912,12.687-1.968C349.253,139.78,316.63,53.041,257.542,22.185z"/>
<path style="opacity:0.1;fill:#FFFFFF;enable-background:new    ;" d="M359.115,50.895c-5.839,8.092-9.291,18.02-9.291,28.762  c0,27.178,22.032,49.21,49.21,49.21c10.106,0,19.497-3.051,27.312-8.275C410.171,92.072,386.98,68.061,359.115,50.895z"/>
<path style="fill:#F3C74F;" d="M202.875,374.874c-0.15,0-0.294,0-0.444-0.001c-29.028-0.204-56.094-20.815-67.352-51.288  c-3.648-9.874,1.4-20.834,11.274-24.482c9.874-3.649,20.834,1.4,24.482,11.274c5.795,15.686,18.6,26.288,31.865,26.381  c0.057,0,0.115,0,0.173,0c13.058,0,24.238-10.356,31.494-29.184c3.786-9.821,14.816-14.713,24.637-10.929  c9.821,3.786,14.714,14.816,10.929,24.638C256.986,354.871,231.938,374.874,202.875,374.874z"/>
<g>
</g>
<g>
</g>
<g>
</g>
<g>
</g>
<g>
</g>
<g>
</g>
<g>
</g>
<g>
</g>
<g>
</g>
<g>
</g>
<g>
</g>
<g>
</g>
<g>
</g>
<g>
</g>
<g>
</g>
</svg>
