<?xml version="1.0" encoding="iso-8859-1"?>
<!-- Generator: Adobe Illustrator 19.0.0, SVG Export Plug-In . SVG Version: 6.00 Build 0)  -->
<svg xmlns="http://www.w3.org/2000/svg" xmlns:xlink="http://www.w3.org/1999/xlink" version="1.1" id="Layer_1" x="0px" y="0px" viewBox="0 0 512 512" style="enable-background:new 0 0 512 512;" xml:space="preserve">
<path style="fill:#F3C74F;" d="M84.803,342.311c-23.089,0-45.001-9.343-61.543-26.584c-9.148-9.535-8.835-24.681,0.7-33.83  c9.535-9.148,24.681-8.836,33.83,0.7c11.911,12.414,25.646,12.492,32.774,11.429c13.07-1.942,24.838-10.34,30.71-21.914  c5.979-11.785,20.377-16.492,32.163-10.511c11.784,5.979,16.491,20.379,10.511,32.163c-12.965,25.554-37.768,43.347-66.347,47.595  C93.314,341.996,89.037,342.311,84.803,342.311z"/>
<path style="opacity:0.2;enable-background:new    ;" d="M153.438,261.6c-11.786-5.981-26.184-1.274-32.163,10.511  c-3.678,7.249-9.67,13.251-16.843,17.202c1.976,16.451,6.273,32.19,12.566,46.879c20.173-7.874,37.031-22.875,46.952-42.43  C169.928,281.979,165.222,267.579,153.438,261.6z"/>
<path style="fill:#F3C74F;" d="M340.926,500.012c-13.215,0-23.926-10.711-23.926-23.926v-90.604  c0-13.215,10.711-23.926,23.926-23.926c13.215,0,23.926,10.711,23.926,23.926v90.604  C364.853,489.299,354.14,500.012,340.926,500.012z"/>
<path style="opacity:0.2;enable-background:new    ;" d="M340.926,361.555c-13.215,0-23.926,10.711-23.926,23.926v50.181  c16.895-2.698,32.971-7.834,47.853-15.044v-35.136C364.853,372.266,354.14,361.555,340.926,361.555z"/>
<path style="fill:#F3C74F;" d="M238.043,500.012c-13.215,0-23.926-10.711-23.926-23.926v-90.604  c0-13.215,10.711-23.926,23.926-23.926c13.214,0,23.926,10.711,23.926,23.926v90.604  C261.969,489.299,251.257,500.012,238.043,500.012z"/>
<path style="opacity:0.2;enable-background:new    ;" d="M238.043,361.555c-13.215,0-23.926,10.711-23.926,23.926v35.136  c14.881,7.21,30.958,12.346,47.853,15.044v-50.181C261.969,372.266,251.257,361.555,238.043,361.555z"/>
<path style="fill:#F3C74F;" d="M488.073,397.127c-13.215,0-23.926-10.711-23.926-23.926c0-21.355-1.207-38.189-7.098-50.936  c-7.687-16.633-23.284-23.682-36.014-27.966c-12.524-4.214-19.261-17.783-15.047-30.308c4.214-12.525,17.783-19.259,30.308-15.047  C506.149,272.449,512,325.406,512,373.199C512,386.415,501.288,397.127,488.073,397.127z"/>
<circle style="fill:#0081C6;" cx="422.028" cy="87.788" r="54.954"/>
<circle style="fill:#F3C74F;" cx="422.028" cy="87.788" r="25.656"/>
<circle style="fill:#0081C6;" cx="156.941" cy="87.788" r="54.954"/>
<circle style="fill:#F3C74F;" cx="156.941" cy="87.788" r="25.656"/>
<path style="opacity:0.2;enable-background:new    ;" d="M189.429,43.471c-25.837,23.351-47.752,55.497-63.318,89.807  c8.792,5.971,19.404,9.461,30.833,9.461c30.35,0,54.953-24.603,54.953-54.953C211.896,69.594,203.049,53.472,189.429,43.471z"/>
<path style="fill:#40BAB3;" d="M462.149,244.037c0-95.078-79.265-232.049-172.665-232.049s-172.664,136.97-172.664,232.049  s77.305,172.155,172.665,172.155S462.149,339.115,462.149,244.037z"/>
<g>
	<path style="fill:#F0B0B7;" d="M306.397,201.842c-9.341,0-16.912-7.573-16.912-16.914c0,9.341-7.573,16.914-16.914,16.914   c-4.716,0-8.978-1.935-12.046-5.048v8.34c0,15.993,12.965,28.958,28.958,28.958s28.958-12.965,28.958-28.958v-8.34   C315.375,199.907,311.113,201.842,306.397,201.842z"/>
	<path style="fill:#F0B0B7;" d="M203.178,223.329h-28.825c-4.538,0-8.217-3.679-8.217-8.217s3.679-8.217,8.217-8.217h28.825   c4.538,0,8.217,3.679,8.217,8.217C211.395,219.65,207.716,223.329,203.178,223.329z"/>
	<path style="fill:#F0B0B7;" d="M404.616,223.329h-28.825c-4.538,0-8.217-3.679-8.217-8.217s3.679-8.217,8.217-8.217h28.825   c4.538,0,8.217,3.679,8.217,8.217C412.832,219.65,409.153,223.329,404.616,223.329z"/>
</g>
<path style="fill:#FFFFFF;" d="M119.728,275.611c14.874,79.997,85.215,140.58,169.757,140.58  c84.543,0,154.883-60.583,169.757-140.58H119.728z"/>
<path style="fill:#0081C6;" d="M150.293,345.901c31.427,42.623,82.063,70.29,139.191,70.29s107.764-27.668,139.191-70.29H150.293z"/>
<path style="opacity:0.2;enable-background:new    ;" d="M307.794,397.882c-95.36,0-172.665-77.076-172.665-172.154  c0-57.24,28.736-129.652,71.983-178.231c-53.26,47.016-90.292,131.557-90.292,196.539c0,95.079,77.305,172.155,172.665,172.155  c52.43,0,99.396-23.304,131.063-60.085C390.295,382.137,350.89,397.882,307.794,397.882z"/>
<g>
	<path style="fill:#394049;" d="M188.766,185.777c-4.538,0-8.217-3.679-8.217-8.217v-4.726c0-4.538,3.679-8.217,8.217-8.217   s8.217,3.679,8.217,8.217v4.726C196.983,182.098,193.304,185.777,188.766,185.777z"/>
	<path style="fill:#394049;" d="M390.202,185.777c-4.538,0-8.217-3.679-8.217-8.217v-4.726c0-4.538,3.679-8.217,8.217-8.217   c4.538,0,8.217,3.679,8.217,8.217v4.726C398.419,182.098,394.74,185.777,390.202,185.777z"/>
	<path style="fill:#394049;" d="M306.397,210.059c-6.507,0-12.445-2.487-16.914-6.559c-4.468,4.072-10.406,6.559-16.914,6.559   c-13.857,0-25.129-11.273-25.129-25.13c0-4.538,3.679-8.217,8.217-8.217c4.538,0,8.217,3.679,8.217,8.217   c0,4.795,3.9,8.697,8.696,8.697s8.697-3.901,8.697-8.697c0-4.538,3.679-8.217,8.217-8.217c4.538,0,8.217,3.679,8.217,8.217   c0,4.795,3.9,8.697,8.697,8.697c4.795,0,8.697-3.901,8.697-8.697c0-4.538,3.679-8.217,8.217-8.217s8.217,3.679,8.217,8.217   C331.527,198.787,320.254,210.059,306.397,210.059z"/>
	<path style="fill:#394049;" d="M289.485,242.308c-20.498,0-37.176-16.677-37.176-37.176v-8.34c0-4.538,3.679-8.217,8.217-8.217   c4.538,0,8.217,3.679,8.217,8.217v8.34c0,11.437,9.305,20.743,20.743,20.743c11.437,0,20.743-9.305,20.743-20.743v-8.34   c0-4.538,3.679-8.217,8.217-8.217s8.217,3.679,8.217,8.217v8.34C326.66,225.632,309.983,242.308,289.485,242.308z"/>
	<path style="fill:#394049;" d="M163.002,143.108l11.093-41.4c1.711-6.387-2.078-12.952-8.466-14.663l-30.659-8.215   c-28.429-7.618-57.649,9.253-65.267,37.682l-23.472,87.598c-7.618,28.428,9.253,57.649,37.682,65.267l30.659,8.215   c6.386,1.711,12.952-2.079,14.662-8.466l11.093-41.4c1.711-6.386-2.078-12.952-8.466-14.663l-14.293-3.83   c-10.539-2.824-16.794-13.657-13.97-24.196l6.25-23.326c2.824-10.539,13.656-16.794,24.196-13.97l14.293,3.83   C154.726,153.285,161.291,149.494,163.002,143.108z"/>
</g>
<path style="opacity:0.3;enable-background:new    ;" d="M119.389,266.478l-30.659-8.215c-23.291-6.24-41.247-29.207-42.791-52.937  c-6.824,28.041,9.951,56.543,37.975,64.052l30.659,8.215c6.386,1.711,12.952-2.079,14.662-8.466l1.483-5.536  C127.798,266.357,123.56,267.595,119.389,266.478z M151.392,140.274l-14.293-3.83c-10.539-2.824-21.373,3.43-24.196,13.97  l-1.344,7.042c4.244-7.882,13.465-12.13,22.488-9.712l14.293,3.83c6.386,1.711,12.952-2.079,14.663-8.466l2.905-10.845  C164.011,138.369,157.623,141.944,151.392,140.274z"/>
<path style="opacity:0.1;fill:#FFFFFF;enable-background:new    ;" d="M165.629,87.045l-30.659-8.215  c-5.698-1.527-11.426-2.054-17.008-1.718c-0.013,0.428-0.033,0.855-0.033,1.285c0,23.323,18.908,42.23,42.23,42.23  c3.138,0,6.191-0.353,9.133-1.001l4.801-17.918C175.806,95.321,172.017,88.757,165.629,87.045z"/>
<path style="fill:#F3C74F;" d="M40.529,323.089c-6.29,0-12.568-2.464-17.267-7.361c-18.061-18.824-26.363-47.35-22.21-76.306  c4.108-28.642,20.132-52.915,43.962-66.596c11.46-6.578,26.085-2.622,32.662,8.838c6.579,11.46,2.622,26.084-8.838,32.662  c-15.024,8.624-19.242,23.682-20.419,31.89c-2.017,14.064,1.661,28.345,9.37,36.381c9.149,9.536,8.835,24.681-0.7,33.83  C52.453,320.877,46.485,323.089,40.529,323.089z"/>
<g>
</g>
<g>
</g>
<g>
</g>
<g>
</g>
<g>
</g>
<g>
</g>
<g>
</g>
<g>
</g>
<g>
</g>
<g>
</g>
<g>
</g>
<g>
</g>
<g>
</g>
<g>
</g>
<g>
</g>
</svg>
