<?xml version="1.0" encoding="iso-8859-1"?>
<!-- Generator: Adobe Illustrator 19.0.0, SVG Export Plug-In . SVG Version: 6.00 Build 0)  -->
<svg xmlns="http://www.w3.org/2000/svg" xmlns:xlink="http://www.w3.org/1999/xlink" version="1.1" id="Layer_1" x="0px" y="0px" viewBox="0 0 512 512" style="enable-background:new 0 0 512 512;" xml:space="preserve">
<path style="fill:#F3C74F;" d="M348.306,476.575c-9.089,0-18.577-2.141-27.869-7.733c-33.005-19.854-35.569-67.517-35.569-81.652  c0-13.864,11.239-25.102,25.102-25.102c13.864,0,25.102,11.239,25.102,25.102c0,21.74,6.71,35.906,11.244,38.633  c2.201,1.325,7.839-0.053,14.358-3.511c12.246-6.495,27.442-1.833,33.938,10.415c6.495,12.248,1.833,27.442-10.414,33.938  C374.432,471.843,361.811,476.574,348.306,476.575z"/>
<path style="opacity:0.2;enable-background:new    ;" d="M335.072,387.19c0-13.864-11.239-25.102-25.102-25.102  s-25.102,11.239-25.102,25.102c0,9.551,1.186,34.403,12.126,55.646c16.918-3.903,32.923-10.177,47.658-18.439  C340.305,419.675,335.072,406.39,335.072,387.19z"/>
<g>
	<path style="fill:#F3C74F;" d="M457.086,371.252c-3.695,0-7.446-0.819-10.991-2.548c-12.459-6.08-17.63-21.109-11.549-33.568   c8.449-17.312-2.513-38.17-17.991-48.333c-11.589-7.608-14.816-23.171-7.207-34.76c7.609-11.588,23.171-14.814,34.76-7.207   c39.018,25.617,54.303,73.904,35.555,112.32C475.313,366.068,466.38,371.252,457.086,371.252z"/>
	<path style="fill:#F3C74F;" d="M54.914,371.252c-9.294,0-18.227-5.183-22.577-14.098c-18.748-38.415-3.463-86.703,35.555-112.32   c11.589-7.608,27.152-4.381,34.76,7.207c7.608,11.589,4.381,27.151-7.207,34.76c-15.478,10.163-26.44,31.021-17.991,48.333   c6.08,12.459,0.909,27.489-11.549,33.568C62.36,370.432,58.608,371.252,54.914,371.252z"/>
</g>
<path style="opacity:0.2;enable-background:new    ;" d="M102.652,252.041c-7.61-11.589-23.171-14.816-34.761-7.207  c-2.399,1.576-4.707,3.238-6.924,4.978c-0.002,0.318-0.012,0.64-0.012,0.955c0,24.414,4.869,47.691,13.675,68.933  c1.041-12.962,9.776-25.651,20.816-32.9C107.034,279.193,110.261,263.63,102.652,252.041z"/>
<path style="fill:#F3C74F;" d="M202.031,512c-13.864,0-25.102-11.239-25.102-25.102v-95.056c0-13.864,11.239-25.102,25.102-25.102  c13.864,0,25.102,11.239,25.102,25.102v95.056C227.132,500.761,215.895,512,202.031,512z"/>
<path style="opacity:0.2;enable-background:new    ;" d="M202.031,366.741c-13.864,0-25.102,11.239-25.102,25.102v36.863  c15.612,7.564,32.48,12.953,50.204,15.783v-52.646C227.132,377.978,215.895,366.741,202.031,366.741z"/>
<circle style="fill:#0081C6;" cx="395.055" cy="85.353" r="57.658"/>
<circle style="fill:#F3C74F;" cx="395.055" cy="85.353" r="26.917"/>
<circle style="fill:#0081C6;" cx="116.947" cy="85.353" r="57.647"/>
<circle style="fill:#F3C74F;" cx="116.947" cy="85.353" r="26.917"/>
<path style="opacity:0.2;enable-background:new    ;" d="M151.028,38.86c-27.106,24.498-50.098,58.223-66.429,94.219  c9.224,6.264,20.357,9.927,32.348,9.927c31.841,0,57.652-25.812,57.652-57.653C174.6,66.266,165.318,49.352,151.028,38.86z"/>
<path style="fill:#40BAB3;" d="M437.148,243.449C437.148,143.7,353.989,0,256,0S74.852,143.7,74.852,243.449  S155.955,424.062,256,424.062S437.148,343.199,437.148,243.449z"/>
<path style="fill:#FFFFFF;" d="M77.903,276.574C93.508,360.501,167.304,424.062,256,424.062s162.492-63.56,178.097-147.488  L77.903,276.574L77.903,276.574z"/>
<path style="fill:#0081C6;" d="M109.971,350.319c32.97,44.717,86.095,73.743,146.029,73.743s113.059-29.027,146.029-73.743H109.971z  "/>
<path style="opacity:0.2;enable-background:new    ;" d="M275.209,404.853c-100.046,0-181.148-80.862-181.148-180.612  c0-60.053,30.148-136.021,75.519-186.987c-55.878,49.325-94.728,138.02-94.728,206.195c0,99.749,81.102,180.613,181.148,180.613  c55.005,0,104.28-24.449,137.502-63.036C361.764,388.335,320.422,404.853,275.209,404.853z"/>
<g>
	<path style="fill:#394049;" d="M174.18,181.812c-4.476,0-8.106-3.629-8.106-8.106v-4.958c0-4.476,3.629-8.106,8.106-8.106   s8.106,3.629,8.106,8.106v4.958C182.286,178.183,178.657,181.812,174.18,181.812z"/>
	<path style="fill:#394049;" d="M277.35,233.903c-4.476,0-8.106-3.629-8.106-8.106s3.629-8.106,8.106-8.106   c5.314,0,9.638-4.323,9.638-9.638c0-5.314-4.324-9.638-9.638-9.638c-4.476,0-8.106-3.629-8.106-8.106   c0-4.476,3.629-8.106,8.106-8.106c5.314,0,9.638-4.324,9.638-9.639c0-5.314-4.324-9.638-9.638-9.638   c-6.982,0-13.546-2.719-18.483-7.656c-3.165-3.165-3.165-8.298,0-11.463c3.165-3.165,8.298-3.165,11.462,0   c1.875,1.875,4.368,2.907,7.019,2.907c14.253,0,25.849,11.596,25.849,25.849c0,6.864-2.689,13.11-7.068,17.745   c4.379,4.633,7.068,10.881,7.068,17.744C303.2,222.308,291.604,233.903,277.35,233.903z"/>
	<path style="fill:#394049;" d="M398.592,182.126c-4.476,0-8.106-3.629-8.106-8.106c0-2.742-2.231-4.974-4.973-4.974   s-4.974,2.231-4.974,4.974c0,4.476-3.629,8.106-8.106,8.106c-4.476,0-8.106-3.629-8.106-8.106c0-11.681,9.503-21.185,21.185-21.185   s21.184,9.503,21.184,21.185C406.698,178.497,403.069,182.126,398.592,182.126z"/>
</g>
<g>
	<path style="fill:#F0B0B7;" d="M189.301,221.21H159.06c-4.476,0-8.106-3.629-8.106-8.106s3.629-8.106,8.106-8.106h30.241   c4.476,0,8.106,3.629,8.106,8.106S193.777,221.21,189.301,221.21z"/>
	<path style="fill:#F0B0B7;" d="M400.634,221.21h-30.241c-4.476,0-8.106-3.629-8.106-8.106s3.629-8.106,8.106-8.106h30.241   c4.476,0,8.106,3.629,8.106,8.106S405.111,221.21,400.634,221.21z"/>
</g>
<g>
	<path style="fill:#F3C74F;" d="M91.982,393.076c-1.785,0-3.569-0.067-5.35-0.203c-22.812-1.734-42.922-14.724-53.796-34.75   c-6.615-12.182-2.101-27.422,10.082-34.038c12.181-6.615,27.422-2.103,34.038,10.081c2.784,5.128,7.572,8.199,13.481,8.648   c11.719,0.889,26.065-8.273,38.389-24.512c8.38-11.043,24.127-13.203,35.171-4.821c11.043,8.38,13.202,24.127,4.821,35.171   C147.208,377.126,119.475,393.076,91.982,393.076z"/>
	<path style="fill:#F3C74F;" d="M420.018,393.076c-27.495,0-55.225-15.947-76.835-44.425c-8.381-11.043-6.222-26.789,4.821-35.171   c11.044-8.38,26.791-6.222,35.171,4.821c12.324,16.239,26.672,25.403,38.389,24.512c5.91-0.45,10.697-3.52,13.481-8.648   c6.615-12.183,21.855-16.695,34.038-10.081c12.183,6.615,16.697,21.855,10.082,34.038c-10.874,20.026-30.985,33.017-53.796,34.75   C423.589,393.009,421.801,393.076,420.018,393.076z"/>
</g>
<path style="fill:#E6595A;" d="M353.448,14.812c-10.937-10.937-28.684-10.913-39.591,0.07  c-10.883,10.959-10.637,28.745,0.284,39.665l33.2,33.2c3.372,3.373,8.839,3.373,12.212,0l33.2-33.2  c10.921-10.922,11.167-28.707,0.284-39.665C382.131,3.898,364.385,3.874,353.448,14.812z"/>
<path style="opacity:0.2;fill:#FFFFFF;enable-background:new    ;" d="M393.039,14.882c-4.991-5.027-11.416-7.75-17.963-8.186  c-2.139,3.638-3.371,7.874-3.371,12.4c0,13.536,10.974,24.51,24.51,24.51c1.163,0,2.304-0.086,3.424-0.243  C402.834,33.666,400.692,22.588,393.039,14.882z"/>
<g>
</g>
<g>
</g>
<g>
</g>
<g>
</g>
<g>
</g>
<g>
</g>
<g>
</g>
<g>
</g>
<g>
</g>
<g>
</g>
<g>
</g>
<g>
</g>
<g>
</g>
<g>
</g>
<g>
</g>
</svg>
