<?xml version="1.0" encoding="iso-8859-1"?>
<!-- Generator: Adobe Illustrator 19.0.0, SVG Export Plug-In . SVG Version: 6.00 Build 0)  -->
<svg xmlns="http://www.w3.org/2000/svg" xmlns:xlink="http://www.w3.org/1999/xlink" version="1.1" id="Layer_1" x="0px" y="0px" viewBox="0 0 511.987 511.987" style="enable-background:new 0 0 511.987 511.987;" xml:space="preserve">
<path style="fill:#F3C74F;" d="M307.968,511.987c-13.808,0-25.002-11.194-25.002-25.002v-94.677  c0-13.808,11.194-25.002,25.002-25.002c13.808,0,25.002,11.194,25.002,25.002v94.677  C332.97,500.793,321.776,511.987,307.968,511.987z"/>
<path style="opacity:0.2;enable-background:new    ;" d="M307.968,367.305c-13.808,0-25.002,11.194-25.002,25.002v54.729  c17.314-1.643,34.143-5.772,50.004-12.127v-42.602C332.97,378.499,321.776,367.305,307.968,367.305z"/>
<path style="fill:#F3C74F;" d="M144.496,489.827c-13.338-3.574-21.253-17.283-17.68-30.621l24.505-91.451  c3.573-13.338,17.283-21.253,30.621-17.68c13.338,3.573,21.253,17.283,17.68,30.621l-24.505,91.451  C171.543,485.486,157.834,493.401,144.496,489.827z"/>
<path style="opacity:0.2;enable-background:new    ;" d="M181.942,350.075c-13.338-3.573-27.048,4.342-30.621,17.68l-9.771,36.465  c13.51,10.202,28.632,18.628,45.116,24.824l12.954-48.347C203.195,367.358,195.28,353.65,181.942,350.075z"/>
<path style="fill:#F3C74F;" d="M82.429,257.017c-22.55-6.043-41.613-19.186-53.987-37.969c-17.496-26.556-18.739-60.594-3.326-91.05  c6.236-12.321,21.279-17.255,33.597-11.019c12.321,6.234,17.255,21.277,11.019,33.597c-7.43,14.682-7.264,29.229,0.466,40.963  c8.702,13.209,25.871,20.342,45.929,19.081c13.783-0.867,25.655,9.603,26.522,23.384s-9.603,25.655-23.383,26.522  C106.361,261.335,93.941,260.101,82.429,257.017z"/>
<path style="opacity:0.2;enable-background:new    ;" d="M142.648,234.003c-0.866-13.781-12.738-24.251-26.522-23.384  c-18.015,1.133-33.679-4.524-42.991-15.255c-0.364,1.253-0.723,2.504-1.056,3.75c-4.657,17.382-6.582,34.851-6.061,51.963  c5.213,2.418,10.7,4.409,16.412,5.94c11.511,3.084,23.932,4.319,36.836,3.507C133.046,259.658,143.515,247.784,142.648,234.003z"/>
<path style="fill:#F3C74F;" d="M434.642,452.324c-13.67-1.951-23.17-14.613-21.218-28.284c3.153-22.091,4.39-39.683,0.178-53.74  c-5.496-18.341-20.59-27.936-33.126-34.246c-12.334-6.208-17.299-21.24-11.091-33.574c6.208-12.334,21.24-17.297,33.574-11.091  c68.791,34.628,67.024,90.275,59.968,139.716C460.974,444.775,448.312,454.274,434.642,452.324z"/>
<circle style="fill:#0081C6;" cx="440.185" cy="129.119" r="57.424"/>
<circle style="fill:#F3C74F;" cx="440.185" cy="129.119" r="26.809"/>
<circle style="fill:#0081C6;" cx="172.624" cy="57.424" r="57.424"/>
<circle style="fill:#F3C74F;" cx="172.624" cy="57.424" r="26.809"/>
<path style="opacity:0.2;enable-background:new    ;" d="M217.398,21.481c-32.395,16.582-63.207,43.101-88.198,73.522  c7.259,8.404,17.026,14.797,28.561,17.889c30.633,8.209,62.121-9.972,70.329-40.604C233.01,53.923,228.441,35.258,217.398,21.481z"/>
<path style="fill:#40BAB3;" d="M439.927,292.071c25.715-95.967-17.247-255.655-111.521-280.916  c-94.273-25.261-211.323,91.553-237.038,187.52c-25.714,95.967,31.467,194.671,127.719,220.462  C315.34,444.927,414.212,388.038,439.927,292.071z"/>
<g>
	<path style="fill:#F0B0B7;" d="M186.363,200.964c-0.697,0-1.404-0.09-2.109-0.278l-29.095-7.796   c-4.335-1.162-6.907-5.617-5.746-9.952c1.16-4.336,5.617-6.908,9.953-5.747l29.095,7.796c4.335,1.162,6.907,5.618,5.746,9.953   C193.235,198.57,189.951,200.964,186.363,200.964z"/>
	<path style="fill:#F0B0B7;" d="M389.684,255.444c-0.697,0-1.404-0.09-2.109-0.278l-29.095-7.796   c-4.335-1.162-6.907-5.618-5.746-9.953c1.16-4.335,5.618-6.906,9.953-5.746l29.095,7.796c4.335,1.162,6.907,5.618,5.746,9.953   C396.556,253.05,393.271,255.444,389.684,255.444z"/>
</g>
<path style="fill:#FFFFFF;" d="M85.765,231.33c-6.622,84.767,47.991,164.942,133.323,187.806  c85.333,22.865,172.716-19.262,209.365-95.983L85.765,231.33z"/>
<path style="fill:#0081C6;" d="M97.606,310.544c20.192,51.521,63.821,93.141,121.482,108.592  c57.661,15.451,116.255,1.22,159.502-33.303L97.606,310.544z"/>
<path style="opacity:0.2;enable-background:new    ;" d="M242.521,405.607C146.27,379.817,89.088,281.112,114.802,185.146  c15.481-57.775,64.07-123.092,120.859-160.428C169.187,57.769,108.944,133.085,91.37,198.675  c-25.714,95.967,31.467,194.671,127.719,220.462c52.92,14.18,106.628,3.36,148.538-25.2  C330.051,412.029,286.02,417.263,242.521,405.607z"/>
<path style="fill:#F0B0B7;" d="M294.131,207.358c-9.429-2.527-15.023-12.218-12.497-21.645  c-2.526,9.428-12.218,15.023-21.645,12.497c-5.708-1.529-9.994-5.692-11.941-10.825l-4.217,15.737  c-4.576,17.076,5.558,34.628,22.633,39.203c17.076,4.576,34.628-5.558,39.203-22.633l4.217-15.737  C305.632,207.426,299.839,208.887,294.131,207.358z"/>
<g>
	<path style="fill:#394049;" d="M274.815,251.559c-3.488,0-6.995-0.458-10.454-1.385c-10.355-2.775-19.01-9.416-24.37-18.7   s-6.784-20.1-4.008-30.455l4.217-15.736c1.16-4.335,5.616-6.908,9.953-5.747c4.335,1.162,6.907,5.618,5.746,9.953l-4.217,15.737   c-1.65,6.163-0.804,12.599,2.385,18.124c3.19,5.525,8.34,9.476,14.503,11.128c6.159,1.651,12.599,0.804,18.123-2.386   c5.526-3.19,9.476-8.34,11.129-14.502l4.217-15.737c1.16-4.335,5.616-6.904,9.953-5.747c4.335,1.162,6.907,5.618,5.746,9.953   l-4.217,15.737c-2.775,10.356-9.416,19.01-18.7,24.371C288.633,249.734,281.769,251.559,274.815,251.559z"/>
	<path style="fill:#394049;" d="M298.746,216.098c-2.241,0-4.495-0.295-6.719-0.89c-6.595-1.767-11.91-5.952-15.247-11.345   c-5.81,3.131-12.487,3.913-18.895,2.197c-13.741-3.682-21.924-17.856-18.243-31.598c1.16-4.335,5.622-6.906,9.952-5.747   c4.335,1.162,6.908,5.617,5.747,9.953c-1.362,5.085,1.666,10.33,6.751,11.692c2.461,0.66,5.036,0.322,7.244-0.953   c2.208-1.275,3.788-3.334,4.448-5.797c1.162-4.335,5.62-6.906,9.951-5.747c3.633,0.973,6.029,4.259,6.026,7.849   c0,0.695-0.091,1.401-0.28,2.103c-1.362,5.085,1.666,10.33,6.752,11.692c2.465,0.662,5.036,0.321,7.243-0.953   c2.208-1.275,3.788-3.334,4.448-5.797c1.16-4.335,5.617-6.911,9.952-5.747c4.335,1.162,6.908,5.618,5.747,9.953   c-1.783,6.657-6.051,12.22-12.02,15.666C307.629,214.924,303.217,216.098,298.746,216.098z"/>
	<path style="fill:#394049;" d="M186.88,162.128c-3.587,0-6.872-2.395-7.843-6.025c-1.162-4.335,1.411-8.79,5.746-9.953   l58.214-15.598L200.38,87.937c-3.174-3.174-3.174-8.319,0-11.492c3.175-3.174,8.319-3.174,11.493,0l52.568,52.567   c2.053,2.053,2.854,5.045,2.102,7.849c-0.751,2.804-2.942,4.995-5.746,5.747l-71.808,19.241   C188.284,162.038,187.576,162.128,186.88,162.128z"/>
	<path style="fill:#394049;" d="M379.544,213.75c-2.08,0-4.16-0.793-5.747-2.38l-52.567-52.567   c-2.053-2.053-2.854-5.045-2.102-7.849c0.751-2.804,2.942-4.995,5.746-5.747l71.807-19.241c4.337-1.159,8.792,1.412,9.953,5.746   c1.162,4.335-1.411,8.792-5.746,9.953l-58.214,15.598l42.615,42.614c3.174,3.174,3.174,8.319,0,11.493   C383.704,212.957,381.624,213.75,379.544,213.75z"/>
</g>
<g>
</g>
<g>
</g>
<g>
</g>
<g>
</g>
<g>
</g>
<g>
</g>
<g>
</g>
<g>
</g>
<g>
</g>
<g>
</g>
<g>
</g>
<g>
</g>
<g>
</g>
<g>
</g>
<g>
</g>
</svg>
