<?xml version="1.0" encoding="iso-8859-1"?>
<!-- Generator: Adobe Illustrator 19.0.0, SVG Export Plug-In . SVG Version: 6.00 Build 0)  -->
<svg xmlns="http://www.w3.org/2000/svg" xmlns:xlink="http://www.w3.org/1999/xlink" version="1.1" id="Layer_1" x="0px" y="0px" viewBox="0 0 512 512" style="enable-background:new 0 0 512 512;" xml:space="preserve">
<path style="fill:#F3C74F;" d="M90.03,419.092c-13.864,0-25.103-11.239-25.103-25.101V284.645c0-13.864,11.239-25.101,25.103-25.101  s25.101,11.239,25.101,25.101V393.99C115.131,407.853,103.893,419.092,90.03,419.092z"/>
<path style="opacity:0.2;enable-background:new    ;" d="M90.03,259.543c-12.164,0-22.304,8.654-24.607,20.141  c5.438,39.054,23.397,74.109,49.709,101.014v-96.053C115.131,270.782,103.893,259.543,90.03,259.543z"/>
<g>
	<path style="fill:#F3C74F;" d="M421.97,419.092c-13.864,0-25.101-11.239-25.101-25.101V284.645   c0-13.864,11.239-25.101,25.101-25.101c13.864,0,25.103,11.239,25.103,25.101V393.99   C447.072,407.853,435.834,419.092,421.97,419.092z"/>
	<path style="fill:#F3C74F;" d="M309.97,512c-13.864,0-25.101-11.239-25.101-25.101v-95.055c0-13.864,11.238-25.101,25.101-25.101   s25.101,11.238,25.101,25.101v95.055C335.072,500.762,323.833,512,309.97,512z"/>
</g>
<path style="opacity:0.2;enable-background:new    ;" d="M309.97,366.741c-13.864,0-25.101,11.238-25.101,25.101v52.646  c17.725-2.831,34.591-8.219,50.204-15.783v-36.863C335.072,377.979,323.833,366.741,309.97,366.741z"/>
<path style="fill:#F3C74F;" d="M202.031,512c-13.864,0-25.101-11.239-25.101-25.101v-95.055c0-13.864,11.239-25.101,25.101-25.101  c13.864,0,25.101,11.238,25.101,25.101v95.055C227.132,500.762,215.895,512,202.031,512z"/>
<path style="opacity:0.2;enable-background:new    ;" d="M202.031,366.741c-13.864,0-25.101,11.238-25.101,25.101v36.863  c15.613,7.565,32.48,12.953,50.204,15.783v-52.646C227.132,377.979,215.895,366.741,202.031,366.741z"/>
<circle style="fill:#0081C6;" cx="395.049" cy="85.348" r="57.657"/>
<circle style="fill:#F3C74F;" cx="395.049" cy="85.348" r="26.917"/>
<circle style="fill:#0081C6;" cx="116.951" cy="85.348" r="57.657"/>
<circle style="fill:#F3C74F;" cx="116.951" cy="85.348" r="26.917"/>
<path style="opacity:0.2;enable-background:new    ;" d="M151.028,38.86C123.922,63.358,100.93,97.083,84.6,133.08  c9.224,6.264,20.357,9.926,32.348,9.926c31.84,0,57.653-25.812,57.653-57.653C174.599,66.266,165.318,49.352,151.028,38.86z"/>
<path style="fill:#40BAB3;" d="M437.149,243.45C437.149,143.701,353.989,0,256,0S74.851,143.701,74.851,243.45  S155.954,424.062,256,424.062S437.149,343.199,437.149,243.45z"/>
<g>
	<path style="fill:#F0B0B7;" d="M165.453,221.232h-30.241c-4.49,0-8.128-3.639-8.128-8.128c0-4.489,3.638-8.128,8.128-8.128h30.241   c4.49,0,8.128,3.639,8.128,8.128C173.582,217.593,169.943,221.232,165.453,221.232z"/>
	<path style="fill:#F0B0B7;" d="M376.787,221.232h-30.241c-4.49,0-8.128-3.639-8.128-8.128c0-4.489,3.638-8.128,8.128-8.128h30.241   c4.49,0,8.128,3.639,8.128,8.128C384.916,217.593,381.278,221.232,376.787,221.232z"/>
</g>
<path style="fill:#FFFFFF;" d="M77.903,276.574C93.508,360.503,167.304,424.062,256,424.062s162.492-63.561,178.098-147.487H77.903z  "/>
<path style="fill:#0081C6;" d="M109.97,350.318c32.971,44.717,86.096,73.744,146.03,73.744s113.059-29.027,146.03-73.744H109.97z"/>
<path style="opacity:0.2;enable-background:new    ;" d="M275.209,404.853c-100.045,0-181.149-80.863-181.149-180.612  c0-60.052,30.148-136.022,75.519-186.987C113.703,86.579,74.851,175.275,74.851,243.45c0,99.749,81.103,180.612,181.149,180.612  c55.006,0,104.279-24.449,137.503-63.037C361.764,388.335,320.422,404.853,275.209,404.853z"/>
<g>
	<circle style="fill:#FFFFFF;" cx="150.331" cy="134.942" r="49.714"/>
	<circle style="fill:#FFFFFF;" cx="361.669" cy="134.942" r="49.714"/>
</g>
<g>
	<circle style="fill:#394049;" cx="150.331" cy="134.942" r="12.501"/>
	<circle style="fill:#394049;" cx="361.669" cy="134.942" r="12.501"/>
</g>
<circle style="fill:#F0B0B7;" cx="256" cy="190.312" r="27.333"/>
<g>
</g>
<g>
</g>
<g>
</g>
<g>
</g>
<g>
</g>
<g>
</g>
<g>
</g>
<g>
</g>
<g>
</g>
<g>
</g>
<g>
</g>
<g>
</g>
<g>
</g>
<g>
</g>
<g>
</g>
</svg>
