<?xml version="1.0" encoding="iso-8859-1"?>
<!-- Generator: Adobe Illustrator 19.0.0, SVG Export Plug-In . SVG Version: 6.00 Build 0)  -->
<svg xmlns="http://www.w3.org/2000/svg" xmlns:xlink="http://www.w3.org/1999/xlink" version="1.1" id="Layer_1" x="0px" y="0px" viewBox="0 0 511.999 511.999" style="enable-background:new 0 0 511.999 511.999;" xml:space="preserve">
<path style="fill:#F3C74F;" d="M324.286,511.999c-3.575,0-7.201-0.873-10.556-2.712c-10.658-5.841-14.564-19.216-8.723-29.875  c21.269-38.811,5.881-56.58-11.978-68.845c-10.019-6.879-12.563-20.58-5.684-30.598c6.883-10.02,20.583-12.562,30.598-5.683  c6.224,4.273,25.16,17.277,35.05,40.203c11.043,25.598,7.883,54.558-9.388,86.077C339.601,507.866,332.062,511.999,324.286,511.999z  "/>
<path style="opacity:0.2;enable-background:new    ;" d="M356.522,424.449c-0.947-3.374-2.121-6.695-3.53-9.961  c-9.889-22.926-28.826-35.93-35.05-40.203c-10.016-6.879-23.716-4.336-30.598,5.683c-6.879,10.019-4.335,23.719,5.684,30.598  c12.097,8.308,23.044,19.151,22.249,37.34C330.252,442.151,344.135,434.203,356.522,424.449z"/>
<path style="fill:#F3C74F;" d="M54.684,361.921c-5.695,0-11.388-2.197-15.695-6.58c-19.012-19.343-28.517-42.287-26.764-64.607  c1.408-17.932,10.171-33.722,24.675-44.46c16.4-12.141,36.914-15.067,59.324-8.461c18.022,5.313,37.046,16.943,55.018,33.635  c8.906,8.271,9.42,22.195,1.149,31.1c-8.273,8.906-22.197,9.419-31.1,1.15c-23.342-21.681-46.732-30.542-58.202-22.05  c-4.287,3.174-6.573,7.273-6.985,12.532c-0.73,9.289,4.474,20.337,14.275,30.309c8.519,8.668,8.399,22.602-0.269,31.121  C65.825,359.821,60.253,361.921,54.684,361.921z"/>
<path style="opacity:0.2;enable-background:new    ;" d="M151.242,271.448c-17.972-16.691-36.997-28.323-55.018-33.635  c-3.213-0.947-6.381-1.676-9.509-2.232c-3.093,14.333-4.752,28.357-4.752,41.507c0,0.822,0.018,1.639,0.031,2.457  c11.42,2.844,25.367,11.213,39.298,24.152c8.904,8.27,22.827,7.756,31.1-1.15C160.662,293.643,160.148,279.719,151.242,271.448z"/>
<path style="fill:#F3C74F;" d="M461.659,361.921c-5.57,0-11.139-2.1-15.426-6.311c-8.668-8.519-8.789-22.453-0.269-31.121  c9.801-9.972,15.005-21.019,14.276-30.308c-0.413-5.258-2.698-9.358-6.986-12.532c-11.467-8.49-34.858,0.371-58.201,22.05  c-8.905,8.271-22.828,7.756-31.102-1.15c-8.271-8.906-7.756-22.83,1.15-31.1c17.972-16.691,36.997-28.323,55.018-33.635  c22.41-6.607,42.924-3.68,59.323,8.461c14.505,10.737,23.267,26.527,24.676,44.46c1.752,22.32-7.752,45.264-26.764,64.607  C473.047,359.723,467.354,361.921,461.659,361.921z"/>
<circle style="fill:#0081C6;" cx="380.078" cy="138.492" r="50.543"/>
<circle style="fill:#F3C74F;" cx="380.078" cy="138.492" r="23.597"/>
<circle style="fill:#0081C6;" cx="136.269" cy="138.492" r="50.543"/>
<circle style="fill:#F3C74F;" cx="136.269" cy="138.492" r="23.597"/>
<path style="opacity:0.2;enable-background:new    ;" d="M166.145,97.728c-23.763,21.478-43.92,51.043-58.237,82.6  c8.086,5.492,17.847,8.703,28.358,8.703c27.915,0,50.543-22.629,50.543-50.543C186.809,121.754,178.672,106.926,166.145,97.728z"/>
<path style="fill:#F3C74F;" d="M192.058,511.999c-7.779,0-15.316-4.132-19.319-11.435c-17.272-31.517-20.431-60.478-9.388-86.076  c9.889-22.926,28.826-35.93,35.049-40.203c10.019-6.881,23.718-4.336,30.598,5.683s4.336,23.719-5.683,30.598  c-17.859,12.263-33.248,30.034-11.978,68.846c5.841,10.658,1.936,24.033-8.723,29.874  C199.259,511.126,195.633,511.999,192.058,511.999z"/>
<path style="opacity:0.2;enable-background:new    ;" d="M228.999,379.969c-6.88-10.019-20.58-12.565-30.598-5.683  c-6.223,4.273-25.159,17.277-35.049,40.203c-1.409,3.266-2.584,6.587-3.53,9.961c12.388,9.754,26.269,17.702,41.245,23.459  c-0.796-18.188,10.152-29.033,22.249-37.34C233.335,403.688,235.879,389.989,228.999,379.969z"/>
<path style="fill:#40BAB3;" d="M416.981,277.089c0-87.449-72.904-213.428-158.809-213.428S99.362,189.64,99.362,277.089  s71.101,158.34,158.809,158.34S416.981,364.537,416.981,277.089z"/>
<path style="fill:#FFFFFF;" d="M282.217,214.981h-48.09c-8.572,0-15.522,6.949-15.522,15.522l0,0  c0,8.572,6.949,15.522,15.522,15.522h48.09c8.572,0,15.522-6.949,15.522-15.522l0,0  C297.738,221.929,290.789,214.981,282.217,214.981z"/>
<g style="opacity:0.2;">
	<rect x="237.126" y="214.983" width="16.194" height="31.042"/>
	<rect x="263.026" y="214.983" width="16.194" height="31.042"/>
</g>
<g>
	<path style="fill:#F0B0B7;" d="M178.792,258.582h-26.512c-4.472,0-8.097-3.625-8.097-8.097c0-4.472,3.625-8.097,8.097-8.097h26.512   c4.472,0,8.097,3.625,8.097,8.097C186.889,254.957,183.263,258.582,178.792,258.582z"/>
	<path style="fill:#F0B0B7;" d="M364.063,258.582h-26.511c-4.473,0-8.097-3.625-8.097-8.097c0-4.472,3.624-8.097,8.097-8.097h26.512   c4.473,0,8.097,3.625,8.097,8.097C372.16,254.957,368.536,258.582,364.063,258.582z"/>
</g>
<path style="fill:#FFFFFF;" d="M102.037,306.128c13.681,73.578,78.377,129.3,156.135,129.3s142.454-55.722,156.135-129.3  L102.037,306.128L102.037,306.128z"/>
<path style="fill:#0081C6;" d="M130.151,370.778c28.905,39.203,75.478,64.65,128.022,64.65s99.117-25.447,128.022-64.65H130.151z"/>
<path style="opacity:0.2;enable-background:new    ;" d="M275.012,418.588c-87.708,0-158.809-70.891-158.809-158.34  c0-52.646,26.43-119.248,66.206-163.929c-48.986,43.243-83.046,121-83.046,180.769c0,87.449,71.101,158.34,158.809,158.34  c48.223,0,91.42-21.434,120.546-55.263C350.893,404.107,314.649,418.588,275.012,418.588z"/>
<g>
	<path style="fill:#394049;" d="M165.535,224.043c-4.472,0-8.097-3.625-8.097-8.097v-4.348c0-4.472,3.625-8.097,8.097-8.097   c4.472,0,8.097,3.625,8.097,8.097v4.348C173.632,220.418,170.007,224.043,165.535,224.043z"/>
	<path style="fill:#394049;" d="M350.808,224.043c-4.473,0-8.097-3.625-8.097-8.097v-4.348c0-4.472,3.624-8.097,8.097-8.097   c4.473,0,8.097,3.625,8.097,8.097v4.348C358.905,220.418,355.281,224.043,350.808,224.043z"/>
	<path style="fill:#394049;" d="M172.554,214.205c-2.072,0-4.145-0.79-5.725-2.372l-11.294-11.294   c-3.162-3.162-3.162-8.289,0-11.451c3.162-3.162,8.289-3.162,11.451,0l11.294,11.294c3.162,3.162,3.162,8.289,0,11.45   C176.698,213.413,174.626,214.205,172.554,214.205z"/>
	<path style="fill:#394049;" d="M343.789,214.205c-2.072,0-4.145-0.79-5.726-2.372c-3.162-3.162-3.162-8.289,0-11.45l11.294-11.294   c3.163-3.162,8.289-3.162,11.453,0c3.162,3.162,3.162,8.289,0,11.451l-11.294,11.294   C347.934,213.413,345.861,214.205,343.789,214.205z"/>
</g>
<g>
	<path style="fill:#DEDFDF;" d="M36.282,108.556c-11.667,0.001-22.575-7.363-26.509-19.013c-2.477-7.335-1.744-15.346,1.814-22.064   c-0.835-1.584-1.544-3.236-2.121-4.946c-2.883-8.534-2.269-17.68,1.728-25.753c3.997-8.073,10.898-14.105,19.432-16.988   c7.55-2.55,15.718-2.32,23.053,0.544c1.179-0.596,2.401-1.108,3.66-1.533c14.603-4.928,30.498,2.938,35.43,17.541   c3.246,9.614,1.02,20.254-5.81,27.767c-3.01,3.309-8.131,3.551-11.439,0.544c-3.309-3.009-3.552-8.13-0.544-11.439   c2.878-3.165,3.816-7.645,2.451-11.691c-2.075-6.143-8.759-9.455-14.906-7.379c-1.225,0.413-2.369,1.023-3.396,1.813   c-2.592,1.992-6.13,2.227-8.966,0.597c-4.364-2.509-9.593-3.027-14.35-1.421c-4.435,1.497-8.023,4.634-10.1,8.829   c-2.077,4.196-2.397,8.95-0.898,13.385c0.641,1.898,1.591,3.656,2.823,5.223c2.399,3.051,2.295,7.375-0.246,10.308   c-2.728,3.147-3.597,7.547-2.269,11.478c2.075,6.145,8.763,9.457,14.906,7.38c1.641-0.554,3.1-1.432,4.337-2.609   c3.239-3.082,8.365-2.957,11.447,0.282c3.083,3.239,2.957,8.364-0.282,11.447c-2.957,2.815-6.429,4.908-10.32,6.223   C42.25,108.082,39.241,108.554,36.282,108.556z"/>
	<path style="fill:#DEDFDF;" d="M67.835,110.315c-1.009,0-2.034-0.19-3.027-0.591L37.775,98.816   c-4.147-1.673-6.152-6.391-4.478-10.539c1.673-4.147,6.391-6.152,10.539-4.478l27.031,10.907c4.147,1.673,6.152,6.391,4.478,10.539   C74.073,108.4,71.04,110.315,67.835,110.315z"/>
	<path style="fill:#DEDFDF;" d="M93.591,85.631c-2.613,0-5.177-1.262-6.739-3.597L71.584,59.199   c-2.485-3.717-1.487-8.746,2.23-11.231c3.717-2.485,8.746-1.487,11.231,2.23l15.268,22.835c2.485,3.717,1.487,8.746-2.23,11.231   C96.701,85.188,95.138,85.631,93.591,85.631z"/>
	<path style="fill:#DEDFDF;" d="M64.953,86.475c-1.57,0-3.156-0.456-4.551-1.406l-13.738-9.357   c-3.697-2.518-4.652-7.554-2.134-11.25c2.517-3.696,7.555-4.653,11.25-2.134l13.738,9.357c3.697,2.518,4.652,7.554,2.134,11.25   C70.086,85.236,67.542,86.475,64.953,86.475z"/>
	<path style="fill:#DEDFDF;" d="M363.364,69.815c-0.951,0-1.908-0.059-2.865-0.179c-3.313-0.413-6.422-1.518-9.238-3.28   c-3.791-2.373-4.939-7.368-2.567-11.159c2.372-3.792,7.368-4.94,11.16-2.567c0.803,0.503,1.695,0.818,2.654,0.938   c1.728,0.215,3.448-0.255,4.828-1.328c1.38-1.073,2.26-2.619,2.476-4.354c0.291-2.325-0.651-4.572-2.517-6.007   c-3.077-2.364-4.043-6.579-2.305-10.048c0.552-1.099,0.909-2.278,1.062-3.506c0.737-5.904-3.468-11.31-9.374-12.049   c-3.073-0.382-6.16,0.574-8.485,2.627c-2.451,2.164-5.962,2.643-8.903,1.209c-0.65-0.316-1.34-0.521-2.053-0.61   c-1.733-0.216-3.449,0.254-4.83,1.327c-1.38,1.073-2.26,2.619-2.476,4.354c-0.295,2.358,0.716,4.696,2.638,6.102   c3.61,2.64,4.395,7.706,1.755,11.315c-2.641,3.611-7.708,4.394-11.315,1.754c-6.666-4.876-10.171-12.992-9.148-21.181   c0.754-6.026,3.808-11.4,8.602-15.128c4.793-3.73,10.751-5.371,16.78-4.614c0.757,0.094,1.508,0.227,2.248,0.396   c5.13-3.067,11.187-4.374,17.194-3.62c7.154,0.894,13.531,4.519,17.957,10.21c4.426,5.691,6.372,12.764,5.478,19.917   c-0.134,1.066-0.329,2.117-0.585,3.15c3.456,4.651,5.077,10.536,4.344,16.407c-0.754,6.027-3.808,11.4-8.602,15.129   C373.245,68.156,368.389,69.815,363.364,69.815z"/>
	<path style="fill:#DEDFDF;" d="M343.701,75.443c-2.626,0-5.201-1.275-6.758-3.628c-2.469-3.729-1.449-8.752,2.28-11.222   l17.919-11.865c3.728-2.469,8.754-1.449,11.222,2.281c2.469,3.729,1.449,8.752-2.28,11.222l-17.919,11.865   C346.788,75.008,345.236,75.443,343.701,75.443z"/>
	<path style="fill:#DEDFDF;" d="M321.454,61.41c-1.02,0-2.057-0.194-3.06-0.605c-4.14-1.692-6.125-6.418-4.432-10.559l7.662-18.746   c1.692-4.14,6.42-6.125,10.558-4.432c4.14,1.692,6.125,6.418,4.432,10.559l-7.662,18.746   C327.669,59.511,324.645,61.41,321.454,61.41z"/>
</g>
<g>
	<path style="fill:#892641;" d="M268.458,152.101c-3.308,0-6.413-2.042-7.61-5.33c-1.53-4.203,0.637-8.849,4.839-10.378   c5.707-2.077,8.66-8.41,6.583-14.117c-1.53-4.202,0.638-8.849,4.839-10.378c4.204-1.53,8.849,0.637,10.378,4.84   c5.131,14.098-2.165,29.741-16.262,34.873C270.313,151.943,269.377,152.101,268.458,152.101z"/>
	<path style="fill:#892641;" d="M319.488,175.897c-3.308,0-6.413-2.042-7.61-5.33c-2.485-6.83-2.164-14.217,0.908-20.804   s8.525-11.583,15.354-14.068c4.196-1.53,8.847,0.636,10.377,4.839c1.529,4.203-0.638,8.849-4.839,10.378   c-2.765,1.006-4.971,3.028-6.215,5.695c-1.243,2.667-1.373,5.657-0.367,8.421c1.53,4.203-0.637,8.849-4.839,10.378   C321.343,175.739,320.408,175.897,319.488,175.897z"/>
	<path style="fill:#892641;" d="M300.831,103.782c3.308,0,6.413,2.042,7.61,5.33c2.077,5.706,8.405,8.66,14.116,6.582   c4.204-1.531,8.85,0.639,10.377,4.84c1.529,4.203-0.638,8.849-4.84,10.378c-14.094,5.131-29.74-2.164-34.872-16.262   c-1.53-4.202,0.638-8.849,4.839-10.378C298.977,103.939,299.914,103.782,300.831,103.782z"/>
	<path style="fill:#892641;" d="M299.488,181.481c-3.308,0-6.413-2.042-7.61-5.33c-2.077-5.706-8.405-8.66-14.116-6.582   c-4.203,1.531-8.85-0.639-10.377-4.84c-1.529-4.203,0.638-8.849,4.84-10.378c14.094-5.131,29.74,2.164,34.872,16.262   c1.53,4.202-0.638,8.849-4.839,10.378C301.343,181.324,300.407,181.481,299.488,181.481z"/>
</g>
<g>
</g>
<g>
</g>
<g>
</g>
<g>
</g>
<g>
</g>
<g>
</g>
<g>
</g>
<g>
</g>
<g>
</g>
<g>
</g>
<g>
</g>
<g>
</g>
<g>
</g>
<g>
</g>
<g>
</g>
</svg>
