<?xml version="1.0" encoding="iso-8859-1"?>
<!-- Generator: Adobe Illustrator 19.0.0, SVG Export Plug-In . SVG Version: 6.00 Build 0)  -->
<svg xmlns="http://www.w3.org/2000/svg" xmlns:xlink="http://www.w3.org/1999/xlink" version="1.1" id="Layer_1" x="0px" y="0px" viewBox="0 0 512.001 512.001" style="enable-background:new 0 0 512.001 512.001;" xml:space="preserve">
<path style="fill:#F3C74F;" d="M307.948,502.408c-13.345,0-24.161-10.817-24.161-24.161v-91.493  c0-13.345,10.817-24.161,24.161-24.161c13.344,0,24.161,10.817,24.161,24.161v91.493  C332.109,491.59,321.291,502.408,307.948,502.408z"/>
<path style="opacity:0.2;enable-background:new    ;" d="M307.948,362.591c-13.345,0-24.161,10.817-24.161,24.161v50.673  c17.06-2.725,33.295-7.911,48.323-15.192v-35.482C332.109,373.409,321.291,362.591,307.948,362.591z"/>
<path style="fill:#F3C74F;" d="M204.053,502.408c-13.344,0-24.161-10.817-24.161-24.161v-91.493  c0-13.345,10.817-24.161,24.161-24.161c13.345,0,24.161,10.817,24.161,24.161v91.493  C228.215,491.59,217.398,502.408,204.053,502.408z"/>
<path style="opacity:0.2;enable-background:new    ;" d="M204.053,362.591c-13.344,0-24.161,10.817-24.161,24.161v35.482  c15.028,7.281,31.263,12.468,48.323,15.192v-50.673C228.215,373.409,217.398,362.591,204.053,362.591z"/>
<path style="fill:#F3C74F;" d="M87.888,300.615c-22.561,0-43.642-7.501-59.891-21.939C5.024,258.264-4.651,226.803,2.118,194.518  c2.739-13.06,15.546-21.429,28.604-18.689c13.06,2.739,21.428,15.545,18.689,28.604c-3.263,15.563,0.531,29.1,10.681,38.12  c11.426,10.153,29.237,12.517,47.644,6.323c12.65-4.257,26.349,2.547,30.605,15.194c4.256,12.647-2.547,26.349-15.194,30.606  C111.308,298.661,99.405,300.615,87.888,300.615z"/>
<path style="opacity:0.2;enable-background:new    ;" d="M138.343,264.072c-4.255-12.646-17.956-19.452-30.605-15.194  c-16.533,5.563-32.569,4.202-43.946-3.486c-0.027,1.26-0.049,2.518-0.049,3.765c0,17.389,2.573,34.179,7.339,50.021  c5.471,0.953,11.09,1.439,16.806,1.439c11.517,0,23.42-1.954,35.262-5.939C135.796,290.421,142.599,276.719,138.343,264.072z"/>
<path style="fill:#F3C74F;" d="M424.113,300.615c22.561,0,43.642-7.501,59.891-21.939c22.974-20.412,32.648-51.873,25.879-84.159  c-2.739-13.06-15.546-21.429-28.604-18.689c-13.06,2.739-21.428,15.545-18.689,28.604c3.263,15.563-0.531,29.1-10.681,38.12  c-11.426,10.153-29.237,12.517-47.644,6.323c-12.65-4.257-26.349,2.547-30.605,15.194c-4.256,12.647,2.547,26.349,15.194,30.606  C400.693,298.661,412.596,300.615,424.113,300.615z"/>
<circle style="fill:#0081C6;" cx="389.839" cy="91.747" r="55.492"/>
<circle style="fill:#F3C74F;" cx="389.839" cy="91.747" r="25.908"/>
<circle style="fill:#0081C6;" cx="122.162" cy="91.747" r="55.492"/>
<circle style="fill:#F3C74F;" cx="122.162" cy="91.747" r="25.908"/>
<path style="opacity:0.2;enable-background:new    ;" d="M154.962,46.998c-26.09,23.58-48.22,56.041-63.939,90.688  c8.878,6.03,19.594,9.555,31.135,9.555c30.648,0,55.492-24.845,55.492-55.492C177.65,73.377,168.717,57.097,154.962,46.998z"/>
<path style="fill:#40BAB3;" d="M430.361,243.921c0-96.012-80.043-234.327-174.36-234.327S81.641,147.909,81.641,243.921  s78.064,173.845,174.36,173.845S430.361,339.933,430.361,243.921z"/>
<g>
	<path style="fill:#F0B0B7;" d="M168.847,222.883h-29.108c-4.512,0-8.17-3.658-8.17-8.17c0-4.512,3.658-8.17,8.17-8.17h29.108   c4.512,0,8.17,3.658,8.17,8.17C177.017,219.225,173.359,222.883,168.847,222.883z"/>
	<path style="fill:#F0B0B7;" d="M372.262,222.883h-29.108c-4.512,0-8.17-3.658-8.17-8.17c0-4.512,3.658-8.17,8.17-8.17h29.108   c4.512,0,8.17,3.658,8.17,8.17C380.432,219.225,376.774,222.883,372.262,222.883z"/>
</g>
<path style="fill:#FFFFFF;" d="M84.577,275.804c15.02,80.783,86.051,141.961,171.423,141.961s156.403-61.179,171.423-141.96H84.577  V275.804z"/>
<path style="fill:#0081C6;" d="M115.443,346.785c31.735,43.042,82.869,70.981,140.557,70.981s108.822-27.939,140.557-70.981H115.443  z"/>
<path style="opacity:0.2;enable-background:new    ;" d="M274.49,399.276c-96.296,0-174.36-77.833-174.36-173.844  c0-57.802,29.018-130.924,72.689-179.98C119.036,92.93,81.641,178.3,81.641,243.921c0,96.012,78.064,173.845,174.36,173.845  c52.944,0,100.372-23.533,132.349-60.674C357.801,383.376,318.008,399.276,274.49,399.276z"/>
<path style="fill:#EBE73B;" d="M344.791,343.524L344.791,343.524c-32.2-32.2-50.289-75.873-50.289-121.41v-25.497  c-12.444-2.518-25.315-3.859-38.5-3.859c-13.187,0-26.056,1.341-38.5,3.859v55.599c0,35.336-14.038,69.225-39.023,94.21l0,0  c-7.134,7.134-7.134,18.7,0,25.834c7.134,7.134,18.7,7.134,25.834,0l4.035-4.035c3.094-3.094,8.383-0.902,8.383,3.472v11.033  c0,10.089,8.179,18.268,18.268,18.268l0,0c10.089,0,18.268-8.179,18.268-18.268v-22.264c0-4.128,3.347-7.473,7.473-7.473l0,0  c4.128,0,7.473,3.346,7.473,7.473v13.907c0,8.603,6.974,15.577,15.577,15.577s15.577-6.974,15.577-15.577v-5.712  c0-6.973,8.431-10.465,13.362-5.535l6.232,6.232c7.134,7.134,18.7,7.134,25.834,0C351.924,362.224,351.924,350.657,344.791,343.524z  "/>
<path style="opacity:0.2;enable-background:new    ;" d="M256.001,192.759c-13.187,0-26.056,1.341-38.5,3.859v19.411  c12.444-2.518,25.315-3.859,38.5-3.859c13.187,0,26.056,1.341,38.5,3.859v-19.411C282.057,194.1,269.187,192.759,256.001,192.759z"/>
<g>
	<path style="opacity:0.3;fill:#FFFFFF;enable-background:new    ;" d="M344.791,343.524L344.791,343.524   c-16.423-16.423-29.164-35.835-37.719-56.951c-7.805,7.294-12.69,17.674-12.69,29.2c0,22.074,17.895,39.969,39.969,39.969   c5.453,0,10.651-1.096,15.387-3.074C349.033,349.317,347.393,346.126,344.791,343.524z"/>
	<path style="opacity:0.3;fill:#FFFFFF;enable-background:new    ;" d="M295.268,238.241c-0.295-0.014-0.587-0.045-0.886-0.045   c-9.834,0-17.805,7.972-17.805,17.805c0,9.834,7.971,17.805,17.805,17.805c2.706,0,5.261-0.621,7.558-1.702   C298.598,261.123,296.356,249.78,295.268,238.241z"/>
</g>
<path style="fill:#8E78CF;" d="M220.139,339.757c-2.09,0-4.182-0.797-5.777-2.393c-3.191-3.191-3.191-8.364,0-11.555l10.538-10.537  c3.191-3.191,8.364-3.191,11.554,0c3.191,3.191,3.191,8.364,0,11.554l-10.538,10.537  C224.321,338.959,222.229,339.757,220.139,339.757z"/>
<g>
	<path style="fill:#3DAD4B;" d="M285.993,344.171c-2.09,0-4.182-0.797-5.777-2.393c-3.191-3.191-3.191-8.363,0-11.554l10.537-10.538   c3.191-3.191,8.364-3.192,11.555,0c3.191,3.191,3.191,8.363,0,11.555l-10.537,10.539   C290.175,343.373,288.084,344.171,285.993,344.171z"/>
	<path style="fill:#3DAD4B;" d="M243.833,249.318c-2.09,0-4.182-0.797-5.777-2.393c-3.191-3.191-3.191-8.364,0-11.554l10.538-10.537   c3.191-3.191,8.364-3.192,11.554,0c3.191,3.191,3.191,8.364,0,11.554l-10.538,10.537   C248.014,248.521,245.923,249.318,243.833,249.318z"/>
</g>
<path style="fill:#E6595A;" d="M266.903,296.839c-2.091,0-4.182-0.797-5.777-2.393l-10.537-10.538  c-3.191-3.191-3.191-8.364,0-11.554c3.191-3.191,8.364-3.191,11.554,0l10.537,10.538c3.191,3.191,3.191,8.364,0,11.554  C271.085,296.04,268.993,296.839,266.903,296.839z"/>
<g>
	<path style="fill:#394049;" d="M147.748,192.632c-2.579,0-5.117-1.218-6.705-3.492c-2.584-3.699-1.68-8.793,2.02-11.376   l3.512-2.453l-3.511-2.452c-3.699-2.584-4.605-7.677-2.021-11.376c2.584-3.701,7.678-4.604,11.376-2.021l13.103,9.151   c2.189,1.528,3.492,4.03,3.492,6.698s-1.304,5.17-3.492,6.698l-13.103,9.151C150.995,192.154,149.364,192.632,147.748,192.632z"/>
	<path style="fill:#394049;" d="M364.253,192.632c-1.616,0-3.246-0.477-4.671-1.473l-13.103-9.151   c-2.189-1.528-3.492-4.03-3.492-6.698s1.304-5.17,3.492-6.698l13.103-9.151c3.697-2.584,8.792-1.68,11.376,2.021   c2.584,3.699,1.679,8.792-2.021,11.376l-3.511,2.452l3.512,2.453c3.699,2.584,4.604,7.677,2.02,11.376   C369.369,191.413,366.831,192.632,364.253,192.632z"/>
	<path style="fill:#394049;" d="M304.711,207.124c-0.68,0-1.37-0.086-2.059-0.265c-15.162-3.936-30.858-5.932-46.653-5.932   s-31.49,1.996-46.653,5.932c-4.363,1.136-8.827-1.487-9.961-5.855c-1.134-4.367,1.488-8.827,5.855-9.96   c16.502-4.284,33.58-6.456,50.758-6.456s34.256,2.172,50.758,6.456c4.367,1.133,6.989,5.593,5.855,9.96   C311.659,204.684,308.343,207.124,304.711,207.124z"/>
</g>
<g>
</g>
<g>
</g>
<g>
</g>
<g>
</g>
<g>
</g>
<g>
</g>
<g>
</g>
<g>
</g>
<g>
</g>
<g>
</g>
<g>
</g>
<g>
</g>
<g>
</g>
<g>
</g>
<g>
</g>
</svg>
