<?xml version="1.0" encoding="iso-8859-1"?>
<!-- Generator: Adobe Illustrator 19.0.0, SVG Export Plug-In . SVG Version: 6.00 Build 0)  -->
<svg xmlns="http://www.w3.org/2000/svg" xmlns:xlink="http://www.w3.org/1999/xlink" version="1.1" id="Layer_1" x="0px" y="0px" viewBox="0 0 512 512" style="enable-background:new 0 0 512 512;" xml:space="preserve">
<path style="fill:#394049;" d="M432.186,241.569c-4.561,0-8.258-3.697-8.258-8.258v-82.169c0-4.561,3.697-8.258,8.258-8.258  c4.561,0,8.258,3.697,8.258,8.258v82.17C440.444,237.873,436.747,241.569,432.186,241.569z"/>
<path style="fill:#E6595A;" d="M470.831,233.311h-51.215c-26.268,0-50.359-14.602-62.511-37.89l-39.058-74.847  c-13.524-25.916-40.333-42.166-69.566-42.166H14.885C6.664,78.409,0,85.072,0,93.293v304.81c0,8.221,6.664,14.884,14.885,14.884  h455.945c18.48,0,33.462-14.981,33.462-33.462V266.774C504.292,248.294,489.311,233.311,470.831,233.311z"/>
<g>
	<path style="opacity:0.2;fill:#FFFFFF;enable-background:new    ;" d="M318.046,120.574c-12.422-23.805-36.057-39.444-62.48-41.835   c-2.143,5.913-3.314,12.289-3.314,18.942c0,30.709,24.895,55.604,55.604,55.604c8.729,0,16.986-2.016,24.337-5.601L318.046,120.574   z"/>
	<path style="opacity:0.2;fill:#FFFFFF;enable-background:new    ;" d="M470.831,233.311h-51.215c-3.903,0-7.757-0.33-11.532-0.956   c-0.079,1.219-0.135,2.445-0.135,3.685c0,30.709,24.895,55.604,55.604,55.604c16.096,0,30.586-6.846,40.74-17.777v-7.094   C504.292,248.294,489.311,233.311,470.831,233.311z"/>
</g>
<path style="opacity:0.2;enable-background:new    ;" d="M186.498,412.988c0-58.911,47.757-106.667,106.667-106.667  s106.667,47.756,106.667,106.667H186.498z"/>
<g>
	<circle style="fill:#394049;" cx="293.161" cy="412.989" r="90.641"/>
	<circle style="fill:#394049;" cx="293.161" cy="412.989" r="90.641"/>
</g>
<path style="opacity:0.2;enable-background:new    ;" d="M301.011,495.78c-50.057,0-90.637-40.58-90.637-90.637  c0-23.032,8.606-44.044,22.759-60.034c-18.762,16.606-30.604,40.853-30.604,67.879c0,50.058,40.58,90.637,90.637,90.637  c27.026,0,51.273-11.842,67.879-30.603C345.055,487.174,324.043,495.78,301.011,495.78z"/>
<circle style="fill:#A4A8AB;" cx="293.161" cy="412.989" r="41.714"/>
<path style="opacity:0.2;enable-background:new    ;" d="M296.747,451.12c-23.038,0-41.714-18.676-41.714-41.714  c0-10.608,3.966-20.284,10.488-27.645c-8.626,7.643-14.07,18.796-14.07,31.226c0,23.038,18.676,41.714,41.714,41.714  c12.431,0,23.585-5.444,31.227-14.07C317.031,447.154,307.355,451.12,296.747,451.12z"/>
<path style="opacity:0.2;fill:#FFFFFF;enable-background:new    ;" d="M293.166,371.274c-0.873,0-1.738,0.035-2.597,0.088  c-1.214,3.466-1.882,7.189-1.882,11.07c0,18.49,14.99,33.48,33.48,33.48c4.498,0,8.784-0.893,12.702-2.501  c0.001-0.142,0.011-0.282,0.011-0.424C334.88,389.949,316.203,371.274,293.166,371.274z"/>
<path style="fill:#394049;" d="M309.663,245.66H56.645c-9.871,0-17.874-8.126-17.874-18.151v-90.149  c0-10.024,8.003-18.151,17.874-18.151h190.096c20.467,0,39.06,12.102,47.606,30.986l31.558,69.733  C331.347,231.955,322.695,245.66,309.663,245.66z"/>
<circle style="fill:#0081C6;" cx="284.65" cy="66.172" r="39.043"/>
<circle style="fill:#F3C74F;" cx="284.65" cy="66.172" r="18.228"/>
<circle style="fill:#0081C6;" cx="96.322" cy="66.172" r="39.043"/>
<circle style="fill:#F3C74F;" cx="96.322" cy="66.172" r="18.228"/>
<path style="opacity:0.2;enable-background:new    ;" d="M119.4,34.686c-18.357,16.59-33.926,39.43-44.986,63.806  c6.246,4.242,13.785,6.722,21.906,6.722c21.562,0,39.043-17.481,39.043-39.043C135.362,53.246,129.076,41.792,119.4,34.686z"/>
<path style="fill:#40BAB3;" d="M190.486,8.37c-66.358,0-122.674,97.314-122.674,164.865c0,27.083,8.835,52.105,23.779,72.371H289.38  c14.944-20.266,23.779-45.288,23.779-72.371C313.16,105.685,256.845,8.37,190.486,8.37z"/>
<path style="fill:#FFFFFF;" d="M69.879,195.668c3.428,18.435,11.023,35.404,21.743,49.939h197.731  c10.72-14.535,18.314-31.504,21.743-49.939H69.879z"/>
<path style="opacity:0.2;enable-background:new    ;" d="M131.963,33.598c-37.84,33.403-64.15,93.468-64.15,139.636  c0,27.083,8.835,52.105,23.779,72.371h24.076c-21.559-22.04-34.847-52.16-34.847-85.38  C80.821,119.559,101.237,68.113,131.963,33.598z"/>
<g>
	<path style="fill:#F0B0B7;" d="M134.267,160.943h-20.48c-4.561,0-8.258-3.697-8.258-8.258c0-4.561,3.697-8.258,8.258-8.258h20.48   c4.561,0,8.258,3.697,8.258,8.258C142.525,157.246,138.829,160.943,134.267,160.943z"/>
	<path style="fill:#F0B0B7;" d="M277.384,160.943h-20.48c-4.561,0-8.258-3.697-8.258-8.258c0-4.561,3.697-8.258,8.258-8.258h20.48   c4.561,0,8.258,3.697,8.258,8.258C285.642,157.246,281.945,160.943,277.384,160.943z"/>
	<path style="fill:#F0B0B7;" d="M207.602,143.257c-6.636,0-12.016-5.38-12.016-12.016c0,6.636-5.38,12.016-12.016,12.016   c-1.301,0-2.551-0.213-3.725-0.596v6.021c0,8.694,7.048,15.741,15.741,15.741s15.741-7.048,15.741-15.741v-6.021   C210.153,143.044,208.904,143.257,207.602,143.257z"/>
</g>
<g>
	<path style="fill:#F3C74F;" d="M76.714,212.793c-14.575,0-27.99-4.893-39.302-14.431c-13.129-11.071-23.168-27.943-29.837-50.146   C2.761,132.185,0,113.953,0,98.193c0-9.389,7.611-17,17-17s17,7.611,17,17c0,20.422,6.877,58.618,25.33,74.177   c6.655,5.611,14.079,7.484,23.364,5.893c9.253-1.586,18.04,4.63,19.627,13.883c1.586,9.253-4.63,18.04-13.883,19.627   C84.459,212.455,80.546,212.793,76.714,212.793z"/>
	<path style="fill:#F3C74F;" d="M459.068,320.023h45.224v51.251h-45.224c-8.368,0-15.152-6.784-15.152-15.152v-20.947   C443.917,326.807,450.701,320.023,459.068,320.023z"/>
</g>
<path style="fill:#A4A8AB;" d="M433.607,371.274h71.496c3.81,0,6.897,3.089,6.897,6.897v37.456c0,3.81-3.089,6.897-6.897,6.897  h-71.496c-3.81,0-6.897-3.089-6.897-6.897v-37.456C426.71,374.361,429.798,371.274,433.607,371.274z"/>
<path style="opacity:0.2;enable-background:new    ;" d="M511.147,416.481h-71.496c-3.81,0-6.897-3.089-6.897-6.897v-37.456  c0-0.272,0.02-0.54,0.051-0.803c-3.43,0.399-6.094,3.31-6.094,6.846v37.456c0,3.81,3.089,6.897,6.897,6.897h71.496  c3.537,0,6.448-2.664,6.846-6.094C511.686,416.46,511.419,416.481,511.147,416.481z"/>
<path style="opacity:0.2;fill:#FFFFFF;enable-background:new    ;" d="M505.103,371.274h-30.731  c-0.174,1.185-0.268,2.396-0.268,3.629c0,13.657,11.071,24.728,24.728,24.728c4.841,0,9.354-1.396,13.167-3.801v-17.659  C512,374.361,508.913,371.274,505.103,371.274z"/>
<circle style="fill:#A4A8AB;" cx="432.183" cy="135.177" r="15.967"/>
<path style="opacity:0.2;enable-background:new    ;" d="M434.899,148.429c-8.819,0-15.967-7.148-15.967-15.967  c0-3.717,1.282-7.128,3.411-9.841c-3.724,2.923-6.124,7.454-6.124,12.556c0,8.819,7.148,15.967,15.967,15.967  c5.101,0,9.632-2.4,12.556-6.124C442.028,147.148,438.617,148.429,434.899,148.429z"/>
<path style="opacity:0.2;fill:#FFFFFF;enable-background:new    ;" d="M435.035,119.478c-3.072,1.478-5.197,4.61-5.197,8.247  c0,5.057,4.099,9.158,9.157,9.158c3.928,0,7.268-2.477,8.569-5.951C445.95,125.072,441.092,120.571,435.035,119.478z"/>
<g>
	<path style="fill:#394049;" d="M70.971,290.358h-28.24c-4.561,0-8.258-3.697-8.258-8.258c0-4.561,3.697-8.258,8.258-8.258h28.24   c4.561,0,8.258,3.697,8.258,8.258C79.229,286.661,75.532,290.358,70.971,290.358z"/>
	<path style="fill:#394049;" d="M124.028,134.263c-4.561,0-8.258-3.697-8.258-8.258v-3.358c0-4.561,3.697-8.258,8.258-8.258   c4.561,0,8.258,3.697,8.258,8.258v3.358C132.286,130.566,128.589,134.263,124.028,134.263z"/>
	<path style="fill:#394049;" d="M267.144,134.263c-4.561,0-8.258-3.697-8.258-8.258v-3.358c0-4.561,3.697-8.258,8.258-8.258   c4.561,0,8.258,3.697,8.258,8.258v3.358C275.402,130.566,271.705,134.263,267.144,134.263z"/>
	<path style="fill:#394049;" d="M195.586,172.681c-13.233,0-23.999-10.766-23.999-23.999v-6.021c0-4.561,3.697-8.258,8.258-8.258   s8.258,3.697,8.258,8.258v6.021c0,4.126,3.357,7.483,7.483,7.483c4.127,0,7.483-3.357,7.483-7.483v-6.021   c0-4.561,3.697-8.258,8.258-8.258s8.258,3.697,8.258,8.258v6.021C219.585,161.915,208.819,172.681,195.586,172.681z"/>
	<path style="fill:#394049;" d="M207.602,151.515c-4.493,0-8.651-1.47-12.016-3.954c-3.365,2.484-7.523,3.954-12.016,3.954   c-11.179,0-20.274-9.095-20.274-20.275c0-4.561,3.697-8.258,8.258-8.258s8.258,3.697,8.258,8.258c0,2.072,1.686,3.759,3.758,3.759   c2.072,0,3.758-1.686,3.758-3.759c0-4.561,3.697-8.258,8.258-8.258s8.258,3.697,8.258,8.258c0,2.072,1.686,3.759,3.758,3.759   c2.072,0,3.758-1.686,3.758-3.759c0-4.561,3.697-8.258,8.258-8.258s8.258,3.697,8.258,8.258   C227.876,142.42,218.781,151.515,207.602,151.515z"/>
</g>
<g>
</g>
<g>
</g>
<g>
</g>
<g>
</g>
<g>
</g>
<g>
</g>
<g>
</g>
<g>
</g>
<g>
</g>
<g>
</g>
<g>
</g>
<g>
</g>
<g>
</g>
<g>
</g>
<g>
</g>
</svg>
