<?xml version="1.0" encoding="iso-8859-1"?>
<!-- Generator: Adobe Illustrator 19.0.0, SVG Export Plug-In . SVG Version: 6.00 Build 0)  -->
<svg xmlns="http://www.w3.org/2000/svg" xmlns:xlink="http://www.w3.org/1999/xlink" version="1.1" id="Layer_1" x="0px" y="0px" viewBox="0 0 512 512" style="enable-background:new 0 0 512 512;" xml:space="preserve">
<g>
	<path style="fill:#F3C74F;" d="M404.848,395.897c-5.408,0-10.833-1.943-15.137-5.88c-9.146-8.364-9.78-22.558-1.416-31.704   c5.185-5.67,7.78-13.568,6.942-21.127c-0.373-3.36-1.831-9.58-7.411-13.473c-10.164-7.092-12.653-21.081-5.561-31.244   c7.09-10.163,21.081-12.655,31.244-5.561c14.893,10.393,24.246,26.493,26.333,45.334c2.275,20.522-4.442,41.064-18.43,56.359   C416.989,393.441,410.928,395.897,404.848,395.897z"/>
	<path style="fill:#F3C74F;" d="M107.154,395.897c-6.081,0-12.139-2.456-16.566-7.296c-13.988-15.295-20.705-35.837-18.43-56.359   c2.088-18.841,11.44-34.941,26.333-45.334c10.164-7.093,24.152-4.602,31.244,5.561c7.092,10.163,4.603,24.152-5.561,31.244   c-5.579,3.894-7.038,10.112-7.411,13.473c-0.837,7.559,1.757,15.458,6.942,21.127c8.364,9.146,7.73,23.34-1.416,31.704   C117.986,393.952,112.562,395.897,107.154,395.897z"/>
	<path style="fill:#F3C74F;" d="M304.247,512c-12.393,0-22.44-10.047-22.44-22.44v-84.976c0-12.393,10.047-22.44,22.44-22.44   s22.44,10.047,22.44,22.44v84.976C326.688,501.954,316.641,512,304.247,512z"/>
</g>
<path style="opacity:0.2;enable-background:new    ;" d="M304.247,382.144c-12.393,0-22.44,10.047-22.44,22.44v70.006  c2.361-1.605,4.611-3.444,6.704-5.537l38.176-38.176v-26.293C326.688,392.191,316.641,382.144,304.247,382.144z"/>
<path style="fill:#F3C74F;" d="M207.754,512c-12.393,0-22.44-10.047-22.44-22.44v-84.976c0-12.393,10.047-22.44,22.44-22.44  s22.44,10.047,22.44,22.44v84.976C230.194,501.954,220.148,512,207.754,512z"/>
<path style="opacity:0.2;enable-background:new    ;" d="M207.754,382.144c-12.393,0-22.44,10.047-22.44,22.44v26.293l38.176,38.176  c2.093,2.093,4.343,3.932,6.704,5.537v-70.006C230.194,392.191,220.148,382.144,207.754,382.144z"/>
<path style="fill:#E6595A;" d="M256.001,64.793C197.771,6.563,103.285,6.688,45.21,65.166  c-57.945,58.349-56.634,153.04,1.514,211.187L223.49,453.119c17.955,17.955,47.066,17.955,65.02,0l176.766-176.766  c58.147-58.147,59.459-152.839,1.514-211.187C408.716,6.688,314.23,6.563,256.001,64.793z"/>
<path style="opacity:0.2;fill:#FFFFFF;enable-background:new    ;" d="M466.791,65.166c-20.86-21.006-46.419-34.481-73.309-40.428  c-12.516,13.593-20.167,31.734-20.167,51.668c0,42.144,34.165,76.309,76.309,76.309c21.401,0,40.732-8.821,54.589-23.012  C497.708,106.071,485.267,83.77,466.791,65.166z"/>
<path style="opacity:0.2;enable-background:new    ;" d="M238.344,438.266L61.578,261.5C5.783,205.704,2.329,116.266,53.335,57.571  c-2.778,2.413-5.49,4.943-8.125,7.595c-57.945,58.349-56.634,153.04,1.514,211.187L223.49,453.119  c17.955,17.954,47.065,17.954,65.02,0l14.854-14.854C285.41,456.22,256.299,456.22,238.344,438.266z"/>
<ellipse style="fill:#40BAB3;" cx="256.006" cy="224.424" rx="143.548" ry="79.767"/>
<g>
	<path style="fill:#394049;" d="M271.863,240.504c-6.075,0-11.629-2.267-15.863-5.999c-4.233,3.732-9.788,5.999-15.863,5.999   c-13.241,0-24.013-10.772-24.013-24.013c0-4.501,3.648-8.151,8.151-8.151s8.151,3.649,8.151,8.151c0,4.252,3.46,7.712,7.712,7.712   c4.252,0,7.713-3.459,7.713-7.712c0-4.501,3.648-8.151,8.151-8.151c4.502,0,8.151,3.649,8.151,8.151   c0,4.252,3.46,7.712,7.713,7.712c4.251,0,7.712-3.459,7.712-7.712c0-4.501,3.648-8.151,8.151-8.151   c4.502,0,8.151,3.649,8.151,8.151C295.876,229.732,285.104,240.504,271.863,240.504z"/>
	<path style="fill:#394049;" d="M173.814,223.68c-4.502,0-8.151-3.649-8.151-8.151c0-2.275-1.85-4.124-4.124-4.124   s-4.124,1.851-4.124,4.124c0,4.501-3.648,8.151-8.151,8.151s-8.151-3.649-8.151-8.151c0-11.263,9.163-20.425,20.425-20.425   c11.262,0,20.425,9.163,20.425,20.425C181.964,220.032,178.315,223.68,173.814,223.68z"/>
	<path style="fill:#394049;" d="M362.737,223.68c-4.502,0-8.151-3.649-8.151-8.151c0-2.275-1.85-4.124-4.124-4.124   c-2.275,0-4.124,1.851-4.124,4.124c0,4.501-3.648,8.151-8.151,8.151c-4.502,0-8.151-3.649-8.151-8.151   c0-11.263,9.163-20.425,20.425-20.425s20.425,9.163,20.425,20.425C370.888,220.032,367.24,223.68,362.737,223.68z"/>
</g>
<path style="opacity:0.2;enable-background:new    ;" d="M256.001,144.657c-56.878,0-106.026,18.382-129.262,45.039  c25.416-22.401,70.331-37.286,121.509-37.286c79.278,0,143.546,35.713,143.546,79.765c0,12.448-5.134,24.228-14.284,34.726  c13.955-12.3,22.037-26.864,22.037-42.479C399.547,180.37,335.279,144.657,256.001,144.657z"/>
<g>
	<path style="fill:#F0B0B7;" d="M175.056,252.95h-27.035c-4.502,0-8.151-3.649-8.151-8.151c0-4.501,3.648-8.151,8.151-8.151h27.035   c4.502,0,8.151,3.649,8.151,8.151C183.207,249.301,179.558,252.95,175.056,252.95z"/>
	<path style="fill:#F0B0B7;" d="M363.98,252.95h-27.035c-4.502,0-8.151-3.649-8.151-8.151c0-4.501,3.648-8.151,8.151-8.151h27.035   c4.502,0,8.151,3.649,8.151,8.151C372.131,249.301,368.483,252.95,363.98,252.95z"/>
</g>
<path style="opacity:0.2;fill:#FFFFFF;enable-background:new    ;" d="M131.586,22.46c-0.29,2.271-0.456,4.581-0.456,6.93  c0,29.926,24.259,54.184,54.184,54.184c23.34,0,43.231-14.758,50.855-35.451C205.151,26.341,167.678,17.788,131.586,22.46z"/>
<g>
	<path style="fill:#F3C74F;" d="M147.916,412.749c-22.411,0-43.27-8.778-57.328-24.148c-8.364-9.145-7.73-23.34,1.416-31.704   c9.145-8.366,23.34-7.73,31.704,1.415c5.564,6.084,14.37,9.556,24.202,9.556c0.12,0,0.238,0,0.359-0.001   c13.924-0.12,28.967-6.975,43.502-19.824c9.287-8.209,23.468-7.336,31.676,1.949c8.208,9.285,7.336,23.467-1.95,31.675   c-28.751,25.418-55.483,30.93-72.846,31.08C148.405,412.748,148.16,412.749,147.916,412.749z"/>
	<path style="fill:#F3C74F;" d="M364.086,412.749c-0.247,0-0.489-0.001-0.736-0.002c-17.363-0.149-44.095-5.661-72.845-31.08   c-9.285-8.208-10.157-22.39-1.95-31.675c8.21-9.284,22.391-10.158,31.675-1.949c14.535,12.85,29.578,19.705,43.502,19.824   c9.995,0.074,18.929-3.397,24.56-9.556c8.366-9.145,22.559-9.78,31.704-1.415c9.146,8.365,9.78,22.559,1.416,31.704   C407.357,403.97,386.495,412.749,364.086,412.749z"/>
</g>
<path style="fill:#892641;" d="M56.639,79.965c-12.11-12.11-31.759-12.084-43.837,0.078C0.751,92.177,1.023,111.87,13.117,123.962  l36.761,36.761c3.734,3.734,9.788,3.734,13.521,0l36.761-36.761c12.092-12.092,12.365-31.785,0.315-43.92  C88.398,67.881,68.748,67.856,56.639,79.965z"/>
<path style="opacity:0.1;fill:#FFFFFF;enable-background:new    ;" d="M100.475,80.042c-5.527-5.565-12.64-8.581-19.89-9.063  c-2.368,4.029-3.732,8.719-3.732,13.73c0,14.988,12.15,27.138,27.138,27.138c1.287,0,2.552-0.096,3.792-0.27  C111.319,100.842,108.948,88.575,100.475,80.042z"/>
<path style="opacity:0.2;enable-background:new    ;" d="M52.967,157.634l-36.761-36.761C4.602,109.269,3.884,90.67,14.491,78.463  c-0.578,0.502-1.142,1.028-1.69,1.58C0.751,92.177,1.023,111.87,13.117,123.962l36.761,36.761c3.734,3.734,9.788,3.734,13.521,0  l3.089-3.089C62.754,161.368,56.701,161.368,52.967,157.634z"/>
<path style="fill:#892641;" d="M449.625,9.063c-12.11-12.11-31.76-12.084-43.837,0.078c-12.051,12.135-11.778,31.828,0.315,43.92  l36.761,36.761c3.734,3.734,9.788,3.734,13.522,0l36.761-36.761c12.092-12.092,12.365-31.785,0.315-43.92  C481.384-3.021,461.734-3.047,449.625,9.063z"/>
<path style="opacity:0.1;fill:#FFFFFF;enable-background:new    ;" d="M493.461,9.141c-5.527-5.565-12.64-8.581-19.89-9.063  c-2.368,4.029-3.732,8.719-3.732,13.73c0,14.988,12.151,27.138,27.138,27.138c1.288,0,2.552-0.096,3.792-0.27  C504.307,29.94,501.934,17.673,493.461,9.141z"/>
<path style="opacity:0.2;enable-background:new    ;" d="M445.953,86.732l-36.761-36.761c-11.603-11.603-12.322-30.204-1.714-42.41  c-0.578,0.502-1.142,1.028-1.69,1.579c-12.051,12.135-11.778,31.828,0.315,43.92l36.761,36.761c3.734,3.734,9.788,3.734,13.522,0  l3.089-3.089C455.741,90.467,449.687,90.467,445.953,86.732z"/>
<path style="opacity:0.2;enable-background:new    ;" d="M123.706,358.313c-2.88-3.149-4.958-6.988-6.094-11.073l-38.415-38.415  c-2.156,4.123-3.875,8.521-5.115,13.146c12.134,11.973,39.601,32.955,50.573,37.488  C124.345,359.074,124.045,358.683,123.706,358.313z"/>
<g>
</g>
<g>
</g>
<g>
</g>
<g>
</g>
<g>
</g>
<g>
</g>
<g>
</g>
<g>
</g>
<g>
</g>
<g>
</g>
<g>
</g>
<g>
</g>
<g>
</g>
<g>
</g>
<g>
</g>
</svg>
