<?xml version="1.0" encoding="iso-8859-1"?>
<!-- Generator: Adobe Illustrator 19.0.0, SVG Export Plug-In . SVG Version: 6.00 Build 0)  -->
<svg xmlns="http://www.w3.org/2000/svg" xmlns:xlink="http://www.w3.org/1999/xlink" version="1.1" id="Layer_1" x="0px" y="0px" viewBox="0 0 512.002 512.002" style="enable-background:new 0 0 512.002 512.002;" xml:space="preserve">
<path style="fill:#F3C74F;" d="M383.675,274.384c-10.225,0-19.441-7.075-21.748-17.472c-2.668-12.023,4.914-23.932,16.937-26.601  c37.058-8.226,69.359-20.857,89.357-92.401c3.316-11.861,15.62-18.789,27.478-15.473c11.86,3.316,18.789,15.617,15.473,27.478  c-11.643,41.653-28.741,71.722-52.272,91.922c-22.695,19.481-48.309,27.115-70.371,32.012  C386.901,274.21,385.274,274.384,383.675,274.384z"/>
<circle style="fill:#0081C6;" cx="328.038" cy="87.205" r="51.214"/>
<g>
	<circle style="fill:#F3C74F;" cx="328.038" cy="87.205" r="23.91"/>
	<path style="fill:#F3C74F;" d="M314.085,493.134c-12.316,0-22.298-9.984-22.298-22.298v-92.245   c0-12.316,9.984-22.298,22.298-22.298s22.298,9.984,22.298,22.298v92.245C336.384,483.15,326.401,493.134,314.085,493.134z"/>
</g>
<path style="opacity:0.2;enable-background:new    ;" d="M314.085,356.291c-12.316,0-22.298,9.984-22.298,22.298v46.275  c16.317-5.208,31.284-12.809,44.598-22.323V378.59C336.384,366.275,326.401,356.291,314.085,356.291z"/>
<path style="fill:#F3C74F;" d="M218.201,493.134c-12.316,0-22.298-9.984-22.298-22.298v-84.439c0-12.316,9.984-22.298,22.298-22.298  c12.315,0,22.298,9.984,22.298,22.298v84.439C240.5,483.15,230.516,493.134,218.201,493.134z"/>
<path style="opacity:0.2;enable-background:new    ;" d="M218.201,364.097c-12.316,0-22.298,9.984-22.298,22.298v39.277  c14.293,4.339,29.29,6.711,44.598,6.9v-46.177C240.5,374.079,230.516,364.097,218.201,364.097z"/>
<path style="fill:#40BAB3;" d="M398.796,214.143C377.02,128.251,274.043,22.669,189.666,44.06  C105.29,65.452,65.054,207.343,86.83,293.235s109.265,137.816,195.411,115.976C368.388,387.371,420.571,300.036,398.796,214.143z"/>
<g>
	<path style="fill:#F0B0B7;" d="M159.192,255.339c-3.689,0-7.051-2.491-7.999-6.232c-1.122-4.421,1.554-8.914,5.976-10.035   l26.039-6.602c4.42-1.118,8.915,1.555,10.034,5.976c1.122,4.421-1.554,8.914-5.976,10.035l-26.039,6.602   C160.548,255.257,159.865,255.339,159.192,255.339z"/>
	<path style="fill:#F0B0B7;" d="M341.168,209.204c-3.69,0-7.051-2.491-7.999-6.232c-1.121-4.421,1.554-8.914,5.976-10.035   l26.039-6.602c4.419-1.12,8.915,1.555,10.034,5.976c1.122,4.421-1.554,8.914-5.976,10.035l-26.039,6.602   C342.523,209.121,341.841,209.204,341.168,209.204z"/>
</g>
<path style="fill:#FFFFFF;" d="M96.689,321.092c31.759,68.862,109.179,107.481,185.553,88.118  c76.374-19.363,126.043-90.203,121.158-165.878L96.689,321.092z"/>
<path style="fill:#0081C6;" d="M140.4,377.591c38.152,31.307,90.234,44.705,141.842,31.62  c51.608-13.083,91.016-49.675,109.644-95.379L140.4,377.591z"/>
<path style="opacity:0.2;enable-background:new    ;" d="M294.589,388.477c-86.147,21.84-173.636-30.084-195.412-115.976  c-13.11-51.709-3.734-123.707,24.208-177.497c-37.346,54.672-51.437,139.526-36.555,198.23  c21.776,85.892,109.265,137.816,195.411,115.976c47.364-12.008,84.456-43.817,104.639-84.297  C365.513,355.359,333.521,378.607,294.589,388.477z"/>
<path style="fill:#A0C6E6;" d="M420.995,53.079c-1.798,0-3.609-0.585-5.127-1.789L393.57,33.597  c-3.573-2.836-4.172-8.03-1.337-11.603c2.835-3.572,8.029-4.171,11.602-1.337l22.298,17.692c3.573,2.836,4.172,8.03,1.337,11.603  C425.839,52.007,423.429,53.079,420.995,53.079z"/>
<path style="fill:#0081C6;" d="M403.744,166.581c-2.314,0-4.613-0.966-6.246-2.852c-2.986-3.448-2.612-8.664,0.836-11.651  l12.222-10.585c3.448-2.986,8.663-2.612,11.651,0.836c2.985,3.448,2.611,8.664-0.837,11.65l-12.222,10.585  C407.585,165.918,405.66,166.581,403.744,166.581z"/>
<path style="fill:#F3C74F;" d="M394.681,126.616c-3.641,0-6.973-2.425-7.967-6.107c-1.189-4.404,1.416-8.937,5.82-10.127  l13.379-3.613c4.398-1.189,8.935,1.416,10.126,5.82c1.189,4.404-1.416,8.937-5.82,10.127l-13.379,3.613  C396.119,126.523,395.394,126.616,394.681,126.616z"/>
<g>
	<path style="fill:#394049;" d="M163.612,218.114c-3.689,0-7.05-2.491-7.999-6.231l-1.082-4.269   c-1.122-4.421,1.554-8.914,5.975-10.036c4.419-1.119,8.914,1.555,10.035,5.975l1.082,4.269c1.122,4.421-1.554,8.914-5.975,10.036   C164.968,218.032,164.284,218.114,163.612,218.114z"/>
	<path style="fill:#394049;" d="M345.587,171.978c-3.69,0-7.051-2.492-8-6.233l-1.082-4.269c-1.12-4.422,1.556-8.914,5.978-10.034   c4.419-1.118,8.914,1.555,10.034,5.977l1.081,4.27c1.121,4.422-1.556,8.914-5.978,10.035   C346.941,171.895,346.26,171.978,345.587,171.978z"/>
	<path style="fill:#394049;" d="M240.972,221.347c-4.273,0-8.481-1.149-12.248-3.392c-5.514-3.284-9.418-8.517-10.994-14.736   c-1.121-4.421,1.555-8.914,5.977-10.035c4.418-1.12,8.915,1.555,10.035,5.976c0.491,1.943,1.711,3.577,3.434,4.602   c1.721,1.026,3.739,1.318,5.681,0.827c4.012-1.016,6.446-5.106,5.43-9.117c-0.172-0.683-0.254-1.367-0.254-2.039   c0.002-3.689,2.493-7.048,6.232-7.996c4.421-1.119,8.915,1.555,10.035,5.976c0.491,1.943,1.711,3.577,3.434,4.602   c1.721,1.024,3.735,1.319,5.683,0.826c4.011-1.016,6.446-5.107,5.429-9.118c-1.121-4.421,1.555-8.914,5.977-10.035   c4.42-1.118,8.915,1.555,10.035,5.976c3.254,12.839-4.544,25.932-17.383,29.187c-5.68,1.44-11.563,0.781-16.738-1.845   c-3.188,4.598-7.983,8.111-13.82,9.592C244.949,221.101,242.953,221.347,240.972,221.347z"/>
</g>
<path style="fill:#0081C6;" d="M137.561,133.829c0.286,1.002,0.42,2.052,0.413,3.094c-0.097,13.73-3.484,23.97-9.945,34.82  c-6.433,10.803-13.481,18.295-25.55,24.984c-1.031,0.572-2.143,1.005-3.294,1.255c-27.493,5.982-54.98-11.424-60.955-39.408  c-5.546-25.977,10.105-52.259,35.587-59.759C101.333,90.717,129.802,106.689,137.561,133.829z"/>
<circle style="fill:#F3C74F;" cx="88.328" cy="147.937" r="23.91"/>
<path style="opacity:0.2;enable-background:new    ;" d="M111.29,181.931c-1.031,0.572-2.143,1.004-3.294,1.255  c-27.493,5.982-54.98-11.424-60.955-39.408c-2.134-9.998-1.119-20.036,2.379-29.037c-9.985,11.767-14.602,27.855-11.19,43.835  c5.974,27.984,33.462,45.389,60.955,39.408c1.152-0.25,2.263-0.684,3.294-1.255c12.069-6.689,19.117-14.182,25.55-24.984  c1.515-2.545,2.855-5.057,4.029-7.587C126.748,171.281,120.474,176.841,111.29,181.931z"/>
<path style="fill:#F3C74F;" d="M104.019,344.928c-24.05,0-46.908-8.549-65.212-24.567c-23.654-20.697-37.43-51.749-38.79-87.435  c-0.469-12.306,9.127-22.663,21.433-23.132c12.324-0.472,22.663,9.127,23.132,21.433c0.889,23.299,9.267,43.035,23.593,55.571  c11.437,10.008,26.126,14.712,41.362,13.268c12.275-1.171,23.146,7.823,24.314,20.083c1.168,12.26-7.824,23.145-20.083,24.312  C110.503,344.774,107.25,344.928,104.019,344.928z"/>
<path style="fill:#5F666F;" d="M496.223,153.71l-49.457,8.664c-3.587,0.629-7.004-1.77-7.632-5.356l-14.55-83.054  c-0.629-3.587,1.77-7.004,5.356-7.632l49.456-8.664c3.587-0.629,7.004,1.77,7.632,5.356l14.55,83.054  C502.208,149.664,499.81,153.081,496.223,153.71z"/>
<circle style="fill:#FFFFFF;" cx="468.464" cy="80.686" r="8.343"/>
<rect x="458.198" y="97.647" transform="matrix(-0.1725 -0.985 0.985 -0.1725 419.5159 611.1218)" style="fill:#394049;" width="16.518" height="63.396"/>
<path style="opacity:0.2;enable-background:new    ;" d="M500.714,147.311l-49.457,8.664c-3.587,0.629-7.004-1.77-7.632-5.356  l-14.55-83.054c-0.057-0.33-0.082-0.657-0.089-0.983c-3.044,1.016-4.972,4.126-4.402,7.382l14.55,83.054  c0.629,3.587,4.046,5.985,7.632,5.357l49.457-8.664c3.256-0.57,5.525-3.441,5.447-6.649  C501.36,147.163,501.044,147.253,500.714,147.311z"/>
<path style="opacity:0.2;fill:#FFFFFF;enable-background:new    ;" d="M479.397,57.667l-17.098,2.995  c-0.918,2.901-1.185,6.056-0.623,9.26c1.864,10.64,12,17.754,22.64,15.89c2.287-0.401,4.398-1.203,6.306-2.291l-3.591-20.498  C486.401,59.437,482.984,57.039,479.397,57.667z"/>
<g>
</g>
<g>
</g>
<g>
</g>
<g>
</g>
<g>
</g>
<g>
</g>
<g>
</g>
<g>
</g>
<g>
</g>
<g>
</g>
<g>
</g>
<g>
</g>
<g>
</g>
<g>
</g>
<g>
</g>
</svg>
