<?xml version="1.0" encoding="iso-8859-1"?>
<!-- Generator: Adobe Illustrator 19.0.0, SVG Export Plug-In . SVG Version: 6.00 Build 0)  -->
<svg xmlns="http://www.w3.org/2000/svg" xmlns:xlink="http://www.w3.org/1999/xlink" version="1.1" id="Layer_1" x="0px" y="0px" viewBox="0 0 512 512" style="enable-background:new 0 0 512 512;" xml:space="preserve">
<g>
	<path style="fill:#F3C74F;" d="M440.558,392.83c-3.936,0-7.922-1.061-11.515-3.286c-10.283-6.371-13.454-19.871-7.085-30.155   c4.826-7.79,2.704-15.767,1.011-19.829c-2.963-7.105-8.968-12.802-14.938-14.173c-11.79-2.709-19.151-14.463-16.442-26.252   c2.709-11.789,14.466-19.149,26.251-16.441c19.697,4.526,37.154,19.855,45.558,40.004c8.393,20.123,6.862,41.905-4.201,59.762   C455.052,389.15,447.89,392.83,440.558,392.83z"/>
	<path style="fill:#F3C74F;" d="M322.408,512c-12.097,0-21.903-9.806-21.903-21.903v-82.941c0-12.097,9.806-21.903,21.903-21.903   c12.097,0,21.903,9.806,21.903,21.903v82.941C344.311,502.194,334.505,512,322.408,512z"/>
</g>
<path style="opacity:0.2;enable-background:new    ;" d="M322.408,385.253c-12.097,0-21.903,9.806-21.903,21.903v45.936  c15.466-2.47,30.183-7.171,43.805-13.772v-32.165C344.311,395.059,334.505,385.253,322.408,385.253z"/>
<path style="fill:#F3C74F;" d="M228.225,512c-12.097,0-21.903-9.806-21.903-21.903v-82.941c0-12.097,9.806-21.903,21.903-21.903  s21.903,9.806,21.903,21.903v82.941C250.128,502.194,240.322,512,228.225,512z"/>
<path style="opacity:0.2;enable-background:new    ;" d="M228.225,385.253c-12.097,0-21.903,9.806-21.903,21.903v32.165  c13.623,6.601,28.339,11.302,43.805,13.772v-45.936C250.128,395.059,240.322,385.253,228.225,385.253z"/>
<g>
	<path style="fill:#F3C74F;" d="M56.175,239.642c-4.473,0-8.1-3.627-8.1-8.1v-29.859c0-4.473,3.627-8.1,8.1-8.1s8.1,3.627,8.1,8.1   v29.858C64.275,236.015,60.65,239.642,56.175,239.642z"/>
	<path style="fill:#F3C74F;" d="M122.919,329.071c-20.452,0-39.562-6.799-54.292-19.888c-20.826-18.504-29.596-47.025-23.459-76.291   c2.483-11.84,14.094-19.425,25.931-16.942c11.84,2.482,19.425,14.092,16.942,25.931c-2.958,14.108,0.481,26.38,9.682,34.557   c10.358,9.203,26.504,11.347,43.191,5.731c11.467-3.859,23.887,2.309,27.744,13.774c3.858,11.465-2.309,23.887-13.774,27.744   C144.149,327.299,133.359,329.07,122.919,329.071z"/>
</g>
<path style="opacity:0.2;enable-background:new    ;" d="M168.658,295.942c-3.858-11.465-16.277-17.633-27.744-13.774  c-14.988,5.043-29.524,3.809-39.838-3.16c-0.025,1.143-0.044,2.283-0.044,3.413c0,15.764,2.333,30.983,6.653,45.346  c4.959,0.865,10.053,1.305,15.234,1.305c10.44,0,21.231-1.772,31.965-5.385C166.349,319.829,172.516,307.408,168.658,295.942z"/>
<circle style="fill:#0081C6;" cx="396.649" cy="139.726" r="50.305"/>
<circle style="fill:#F3C74F;" cx="396.649" cy="139.726" r="23.486"/>
<circle style="fill:#0081C6;" cx="153.981" cy="139.726" r="50.305"/>
<circle style="fill:#F3C74F;" cx="153.981" cy="139.726" r="23.486"/>
<path style="opacity:0.2;enable-background:new    ;" d="M183.723,99.161c-23.652,21.376-43.713,50.803-57.963,82.211  c8.048,5.466,17.762,8.661,28.225,8.661c27.783,0,50.305-22.523,50.305-50.305C204.29,123.074,196.192,108.316,183.723,99.161z"/>
<path style="fill:#40BAB3;" d="M433.378,277.676c0-87.036-72.561-212.422-158.061-212.422S117.255,190.639,117.255,277.676  S188.022,435.27,275.316,435.27S433.378,364.712,433.378,277.676z"/>
<g>
	<path style="fill:#F0B0B7;" d="M196.31,259.297h-26.387c-4.473,0-8.1-3.627-8.1-8.1s3.627-8.1,8.1-8.1h26.387   c4.473,0,8.1,3.627,8.1,8.1S200.784,259.297,196.31,259.297z"/>
	<path style="fill:#F0B0B7;" d="M380.71,259.297h-26.388c-4.474,0-8.1-3.627-8.1-8.1s3.625-8.1,8.1-8.1h26.388   c4.474,0,8.1,3.627,8.1,8.1S385.184,259.297,380.71,259.297z"/>
</g>
<path style="fill:#FFFFFF;" d="M119.918,306.579c13.616,73.231,78.007,128.691,155.399,128.691  c77.391,0,141.783-55.459,155.399-128.691L119.918,306.579L119.918,306.579z"/>
<path style="fill:#0081C6;" d="M147.899,370.924c28.768,39.018,75.122,64.345,127.418,64.345s98.65-25.327,127.418-64.345H147.899z"/>
<path style="opacity:0.2;enable-background:new    ;" d="M292.077,418.509c-87.295,0-158.061-70.557-158.061-157.594  c0-52.399,26.306-118.686,65.894-163.155c-48.755,43.04-82.655,120.43-82.655,179.917c0,87.036,70.767,157.594,158.061,157.594  c47.996,0,90.989-21.334,119.978-55.003C367.601,404.095,331.528,418.509,292.077,418.509z"/>
<path style="fill:#394049;" d="M338.521,0H212.112c-7.775,0-14.077,6.303-14.077,14.077v75.346h154.562V14.077  C352.598,6.303,346.296,0,338.521,0z"/>
<rect x="198.033" y="56.099" style="fill:#E6595A;" width="154.564" height="33.326"/>
<path style="fill:#394049;" d="M379.672,109.867H170.96c-5.645,0-10.222-4.576-10.222-10.222l0,0  c0-5.645,4.577-10.222,10.222-10.222h208.712c5.645,0,10.222,4.577,10.222,10.222l0,0  C389.894,105.29,385.318,109.867,379.672,109.867z"/>
<g>
	<path style="fill:#A0C6E6;" d="M343.265,358.387c-4.474,0-8.1-3.627-8.1-8.1v-28.468c0-4.473,3.625-8.1,8.1-8.1s8.1,3.627,8.1,8.1   v28.468C351.365,354.762,347.74,358.387,343.265,358.387z"/>
	<path style="fill:#A0C6E6;" d="M367.517,301.052c0,13.686-11.339,24.726-25.135,24.234c-13.141-0.468-23.366-11.667-23.366-24.816   v-21.335c0-2.527,2.048-4.575,4.575-4.575h39.352c2.527,0,4.575,2.049,4.575,4.575V301.052z"/>
</g>
<path style="fill:#892641;" d="M367.517,301.052c0,13.686-11.339,24.726-25.135,24.234c-13.141-0.468-23.366-11.667-23.366-24.816  L367.517,301.052z"/>
<path style="opacity:0.2;fill:#FFFFFF;enable-background:new    ;" d="M362.941,274.56H351.82  c-3.357,3.367-5.432,8.011-5.432,13.142c0,10.282,8.335,18.617,18.617,18.617c0.661,0,1.313-0.037,1.956-0.104  c0.361-1.664,0.555-3.391,0.555-5.164v-21.916C367.517,276.609,365.468,274.56,362.941,274.56z"/>
<path style="fill:#F3C74F;" d="M409.98,407.437c-24.723,0-50.894-12.095-71.41-33.333c-8.404-8.7-8.165-22.566,0.536-30.97  c8.698-8.403,22.564-8.166,30.971,0.536c15.774,16.329,33.056,20.871,43.07,19.798c2.515-0.27,7.005-1.158,8.814-4.078  c6.371-10.283,19.872-13.454,30.155-7.083c10.283,6.371,13.455,19.871,7.085,30.155c-8.614,13.903-23.311,22.627-41.386,24.563  C415.223,407.3,412.61,407.437,409.98,407.437z"/>
<path style="opacity:0.2;enable-background:new    ;" d="M211.955,81.758c-2.96,0-5.36-2.4-5.36-5.36V6.412  c0-2.048,0.447-3.987,1.233-5.742c-5.678,1.813-9.792,7.129-9.792,13.408v75.346h154.562v-7.666H211.955z"/>
<path style="fill:#394049;" d="M117.348,280.375c-4.473,0-8.1-3.627-8.1-8.1s3.627-8.1,8.1-8.1c0.373,0,3.82-0.284,9.986-10.119  c4.714-7.518,8.926-17.197,12.642-25.738c4.597-10.566,7.143-16.226,10.305-19.389c3.163-3.162,8.291-3.162,11.455,0  c3.146,3.146,3.162,8.236,0.051,11.402c-1.386,1.643-4.604,9.04-6.956,14.448C145.992,255.094,134.993,280.375,117.348,280.375z"/>
<path style="fill:#60523F;" d="M183.116,249.867c-19.415,0-35.209-15.794-35.209-35.209s15.794-35.209,35.209-35.209  s35.209,15.794,35.209,35.209S202.531,249.867,183.116,249.867z M183.116,195.648c-10.482,0-19.01,8.527-19.01,19.01  c0,10.482,8.527,19.01,19.01,19.01c10.482,0,19.01-8.527,19.01-19.01C202.126,204.176,193.599,195.648,183.116,195.648z"/>
<g>
	<path style="fill:#394049;" d="M183.116,224.921c-4.473,0-8.1-3.627-8.1-8.1v-4.326c0-4.473,3.627-8.1,8.1-8.1s8.1,3.627,8.1,8.1   v4.326C191.216,221.294,187.59,224.921,183.116,224.921z"/>
	<path style="fill:#394049;" d="M367.517,224.921c-4.474,0-8.1-3.627-8.1-8.1v-4.326c0-4.473,3.625-8.1,8.1-8.1s8.1,3.627,8.1,8.1   v4.326C375.617,221.294,371.99,224.921,367.517,224.921z"/>
	<path style="fill:#394049;" d="M290.799,251.53c-5.92,0-11.336-2.192-15.482-5.808c-4.146,3.616-9.562,5.808-15.482,5.808   c-13.004,0-23.582-10.579-23.582-23.582c0-4.473,3.627-8.1,8.1-8.1s8.1,3.627,8.1,8.1c0,4.071,3.312,7.383,7.383,7.383   s7.383-3.312,7.383-7.383c0-4.473,3.625-8.1,8.1-8.1s8.1,3.627,8.1,8.1c0,4.071,3.311,7.383,7.383,7.383s7.383-3.312,7.383-7.383   c0-4.473,3.625-8.1,8.1-8.1c4.474,0,8.1,3.627,8.1,8.1C314.381,240.951,303.801,251.53,290.799,251.53z"/>
	<path style="fill:#394049;" d="M224.626,225.257c-1.958,0-3.922-0.706-5.479-2.135c-3.294-3.027-3.51-8.15-0.484-11.444   c7.446-8.102,18.027-12.749,29.031-12.749h14.191c4.474,0,8.1,3.627,8.1,8.1c0,4.473-3.625,8.1-8.1,8.1h-14.191   c-6.483,0-12.715,2.738-17.102,7.511C228.994,224.375,226.814,225.257,224.626,225.257z"/>
	<path style="fill:#394049;" d="M326.007,225.257c-2.188,0-4.37-0.881-5.966-2.62c-4.385-4.772-10.618-7.51-17.101-7.51h-14.191   c-4.474,0-8.1-3.627-8.1-8.1c0-4.473,3.625-8.1,8.1-8.1h14.191c11.004,0,21.584,4.647,29.029,12.75   c3.027,3.294,2.81,8.417-0.484,11.444C329.929,224.55,327.964,225.257,326.007,225.257z"/>
</g>
<g>
</g>
<g>
</g>
<g>
</g>
<g>
</g>
<g>
</g>
<g>
</g>
<g>
</g>
<g>
</g>
<g>
</g>
<g>
</g>
<g>
</g>
<g>
</g>
<g>
</g>
<g>
</g>
<g>
</g>
</svg>
