<?xml version="1.0" encoding="iso-8859-1"?>
<!-- Generator: Adobe Illustrator 19.0.0, SVG Export Plug-In . SVG Version: 6.00 Build 0)  -->
<svg xmlns="http://www.w3.org/2000/svg" xmlns:xlink="http://www.w3.org/1999/xlink" version="1.1" id="Layer_1" x="0px" y="0px" viewBox="0 0 512 512" style="enable-background:new 0 0 512 512;" xml:space="preserve">
<path style="fill:#F3C74F;" d="M107.53,413.487c-5.178,0-10.317-2.208-13.898-6.491c-11.046-13.209-14.649-32.995-9.177-50.407  c5.999-19.094,21.205-32.846,42.815-38.722c9.647-2.624,19.598,3.071,22.222,12.72c2.623,9.649-3.071,19.598-12.721,22.222  c-9.422,2.562-15.567,7.622-17.77,14.634c-2.015,6.415-0.313,13.068,2.41,16.323c6.415,7.671,5.397,19.089-2.274,25.505  C115.747,412.104,111.626,413.487,107.53,413.487z"/>
<path style="opacity:0.2;enable-background:new    ;" d="M149.49,330.587c-2.625-9.649-12.575-15.345-22.222-12.721  c-7.905,2.15-14.942,5.363-20.995,9.495c0.145,2.013,0.325,4.005,0.554,5.963c1.66,14.199,5.56,27.592,11.293,39.878  c0.007-1.876,0.271-3.828,0.877-5.76c2.203-7.012,8.348-12.072,17.77-14.634C146.419,350.185,152.114,340.237,149.49,330.587z"/>
<path style="fill:#F3C74F;" d="M284.051,512c-9.999,0-18.106-8.106-18.106-18.105v-68.562c0-9.999,8.106-18.106,18.106-18.106  c9.999,0,18.105,8.106,18.105,18.106v68.562C302.157,503.894,294.05,512,284.051,512z"/>
<path style="opacity:0.2;enable-background:new    ;" d="M284.051,407.226c-9.999,0-18.106,8.106-18.106,18.106v37.973  c12.784-2.041,24.951-5.928,36.212-11.384v-26.588C302.157,415.332,294.05,407.226,284.051,407.226z"/>
<path style="fill:#F3C74F;" d="M206.196,512c-9.999,0-18.105-8.106-18.105-18.105v-68.562c0-9.999,8.106-18.106,18.105-18.106  c9.999,0,18.106,8.106,18.106,18.106v68.562C224.301,503.894,216.196,512,206.196,512z"/>
<path style="opacity:0.2;enable-background:new    ;" d="M206.196,407.226c-9.999,0-18.105,8.106-18.105,18.106v26.588  c11.261,5.456,23.427,9.343,36.212,11.384v-37.973C224.301,415.332,216.196,407.226,206.196,407.226z"/>
<circle style="fill:#0081C6;" cx="334.124" cy="193.231" r="41.581"/>
<circle style="fill:#F3C74F;" cx="334.124" cy="193.231" r="19.414"/>
<circle style="fill:#0081C6;" cx="134.895" cy="216.538" r="41.581"/>
<circle style="fill:#F3C74F;" cx="134.895" cy="216.538" r="19.414"/>
<path style="opacity:0.2;enable-background:new    ;" d="M155.41,180.373c-17.367,19.822-31.011,45.909-39.694,73.066  c7.133,3.715,15.416,5.405,24.005,4.401c22.811-2.668,39.14-23.323,36.472-46.134C174.593,198.032,166.526,186.693,155.41,180.373z"/>
<path style="fill:#F3C74F;" d="M357.892,350.332c-9.999,0-18.106-8.106-18.106-18.106s8.106-18.105,18.106-18.105  c20.361,0,34.076-9.511,35.791-24.821c2.334-20.828-17.214-34.993-36.363-39.338c-9.751-2.212-15.862-11.913-13.65-21.664  s11.909-15.866,21.664-13.65c21.244,4.821,38.617,15.287,50.24,30.267c10.999,14.177,16.006,31.371,14.096,48.417  C426.491,321.703,403.064,350.332,357.892,350.332z"/>
<path style="fill:#40BAB3;" d="M377.531,302.965c-8.358-71.461-79.976-167.439-150.175-159.228S109.623,261.864,117.981,333.325  s73.238,122.595,144.91,114.211C334.564,439.152,385.891,374.426,377.531,302.965z"/>
<g>
	<path style="fill:#F0B0B7;" d="M158.671,314.661c-4.07,0-7.584-3.049-8.069-7.189c-0.523-4.462,2.672-8.502,7.134-9.024   l21.666-2.535c4.468-0.521,8.503,2.672,9.024,7.134c0.522,4.462-2.672,8.502-7.134,9.024l-21.666,2.535   C159.305,314.644,158.985,314.661,158.671,314.661z"/>
	<path style="fill:#F0B0B7;" d="M310.071,296.952c-4.07,0-7.584-3.049-8.069-7.189c-0.522-4.462,2.672-8.502,7.134-9.023   l21.666-2.533c4.466-0.522,8.502,2.672,9.023,7.134s-2.672,8.502-7.134,9.023l-21.666,2.533   C310.704,296.934,310.385,296.952,310.071,296.952z"/>
</g>
<path style="fill:#FFFFFF;" d="M122.943,356.8c18.213,58.819,76.407,98.169,139.948,90.736s111.083-59.152,115.23-120.585  L122.943,356.8z"/>
<path style="fill:#0081C6;" d="M152.096,406.943c27.367,29.273,67.858,45.616,110.795,40.593  c42.937-5.022,78.564-30.269,98.436-65.068L152.096,406.943z"/>
<path style="opacity:0.2;enable-background:new    ;" d="M275.044,432.165c-71.673,8.383-136.552-42.75-144.91-114.211  c-5.032-43.021,10.2-99.972,38.433-140.287c-35.897,40.019-56.297,106.816-50.584,155.658  c8.359,71.461,73.238,122.595,144.91,114.211c39.407-4.609,72.657-26.254,93.224-56.682  C335.667,413.079,307.434,428.376,275.044,432.165z"/>
<g>
	<path style="fill:#394049;" d="M166.202,285.171c-4.07,0-7.584-3.049-8.069-7.189l-0.415-3.553   c-0.522-4.462,2.671-8.502,7.134-9.024c4.469-0.524,8.503,2.672,9.024,7.134l0.415,3.553c0.522,4.462-2.671,8.502-7.134,9.024   C166.836,285.152,166.517,285.171,166.202,285.171z"/>
	<path style="fill:#394049;" d="M317.602,267.46c-4.069,0-7.584-3.049-8.069-7.189l-0.415-3.552   c-0.523-4.462,2.671-8.502,7.134-9.024c4.461-0.516,8.503,2.671,9.024,7.134l0.415,3.552c0.522,4.462-2.671,8.502-7.134,9.024   C318.236,267.442,317.917,267.46,317.602,267.46z"/>
	<path style="fill:#394049;" d="M229.807,296.142c-4.686,0-9.208-1.563-12.94-4.515c-4.386-3.467-7.16-8.436-7.809-13.988   c-0.522-4.462,2.672-8.502,7.134-9.023c4.469-0.521,8.503,2.672,9.023,7.134c0.144,1.237,0.762,2.345,1.74,3.116   c0.978,0.773,2.199,1.117,3.435,0.974c1.237-0.144,2.345-0.762,3.117-1.74s1.118-2.197,0.974-3.435   c-0.038-0.322-0.056-0.643-0.055-0.96c0.002-4.068,3.05-7.58,7.189-8.065c4.467-0.517,8.503,2.672,9.024,7.134   c0.299,2.554,2.62,4.386,5.175,4.092c2.554-0.298,4.389-2.621,4.091-5.175c-0.522-4.462,2.672-8.502,7.134-9.023   c4.469-0.521,8.503,2.672,9.023,7.134c1.34,11.464-6.895,21.882-18.359,23.223c-4.777,0.56-9.377-0.547-13.211-2.857   c-3.297,3.241-7.548,5.285-12.213,5.829C231.452,296.094,230.626,296.142,229.807,296.142z"/>
	<path style="fill:#394049;" d="M313.819,246.041c-5.854,0-11.529-2.447-15.567-6.713c-3.089-3.262-2.948-8.411,0.315-11.499   c3.263-3.09,8.412-2.948,11.499,0.315c0.576,0.608,1.831,1.629,3.755,1.629s3.178-1.021,3.754-1.629   c3.088-3.262,8.235-3.404,11.499-0.316c3.262,3.088,3.404,8.236,0.316,11.499C325.349,243.594,319.674,246.041,313.819,246.041z"/>
	<path style="fill:#394049;" d="M166.004,270.43c-5.854,0-11.529-2.447-15.567-6.713c-3.089-3.262-2.948-8.411,0.314-11.498   c3.263-3.09,8.412-2.948,11.498,0.314c0.576,0.608,1.83,1.629,3.755,1.629c1.924,0,3.178-1.021,3.754-1.629   c3.088-3.261,8.236-3.404,11.498-0.314c3.262,3.089,3.403,8.236,0.314,11.498C177.533,267.983,171.859,270.43,166.004,270.43z"/>
</g>
<path style="fill:#F3C74F;" d="M131.81,424.967c-14.827,0-28.443-6.328-38.18-17.971c-6.415-7.671-5.397-19.09,2.274-25.505  c7.672-6.415,19.09-5.397,25.505,2.274c3.392,4.057,7.493,5.585,12.902,4.804c11.388-1.641,27.299-13.462,37.178-36.174  c3.989-9.17,14.654-13.37,23.825-9.381c9.17,3.989,13.37,14.655,9.381,23.825c-13.789,31.702-38.78,53.763-65.22,57.572  C136.893,424.784,134.334,424.967,131.81,424.967z"/>
<path style="fill:#DEDFDF;" d="M256,0c-72.214,0-130.755,3.82-130.755,59.351c0,52.482,52.29,58.774,118.99,59.308l9.375,15.811  c1.075,1.812,3.698,1.812,4.772,0l9.375-15.811c66.704-0.533,118.997-6.824,118.997-59.308C386.754,3.82,328.214,0,256,0z"/>
<path style="opacity:0.1;enable-background:new    ;" d="M256.277,131.316l-9.734-18.637c-66.7-0.533-115.573-6.355-115.573-58.837  c0-14.556,4.028-25.554,11.264-33.867c-10.81,8.766-16.988,21.343-16.988,39.375c0,52.482,52.29,58.774,118.99,59.308l9.375,15.811  c1.075,1.812,3.698,1.812,4.772,0l1.158-1.953C258.371,132.904,256.988,132.516,256.277,131.316z"/>
<g>
	<circle style="fill:#7E858B;" cx="256.005" cy="59.183" r="14.874"/>
	<circle style="fill:#7E858B;" cx="189.989" cy="59.183" r="14.874"/>
	<circle style="fill:#7E858B;" cx="322.02" cy="59.183" r="14.874"/>
</g>
<g>
</g>
<g>
</g>
<g>
</g>
<g>
</g>
<g>
</g>
<g>
</g>
<g>
</g>
<g>
</g>
<g>
</g>
<g>
</g>
<g>
</g>
<g>
</g>
<g>
</g>
<g>
</g>
<g>
</g>
</svg>
