<?xml version="1.0" encoding="iso-8859-1"?>
<!-- Generator: Adobe Illustrator 19.0.0, SVG Export Plug-In . SVG Version: 6.00 Build 0)  -->
<svg xmlns="http://www.w3.org/2000/svg" xmlns:xlink="http://www.w3.org/1999/xlink" version="1.1" id="Layer_1" x="0px" y="0px" viewBox="0 0 512 512" style="enable-background:new 0 0 512 512;" xml:space="preserve">
<path style="fill:#F3C74F;" d="M302.373,481.846c-11.938,0-21.615-9.677-21.615-21.615v-81.852c0-11.938,9.677-21.615,21.615-21.615  c11.938,0,21.615,9.677,21.615,21.615v81.852C323.988,472.169,314.311,481.846,302.373,481.846z"/>
<path style="opacity:0.1;fill:#25292F;enable-background:new    ;" d="M302.373,356.763c-11.938,0-21.615,9.677-21.615,21.615  v70.219l13.913,8.578c8.809,5.43,19.926,5.43,28.734,0l0.584-0.359v-78.436C323.988,366.44,314.311,356.763,302.373,356.763z"/>
<path style="fill:#F3C74F;" d="M209.428,481.846c-11.938,0-21.615-9.677-21.615-21.615v-81.852c0-11.938,9.677-21.615,21.615-21.615  c11.938,0,21.615,9.677,21.615,21.615v81.852C231.043,472.169,221.365,481.846,209.428,481.846z"/>
<path style="opacity:0.1;fill:#25292F;enable-background:new    ;" d="M209.428,356.763c-11.938,0-21.615,9.677-21.615,21.615  v78.436l0.584,0.359c8.809,5.43,19.926,5.43,28.734,0l13.913-8.578v-70.219C231.043,366.44,221.365,356.763,209.428,356.763z"/>
<circle style="fill:#0081C6;" cx="375.634" cy="114.46" r="49.644"/>
<circle style="fill:#F3C74F;" cx="375.634" cy="114.46" r="23.178"/>
<circle style="fill:#0081C6;" cx="136.159" cy="114.46" r="49.644"/>
<circle style="fill:#F3C74F;" cx="136.159" cy="114.46" r="23.178"/>
<path style="opacity:0.2;fill:#25292F;enable-background:new    ;" d="M154.908,68.489c-9.36,9.575-18.279,20.492-26.462,32.476  c-10.443,15.296-19.487,31.98-26.839,49.125c8.938,8.669,21.117,14.015,34.552,14.015c27.418,0,49.644-22.227,49.644-49.644  C185.806,93.677,173.031,75.888,154.908,68.489z"/>
<path style="fill:#D1E8E1;" d="M494.058,187.726c-16.019-8-35.492-1.501-43.494,14.518c-3.262,6.53-12.46,22.581-28.497,33.799  c-3.434-41.666-21.011-89.613-47.605-128.568c-15.494-22.695-33.618-41.61-52.414-54.704  c-21.542-15.007-43.798-22.616-66.148-22.616c-22.35,0-44.605,7.609-66.148,22.616c-18.796,13.094-36.92,32.01-52.414,54.704  c-26.594,38.954-44.171,86.902-47.605,128.569c-16.038-11.218-25.236-27.27-28.498-33.8c-8.056-16.128-27.737-22.606-43.817-14.355  C1.46,196.081-4.496,215.97,3.605,231.976c10.647,21.041,25.731,39.439,43.661,53.246c12.446,9.584,26.127,16.786,40.511,21.415  c5.223,1.681,8.711,6.616,8.711,12.103v115.448c0,9.427,10.341,15.201,18.367,10.254l20.404-12.579c8.809-5.43,19.926-5.43,28.733,0  l24.404,15.044c8.809,5.43,19.926,5.43,28.734,0l24.404-15.044c8.809-5.43,19.926-5.43,28.734,0l24.404,15.044  c8.809,5.43,19.926,5.43,28.734,0l24.404-15.044c8.809-5.429,19.926-5.429,28.734,0l20.404,12.579  c8.025,4.948,18.367-0.826,18.367-10.254V318.74c0-5.487,3.487-10.422,8.711-12.103c14.384-4.63,28.065-11.832,40.511-21.415  c18.144-13.972,33.374-32.646,44.041-54.002C516.578,215.201,510.077,195.728,494.058,187.726z"/>
<g>
	<path style="fill:#394049;" d="M164.91,198.712c-4.512,0-8.17-3.658-8.17-8.17v-4.27c0-4.512,3.658-8.17,8.17-8.17   c4.512,0,8.17,3.658,8.17,8.17v4.27C173.08,195.054,169.422,198.712,164.91,198.712z"/>
	<path style="fill:#394049;" d="M346.891,198.712c-4.512,0-8.17-3.658-8.17-8.17v-4.27c0-4.512,3.658-8.17,8.17-8.17   c4.512,0,8.17,3.658,8.17,8.17v4.27C355.061,195.054,351.403,198.712,346.891,198.712z"/>
	<path style="fill:#394049;" d="M271.18,220.648c-5.831,0-11.172-2.14-15.279-5.676c-4.107,3.535-9.448,5.676-15.279,5.676   c-12.931,0-23.45-10.519-23.45-23.45c0-4.512,3.658-8.17,8.17-8.17c4.512,0,8.17,3.658,8.17,8.17c0,3.92,3.19,7.109,7.109,7.109   c3.921,0,7.109-3.19,7.109-7.109c0-4.512,3.658-8.17,8.17-8.17c4.512,0,8.17,3.658,8.17,8.17c0,3.92,3.189,7.109,7.109,7.109   c3.92,0,7.109-3.19,7.109-7.109c0-4.512,3.658-8.17,8.17-8.17c4.512,0,8.17,3.658,8.17,8.17   C294.629,210.13,284.11,220.648,271.18,220.648z"/>
</g>
<path style="opacity:0.25;fill:#FFFFFF;enable-background:new    ;" d="M61.236,202.245c-8.056-16.128-27.737-22.606-43.817-14.355  c-0.309,0.159-0.608,0.33-0.91,0.497c1.088,16.023,14.422,28.686,30.721,28.686c7.079,0,13.595-2.393,18.797-6.408  C63.84,207.226,62.251,204.274,61.236,202.245z"/>
<path style="opacity:0.1;fill:#25292F;enable-background:new    ;" d="M102.338,294.205c-56.563-13.069-87.488-68.227-96.38-96.319  c-6.787,9.676-8.046,22.838-2.353,34.089c10.647,21.041,25.73,39.439,43.661,53.246c12.446,9.584,26.127,16.786,40.511,21.416  c5.223,1.681,8.711,6.616,8.711,12.103v115.447c0,9.151,9.741,14.857,17.652,10.66V309.116  C114.139,302.011,109.261,295.806,102.338,294.205z"/>
<path style="opacity:0.05;enable-background:new    ;" d="M374.462,107.476c-15.494-22.695-33.618-41.61-52.414-54.704  c-8.082-5.631-16.265-10.219-24.515-13.755c-15.45,12.575-25.325,31.736-25.325,53.21c0,37.876,30.705,68.581,68.581,68.581  c20.529,0,38.937-9.031,51.506-23.324C386.939,127.092,380.973,117.013,374.462,107.476z"/>
<circle style="opacity:0.05;enable-background:new    ;" cx="368.673" cy="303.725" r="21.783"/>
<circle style="opacity:0.05;enable-background:new    ;" cx="187.937" cy="113.065" r="21.783"/>
<circle style="opacity:0.03;enable-background:new    ;" cx="211.837" cy="266.698" r="21.783"/>
<circle style="opacity:0.03;enable-background:new    ;" cx="240.106" cy="74.731" r="15.796"/>
<circle style="opacity:0.03;enable-background:new    ;" cx="322.909" cy="238.407" r="15.796"/>
<g>
	<path style="fill:#E6595A;" d="M177.931,232.637H151.89c-4.512,0-8.17-3.658-8.17-8.17c0-4.512,3.658-8.17,8.17-8.17h26.041   c4.512,0,8.17,3.658,8.17,8.17C186.101,228.979,182.443,232.637,177.931,232.637z"/>
	<path style="fill:#E6595A;" d="M359.911,232.637H333.87c-4.512,0-8.17-3.658-8.17-8.17c0-4.512,3.658-8.17,8.17-8.17h26.041   c4.512,0,8.17,3.658,8.17,8.17C368.081,228.979,364.423,232.637,359.911,232.637z"/>
</g>
<path style="opacity:0.25;fill:#FFFFFF;enable-background:new    ;" d="M494.058,187.726c-6.025-3.009-12.537-3.965-18.746-3.137  c-2.02,4.099-3.159,8.712-3.159,13.591c0,17.011,13.79,30.802,30.802,30.802c2.391,0,4.716-0.281,6.95-0.797  C515.729,212.815,509.077,195.228,494.058,187.726z"/>
<g>
</g>
<g>
</g>
<g>
</g>
<g>
</g>
<g>
</g>
<g>
</g>
<g>
</g>
<g>
</g>
<g>
</g>
<g>
</g>
<g>
</g>
<g>
</g>
<g>
</g>
<g>
</g>
<g>
</g>
</svg>
