<?xml version="1.0" encoding="iso-8859-1"?>
<!-- Generator: Adobe Illustrator 19.0.0, SVG Export Plug-In . SVG Version: 6.00 Build 0)  -->
<svg xmlns="http://www.w3.org/2000/svg" xmlns:xlink="http://www.w3.org/1999/xlink" version="1.1" id="Layer_1" x="0px" y="0px" viewBox="0 0 512 512" style="enable-background:new 0 0 512 512;" xml:space="preserve">
<g>
	<path style="fill:#F3C74F;" d="M90.801,333.776c-0.597,0-1.193-0.007-1.791-0.02c-26.364-0.573-51.27-13.698-68.332-36.011   c-7.939-10.383-5.959-25.239,4.425-33.179c10.382-7.939,25.236-5.96,33.179,4.424c11.333,14.82,24.761,17.288,31.757,17.44   c8.55,0.183,16.746-2.836,20.814-7.702c8.385-10.028,23.312-11.362,33.339-2.978c10.029,8.384,11.362,23.31,2.979,33.34   C134.186,324.624,113.217,333.776,90.801,333.776z"/>
	<path style="fill:#F3C74F;" d="M326.962,512c-13.072,0-23.669-10.596-23.669-23.669v-89.627c0-13.072,10.596-23.669,23.669-23.669   c13.072,0,23.669,10.596,23.669,23.669v89.627C350.631,501.404,340.034,512,326.962,512z"/>
</g>
<path style="opacity:0.2;enable-background:new    ;" d="M326.962,375.037c-13.072,0-23.669,10.596-23.669,23.669v49.64  c16.713-2.669,32.616-7.75,47.336-14.882v-34.757C350.631,385.633,340.034,375.037,326.962,375.037z"/>
<path style="fill:#F3C74F;" d="M225.188,512c-13.072,0-23.669-10.596-23.669-23.669v-89.627c0-13.072,10.597-23.669,23.669-23.669  c13.072,0,23.669,10.596,23.669,23.669v89.627C248.857,501.404,238.26,512,225.188,512z"/>
<path style="opacity:0.2;enable-background:new    ;" d="M225.188,375.037c-13.072,0-23.669,10.596-23.669,23.669v34.757  c14.721,7.133,30.625,12.214,47.336,14.882v-49.64C248.857,385.633,238.26,375.037,225.188,375.037z"/>
<path style="fill:#F3C74F;" d="M472.523,410.226c-13.072,0-23.669-10.596-23.669-23.669c0-21.124-1.194-37.777-7.021-50.387  c-7.604-16.453-23.033-23.427-35.625-27.664c-12.389-4.169-19.053-17.591-14.885-29.981s17.591-19.051,29.981-14.885  c69.1,23.25,74.886,75.637,74.886,122.915C496.192,399.63,485.595,410.226,472.523,410.226z"/>
<circle style="fill:#0081C6;" cx="407.183" cy="109.721" r="54.36"/>
<circle style="fill:#F3C74F;" cx="407.183" cy="109.721" r="25.379"/>
<circle style="fill:#0081C6;" cx="144.965" cy="109.721" r="54.36"/>
<circle style="fill:#F3C74F;" cx="144.965" cy="109.721" r="25.379"/>
<path style="opacity:0.2;enable-background:new    ;" d="M177.099,65.883c-25.558,23.099-47.236,54.897-62.635,88.838  c8.697,5.906,19.194,9.36,30.499,9.36c30.022,0,54.36-24.338,54.36-54.36C199.324,91.723,190.573,75.776,177.099,65.883z"/>
<path style="fill:#40BAB3;" d="M446.878,258.787c0-94.053-78.409-229.546-170.803-229.546S105.273,164.735,105.273,258.787  s76.471,170.298,170.803,170.298S446.878,352.84,446.878,258.787z"/>
<path style="fill:#F0B0B7;" d="M389.965,238.351H361.45c-4.515,0-8.176-3.661-8.176-8.176c0-4.515,3.661-8.176,8.176-8.176h28.514  c4.516,0,8.176,3.661,8.176,8.176C398.141,234.69,394.481,238.351,389.965,238.351z"/>
<path style="fill:#FFFFFF;" d="M108.149,290.021c14.713,79.134,84.296,139.065,167.926,139.065s153.212-59.931,167.926-139.065  H108.149z"/>
<path style="fill:#0081C6;" d="M138.386,359.553c31.087,42.164,81.178,69.532,137.689,69.532s106.602-27.369,137.689-69.532H138.386  z"/>
<path style="opacity:0.2;enable-background:new    ;" d="M294.188,410.973c-94.332,0-170.803-76.244-170.803-170.298  c0-56.622,28.426-128.253,71.206-176.308c-52.686,46.509-89.318,130.138-89.318,194.42c0,94.052,76.471,170.298,170.803,170.298  c51.865,0,98.324-23.053,129.648-59.437C375.799,395.398,336.818,410.973,294.188,410.973z"/>
<g>
	<path style="fill:#394049;" d="M375.708,201.204c-4.515,0-8.176-3.661-8.176-8.176v-4.676c0-4.515,3.661-8.176,8.176-8.176   c4.516,0,8.176,3.661,8.176,8.176v4.676C383.884,197.543,380.223,201.204,375.708,201.204z"/>
	<path style="fill:#394049;" d="M292.805,225.224c-6.434,0-12.305-2.452-16.73-6.472c-4.425,4.019-10.296,6.472-16.731,6.472   c-13.734,0-24.907-11.173-24.907-24.907c0-4.515,3.66-8.176,8.176-8.176c4.516,0,8.176,3.661,8.176,8.176   c0,4.717,3.838,8.555,8.555,8.555c4.717,0,8.555-3.837,8.555-8.555c0-4.515,3.66-8.176,8.176-8.176s8.176,3.661,8.176,8.176   c0,4.717,3.837,8.555,8.554,8.555c4.717,0,8.555-3.837,8.555-8.555c0-4.515,3.66-8.176,8.176-8.176   c4.516,0,8.176,3.661,8.176,8.176C317.712,214.051,306.54,225.224,292.805,225.224z"/>
</g>
<path style="fill:#892641;" d="M459.968,201.143L415.653,93.486C392.368,36.919,337.246,0,276.075,0l0,0  c-61.171,0-116.293,36.919-139.577,93.486L92.184,201.143c-3.957,8.97,0.107,19.449,9.076,23.405  c2.33,1.028,4.763,1.514,7.154,1.514c6.82,0,13.321-3.952,16.25-10.592l33.538-76.031c1.762-3.993,5.714-6.57,10.078-6.57H383.87  c4.365,0,8.318,2.577,10.079,6.57l33.538,76.031c2.928,6.641,9.431,10.592,16.25,10.592c2.393,0,4.825-0.487,7.154-1.514  C459.861,220.592,463.925,210.113,459.968,201.143z"/>
<g>
	<path style="opacity:0.2;fill:#25292F;enable-background:new    ;" d="M220.432,132.871h16.603V5.129   c-5.659,1.515-11.198,3.366-16.603,5.512V132.871z M315.115,5.129v127.742h16.603V10.64C326.312,8.495,320.773,6.644,315.115,5.129   z"/>
	<path style="opacity:0.2;fill:#25292F;enable-background:new    ;" d="M439.086,150.414h-40.296l7.323,16.603h39.808   L439.086,150.414z M394.241,57.056H157.909c-4.166,5.243-8.016,10.778-11.486,16.603h259.304   C402.257,67.834,398.408,62.3,394.241,57.056z"/>
</g>
<path style="fill:#EACEB2;" d="M346.892,102.132H205.259c-13.69,0-24.788,11.097-24.788,24.788l0,0  c0,13.69,11.097,24.788,24.788,24.788h141.633c13.69,0,24.788-11.099,24.788-24.788l0,0  C371.68,113.231,360.582,102.132,346.892,102.132z"/>
<path style="opacity:0.2;enable-background:new    ;" d="M353.145,145.455H211.512c-13.69,0-24.788-11.099-24.788-24.788  c0-5.247,1.641-10.105,4.423-14.112c-6.447,4.476-10.676,11.923-10.676,20.366c0,13.69,11.097,24.788,24.788,24.788h141.633  c8.443,0,15.89-4.23,20.366-10.676C363.25,143.814,358.393,145.455,353.145,145.455z"/>
<path style="fill:#60523F;" d="M123.099,236.559L94.62,212.661l-71.341,85.021c-6.6,7.864-5.574,19.59,2.291,26.189l0,0  c7.864,6.6,19.59,5.574,26.189-2.291L123.099,236.559z"/>
<path style="opacity:0.3;enable-background:new    ;" d="M94.62,212.661l-28.079,33.465c3.501,4.629,7.552,8.951,12.188,12.839  c5.181,4.347,10.758,7.911,16.588,10.705l27.784-33.111L94.62,212.661z"/>
<circle style="fill:#5F666F;" cx="137.334" cy="190.673" r="78.565"/>
<circle style="fill:#FFFFFF;" cx="137.334" cy="190.673" r="50.494"/>
<path style="opacity:0.3;enable-background:new    ;" d="M169.79,151.996c-21.326-17.894-53.1-15.144-71.041,6.12  c18.418-15.601,45.924-16.159,65.04-0.119c21.361,17.925,24.147,49.772,6.224,71.133c-0.031,0.036-0.062,0.069-0.093,0.104  c2.163-1.832,4.209-3.859,6.093-6.105C193.938,201.768,191.151,169.92,169.79,151.996z"/>
<path style="opacity:0.3;fill:#FFFFFF;enable-background:new    ;" d="M190.094,132.488c-2.063-0.358-4.178-0.554-6.343-0.554  c-20.398,0-36.933,16.536-36.933,36.933s16.536,36.933,36.933,36.933c13.727,0,25.695-7.493,32.062-18.608  C214.907,166.916,206.187,147.062,190.094,132.488z"/>
<g>
</g>
<g>
</g>
<g>
</g>
<g>
</g>
<g>
</g>
<g>
</g>
<g>
</g>
<g>
</g>
<g>
</g>
<g>
</g>
<g>
</g>
<g>
</g>
<g>
</g>
<g>
</g>
<g>
</g>
</svg>
