<?xml version="1.0" encoding="iso-8859-1"?>
<!-- Generator: Adobe Illustrator 19.0.0, SVG Export Plug-In . SVG Version: 6.00 Build 0)  -->
<svg xmlns="http://www.w3.org/2000/svg" xmlns:xlink="http://www.w3.org/1999/xlink" version="1.1" id="Layer_1" x="0px" y="0px" viewBox="0 0 512 512" style="enable-background:new 0 0 512 512;" xml:space="preserve">
<path style="fill:#F3C74F;" d="M303.247,495.559c-12.137,0-21.976-9.839-21.976-21.976v-62.711c0-12.137,9.839-21.976,21.976-21.976  s21.976,9.838,21.976,21.976v62.711C325.223,485.719,315.384,495.559,303.247,495.559z"/>
<path style="opacity:0.2;enable-background:new    ;" d="M303.247,388.897c-12.137,0-21.976,9.838-21.976,21.976v46.089  c15.517-2.478,30.284-7.195,43.951-13.817v-32.271C325.223,398.735,315.384,388.897,303.247,388.897z"/>
<path style="fill:#F3C74F;" d="M208.752,495.559c-12.137,0-21.976-9.839-21.976-21.976v-62.711c0-12.137,9.838-21.976,21.976-21.976  c12.137,0,21.976,9.838,21.976,21.976v62.711C230.727,485.719,220.889,495.559,208.752,495.559z"/>
<path style="opacity:0.2;enable-background:new    ;" d="M208.752,388.897c-12.137,0-21.976,9.838-21.976,21.976v32.271  c13.668,6.622,28.434,11.339,43.951,13.817v-46.089C230.727,398.735,220.889,388.897,208.752,388.897z"/>
<circle style="fill:#0081C6;" cx="377.739" cy="142.556" r="50.472"/>
<circle style="fill:#F3C74F;" cx="377.739" cy="142.556" r="23.564"/>
<circle style="fill:#0081C6;" cx="134.26" cy="142.556" r="50.472"/>
<circle style="fill:#F3C74F;" cx="134.26" cy="142.556" r="23.564"/>
<path style="opacity:0.2;enable-background:new    ;" d="M164.102,101.853c-23.73,21.447-43.858,50.971-58.155,82.484  c8.075,5.484,17.821,8.69,28.319,8.69c27.875,0,50.472-22.598,50.472-50.472C184.738,125.846,176.611,111.038,164.102,101.853z"/>
<g>
	<path style="fill:#F3C74F;" d="M417.894,396.501c-1.623,0-3.271-0.181-4.92-0.558c-11.832-2.706-19.229-14.492-16.521-26.323   c5.715-24.981-11.872-40.243-17.652-45.259c-9.167-7.954-10.148-21.834-2.194-31c7.955-9.166,21.834-10.149,31.001-2.194   c27.913,24.224,39.168,55.566,31.689,88.255C436.968,389.602,427.914,396.501,417.894,396.501z"/>
	<path style="fill:#F3C74F;" d="M94.106,396.501c-10.021,0-19.073-6.897-21.403-17.079c-7.479-32.689,3.775-64.031,31.689-88.255   c9.166-7.954,23.047-6.972,31.001,2.194s6.973,23.046-2.194,31c-23.367,20.278-19.065,39.08-17.651,45.259   c2.707,11.832-4.691,23.617-16.521,26.323C97.377,396.319,95.728,396.501,94.106,396.501z"/>
</g>
<path style="fill:#40BAB3;" d="M414.586,280.962c0-87.326-72.802-213.128-158.587-213.128S97.414,193.635,97.414,280.962  s71.002,158.118,158.587,158.118S414.586,368.287,414.586,280.962z"/>
<g>
	<path style="fill:#F0B0B7;" d="M176.731,248.555h-26.475c-4.552,0-8.241-3.69-8.241-8.241s3.689-8.241,8.241-8.241h26.475   c4.552,0,8.241,3.69,8.241,8.241S181.282,248.555,176.731,248.555z"/>
	<path style="fill:#F0B0B7;" d="M361.744,248.555h-26.475c-4.552,0-8.241-3.69-8.241-8.241s3.689-8.241,8.241-8.241h26.475   c4.552,0,8.241,3.69,8.241,8.241S366.295,248.555,361.744,248.555z"/>
</g>
<path style="fill:#FFFFFF;" d="M100.085,309.961c13.661,73.474,78.266,129.119,155.916,129.119s142.255-55.644,155.916-129.119  L100.085,309.961L100.085,309.961z"/>
<path style="fill:#0081C6;" d="M128.159,374.519c28.864,39.147,75.372,64.559,127.842,64.559s98.978-25.412,127.842-64.559H128.159z  "/>
<path style="opacity:0.2;enable-background:new    ;" d="M272.816,422.263c-87.585,0-158.587-70.791-158.587-158.118  c0-52.573,26.393-119.08,66.114-163.699c-48.918,43.182-82.929,120.831-82.929,180.514c0,87.326,71.002,158.118,158.587,158.118  c48.155,0,91.292-21.404,120.376-55.185C348.591,407.802,312.399,422.263,272.816,422.263z"/>
<ellipse style="fill:#892641;" cx="256.005" cy="227.074" rx="23.316" ry="28.096"/>
<path style="fill:#F0B0B7;" d="M255.999,231.269c-8.263,0-15.544,4.194-19.837,10.568c4.109,8,11.456,13.332,19.837,13.332  c8.382,0,15.728-5.331,19.837-13.332C271.545,235.463,264.262,231.269,255.999,231.269z"/>
<path style="fill:#0081C6;" d="M64.772,107.473c-1.522,0-3.06-0.421-4.437-1.302L31.931,87.978  c-3.833-2.455-4.95-7.552-2.495-11.384c2.454-3.834,7.549-4.95,11.383-2.495l28.405,18.193c3.833,2.455,4.95,7.552,2.495,11.384  C70.146,106.131,67.487,107.473,64.772,107.473z"/>
<path style="fill:#F3C74F;" d="M176.44,67.589c-2.901,0-5.713-1.534-7.217-4.251l-18.587-33.572  c-2.204-3.982-0.764-8.997,3.218-11.201c3.983-2.205,8.997-0.763,11.201,3.218l18.587,33.572c2.204,3.982,0.764,8.997-3.218,11.201  C179.16,67.256,177.79,67.589,176.44,67.589z"/>
<path style="fill:#0081C6;" d="M447.228,107.473c-2.715,0-5.374-1.341-6.947-3.797c-2.455-3.833-1.338-8.929,2.494-11.384  l28.406-18.193c3.83-2.454,8.93-1.338,11.383,2.495c2.455,3.833,1.338,8.929-2.495,11.384l-28.405,18.193  C450.289,107.052,448.749,107.473,447.228,107.473z"/>
<path style="fill:#F3C74F;" d="M335.56,67.589c-1.35,0-2.719-0.333-3.984-1.033c-3.982-2.204-5.422-7.219-3.218-11.201  l18.587-33.572c2.205-3.981,7.218-5.424,11.201-3.218c3.982,2.204,5.422,7.219,3.218,11.201l-18.587,33.572  C341.273,66.055,338.46,67.589,335.56,67.589z"/>
<path style="fill:#E6595A;" d="M255.999,39.456c-4.552,0-8.241-3.69-8.241-8.241V8.241c0-4.551,3.689-8.241,8.241-8.241  c4.552,0,8.241,3.69,8.241,8.241v22.974C264.24,35.766,260.552,39.456,255.999,39.456z"/>
<g>
	<path style="fill:#394049;" d="M163.493,214.064c-4.552,0-8.241-3.69-8.241-8.241v-4.341c0-4.551,3.689-8.241,8.241-8.241   c4.552,0,8.241,3.69,8.241,8.241v4.341C171.734,210.375,168.045,214.064,163.493,214.064z"/>
	<path style="fill:#394049;" d="M348.507,214.064c-4.552,0-8.241-3.69-8.241-8.241v-4.341c0-4.551,3.689-8.241,8.241-8.241   s8.241,3.69,8.241,8.241v4.341C356.748,210.375,353.058,214.064,348.507,214.064z"/>
</g>
<rect x="47.913" y="429.755" style="fill:#5F666F;" width="416.174" height="31.692"/>
<rect x="47.913" y="451.423" style="opacity:0.2;enable-background:new    ;" width="416.174" height="10.026"/>
<path style="fill:#A4A8AB;" d="M43.48,512H17.137c-9.153,0-16.574-7.42-16.574-16.574v-99.647c0-9.154,7.42-16.574,16.574-16.574  H43.48c9.153,0,16.574,7.42,16.574,16.574v99.647C60.054,504.58,52.634,512,43.48,512z"/>
<path style="opacity:0.2;enable-background:new    ;" d="M50.056,505.424H23.713c-9.153,0-16.574-7.42-16.574-16.574v-99.648  c0-2.885,0.741-5.597,2.037-7.961c-5.132,2.816-8.613,8.269-8.613,14.537v99.647c0,9.154,7.42,16.574,16.574,16.574H43.48  c6.267,0,11.72-3.481,14.537-8.613C55.653,504.683,52.941,505.424,50.056,505.424z"/>
<path style="opacity:0.2;fill:#FFFFFF;enable-background:new    ;" d="M43.48,379.205h-9.495  c-4.856,5.587-7.801,12.879-7.801,20.863c0,17.58,14.251,31.832,31.832,31.832c0.685,0,1.362-0.03,2.037-0.071v-36.05  C60.054,386.625,52.633,379.205,43.48,379.205z"/>
<path style="fill:#A4A8AB;" d="M494.862,512H468.52c-9.153,0-16.574-7.42-16.574-16.574v-99.647c0-9.154,7.42-16.574,16.574-16.574  h26.343c9.154,0,16.574,7.42,16.574,16.574v99.647C511.436,504.58,504.016,512,494.862,512z"/>
<path style="opacity:0.2;enable-background:new    ;" d="M501.439,505.424h-26.343c-9.153,0-16.574-7.42-16.574-16.574v-99.648  c0-2.885,0.741-5.597,2.037-7.961c-5.132,2.816-8.613,8.269-8.613,14.537v99.647c0,9.154,7.42,16.574,16.574,16.574h26.343  c6.267,0,11.72-3.481,14.537-8.613C507.037,504.683,504.325,505.424,501.439,505.424z"/>
<path style="opacity:0.2;fill:#FFFFFF;enable-background:new    ;" d="M494.863,379.205h-9.495  c-4.856,5.587-7.801,12.879-7.801,20.863c0,17.58,14.251,31.832,31.832,31.832c0.685,0,1.362-0.03,2.037-0.071v-36.05  C511.436,386.625,504.016,379.205,494.863,379.205z"/>
<path style="fill:#F3C74F;" d="M118.81,450.685c-6.506,0-12.946-2.876-17.283-8.384c-15.012-19.069-24.734-44.986-28.825-62.882  c-2.705-11.832,4.693-23.616,16.523-26.321c11.838-2.705,23.615,4.692,26.322,16.523c2.889,12.636,9.996,32.132,20.514,45.494  c7.507,9.536,5.862,23.353-3.674,30.86C128.36,449.145,123.567,450.685,118.81,450.685z"/>
<path style="opacity:0.2;enable-background:new    ;" d="M115.548,369.621c-0.001-0.003-0.002-0.007-0.003-0.011  c-0.679-2.97-2.013-8.848-0.641-16.397c-8.859-17.165-14.662-36.155-16.688-56.258c-3.01,3.012-5.809,6.106-8.341,9.296  c3.659,24.403,12.915,46.978,26.418,66.398C116.024,371.607,115.769,370.588,115.548,369.621z"/>
<path style="fill:#F3C74F;" d="M393.19,450.685c-4.758,0-9.55-1.538-13.578-4.709c-9.536-7.507-11.181-21.324-3.674-30.86  c10.519-13.362,17.626-32.858,20.514-45.494c2.705-11.831,14.48-19.231,26.322-16.523c11.832,2.705,19.229,14.491,16.523,26.321  c-4.093,17.896-13.814,43.813-28.825,62.882C406.136,447.808,399.696,450.685,393.19,450.685z"/>
<path style="fill:#E6595A;" d="M255.999,122.572h100.404c6.73,0,12.975,3.501,16.488,9.241l24.531,40.087  c2.224,3.635-0.391,8.302-4.653,8.302H255.999H119.229c-4.261,0-6.877-4.668-4.653-8.302l24.531-40.087  c3.513-5.741,9.758-9.241,16.488-9.241C155.595,122.572,255.999,122.572,255.999,122.572z"/>
<path style="fill:#FFFFFF;" d="M397.424,171.9l-12.552-20.513H127.129L114.576,171.9c-2.224,3.635,0.391,8.302,4.653,8.302h273.541  C397.032,180.202,399.647,175.536,397.424,171.9z"/>
<g style="opacity:0.15;">
	<path d="M174.526,166.673c-1.37,0-2.759-0.342-4.038-1.063c-3.964-2.235-5.369-7.26-3.135-11.225l5.98-10.613   c2.234-3.965,7.259-5.368,11.225-3.135c3.964,2.235,5.369,7.26,3.135,11.225l-5.98,10.613   C180.199,165.162,177.404,166.673,174.526,166.673z"/>
	<path d="M262.397,161.365c-2.396,0-4.771-1.038-6.399-3.043l-8.591-10.569c-2.871-3.531-2.336-8.722,1.195-11.593   c3.534-2.871,8.722-2.335,11.593,1.197l8.591,10.569c2.871,3.531,2.336,8.722-1.195,11.593   C266.062,160.76,264.223,161.365,262.397,161.365z"/>
	<path d="M346.304,168.494c-1.201,0-2.418-0.264-3.572-0.82c-4.101-1.976-5.822-6.901-3.847-11.001l6.173-12.811   c1.977-4.101,6.903-5.821,11.002-3.846c4.1,1.976,5.822,6.901,3.847,11.001l-6.173,12.811   C352.313,166.775,349.369,168.494,346.304,168.494z"/>
</g>
<g>
</g>
<g>
</g>
<g>
</g>
<g>
</g>
<g>
</g>
<g>
</g>
<g>
</g>
<g>
</g>
<g>
</g>
<g>
</g>
<g>
</g>
<g>
</g>
<g>
</g>
<g>
</g>
<g>
</g>
</svg>
