<?xml version="1.0" encoding="iso-8859-1"?>
<!-- Generator: Adobe Illustrator 19.0.0, SVG Export Plug-In . SVG Version: 6.00 Build 0)  -->
<svg xmlns="http://www.w3.org/2000/svg" xmlns:xlink="http://www.w3.org/1999/xlink" version="1.1" id="Layer_1" x="0px" y="0px" viewBox="0 0 512 512" style="enable-background:new 0 0 512 512;" xml:space="preserve">
<path style="fill:#DEDFDF;" d="M227.388,478.825H18.606C8.33,478.825,0,470.495,0,460.219V323.35  c0-10.276,8.33-18.607,18.606-18.607h208.782c10.276,0,18.607,8.33,18.607,18.607v136.868  C245.996,470.495,237.664,478.825,227.388,478.825z"/>
<path style="opacity:0.2;enable-background:new    ;" d="M227.388,304.744H30.178c2.061,14.923,6.826,30.115,13.688,45.06  c-8.227,5.884-14.829,14.222-18.55,24.446c-9.809,26.948,4.086,56.744,31.033,66.553c17.393,6.331,35.965,2.775,49.59-7.778  c21.082,19.497,44.488,35.515,67.505,45.803h53.943c10.276,0,18.607-8.33,18.607-18.607V323.35  C245.996,313.074,237.664,304.744,227.388,304.744z"/>
<path style="fill:#40BAB3;" d="M310.809,162.624c-84.421-30.726-231.653-4.612-261.838,78.319  c-30.184,82.93,65.816,197.575,150.237,228.301s177.84-13.004,208.657-97.675C438.683,286.898,395.229,193.351,310.809,162.624z"/>
<circle style="fill:#0081C6;" cx="78.376" cy="384.922" r="51.929"/>
<circle style="fill:#F3C74F;" cx="78.376" cy="384.922" r="24.241"/>
<path style="opacity:0.2;enable-background:new    ;" d="M49.524,341.753c12.384,30.487,33.844,60.334,59.278,85.244  c8.143-5.877,14.672-14.171,18.365-24.318c9.809-26.948-4.087-56.744-31.033-66.552C79.979,330.245,62.806,332.891,49.524,341.753z"/>
<path style="fill:#40BAB3;" d="M310.809,162.624c-84.421-30.726-231.653-4.612-261.838,78.319  c-30.184,82.93,65.816,197.575,150.237,228.301s177.84-13.004,208.657-97.675C438.683,286.898,395.229,193.351,310.809,162.624z"/>
<path style="fill:#FFFFFF;" d="M228.183,476.865c75.837,12.646,152.361-30.231,179.683-105.296  c27.322-75.065-3.739-157.1-69.962-196.16L228.183,476.865z"/>
<path style="fill:#0081C6;" d="M300.471,472.441c48.001-14.129,88.932-50.149,107.393-100.873s10.261-104.626-17.429-146.304  L300.471,472.441z"/>
<path style="opacity:0.2;enable-background:new    ;" d="M397.525,349.395c-30.817,84.671-124.236,128.401-208.657,97.675  C138.045,428.571,83.037,379.656,53.88,325.557c24.533,62.484,87.63,122.686,145.329,143.686  c84.42,30.726,177.84-13.004,208.657-97.675c16.944-46.553,11.429-95.785-10.994-135.788  C410.208,271.053,411.452,311.13,397.525,349.395z"/>
<g>
	<path style="fill:#F0B0B7;" d="M182.539,443.366c-0.935,0-1.885-0.16-2.814-0.498c-4.272-1.555-6.474-6.278-4.92-10.549   l9.315-25.593c1.554-4.271,6.277-6.474,10.549-4.92c4.272,1.555,6.474,6.278,4.92,10.549l-9.315,25.593   C189.057,441.291,185.9,443.366,182.539,443.366z"/>
	<path style="fill:#F0B0B7;" d="M247.637,264.509c-0.935,0-1.885-0.16-2.814-0.498c-4.272-1.555-6.474-6.278-4.92-10.549   l9.316-25.593c1.555-4.27,6.278-6.471,10.549-4.919c4.272,1.555,6.474,6.278,4.919,10.549l-9.315,25.593   C254.156,262.433,250.999,264.509,247.637,264.509z"/>
</g>
<g>
	<path style="fill:#394049;" d="M187.456,362.383c-2.745,0-5.533-0.47-8.257-1.462c-4.271-1.555-6.474-6.278-4.919-10.549   c1.556-4.272,6.278-6.472,10.549-4.92c4.015,1.465,8.472-0.616,9.934-4.632c1.462-4.015-0.617-8.472-4.632-9.934   c-3.342-1.216-5.417-4.371-5.418-7.732c0-0.936,0.16-1.888,0.498-2.817c1.555-4.272,6.276-6.474,10.549-4.919   c4.018,1.463,8.472-0.616,9.934-4.632c1.462-4.015-0.617-8.472-4.632-9.933c-4.272-1.555-6.474-6.277-4.92-10.549   c1.554-4.272,6.276-6.475,10.549-4.92c6.077,2.212,10.929,6.658,13.663,12.519c2.733,5.861,3.02,12.436,0.809,18.513   c-2.035,5.59-5.959,10.142-11.135,12.964c2.066,5.292,2.295,11.326,0.204,17.071C206.656,356.272,197.349,362.383,187.456,362.383z   "/>
	<path style="fill:#394049;" d="M214.377,245.613c-0.935,0-1.885-0.16-2.815-0.498c-4.271-1.555-6.474-6.278-4.919-10.549   l4.951-13.603c1.556-4.271,6.279-6.474,10.549-4.919c4.271,1.555,6.474,6.278,4.919,10.549l-4.951,13.602   C220.896,243.538,217.739,245.613,214.377,245.613z"/>
	<path style="fill:#394049;" d="M149.279,424.47c-0.935,0-1.885-0.16-2.815-0.498c-4.271-1.555-6.474-6.278-4.919-10.549   l4.951-13.603c1.555-4.271,6.277-6.471,10.549-4.919c4.271,1.555,6.474,6.278,4.919,10.549l-4.951,13.602   C155.797,422.395,152.64,424.47,149.279,424.47z"/>
</g>
<path style="fill:#0081C6;" d="M146.952,191.729c0.982,0.392,2.027,0.632,3.079,0.732c13.859,1.303,24.534-1.07,36.138-6.48  c11.552-5.387,19.83-11.732,27.808-23.224c0.681-0.981,1.232-2.059,1.602-3.195c8.837-27.122-5.916-56.625-33.535-65.506  c-25.638-8.244-53.745,4.861-63.91,29.802C107.16,150.787,120.366,181.134,146.952,191.729z"/>
<circle style="fill:#F3C74F;" cx="166.201" cy="143.506" r="24.241"/>
<path style="fill:#8E78CF;" d="M344.016,159.039L344.016,159.039c91.569,30.578,155.464,113.611,161.564,209.958l6.37,100.61  c0.88,13.895-10.153,25.648-24.076,25.648H224.967L344.016,159.039z"/>
<g style="opacity:0.2;">
	<path style="fill:#25292F;" d="M368.476,450.839c-1.469,0-2.956-0.393-4.301-1.218l-9.361-5.75   c-3.873-2.38-5.084-7.448-2.705-11.321s7.446-5.083,11.321-2.705l9.361,5.75c3.873,2.379,5.084,7.448,2.705,11.321   C373.942,449.444,371.241,450.839,368.476,450.839z"/>
	<path style="fill:#25292F;" d="M413.871,280.895c-1.469,0-2.956-0.393-4.301-1.218l-9.361-5.75   c-3.873-2.379-5.084-7.448-2.705-11.321c2.379-3.874,7.447-5.083,11.321-2.705l9.361,5.75c3.873,2.38,5.084,7.448,2.705,11.321   C419.337,279.502,416.636,280.895,413.871,280.895z"/>
	<path style="fill:#25292F;" d="M457.42,357.084c-1.469,0-2.956-0.393-4.301-1.218l-9.361-5.75   c-3.873-2.379-5.084-7.448-2.705-11.321c2.379-3.874,7.447-5.084,11.321-2.705l9.361,5.75c3.873,2.379,5.084,7.448,2.705,11.321   C462.887,355.691,460.186,357.084,457.42,357.084z"/>
	<path style="fill:#25292F;" d="M366.432,363.352c-1.469,0-2.956-0.393-4.301-1.218l-9.361-5.75   c-3.873-2.379-5.084-7.448-2.705-11.321c2.379-3.873,7.447-5.084,11.321-2.705l9.361,5.75c3.873,2.38,5.084,7.448,2.705,11.321   C371.899,361.957,369.198,363.352,366.432,363.352z"/>
	<path style="fill:#25292F;" d="M441.001,433.443c-1.469,0-2.956-0.393-4.301-1.218l-9.361-5.75   c-3.873-2.379-5.084-7.448-2.705-11.321c2.379-3.873,7.446-5.084,11.321-2.705l9.361,5.75c3.873,2.379,5.084,7.448,2.705,11.321   C446.467,432.049,443.766,433.443,441.001,433.443z"/>
</g>
<path style="fill:#C0B2DF;" d="M374.667,148.457h-42.973c-8.111,0-15.357,5.07-18.136,12.689L197.148,480.253  c-2.659,7.289,2.738,15.003,10.497,15.003h42.972c8.111,0,15.356-5.07,18.137-12.689L385.164,163.46  C387.823,156.171,382.426,148.457,374.667,148.457z"/>
<path style="fill:#F3C74F;" d="M310.468,118.221H261.45c-3.389,0-6.431-2.076-7.664-5.232c-1.235-3.155-0.409-6.745,2.08-9.045  l33.564-31.005h-27.978c-4.545,0-8.23-3.685-8.23-8.23s3.685-8.23,8.23-8.23h49.017c3.389,0,6.43,2.076,7.664,5.232  c1.235,3.156,0.409,6.745-2.081,9.045L282.49,101.76h27.978c4.547,0,8.23,3.685,8.23,8.23S315.014,118.221,310.468,118.221z"/>
<path style="fill:#0081C6;" d="M387.861,67.786h-37.434c-3.389,0-6.43-2.076-7.664-5.231c-1.235-3.155-0.409-6.745,2.081-9.045  l21.98-20.305h-16.395c-4.547,0-8.23-3.685-8.23-8.23s3.684-8.23,8.23-8.23h37.434c3.389,0,6.43,2.076,7.664,5.232  s0.409,6.746-2.081,9.045l-21.981,20.304h16.395c4.547,0,8.23,3.685,8.23,8.23S392.407,67.786,387.861,67.786z"/>
<g>
</g>
<g>
</g>
<g>
</g>
<g>
</g>
<g>
</g>
<g>
</g>
<g>
</g>
<g>
</g>
<g>
</g>
<g>
</g>
<g>
</g>
<g>
</g>
<g>
</g>
<g>
</g>
<g>
</g>
</svg>
