<?xml version="1.0" encoding="iso-8859-1"?>
<!-- Generator: Adobe Illustrator 19.0.0, SVG Export Plug-In . SVG Version: 6.00 Build 0)  -->
<svg xmlns="http://www.w3.org/2000/svg" xmlns:xlink="http://www.w3.org/1999/xlink" version="1.1" id="Layer_1" x="0px" y="0px" viewBox="0 0 512 512" style="enable-background:new 0 0 512 512;" xml:space="preserve">
<path style="fill:#F3C74F;" d="M337.97,355.757c-10.616,0-19.222-8.606-19.222-19.221c0-10.616,8.606-19.222,19.222-19.222  c32.714,0,55.304-23.523,58.951-61.39c1.018-10.567,10.411-18.311,20.976-17.289c10.566,1.018,18.307,10.41,17.289,20.976  C429.647,317.118,390.579,355.757,337.97,355.757z"/>
<path style="fill:#A27B5A;" d="M436.169,217.388l-27.283,7.311c-3.261,0.874-6.613-1.062-7.487-4.322L368.508,97.623  c-0.874-3.261,1.062-6.613,4.323-7.487l27.283-7.311c3.261-0.874,6.613,1.062,7.487,4.322l32.892,122.754  C441.364,213.163,439.43,216.515,436.169,217.388z"/>
<g>
	<circle style="fill:#60523F;" cx="381.239" cy="66.935" r="20.236"/>
	<circle style="fill:#60523F;" cx="427.762" cy="240.586" r="20.236"/>
</g>
<g>
	
		<rect x="386.042" y="94.794" transform="matrix(-0.2588 -0.9659 0.9659 -0.2588 385.0411 525.513)" style="fill:#F3C74F;" width="16.202" height="40.469"/>
	
		<rect x="406.788" y="172.229" transform="matrix(-0.2588 -0.9659 0.9659 -0.2588 336.3591 643.0284)" style="fill:#F3C74F;" width="16.202" height="40.469"/>
</g>
<path style="opacity:0.2;enable-background:new    ;" d="M413.249,217.141c-3.261,0.874-6.613-1.062-7.487-4.322L372.886,90.121  l-0.056,0.015c-3.261,0.874-5.196,4.226-4.322,7.487L401.4,220.376c0.874,3.261,4.226,5.197,7.487,4.322l27.283-7.311  c3.261-0.874,5.196-4.226,4.322-7.487l-0.015-0.056L413.249,217.141z"/>
<path style="fill:#F3C74F;" d="M178.759,512c-10.616,0-19.222-8.606-19.222-19.221v-72.786c0-10.616,8.606-19.222,19.222-19.222  s19.222,8.606,19.222,19.222v72.786C197.98,503.394,189.374,512,178.759,512z"/>
<path style="opacity:0.2;enable-background:new    ;" d="M178.759,400.772c-10.616,0-19.222,8.606-19.222,19.222v28.227  c11.955,5.793,24.87,9.918,38.442,12.086v-40.312C197.98,409.378,189.374,400.772,178.759,400.772z"/>
<path style="fill:#F3C74F;" d="M261.409,512c10.616,0,19.222-8.606,19.222-19.221v-72.786c0-10.616-8.606-19.222-19.222-19.222  s-19.221,8.606-19.221,19.222v72.786C242.189,503.394,250.793,512,261.409,512z"/>
<path style="opacity:0.2;enable-background:new    ;" d="M261.409,400.772c10.616,0,19.222,8.606,19.222,19.222v28.227  c-11.955,5.793-24.87,9.918-38.442,12.086v-40.312C242.189,409.378,250.793,400.772,261.409,400.772z"/>
<circle style="fill:#0081C6;" cx="326.561" cy="185.303" r="44.145"/>
<circle style="fill:#F3C74F;" cx="326.561" cy="185.303" r="20.61"/>
<path style="fill:#40BAB3;" d="M358.793,306.366c0-76.38-63.677-186.414-138.709-186.414S81.375,229.985,81.375,306.366  s62.102,138.298,138.709,138.298S358.793,382.746,358.793,306.366z"/>
<path style="fill:#FFFFFF;" d="M83.712,331.73c11.949,64.265,68.457,112.934,136.372,112.934s124.424-48.669,136.372-112.934H83.712  z"/>
<path style="fill:#0081C6;" d="M108.266,388.198c25.246,34.241,65.925,56.467,111.818,56.467c45.892,0,86.571-22.227,111.818-56.467  H108.266z"/>
<path style="opacity:0.2;enable-background:new    ;" d="M234.793,429.956c-76.607,0-138.709-61.918-138.709-138.298  c0-45.983,23.084-104.154,57.827-143.18c-42.785,37.77-72.535,105.685-72.535,157.888c0,76.38,62.102,138.298,138.709,138.298  c42.119,0,79.849-18.721,105.288-48.268C301.07,417.307,269.413,429.956,234.793,429.956z"/>
<g>
	<path style="fill:#F0B0B7;" d="M336.388,291.231h-23.157c-4.474,0-8.101-3.627-8.101-8.101s3.627-8.101,8.101-8.101h23.157   c4.474,0,8.101,3.627,8.101,8.101S340.862,291.231,336.388,291.231z"/>
	<path style="fill:#F0B0B7;" d="M174.566,291.231H151.41c-4.474,0-8.101-3.627-8.101-8.101s3.627-8.101,8.101-8.101h23.156   c4.474,0,8.101,3.627,8.101,8.101S179.04,291.231,174.566,291.231z"/>
</g>
<g>
	<path style="fill:#394049;" d="M324.81,261.064c-4.474,0-8.101-3.627-8.101-8.101v-3.798c0-4.474,3.627-8.101,8.101-8.101   s8.101,3.627,8.101,8.101v3.798C332.911,257.437,329.284,261.064,324.81,261.064z"/>
	<path style="fill:#394049;" d="M162.987,261.064c-4.474,0-8.101-3.627-8.101-8.101v-3.798c0-4.474,3.627-8.101,8.101-8.101   s8.101,3.627,8.101,8.101v3.798C171.089,257.437,167.462,261.064,162.987,261.064z"/>
	<path style="fill:#394049;" d="M257.486,280.571c-5.139,0-9.866-1.796-13.587-4.795c-3.72,2.999-8.448,4.795-13.587,4.795   c-11.959,0-21.688-9.729-21.688-21.689c0-4.474,3.627-8.101,8.101-8.101c4.474,0,8.101,3.627,8.101,8.101   c0,3.024,2.461,5.486,5.485,5.486s5.486-2.461,5.486-5.486c0-4.474,3.627-8.101,8.101-8.101c4.474,0,8.101,3.627,8.101,8.101   c0,3.024,2.461,5.486,5.486,5.486c3.026,0,5.486-2.461,5.486-5.486c0-4.474,3.627-8.101,8.101-8.101   c4.474,0,8.101,3.627,8.101,8.101C279.174,270.841,269.445,280.571,257.486,280.571z"/>
</g>
<path style="fill:#0081C6;" d="M152.274,183.921c0.027,0.899-0.084,1.804-0.311,2.673c-2.99,11.451-7.989,19.291-15.686,26.987  c-7.663,7.663-15.14,12.431-26.641,15.464c-0.982,0.259-2.004,0.386-3.018,0.351c-24.239-0.826-43.519-21.192-42.582-45.84  c0.868-22.88,19.512-41.524,42.393-42.393C131.137,140.223,151.542,159.599,152.274,183.921z"/>
<circle style="fill:#F3C74F;" cx="108.151" cy="185.271" r="20.61"/>
<path style="opacity:0.2;enable-background:new    ;" d="M116.037,222.645c-0.982,0.259-2.003,0.386-3.018,0.351  c-24.238-0.826-43.519-21.192-42.582-45.84c0.374-9.838,4.04-18.888,9.911-26.084c-9.539,7.782-15.815,19.441-16.309,32.483  c-0.937,24.648,18.345,45.014,42.582,45.84c1.015,0.035,2.036-0.092,3.018-0.351c11.502-3.032,18.977-7.8,26.641-15.464  c1.087-1.086,2.113-2.177,3.094-3.278C132.781,216.172,125.885,220.048,116.037,222.645z"/>
<path style="fill:#F3C74F;" d="M127.728,397.717c-15.927,0-30.14-5.956-40.063-16.799c-16.632-18.173-17.125-45.176-1.173-64.208  c6.819-8.136,18.942-9.202,27.078-2.383c8.136,6.819,9.203,18.942,2.383,27.078c-4.075,4.862-2.901,10.313,0.069,13.559  c6.008,6.563,21.296,6.749,41.909-7.632c8.708-6.073,20.687-3.939,26.761,4.767c6.074,8.706,3.94,20.688-4.767,26.762  c-17.785,12.408-35.211,18.752-51.796,18.855C127.996,397.716,127.86,397.717,127.728,397.717z"/>
<path style="fill:#E3E3E3;" d="M289.986,0.046c-14.142-0.614-26.973,5.011-36,14.338C245.409,5.52,233.394,0,220.084,0  s-25.325,5.52-33.902,14.384c-9.027-9.327-21.857-14.952-35.999-14.338c-24.234,1.051-43.973,20.769-45.043,45.002  c-0.948,21.474,12.465,39.947,31.439,46.64c3.982,1.404,6.71,5.077,6.71,9.298v57.656h153.588v-57.656  c0-4.221,2.729-7.895,6.71-9.298c18.974-6.692,32.388-25.165,31.439-46.638C333.958,20.815,314.219,1.097,289.986,0.046z"/>
<g>
	<path style="opacity:0.2;fill:#25292F;enable-background:new    ;" d="M189.961,145.9c-4.474,0-8.101-3.627-8.101-8.101V88.646   c0-4.474,3.627-8.101,8.101-8.101c4.474,0,8.101,3.627,8.101,8.101v49.152C198.063,142.272,194.435,145.9,189.961,145.9z"/>
	<path style="opacity:0.2;fill:#25292F;enable-background:new    ;" d="M250.207,145.9c-4.474,0-8.101-3.627-8.101-8.101V88.646   c0-4.474,3.627-8.101,8.101-8.101c4.474,0,8.101,3.627,8.101,8.101v49.152C258.308,142.272,254.681,145.9,250.207,145.9z"/>
</g>
<rect x="143.288" y="126.099" style="fill:#7E858B;" width="153.578" height="32.545"/>
<path style="opacity:0.2;enable-background:new    ;" d="M150.627,82.753c-18.974-6.692-32.388-25.165-31.439-46.638  c0.567-12.837,6.374-24.404,15.31-32.604c-16.567,6.81-28.533,22.824-29.359,41.538c-0.948,21.474,12.465,39.947,31.439,46.638  c3.982,1.404,6.71,5.077,6.71,9.298v57.656h14.048v-66.59C157.337,87.83,154.609,84.156,150.627,82.753z"/>
<g>
</g>
<g>
</g>
<g>
</g>
<g>
</g>
<g>
</g>
<g>
</g>
<g>
</g>
<g>
</g>
<g>
</g>
<g>
</g>
<g>
</g>
<g>
</g>
<g>
</g>
<g>
</g>
<g>
</g>
</svg>
