<?xml version="1.0" encoding="iso-8859-1"?>
<!-- Generator: Adobe Illustrator 19.0.0, SVG Export Plug-In . SVG Version: 6.00 Build 0)  -->
<svg xmlns="http://www.w3.org/2000/svg" xmlns:xlink="http://www.w3.org/1999/xlink" version="1.1" id="Layer_1" x="0px" y="0px" viewBox="0 0 512 512" style="enable-background:new 0 0 512 512;" xml:space="preserve">
<g>
	<path style="fill:#E6595A;" d="M2.251,174.269c0.704-25.589,6.834-38.619,14.302-48.428c0.999-1.312,3.053-1.306,3.958,0.071   c4.197,6.388,13.153,6.645,19.035,18.333c-3.501-21.647,17.085-64.344,40.328-91.115c2.468-2.843,7.201-1.696,8.032,1.976   c6.455,28.546,36.218,62.598,36.847,78.313c2.947-4.715,12.86-23.113,23.439-33.776c2.676-2.698,7.227-1.968,8.888,1.45   c15.515,31.919,28.783,38.029,28.783,78.191c0,50.469-40.709,91.43-91.083,91.836C42.208,271.547,0.805,226.821,2.251,174.269z"/>
	<path style="fill:#E6595A;" d="M509.753,276.976c-0.626-22.775-6.082-34.37-12.729-43.101c-0.889-1.167-2.717-1.163-3.523,0.064   c-3.735,5.685-11.706,5.914-16.942,16.317c3.117-19.267-15.206-57.266-35.892-81.093c-2.196-2.53-6.409-1.509-7.148,1.759   c-5.745,25.406-32.235,55.713-32.794,69.698c-2.623-4.197-11.445-20.57-20.86-30.061c-2.383-2.401-6.432-1.751-7.91,1.291   c-13.808,28.407-25.617,33.846-25.617,69.59c0,44.918,36.232,81.373,81.064,81.735C474.191,363.553,511.04,323.748,509.753,276.976   z"/>
	<path style="fill:#E6595A;" d="M434.831,19.106c2.116-1.446,4.976,0.199,4.858,2.76c-1.553,33.861,16.422,37.427,24.745,52.905   c15.124,28.125-1.542,48.351-12.245,55.664c-2.116,1.446-4.976-0.198-4.858-2.76c1.553-33.861-16.422-37.427-24.745-52.904   C407.462,46.645,424.129,26.419,434.831,19.106z"/>
	<path style="fill:#E6595A;" d="M38.758,0.416c-1.634-1.117-3.843,0.154-3.752,2.13c1.199,26.147-12.681,28.9-19.108,40.852   C4.221,65.117,17.09,80.735,25.353,86.382c1.634,1.117,3.843-0.154,3.752-2.13c-1.2-26.147,12.681-28.9,19.108-40.852   C59.892,21.681,47.021,6.063,38.758,0.416z"/>
</g>
<path style="fill:#892641;" d="M358.441,413.264c-30.128,0-59.886-15.705-80.584-43.913l20.395-14.965  c20.297,27.662,51.387,39.65,79.208,30.537c31.111-10.189,49.683-43.71,49.683-89.67h25.296c0,29.578-6.396,54.832-19.011,75.059  c-11.74,18.826-28.372,32.191-48.096,38.651C376.496,411.859,367.448,413.264,358.441,413.264z"/>
<path style="opacity:0.3;enable-background:new    ;" d="M427.145,295.254c0,5.084-0.24,10.006-0.687,14.771h25.409  c0.373-4.799,0.574-9.717,0.574-14.771H427.145z"/>
<path style="fill:#892641;" d="M434.039,243.044l-29.247,41.045c-3.332,4.676,0.011,11.164,5.753,11.164h58.492  c5.742,0,9.085-6.487,5.753-11.164l-29.247-41.045C442.73,239.091,436.856,239.091,434.039,243.044z"/>
<path style="fill:#40BAB3;" d="M384.04,276.672c0-87.41-72.872-213.333-158.738-213.333S66.563,189.262,66.563,276.672  s71.07,158.269,158.738,158.269C312.97,434.94,384.04,364.08,384.04,276.672z"/>
<path style="fill:#F3C74F;" d="M178.009,512c-12.149,0-21.997-9.848-21.997-21.997v-83.296c0-12.148,9.848-21.997,21.997-21.997  c12.148,0,21.997,9.848,21.997,21.997v83.296C200.006,502.152,190.158,512,178.009,512z"/>
<path style="opacity:0.2;enable-background:new    ;" d="M178.009,384.71c-12.149,0-21.997,9.848-21.997,21.997v32.302  c13.681,6.629,28.462,11.351,43.993,13.831v-46.133C200.006,394.558,190.158,384.71,178.009,384.71z"/>
<path style="fill:#F3C74F;" d="M272.595,512c12.148,0,21.997-9.848,21.997-21.997v-83.296c0-12.148-9.848-21.997-21.997-21.997  c-12.148,0-21.997,9.848-21.997,21.997v83.296C250.598,502.152,260.445,512,272.595,512z"/>
<path style="opacity:0.2;enable-background:new    ;" d="M272.595,384.71c12.148,0,21.997,9.848,21.997,21.997v32.302  c-13.682,6.629-28.462,11.351-43.993,13.831v-46.133C250.598,394.558,260.445,384.71,272.595,384.71z"/>
<circle style="fill:#0081C6;" cx="103.45" cy="138.138" r="50.52"/>
<circle style="fill:#F3C74F;" cx="103.45" cy="138.138" r="23.587"/>
<path style="opacity:0.2;enable-background:new    ;" d="M133.316,97.391c-23.754,21.467-43.9,51.021-58.211,82.564  c8.083,5.489,17.838,8.699,28.346,8.699c27.902,0,50.52-22.619,50.52-50.52C153.971,121.406,145.838,106.585,133.316,97.391z"/>
<path style="fill:#892641;" d="M181.838,83.867L181.838,83.867c-11.725-9.201-21.319-20.832-28.123-34.092l0,0  c-1.641-3.197-6.222-3.166-7.818,0.054l-1.909,3.853c-7.866,15.872-8.099,34.456-0.632,50.519l0,0  c2.03,4.366,5.871,7.621,10.511,8.907l0,0c11.193,3.102,23.153-0.838,30.309-9.986l0,0  C188.841,97.158,187.795,88.541,181.838,83.867z"/>
<path style="fill:#40BAB3;" d="M384.04,276.672c0-87.41-72.872-213.333-158.738-213.333S66.563,189.262,66.563,276.672  s71.07,158.269,158.738,158.269C312.97,434.94,384.04,364.08,384.04,276.672z"/>
<path style="fill:#FFFFFF;" d="M69.237,305.698c13.674,73.545,78.342,129.241,156.064,129.241  c77.724,0,142.39-55.697,156.064-129.241H69.237z"/>
<path style="fill:#0081C6;" d="M97.337,370.319c28.892,39.186,75.445,64.621,127.965,64.621s99.073-25.436,127.965-64.621H97.337z"/>
<path style="opacity:0.2;enable-background:new    ;" d="M242.135,418.108c-87.669,0-158.738-70.859-158.738-158.269  c0-52.624,26.418-119.194,66.176-163.856c-48.964,43.224-83.009,120.946-83.009,180.688c0,87.41,71.07,158.269,158.738,158.269  c48.201,0,91.379-21.424,120.492-55.238C317.982,403.633,281.754,418.108,242.135,418.108z"/>
<g>
	<path style="fill:#F0B0B7;" d="M118.703,258.202H92.204c-4.486,0-8.123-3.637-8.123-8.123s3.637-8.123,8.123-8.123h26.5   c4.486,0,8.123,3.637,8.123,8.123S123.189,258.202,118.703,258.202z"/>
	<path style="fill:#F0B0B7;" d="M303.894,258.202h-26.5c-4.486,0-8.123-3.637-8.123-8.123s3.637-8.123,8.123-8.123h26.5   c4.486,0,8.123,3.637,8.123,8.123S308.38,258.202,303.894,258.202z"/>
</g>
<g>
	<path style="fill:#394049;" d="M105.453,223.679c-4.486,0-8.123-3.637-8.123-8.123v-4.345c0-4.486,3.637-8.123,8.123-8.123   s8.123,3.637,8.123,8.123v4.345C113.576,220.042,109.939,223.679,105.453,223.679z"/>
	<path style="fill:#394049;" d="M290.643,223.679c-4.486,0-8.123-3.637-8.123-8.123v-4.345c0-4.486,3.637-8.123,8.123-8.123   s8.123,3.637,8.123,8.123v4.345C298.766,220.042,295.129,223.679,290.643,223.679z"/>
	<path style="fill:#394049;" d="M213.597,246.002c-5.946,0-11.387-2.204-15.549-5.837c-4.162,3.632-9.603,5.837-15.549,5.837   c-13.052,0-23.671-10.619-23.671-23.671c0-4.486,3.637-8.123,8.123-8.123s8.123,3.637,8.123,8.123c0,4.095,3.331,7.426,7.426,7.426   c4.095,0,7.426-3.331,7.426-7.426c0-4.486,3.637-8.123,8.123-8.123s8.123,3.637,8.123,8.123c0,4.095,3.331,7.426,7.426,7.426   c4.095,0,7.426-3.331,7.426-7.426c0-4.486,3.637-8.123,8.123-8.123s8.123,3.637,8.123,8.123   C237.268,235.383,226.649,246.002,213.597,246.002z"/>
	<path style="fill:#394049;" d="M118.873,212.199c-2.078,0-4.158-0.794-5.743-2.379l-15.422-15.422   c-3.172-3.172-3.172-8.315,0-11.486c3.172-3.172,8.315-3.172,11.486,0l15.422,15.422c3.172,3.172,3.172,8.315,0,11.486   C123.03,211.405,120.952,212.199,118.873,212.199z"/>
	<path style="fill:#394049;" d="M277.223,212.199c-2.079,0-4.158-0.794-5.743-2.379c-3.172-3.172-3.172-8.315,0-11.486   l15.422-15.422c3.172-3.172,8.315-3.172,11.486,0c3.172,3.172,3.172,8.315,0,11.486l-15.422,15.422   C281.381,211.405,279.302,212.199,277.223,212.199z"/>
</g>
<path style="fill:#0081C6;" d="M302.903,136.545c-0.03,1.028,0.096,2.063,0.356,3.058c3.421,13.104,9.143,22.076,17.951,30.884  c8.77,8.77,17.326,14.226,30.488,17.696c1.124,0.297,2.293,0.442,3.454,0.402c27.738-0.945,49.802-24.252,48.731-52.459  c-0.994-26.185-22.331-47.52-48.515-48.515C327.093,86.538,303.742,108.711,302.903,136.545z"/>
<g>
	<circle style="fill:#F3C74F;" cx="353.398" cy="138.095" r="23.587"/>
	<path style="fill:#F3C74F;" d="M294.381,379.935c-16.086,0-30.968-5.34-42.741-15.502c-14.23-12.282-22.725-30.612-22.725-49.033   c0-12.148,9.848-21.997,21.997-21.997c12.148,0,21.997,9.848,21.997,21.997c0,4.279,1.958,10.967,7.477,15.731   c4.734,4.086,11.007,5.586,18.638,4.46c7.794-1.151,26.822-7.419,35.145-40.668c2.95-11.785,14.896-18.946,26.679-15.997   c11.785,2.949,18.947,14.895,15.997,26.679c-10.246,40.939-36.936,68.419-71.393,73.508   C301.715,379.663,298.016,379.935,294.381,379.935z"/>
	<path style="fill:#F3C74F;" d="M136.725,290.986c-11.947-2.218-23.426,5.664-25.645,17.609   c-3.716,19.993-15.703,36.806-24.679,40.916c-2.735,1.251-4.139,0.935-6.078-0.197c-1.224-0.714-3.273-1.91-3.278-7.119   c-0.002-1.982,0.328-4.188,0.937-6.497c-7.229-17.918-11.263-37.459-11.404-57.924c-20.129,15.557-33.551,40.798-33.526,64.467   c0.021,19.346,9.169,35.773,25.099,45.068c0.03,0.017,0.062,0.031,0.092,0.05c7.953,4.621,16.49,6.946,25.119,6.946   c7.15,0,14.363-1.594,21.357-4.797c12.422-5.688,23.84-16.324,33.021-30.76c7.988-12.563,13.882-27.52,16.595-42.118   C156.553,304.687,148.669,293.205,136.725,290.986z"/>
</g>
<path style="opacity:0.2;enable-background:new    ;" d="M77.981,335.699c-7.229-17.918-11.263-37.459-11.404-57.924  c-3.841,2.969-7.436,6.292-10.742,9.889c2.795,19.942,9.692,48.863,21.613,57.949c-0.246-0.894-0.401-2.004-0.403-3.418  C77.042,340.213,77.373,338.008,77.981,335.699z"/>
<path style="fill:#892641;" d="M265.466,83.867L265.466,83.867c11.725-9.201,21.319-20.832,28.123-34.092l0,0  c1.641-3.197,6.222-3.166,7.818,0.054l1.91,3.853c7.866,15.872,8.099,34.456,0.633,50.519l0,0  c-2.028,4.366-5.871,7.621-10.511,8.907l0,0c-11.193,3.102-23.153-0.838-30.309-9.986l0,0  C258.463,97.158,259.509,88.541,265.466,83.867z"/>
<g>
</g>
<g>
</g>
<g>
</g>
<g>
</g>
<g>
</g>
<g>
</g>
<g>
</g>
<g>
</g>
<g>
</g>
<g>
</g>
<g>
</g>
<g>
</g>
<g>
</g>
<g>
</g>
<g>
</g>
</svg>
