<?xml version="1.0" encoding="iso-8859-1"?>
<!-- Generator: Adobe Illustrator 19.0.0, SVG Export Plug-In . SVG Version: 6.00 Build 0)  -->
<svg xmlns="http://www.w3.org/2000/svg" xmlns:xlink="http://www.w3.org/1999/xlink" version="1.1" id="Layer_1" x="0px" y="0px" viewBox="0 0 512 512" style="enable-background:new 0 0 512 512;" xml:space="preserve">
<path style="fill:#F3C74F;" d="M171.867,512c-7.38,0-14.58-3.74-18.688-10.509c-14.261-23.489-15.814-52.564-4.259-79.771  c11.713-27.583,35.363-49.036,60.25-54.652c11.762-2.656,23.456,4.728,26.112,16.495c2.657,11.766-4.73,23.456-16.495,26.112  c-11.264,2.542-23.462,14.517-29.663,29.119c-3.521,8.293-8.024,24.521,1.391,40.031c6.26,10.31,2.976,23.742-7.334,30.002  C179.639,510.975,175.728,512,171.867,512z"/>
<path style="opacity:0.2;enable-background:new    ;" d="M235.281,383.563c-2.656-11.766-14.349-19.151-26.112-16.495  c-24.887,5.617-48.537,27.07-60.25,54.652c-3.399,8.004-5.655,16.169-6.795,24.307c0.804,0.045,1.613,0.073,2.429,0.073  c6.785,0,13.194-1.598,18.884-4.425c4.54,10.861,12.484,19.942,22.491,25.926c-2.709-11.652,0.522-22.515,3.194-28.808  c6.201-14.602,18.399-26.577,29.663-29.119C230.551,407.019,237.937,395.327,235.281,383.563z"/>
<path style="fill:#F3C74F;" d="M56.779,410.257c-3.106,0-6.258-0.664-9.256-2.071c-43.777-20.523-52.74-73.996-35.939-111.77  c8.726-19.618,23.844-34.471,42.57-41.822c14.562-5.717,38.683-9.686,70.882,3.877c11.116,4.682,16.332,17.489,11.649,28.604  c-4.681,11.116-17.489,16.331-28.604,11.649c-36.438-15.347-51.095,3.088-56.589,15.443c-8.467,19.038-4.634,45.468,14.571,54.471  c10.92,5.119,15.624,18.122,10.505,29.044C72.854,405.606,64.988,410.256,56.779,410.257z"/>
<path style="opacity:0.2;enable-background:new    ;" d="M125.038,258.471c-20.432-8.606-37.606-10.148-51.154-8.67  c-1.517,10.053-2.323,19.874-2.323,29.271c0,5.193,0.249,10.327,0.711,15.4c8.606-2.688,20.206-2.322,35.811,4.251  c11.115,4.681,23.923-0.533,28.604-11.649C141.37,275.96,136.154,263.153,125.038,258.471z"/>
<path style="fill:#F3C74F;" d="M342.674,512c-3.862,0-7.772-1.024-11.313-3.175c-10.311-6.26-13.594-19.691-7.334-30.002  c9.415-15.51,4.913-31.738,1.391-40.031c-6.202-14.602-18.399-26.577-29.663-29.119c-11.766-2.656-19.151-14.346-16.495-26.112  c2.656-11.766,14.349-19.15,26.112-16.495c24.887,5.617,48.537,27.07,60.25,54.653c11.555,27.207,10.002,56.282-4.259,79.771  C357.254,508.259,350.052,512,342.674,512z"/>
<path style="opacity:0.2;enable-background:new    ;" d="M365.621,421.719c-11.713-27.583-35.363-49.036-60.25-54.652  c-11.762-2.654-23.456,4.73-26.112,16.495c-2.657,11.766,4.73,23.456,16.494,26.112c11.264,2.542,23.462,14.517,29.663,29.119  c2.672,6.293,5.903,17.158,3.194,28.808c10.008-5.983,17.951-15.064,22.491-25.926c5.69,2.827,12.1,4.425,18.885,4.425  c0.816,0,1.625-0.028,2.429-0.073C371.277,437.889,369.021,429.723,365.621,421.719z"/>
<path style="fill:#F3C74F;" d="M481.508,355.363c-5.021,0.958-10.397,0.168-15.151-2.626c-10.398-6.111-13.874-19.495-7.762-29.895  c12.641-21.509,3.123-38.418-3.676-46.581c-12.033-14.449-36.544-25.792-61.94-16.536c-11.322,4.124-23.866-1.711-27.996-13.045  c-4.129-11.333,1.711-23.867,13.045-27.996c19.966-7.274,41.355-7.946,61.865-1.948c19.006,5.559,36.263,16.771,48.589,31.573  c23.355,28.042,26.331,65.083,7.768,96.665C492.933,350.619,487.47,354.225,481.508,355.363z"/>
<circle style="fill:#0081C6;" cx="386.892" cy="114.857" r="53.741"/>
<circle style="fill:#F3C74F;" cx="386.892" cy="114.857" r="25.091"/>
<circle style="fill:#0081C6;" cx="127.65" cy="114.857" r="53.741"/>
<circle style="fill:#F3C74F;" cx="127.65" cy="114.857" r="25.091"/>
<path style="opacity:0.2;enable-background:new    ;" d="M159.42,71.513c-25.267,22.837-46.699,54.273-61.922,87.828  c8.598,5.839,18.976,9.253,30.153,9.253c29.68,0,53.741-24.061,53.741-53.741C181.392,97.059,172.74,81.294,159.42,71.513z"/>
<path style="fill:#40BAB3;" d="M426.13,262.224c0-92.983-77.517-226.934-168.859-226.934S88.411,169.241,88.411,262.224  s75.601,168.36,168.859,168.36S426.13,355.206,426.13,262.224z"/>
<path style="fill:#FFFFFF;" d="M91.255,293.101c14.546,78.233,83.337,137.482,166.015,137.482s151.469-59.249,166.015-137.482  L91.255,293.101L91.255,293.101z"/>
<path style="fill:#0081C6;" d="M121.147,361.842c30.733,41.684,80.255,68.741,136.123,68.741s105.39-27.057,136.123-68.741H121.147z  "/>
<path style="opacity:0.2;enable-background:new    ;" d="M275.176,412.677c-93.259,0-168.859-75.378-168.859-168.36  c0-55.978,28.103-126.794,70.396-174.302c-52.086,45.98-88.302,128.657-88.302,192.208c0,92.983,75.601,168.36,168.859,168.36  c51.274,0,97.205-22.791,128.174-58.761C355.859,397.281,317.322,412.677,275.176,412.677z"/>
<path style="fill:#A27B5A;" d="M444.823,310.364c0-28.375-21.583-51.708-49.228-54.482c-2.575-25.998-24.505-46.305-51.181-46.305  c-1.592,0-3.165,0.083-4.72,0.224c-6.475-15.209-21.556-25.875-39.13-25.875c-5.55,0-10.846,1.075-15.707,3.01  c-7.426-6.343-17.055-10.18-27.586-10.18c-10.531,0-20.16,3.838-27.586,10.18c-4.861-1.934-10.157-3.01-15.707-3.01  c-17.574,0-32.656,10.665-39.131,25.875c-1.555-0.142-3.127-0.224-4.72-0.224c-26.676,0-48.605,20.307-51.181,46.305  c-27.645,2.773-49.228,26.106-49.228,54.482c0,24.534,16.135,45.297,38.372,52.263c-3.838,6.388-6.048,13.864-6.048,21.859  c0,23.479,19.033,42.512,42.511,42.512c6.785,0,13.194-1.598,18.884-4.425c8.263,19.766,27.777,33.657,50.54,33.657  c5.319,0,10.453-0.773,15.315-2.187c7.478,6.544,17.261,10.519,27.978,10.519c10.717,0,20.501-3.975,27.978-10.519  c4.862,1.414,9.998,2.187,15.316,2.187c22.763,0,42.277-13.891,50.54-33.657c5.69,2.827,12.1,4.425,18.885,4.425  c23.478,0,42.511-19.033,42.511-42.512c0-7.995-2.211-15.471-6.048-21.859C428.688,355.661,444.823,334.898,444.823,310.364z"/>
<path style="opacity:0.2;enable-background:new    ;" d="M304.66,438.105c-3.533-0.64-7.172,0.205-10.167,2.185  c-6.709,4.435-14.746,7.021-23.39,7.021c-8.645,0-16.682-2.586-23.39-7.021c-2.995-1.98-6.633-2.825-10.167-2.185  c-3.158,0.572-6.412,0.873-9.735,0.873c-19.17,0-36.036-9.852-45.818-24.769c-3.074-4.689-8.825-6.717-14.296-5.491  c-3.921,0.879-8.047,1.216-12.298,0.924c-21.65-1.487-38.906-19.509-39.508-41.202c-0.129-4.648,0.49-9.133,1.743-13.344  c1.615-5.425-0.659-11.221-5.622-13.943c-16.962-9.304-28.461-27.328-28.461-48.041c0-6.193,0.292-13.139,1.036-20.243  c-9.214,9.798-14.867,22.982-14.867,37.493c0,24.534,16.135,45.297,38.372,52.263c-3.837,6.388-6.048,13.865-6.048,21.859  c0,23.479,19.033,42.512,42.511,42.512c6.785,0,13.194-1.597,18.884-4.425c8.263,19.766,27.777,33.657,50.54,33.657  c5.319,0,10.453-0.773,15.315-2.187c7.478,6.544,17.261,10.519,27.978,10.519c10.717,0,20.5-3.975,27.978-10.519  c4.862,1.414,9.998,2.187,15.316,2.187c21.952,0,40.878-12.921,49.611-31.569c-9.251,8.891-21.556,14.319-35.779,14.319  C311.071,438.98,307.819,438.677,304.66,438.105z"/>
<path style="fill:#A27B5A;" d="M324.249,33.105c-4.591,0-9.007,0.733-13.151,2.075C302.009,14.471,281.335,0,257.27,0  c-24.064,0-44.739,14.471-53.828,35.179c-4.144-1.342-8.56-2.075-13.151-2.075c-23.565,0-42.667,19.102-42.667,42.667  s19.103,42.668,42.667,42.668c8.668,0,16.726-2.591,23.456-7.031c7.465,16.604,24.137,28.173,43.522,28.173  c19.386,0,36.058-11.569,43.522-28.173c6.731,4.44,14.79,7.031,23.457,7.031c23.565,0,42.667-19.103,42.667-42.668  C366.917,52.207,347.814,33.105,324.249,33.105z"/>
<path style="opacity:0.2;enable-background:new    ;" d="M214.955,18.006c-0.224,0.233-0.442,0.471-0.661,0.706  c0.098,0.031,0.198,0.056,0.295,0.088C214.708,18.533,214.835,18.271,214.955,18.006z M335.397,102.06  c-6.848,0-17.221-2.528-24.594-5.779c-2.916-1.286-6.309-0.019-7.789,2.803c-7.28,13.886-17.416,24.119-34.596,24.119  c-17.11,0-32.107-9.013-40.524-22.546c-1.807-2.906-5.508-3.935-8.616-2.5c-5.427,2.505-11.468,3.905-17.839,3.905  c-24.484,0-44.153-20.624-42.579-45.448c0.275-4.333,1.219-8.496,2.715-12.397c-8.571,7.804-13.951,19.052-13.951,31.556  c0,23.565,19.103,42.667,42.667,42.667c8.668,0,16.726-2.591,23.456-7.031c7.465,16.604,24.138,28.173,43.522,28.173  c19.386,0,36.057-11.569,43.522-28.173c6.731,4.44,14.79,7.031,23.456,7.031c18.234,0,33.79-11.443,39.896-27.537  C356.562,97.827,346.477,102.06,335.397,102.06z"/>
<g>
	<path style="fill:#60523F;" d="M175.214,159.213c-2.472,0-4.913-1.131-6.496-3.269c-2.373-3.204-5.998-5.041-9.946-5.041   s-7.572,1.837-9.946,5.041c-2.656,3.585-7.716,4.336-11.296,1.682c-3.585-2.654-4.338-7.712-1.683-11.297   c5.37-7.25,13.941-11.578,22.925-11.578c8.984,0,17.555,4.329,22.925,11.578c2.656,3.585,1.903,8.642-1.683,11.297   C178.569,158.697,176.885,159.213,175.214,159.213z"/>
	<path style="fill:#60523F;" d="M372.21,159.213c-2.472,0-4.912-1.131-6.496-3.269c-2.373-3.204-5.998-5.041-9.946-5.041   c-3.947,0-7.571,1.837-9.945,5.041c-2.656,3.585-7.716,4.336-11.296,1.682c-3.585-2.654-4.338-7.712-1.683-11.297   c5.37-7.25,13.94-11.578,22.924-11.578c8.984,0,17.555,4.329,22.925,11.578c2.656,3.585,1.903,8.642-1.683,11.297   C375.567,158.697,373.882,159.213,372.21,159.213z"/>
	<path style="fill:#60523F;" d="M152.757,328.736c-4.461,0-8.076-3.616-8.076-8.076v-17.251c0-4.46,3.615-8.076,8.076-8.076   s8.076,3.616,8.076,8.076v17.251C160.834,325.119,157.219,328.736,152.757,328.736z"/>
	<path style="fill:#60523F;" d="M193.192,398.967c-4.461,0-8.076-3.616-8.076-8.076v-17.251c0-4.46,3.615-8.076,8.076-8.076   s8.076,3.616,8.076,8.076v17.251C201.268,395.351,197.653,398.967,193.192,398.967z"/>
	<path style="fill:#60523F;" d="M321.348,398.967c-4.461,0-8.076-3.616-8.076-8.076v-17.251c0-4.46,3.615-8.076,8.076-8.076   c4.461,0,8.076,3.616,8.076,8.076v17.251C329.425,395.351,325.809,398.967,321.348,398.967z"/>
	<path style="fill:#60523F;" d="M257.27,368.014c-4.461,0-8.076-3.616-8.076-8.076v-17.251c0-4.46,3.615-8.076,8.076-8.076   c4.461,0,8.076,3.616,8.076,8.076v17.251C265.347,364.398,261.732,368.014,257.27,368.014z"/>
	<path style="fill:#60523F;" d="M361.783,328.736c-4.461,0-8.076-3.616-8.076-8.076v-17.251c0-4.46,3.615-8.076,8.076-8.076   c4.461,0,8.076,3.616,8.076,8.076v17.251C369.86,325.119,366.244,328.736,361.783,328.736z"/>
</g>
<g>
	<path style="fill:#F0B0B7;" d="M174.399,250.36h-26.311c-4.461,0-8.076-3.616-8.076-8.076s3.615-8.076,8.076-8.076h26.311   c4.461,0,8.076,3.616,8.076,8.076C182.475,246.745,178.86,250.36,174.399,250.36z"/>
	<path style="fill:#F0B0B7;" d="M358.264,250.36h-26.311c-4.461,0-8.076-3.616-8.076-8.076s3.615-8.076,8.076-8.076h26.311   c4.461,0,8.076,3.616,8.076,8.076C366.34,246.745,362.725,250.36,358.264,250.36z"/>
</g>
<g>
	<path style="fill:#394049;" d="M158.771,187.682c-4.461,0-8.076-3.616-8.076-8.076v-5.636c0-4.46,3.615-8.076,8.076-8.076   s8.076,3.616,8.076,8.076v5.636C166.848,184.066,163.233,187.682,158.771,187.682z"/>
	<path style="fill:#394049;" d="M355.769,187.682c-4.46,0-8.076-3.616-8.076-8.076v-5.636c0-4.46,3.616-8.076,8.076-8.076   c4.461,0,8.076,3.616,8.076,8.076v5.636C363.845,184.066,360.229,187.682,355.769,187.682z"/>
	<path style="fill:#394049;" d="M268.614,238.248c-5.903,0-11.304-2.186-15.438-5.791c-4.134,3.605-9.534,5.791-15.438,5.791   c-12.965,0-23.514-10.548-23.514-23.514c0-4.46,3.615-8.076,8.076-8.076s8.076,3.616,8.076,8.076c0,4.06,3.302,7.361,7.361,7.361   c4.06,0,7.361-3.302,7.361-7.361c0-4.46,3.616-8.076,8.076-8.076c4.461,0,8.076,3.616,8.076,8.076c0,4.06,3.302,7.361,7.361,7.361   c4.06,0,7.361-3.302,7.361-7.361c0-4.46,3.615-8.076,8.076-8.076c4.461,0,8.076,3.616,8.076,8.076   C292.128,227.7,281.579,238.248,268.614,238.248z"/>
</g>
<g>
</g>
<g>
</g>
<g>
</g>
<g>
</g>
<g>
</g>
<g>
</g>
<g>
</g>
<g>
</g>
<g>
</g>
<g>
</g>
<g>
</g>
<g>
</g>
<g>
</g>
<g>
</g>
<g>
</g>
</svg>
