<?xml version="1.0" encoding="iso-8859-1"?>
<!-- Generator: Adobe Illustrator 19.0.0, SVG Export Plug-In . SVG Version: 6.00 Build 0)  -->
<svg xmlns="http://www.w3.org/2000/svg" xmlns:xlink="http://www.w3.org/1999/xlink" version="1.1" id="Layer_1" x="0px" y="0px" viewBox="0 0 512 512" style="enable-background:new 0 0 512 512;" xml:space="preserve">
<circle style="fill:#0081C6;" cx="355.801" cy="131.293" r="50.868"/>
<g>
	<circle style="fill:#F3C74F;" cx="355.801" cy="131.293" r="23.749"/>
	<path style="fill:#F3C74F;" d="M266.815,504.253c-7.956,0-15.644-4.298-19.612-11.825c-5.703-10.821-1.555-24.217,9.265-29.92   c10.305-5.431,16.017-11.855,17.462-19.64c1.908-10.27-3.613-20.45-5.84-22.997c-8.053-9.208-7.115-23.2,2.093-31.252   c9.208-8.052,23.198-7.115,31.252,2.093c11.182,12.785,20.479,36.372,16.047,60.243c-2.766,14.9-12.014,35.8-40.358,50.739   C273.83,503.429,270.296,504.253,266.815,504.253z"/>
</g>
<path style="opacity:0.2;enable-background:new    ;" d="M273.285,445.397c15.858-4.108,30.754-10.587,44.294-19.028  c-2.433-14.517-8.89-27.362-16.144-35.657c-8.055-9.208-22.044-10.144-31.252-2.093s-10.144,22.044-2.093,31.252  c2.227,2.546,7.747,12.727,5.84,22.997C273.771,443.727,273.55,444.568,273.285,445.397z"/>
<path style="fill:#F3C74F;" d="M397.682,320.535c-24.618,0-46.483-10.541-57.974-22.089c-8.627-8.672-8.591-22.694,0.081-31.322  c8.67-8.627,22.693-8.592,31.322,0.08c5.123,5.15,19.683,10.936,33.71,8.404c11.677-2.109,20.204-9.422,26.067-22.36  c5.052-11.14,18.179-16.079,29.316-11.03c11.143,5.049,16.079,18.174,11.031,29.316c-11.808,26.052-32.6,42.98-58.543,47.665  C407.62,320.115,402.595,320.535,397.682,320.535z"/>
<path style="fill:#40BAB3;" d="M393.92,273.678c0-88.011-73.373-214.8-159.83-214.8S74.259,185.666,74.259,273.678  c0,88.011,71.559,159.358,159.83,159.358C322.362,433.035,393.92,361.689,393.92,273.678z"/>
<g>
	<path style="fill:#F0B0B7;" d="M188.021,281.195h-26.683c-4.484,0-8.12-3.636-8.12-8.12s3.636-8.12,8.12-8.12h26.683   c4.484,0,8.12,3.636,8.12,8.12S192.507,281.195,188.021,281.195z"/>
	<path style="fill:#F0B0B7;" d="M393.718,265.612c-0.982-0.421-2.064-0.657-3.199-0.657h-26.683c-4.485,0-8.12,3.636-8.12,8.12   s3.634,8.12,8.12,8.12h26.683c1.155,0,2.251-0.245,3.246-0.679c0.096-2.268,0.156-4.546,0.156-6.838   C393.92,271.023,393.85,268.332,393.718,265.612z"/>
</g>
<path style="fill:#FFFFFF;" d="M76.951,302.904c13.768,74.051,78.881,130.131,157.139,130.131s143.371-56.08,157.139-130.131H76.951  z"/>
<path style="fill:#0081C6;" d="M105.245,367.97c29.091,39.455,75.964,65.066,128.845,65.066s99.754-25.611,128.845-65.066H105.245z"/>
<path style="opacity:0.2;enable-background:new    ;" d="M251.038,416.087c-88.271,0-159.83-71.346-159.83-159.358  c0-52.985,26.6-120.015,66.632-164.982c-49.302,43.521-83.58,121.778-83.58,181.93c0,88.011,71.559,159.358,159.83,159.358  c48.533,0,92.008-21.572,121.32-55.619C327.407,401.513,290.93,416.087,251.038,416.087z"/>
<g>
	<path style="fill:#25292F;" d="M180.152,220.261c-4.484,0-8.12-3.636-8.12-8.12v-4.375c0-4.484,3.636-8.12,8.12-8.12   c4.484,0,8.12,3.636,8.12,8.12v4.375C188.271,216.626,184.636,220.261,180.152,220.261z"/>
	<path style="fill:#25292F;" d="M366.615,220.261c-4.485,0-8.12-3.636-8.12-8.12v-4.375c0-4.484,3.634-8.12,8.12-8.12   s8.12,3.636,8.12,8.12v4.375C374.735,216.626,371.1,220.261,366.615,220.261z"/>
</g>
<g>
	<path style="fill:#F3C74F;" d="M100.365,366.934c-3.994,0-8.035-1.079-11.676-3.344c-33.722-20.973-50.508-44.228-49.888-69.118   c0.552-22.223,15.347-42.504,41.658-57.107c10.693-5.936,24.177-2.078,30.113,8.618c5.936,10.695,2.078,24.178-8.618,30.113   c-11.327,6.287-18.734,13.932-18.872,19.478c-0.146,5.887,7.394,16.966,29,30.403c10.387,6.46,13.571,20.118,7.111,30.505   C114.998,363.226,107.765,366.934,100.365,366.934z"/>
	<path style="fill:#F3C74F;" d="M203.005,512c-12.232,0-22.148-9.916-22.148-22.148V417.42c0-12.232,9.916-22.148,22.148-22.148   s22.148,9.916,22.148,22.148v72.432C225.153,502.084,215.237,512,203.005,512z"/>
</g>
<path id="SVGCleanerId_0" style="fill:#394049;" d="M370.378,5.919c-2.173-5.59-8.998-7.679-13.927-4.265l0,0  c-25.868,17.92-56.588,27.52-88.056,27.52H165.321c-29.707,0-53.79,24.082-53.79,53.79c0,29.707,24.082,53.79,53.79,53.79h115.73  c28.449,0,55.424-12.646,73.62-34.515l0,0C377.027,75.374,383.04,38.494,370.378,5.919z"/>
<g>
	<path id="SVGCleanerId_0_1_" style="fill:#394049;" d="M370.378,5.919c-2.173-5.59-8.998-7.679-13.927-4.265l0,0   c-25.868,17.92-56.588,27.52-88.056,27.52H165.321c-29.707,0-53.79,24.082-53.79,53.79c0,29.707,24.082,53.79,53.79,53.79h115.73   c28.449,0,55.424-12.646,73.62-34.515l0,0C377.027,75.374,383.04,38.494,370.378,5.919z"/>
</g>
<g style="opacity:0.2;">
	<path d="M270.453,113.655h-20.568c-4.484,0-8.12-3.636-8.12-8.12s3.636-8.12,8.12-8.12h20.568c19.031,0,37.558-6.716,52.17-18.911   c3.443-2.874,8.562-2.413,11.437,1.031c2.873,3.443,2.413,8.564-1.031,11.437C315.503,105.599,293.281,113.655,270.453,113.655z"/>
	<path d="M283.216,68.503h-17.116c-4.485,0-8.12-3.636-8.12-8.12s3.634-8.12,8.12-8.12h17.116c9.935,0,19.807-2.496,28.548-7.218   l14.466-7.815c3.945-2.132,8.871-0.66,11.003,3.285c2.132,3.946,0.66,8.872-3.285,11.003l-14.466,7.815   C308.378,65.333,295.838,68.503,283.216,68.503z"/>
	<path d="M201.666,76.054H156.25c-4.484,0-8.12-3.636-8.12-8.12s3.636-8.12,8.12-8.12h45.416c4.484,0,8.12,3.636,8.12,8.12   S206.15,76.054,201.666,76.054z"/>
	<path d="M217.684,113.655H193.69c-4.484,0-8.12-3.636-8.12-8.12s3.636-8.12,8.12-8.12h23.994c4.484,0,8.12,3.636,8.12,8.12   S222.168,113.655,217.684,113.655z"/>
</g>
<path style="opacity:0.07;fill:#FFFFFF;enable-background:new    ;" d="M370.378,5.919c-2.173-5.589-8.998-7.679-13.927-4.265  c-25.868,17.92-56.587,27.52-88.055,27.52h-20.609c14.559,22.335,39.744,37.112,68.394,37.112c24.107,0,45.767-10.461,60.705-27.082  C376.707,27.984,374.574,16.715,370.378,5.919z"/>
<path style="fill:#0081C6;" d="M161.269,129.731c0.031,1.035-0.096,2.078-0.358,3.08c-3.445,13.195-9.206,22.228-18.075,31.097  c-8.83,8.83-17.445,14.323-30.697,17.818c-1.131,0.299-2.308,0.444-3.477,0.405c-27.929-0.952-50.145-24.419-49.067-52.82  c1.001-26.365,22.484-47.848,48.849-48.849C136.913,79.381,160.425,101.707,161.269,129.731z"/>
<circle style="fill:#F3C74F;" cx="110.43" cy="131.293" r="23.749"/>
<path style="opacity:0.2;enable-background:new    ;" d="M124.235,169.63c-1.131,0.299-2.308,0.445-3.477,0.405  c-27.929-0.952-50.145-24.419-49.067-52.82c0.385-10.148,3.814-19.565,9.378-27.376c-12.485,8.892-20.857,23.254-21.473,39.471  c-1.078,28.401,21.138,51.869,49.067,52.82c1.169,0.04,2.346-0.106,3.477-0.405c13.253-3.494,21.867-8.988,30.697-17.818  c2.08-2.08,3.983-4.171,5.732-6.322C141.716,163.15,134.319,166.971,124.235,169.63z"/>
<rect x="201.351" y="193.664" width="144.057" height="16.24"/>
<path style="fill:#394049;" d="M214.834,215.873c0,19.479-16.058,35.208-35.658,34.67c-18.891-0.519-33.708-16.493-33.708-35.392  v-13.37c0-7.055,5.719-12.773,12.773-12.773h43.821c7.055,0,12.773,5.719,12.773,12.773v14.092H214.834z"/>
<path style="opacity:0.07;fill:#FFFFFF;enable-background:new    ;" d="M202.062,189.009h-29.247  c-1.417,3.566-2.204,7.451-2.204,11.522c0,17.247,13.981,31.228,31.228,31.228c3.471,0,6.806-0.575,9.925-1.62  c1.967-4.352,3.071-9.179,3.071-14.266v-14.092C214.834,194.727,209.116,189.009,202.062,189.009z"/>
<path style="fill:#394049;" d="M401.298,215.873c0,19.479-16.058,35.208-35.658,34.67c-18.891-0.519-33.708-16.493-33.708-35.392  v-13.37c0-7.055,5.719-12.773,12.773-12.773h43.821c7.055,0,12.772,5.719,12.772,12.773V215.873z"/>
<path style="opacity:0.07;fill:#FFFFFF;enable-background:new    ;" d="M388.525,189.009h-29.247  c-1.417,3.566-2.204,7.451-2.204,11.522c0,17.247,13.981,31.228,31.228,31.228c3.471,0,6.806-0.575,9.925-1.62  c1.967-4.352,3.071-9.179,3.071-14.266v-14.092C401.298,194.727,395.58,189.009,388.525,189.009z"/>
<path style="fill:#394049;" d="M289.034,261.411c-5.989,0-11.471-2.227-15.655-5.896c-4.186,3.669-9.666,5.896-15.656,5.896  c-13.11,0-23.776-10.666-23.776-23.776c0-4.484,3.636-8.12,8.12-8.12c4.484,0,8.12,3.636,8.12,8.12c0,4.155,3.38,7.536,7.536,7.536  c4.155,0,7.536-3.381,7.536-7.536c0-4.484,3.634-8.12,8.12-8.12c4.485,0,8.12,3.636,8.12,8.12c0,4.155,3.38,7.536,7.535,7.536  c4.155,0,7.536-3.381,7.536-7.536c0-4.484,3.636-8.12,8.12-8.12c4.485,0,8.12,3.636,8.12,8.12  C312.81,250.745,302.145,261.411,289.034,261.411z"/>
<g>
</g>
<g>
</g>
<g>
</g>
<g>
</g>
<g>
</g>
<g>
</g>
<g>
</g>
<g>
</g>
<g>
</g>
<g>
</g>
<g>
</g>
<g>
</g>
<g>
</g>
<g>
</g>
<g>
</g>
</svg>
