<?xml version="1.0" encoding="iso-8859-1"?>
<!-- Generator: Adobe Illustrator 19.0.0, SVG Export Plug-In . SVG Version: 6.00 Build 0)  -->
<svg xmlns="http://www.w3.org/2000/svg" xmlns:xlink="http://www.w3.org/1999/xlink" version="1.1" id="Layer_1" x="0px" y="0px" viewBox="0 0 512 512" style="enable-background:new 0 0 512 512;" xml:space="preserve">
<path style="fill:#F3C74F;" d="M329.631,512c-12.181,0-22.056-9.874-22.056-22.055v-83.518c0-12.181,9.875-22.056,22.056-22.056  c12.181,0,22.055,9.875,22.055,22.056v83.518C351.685,502.126,341.812,512,329.631,512z"/>
<path style="opacity:0.2;enable-background:new    ;" d="M329.631,384.372c-12.181,0-22.056,9.875-22.056,22.056v46.256  c15.574-2.487,30.393-7.221,44.11-13.868v-32.388C351.685,394.246,341.812,384.372,329.631,384.372z"/>
<path style="fill:#F3C74F;" d="M234.793,512c-12.181,0-22.056-9.874-22.056-22.055v-83.518c0-12.181,9.874-22.056,22.056-22.056  s22.056,9.875,22.056,22.056v83.518C256.849,502.126,246.974,512,234.793,512z"/>
<path style="opacity:0.2;enable-background:new    ;" d="M234.793,384.372c-12.181,0-22.056,9.875-22.056,22.056v32.388  c13.717,6.646,28.537,11.381,44.11,13.868v-46.256C256.849,394.246,246.974,384.372,234.793,384.372z"/>
<path style="fill:#F3C74F;" d="M128.754,327.798c-20.594,0-39.838-6.847-54.67-20.026c-20.971-18.633-29.802-47.352-23.622-76.822  c2.5-11.922,14.191-19.561,26.111-17.06c11.922,2.5,19.56,14.19,17.06,26.111c-2.978,14.206,0.484,26.564,9.75,34.796  c10.43,9.267,26.688,11.426,43.491,5.772c11.546-3.886,24.053,2.326,27.938,13.87c3.885,11.545-2.326,24.053-13.87,27.938  C150.132,326.014,139.267,327.798,128.754,327.798z"/>
<path style="opacity:0.2;enable-background:new    ;" d="M174.811,294.44c-3.885-11.544-16.39-17.755-27.938-13.87  c-15.092,5.079-29.729,3.835-40.115-3.182c-0.025,1.151-0.044,2.298-0.044,3.436c0,15.874,2.348,31.199,6.699,45.661  c4.994,0.87,10.123,1.314,15.34,1.314c10.513-0.001,21.378-1.784,32.187-5.422C172.486,318.493,178.696,305.985,174.811,294.44z"/>
<path style="fill:#F3C74F;" d="M465.27,417.162c-12.181,0-22.055-9.874-22.055-22.055c0-19.685-1.112-35.202-6.542-46.952  c-7.085-15.331-21.462-21.831-33.197-25.779c-11.544-3.885-17.754-16.392-13.87-27.938c3.885-11.544,16.392-17.752,27.938-13.87  c64.389,21.666,69.782,70.481,69.782,114.538C487.325,407.289,477.451,417.162,465.27,417.162z"/>
<circle style="fill:#0081C6;" cx="404.39" cy="137.139" r="50.655"/>
<circle style="fill:#F3C74F;" cx="404.39" cy="137.139" r="23.649"/>
<circle style="fill:#0081C6;" cx="160.036" cy="137.139" r="50.655"/>
<circle style="fill:#F3C74F;" cx="160.036" cy="137.139" r="23.649"/>
<path style="opacity:0.2;enable-background:new    ;" d="M189.981,96.288c-23.816,21.525-44.017,51.156-58.366,82.784  c8.105,5.503,17.886,8.722,28.421,8.722c27.976,0,50.655-22.679,50.655-50.655C210.691,120.368,202.537,105.507,189.981,96.288z"/>
<path style="fill:#40BAB3;" d="M441.373,276.046c0-87.642-73.066-213.901-159.161-213.901S123.051,188.403,123.051,276.046  s71.259,158.69,159.161,158.69S441.373,363.688,441.373,276.046z"/>
<g>
	<path style="fill:#F0B0B7;" d="M202.656,257.503h-26.57c-4.484,0-8.12-3.636-8.12-8.12c0-4.484,3.636-8.12,8.12-8.12h26.57   c4.484,0,8.12,3.636,8.12,8.12S207.14,257.503,202.656,257.503z"/>
	<path style="fill:#F0B0B7;" d="M388.338,257.503h-26.57c-4.484,0-8.12-3.636-8.12-8.12c0-4.484,3.636-8.12,8.12-8.12h26.57   c4.484,0,8.12,3.636,8.12,8.12S392.823,257.503,388.338,257.503z"/>
</g>
<path style="fill:#FFFFFF;" d="M125.732,305.151c13.711,73.74,78.55,129.586,156.48,129.586s142.77-55.845,156.48-129.586H125.732z"/>
<path style="fill:#0081C6;" d="M153.907,369.943c28.968,39.289,75.646,64.793,128.305,64.793s99.336-25.504,128.305-64.793  L153.907,369.943L153.907,369.943z"/>
<path style="opacity:0.2;enable-background:new    ;" d="M299.089,417.858c-87.902,0-159.161-71.048-159.161-158.69  c0-52.764,26.489-119.511,66.352-164.291c-49.095,43.338-83.23,121.267-83.23,181.168c0,87.642,71.259,158.69,159.161,158.69  c48.329,0,91.622-21.482,120.813-55.386C375.139,403.346,338.815,417.858,299.089,417.858z"/>
<g>
	<path style="fill:#394049;" d="M189.371,222.888c-4.484,0-8.12-3.636-8.12-8.12v-4.357c0-4.484,3.636-8.12,8.12-8.12   c4.484,0,8.12,3.636,8.12,8.12v4.357C197.491,219.252,193.855,222.888,189.371,222.888z"/>
	<path style="fill:#394049;" d="M375.053,222.888c-4.484,0-8.12-3.636-8.12-8.12v-4.357c0-4.484,3.636-8.12,8.12-8.12   s8.12,3.636,8.12,8.12v4.357C383.173,219.252,379.538,222.888,375.053,222.888z"/>
	<path style="fill:#394049;" d="M297.802,245.27c-5.963,0-11.419-2.213-15.59-5.86c-4.171,3.647-9.628,5.86-15.59,5.86   c-13.074,0-23.71-10.636-23.71-23.71c0-4.484,3.636-8.12,8.12-8.12s8.12,3.636,8.12,8.12c0,4.119,3.351,7.47,7.47,7.47   c4.119,0,7.47-3.351,7.47-7.47c0-4.484,3.636-8.12,8.12-8.12s8.12,3.636,8.12,8.12c0,4.119,3.351,7.47,7.47,7.47   c4.119,0,7.47-3.351,7.47-7.47c0-4.484,3.636-8.12,8.12-8.12c4.484,0,8.12,3.636,8.12,8.12   C321.512,234.635,310.876,245.27,297.802,245.27z"/>
	<path style="fill:#394049;" d="M72.046,243.596c-4.484,0-8.12-3.636-8.12-8.12v-91.954c0-4.484,3.636-8.12,8.12-8.12   s8.12,3.636,8.12,8.12v91.954C80.166,239.96,76.531,243.596,72.046,243.596z"/>
</g>
<path style="fill:#E6595A;" d="M119.42,74.159c0-26.163-21.209-47.372-47.372-47.372S24.674,47.996,24.674,74.159  s21.21,68.261,47.373,68.261C98.21,142.42,119.42,100.322,119.42,74.159z"/>
<path style="opacity:0.2;enable-background:new    ;" d="M77.422,137.045c-26.163,0-47.372-42.098-47.372-68.261  c0-11.713,4.26-22.426,11.304-30.694c-10.201,8.689-16.679,21.619-16.679,36.069c0,26.163,21.209,68.261,47.373,68.261  c9.591,0,18.51-5.669,25.968-14.124C91.787,133.693,84.802,137.045,77.422,137.045z"/>
<path style="fill:#F3C74F;" d="M178.571,122.799h207.274c2.751,0,4.262-3.201,2.514-5.326L297.648,7.288  c-8-9.718-22.881-9.718-30.88,0l-90.711,110.186C174.309,119.598,175.82,122.799,178.571,122.799z"/>
<path style="opacity:0.25;fill:#FFFFFF;enable-background:new    ;" d="M83.369,28.157C73.309,32.632,66.29,42.708,66.29,54.429  c0,15.876,12.869,28.745,28.745,28.745c10.155,0,19.074-5.271,24.187-13.221C117.43,49.578,102.745,32.911,83.369,28.157z"/>
<path style="fill:#E6595A;" d="M302.933,13.707L178.235,114.831l-2.177,2.644c-1.748,2.124-0.237,5.326,2.514,5.326h42.359  l103.03-83.551L302.933,13.707z M348.164,68.65L281.389,122.8h52.522l35.279-28.61L348.164,68.65z"/>
<g>
</g>
<g>
</g>
<g>
</g>
<g>
</g>
<g>
</g>
<g>
</g>
<g>
</g>
<g>
</g>
<g>
</g>
<g>
</g>
<g>
</g>
<g>
</g>
<g>
</g>
<g>
</g>
<g>
</g>
</svg>
